<svg xmlns="http://www.w3.org/2000/svg" xmlns:xlink="http://www.w3.org/1999/xlink" viewBox="0 0 246.99 129.09"><defs><style>.cls-1,.cls-10,.cls-8{fill:none;}.cls-2{opacity:0.5;}.cls-3{clip-path:url(#clip-path);}.cls-4{fill:#ccc;}.cls-5{opacity:0.07;}.cls-6{clip-path:url(#clip-path-2);}.cls-7{fill:#fff;stroke-width:2.5px;}.cls-7,.cls-8,.cls-9{stroke:#000;}.cls-10,.cls-7,.cls-8,.cls-9{stroke-miterlimit:10;}.cls-9{fill:#395054;stroke-width:3px;}.cls-10{stroke:#fff;}</style><clipPath id="clip-path"><rect class="cls-1" x="-1911.45" y="128.06" width="1846.14" height="521.18"/></clipPath><clipPath id="clip-path-2"><rect class="cls-1" x="-1911.45" y="128.06" width="1846.14" height="520.35"/></clipPath></defs><g id="Streets" class="cls-2"><g class="cls-3"><polygon class="cls-4" points="-67.52 95.07 143.02 -17.52 72.01 -53.83 -142.22 58.37 -67.52 95.07"/><polygon class="cls-4" points="15.4 133.83 225.94 21.24 154.94 -15.07 -59.3 97.13 15.4 133.83"/></g></g><g id="Buildings_extra" class="cls-5"><g class="cls-6"><polygon class="cls-7" points="19.11 23.52 19.11 14.64 86.8 -21.78 104.74 -12.02 104.74 -3.13 37.67 33.29 19.11 23.52"/><polyline class="cls-8" points="23.36 17 37.88 24.76 101.01 -9.63"/><line class="cls-8" x1="37.82" y1="29.38" x2="37.82" y2="24.76"/><polygon class="cls-7" points="-45.18 12.32 -45.18 3.44 42.62 -45.56 57.73 -38.11 57.73 -29.23 -29.45 19.31 -45.18 12.32"/><polyline class="cls-8" points="-40.94 5.8 -29.25 10.78 54 -35.72"/><polygon class="cls-7" points="-9.36 31.73 -9.36 19.63 7.18 9.93 33.83 25.3 33.83 35.56 17.9 44.79 -9.36 31.73"/><polyline class="cls-8" points="-5.12 21.98 18.11 35.35 29.76 28.44"/><line class="cls-8" x1="18.06" y1="40.89" x2="18.06" y2="35.35"/><polygon class="cls-7" points="-60.83 68.09 -60.83 59.2 -3.36 27.53 14.58 37.75 14.58 46.63 -42.27 77.85 -60.83 68.09"/><polyline class="cls-8" points="-56.59 61.56 -42.07 69.32 10.86 40.14"/><polygon class="cls-7" points="136.64 1.59 136.64 -13.27 153.18 -22.5 173.97 -11.7 173.97 2.7 158.04 11.94 136.64 1.59"/><line class="cls-8" x1="158.19" y1="8.95" x2="158.19" y2="-1.19"/><polygon class="cls-7" points="156.65 15.69 156.65 6.8 183.09 -8.17 217.77 9.93 217.77 18.81 191.94 33.32 156.65 15.69"/><polyline class="cls-8" points="161.34 9.16 191.98 25.07 213.88 12.59"/><line class="cls-8" x1="191.93" y1="29.69" x2="191.93" y2="25.07"/><polygon class="cls-7" points="102.04 62.28 102.04 53.4 169.72 16.98 187.67 26.74 187.67 35.62 120.59 72.04 102.04 62.28"/><polyline class="cls-8" points="106.28 55.75 120.8 63.52 183.94 29.13"/><line class="cls-8" x1="120.75" y1="68.14" x2="120.75" y2="63.52"/><polygon class="cls-7" points="37.75 51.08 37.75 42.2 125.55 -6.8 140.66 0.65 140.66 9.53 53.47 58.07 37.75 51.08"/><polyline class="cls-8" points="41.99 44.55 53.67 49.54 136.93 3.03"/><line class="cls-8" x1="53.62" y1="54.16" x2="53.62" y2="49.54"/><polygon class="cls-7" points="15.13 61.11 15.13 46.71 31.67 37.01 49.49 45.76 49.49 60.16 33.56 69.4 15.13 61.11"/><polyline class="cls-8" points="19.37 49.06 33.77 55.35 45.42 48.91"/><line class="cls-8" x1="33.71" y1="65.49" x2="33.71" y2="55.35"/><polygon class="cls-7" points="73.57 70.49 73.57 58.39 90.11 48.69 116.75 64.05 116.75 74.31 100.83 83.55 73.57 70.49"/><polyline class="cls-8" points="77.81 60.74 101.03 74.1 112.69 67.2"/><line class="cls-8" x1="100.98" y1="79.65" x2="100.98" y2="74.1"/><polygon class="cls-7" points="-24.74 83.32 -24.74 74.43 12.68 53.76 30.5 62.51 30.5 71.39 -6.31 91.61 -24.74 83.32"/><polyline class="cls-8" points="-20.5 76.79 -6.1 83.08 26.77 64.9"/><polygon class="cls-7" points="22.09 106.85 22.09 97.96 79.56 66.29 97.51 76.51 97.51 85.39 40.65 116.61 22.09 106.85"/><polyline class="cls-8" points="26.34 100.32 40.85 108.08 93.78 78.9"/><line class="cls-8" x1="40.8" y1="112.7" x2="40.8" y2="108.08"/><polygon class="cls-7" points="-49.81 97.61 -49.81 88.72 -28.06 76.62 36.32 108.91 36.32 117.8 15.18 129.44 -49.81 97.61"/><polyline class="cls-8" points="-45.57 91.08 15.39 120.91 32.64 111.36"/><line class="cls-8" x1="15.33" y1="125.53" x2="15.33" y2="120.91"/></g></g><g id="Buildings_AYPP"><path class="cls-9" d="M232.67,54.53c-.06-.82-.93-1.53-3.21-4.41-2.14-2.7-9-7-18.15-11.91V33.12L182.37,18.55l-11.58,5.89S132.46,3.5,126.18,2.66C94.55-1.58,60.67,36,60.67,36a54.57,54.57,0,0,0-3.52,5.88C32.69,56.31,8.46,71.1,6.08,74.28,1.15,80.87,1.43,75.77,13.45,100,22.24,117.63,32,119.19,63.5,119.19v7.58h65.89L163.56,109,218,94.88l25.19-13.36.71-19.89ZM41.21,100.74c-3.67,3.78-9.36.41-15.58-5.33s-10.39-17.7-5.12-18.53C26.75,75.9,33.82,81,40,86.77S44.88,97,41.21,100.74Z"/><polyline class="cls-10" points="66.83 119.19 130.02 119.19 216.4 79.89 222.71 82.92 240.5 74.6"/><path class="cls-10" d="M64,111.78c-31.53,0-41.26-1.56-50.06-19.25L7.69,79.33"/><polyline class="cls-10" points="63.98 111.78 130.49 111.78 216.4 72.47 222.57 75.32 240.5 66.71"/><path class="cls-10" d="M50.89,48.56C48.29,57.05,38.4,90.09,101.1,100c0,0-15.68,4.22-39.4,4.22"/><path class="cls-10" d="M123.54,89.29S94.74,95.7,69.43,76.61C54.75,65.54,56,53.92,59.52,44.1"/><path class="cls-10" d="M73.4,111.78c42.71,0,54.43-5.4,58.83-7.15L229,56.38"/><path class="cls-10" d="M227.43,53.05S196.15,35.78,123.54,89.29"/></g></svg>