<svg xmlns="http://www.w3.org/2000/svg" xmlns:xlink="http://www.w3.org/1999/xlink" viewBox="0 0 154.47 177.86"><defs><style>.cls-1,.cls-7{fill:none;stroke:#fff;stroke-miterlimit:10;}.cls-1{stroke-width:3px;}.cls-2{opacity:0.5;}.cls-3{opacity:0.07;}.cls-4{clip-path:url(#clip-path);}.cls-5{fill:#dc4230;}.cls-6{fill:#5cb867;}</style><clipPath id="clip-path"><polygon class="cls-1" points="31.25 107.14 31.25 57.04 49.02 46.67 50.47 47.98 54.35 46.67 69.38 59.6 68.04 63.87 80.8 75.41 80.94 104.36 83.08 105.53 89.03 102.19 89.04 99.83 105.65 90.56 124.42 100.32 124.67 117.91 75.9 144.21 64.57 138.23 64.57 134.06 31.25 107.14"/></clipPath></defs><g id="Buildings_AYPP"><g class="cls-4"><rect class="cls-5" width="154.47" height="177.86"/><path class="cls-6" d="M81.77,61.75a.39.39,0,0,0,.38-.39.39.39,0,1,0-.77,0A.39.39,0,0,0,81.77,61.75Z"/><path class="cls-6" d="M85.5,61.79a.43.43,0,0,0,0-.86.43.43,0,1,0,0,.86Z"/><path class="cls-6" d="M89.23,61.84a.49.49,0,0,0,.48-.48.48.48,0,0,0-.48-.48.47.47,0,0,0-.48.48A.48.48,0,0,0,89.23,61.84Z"/><path class="cls-6" d="M93,61.86a.5.5,0,0,0,0-1,.5.5,0,0,0,0,1Z"/><circle class="cls-6" cx="96.69" cy="61.36" r="0.52"/><path class="cls-6" d="M100.42,61.86a.5.5,0,0,0,0-1,.5.5,0,0,0,0,1Z"/><circle class="cls-6" cx="104.15" cy="61.36" r="0.45"/><path class="cls-6" d="M107.88,61.73a.37.37,0,0,0,.37-.37.38.38,0,1,0-.75,0A.37.37,0,0,0,107.88,61.73Z"/><path class="cls-6" d="M74.31,65.5a.41.41,0,0,0,.4-.41.41.41,0,1,0-.81,0A.41.41,0,0,0,74.31,65.5Z"/><path class="cls-6" d="M78,65.63a.54.54,0,1,0,0-1.08.54.54,0,1,0,0,1.08Z"/><path class="cls-6" d="M81.77,65.73a.64.64,0,1,0-.64-.64A.64.64,0,0,0,81.77,65.73Z"/><path class="cls-6" d="M85.5,65.83a.74.74,0,1,0,0-1.48.74.74,0,1,0,0,1.48Z"/><path class="cls-6" d="M89.23,65.87a.78.78,0,0,0,.78-.78.79.79,0,1,0-.78.78Z"/><path class="cls-6" d="M93,65.9a.81.81,0,0,0,.81-.81.82.82,0,0,0-.81-.82.82.82,0,0,0-.82.82A.82.82,0,0,0,93,65.9Z"/><path class="cls-6" d="M96.69,65.88a.79.79,0,0,0,.79-.79.79.79,0,0,0-.79-.8.8.8,0,0,0-.8.8A.79.79,0,0,0,96.69,65.88Z"/><path class="cls-6" d="M100.42,65.84a.75.75,0,1,0-.76-.75A.76.76,0,0,0,100.42,65.84Z"/><path class="cls-6" d="M104.15,65.81a.72.72,0,1,0-.72-.72A.72.72,0,0,0,104.15,65.81Z"/><path class="cls-6" d="M107.88,65.71a.62.62,0,0,0,0-1.24.62.62,0,1,0,0,1.24Z"/><path class="cls-6" d="M111.61,65.61a.52.52,0,1,0,0-1,.52.52,0,1,0,0,1Z"/><path class="cls-6" d="M115.34,65.5a.41.41,0,0,0,.4-.41.41.41,0,1,0-.81,0A.41.41,0,0,0,115.34,65.5Z"/><path class="cls-6" d="M66.85,69.21a.39.39,0,0,0,.38-.39.39.39,0,1,0-.77,0A.39.39,0,0,0,66.85,69.21Z"/><path class="cls-6" d="M70.58,69.34a.52.52,0,1,0,0-1,.52.52,0,1,0,0,1Z"/><path class="cls-6" d="M74.31,69.49a.67.67,0,1,0-.67-.67A.67.67,0,0,0,74.31,69.49Z"/><path class="cls-6" d="M78,69.64a.83.83,0,1,0-.83-.82A.82.82,0,0,0,78,69.64Z"/><path class="cls-6" d="M81.77,69.78a1,1,0,1,0-1-1A1,1,0,0,0,81.77,69.78Z"/><path class="cls-6" d="M85.5,69.89a1.08,1.08,0,1,0-1.08-1.07A1.07,1.07,0,0,0,85.5,69.89Z"/><path class="cls-6" d="M89.23,70a1.14,1.14,0,1,0-1.14-1.14A1.14,1.14,0,0,0,89.23,70Z"/><path class="cls-6" d="M93,70a1.19,1.19,0,1,0-1.19-1.19A1.19,1.19,0,0,0,93,70Z"/><path class="cls-6" d="M96.69,70a1.18,1.18,0,1,0-1.18-1.18A1.18,1.18,0,0,0,96.69,70Z"/><path class="cls-6" d="M100.42,70a1.13,1.13,0,1,0-1.13-1.13A1.14,1.14,0,0,0,100.42,70Z"/><circle class="cls-6" cx="104.15" cy="68.82" r="1.07"/><path class="cls-6" d="M107.88,69.75a.93.93,0,1,0-.93-.93A.93.93,0,0,0,107.88,69.75Z"/><path class="cls-6" d="M111.61,69.64a.83.83,0,1,0-.83-.82A.82.82,0,0,0,111.61,69.64Z"/><path class="cls-6" d="M115.34,69.49a.67.67,0,1,0-.67-.67A.67.67,0,0,0,115.34,69.49Z"/><path class="cls-6" d="M119.07,69.23a.41.41,0,0,0,.4-.41.41.41,0,1,0-.81,0A.41.41,0,0,0,119.07,69.23Z"/><path class="cls-6" d="M66.85,73.15a.61.61,0,1,0-.61-.6A.6.6,0,0,0,66.85,73.15Z"/><path class="cls-6" d="M70.58,73.34a.79.79,0,0,0,.79-.79.79.79,0,0,0-.79-.8.8.8,0,0,0-.8.8A.79.79,0,0,0,70.58,73.34Z"/><path class="cls-6" d="M74.31,73.56a1,1,0,1,0-1-1A1,1,0,0,0,74.31,73.56Z"/><path class="cls-6" d="M78,73.75a1.2,1.2,0,1,0-1.2-1.2A1.2,1.2,0,0,0,78,73.75Z"/><path class="cls-6" d="M81.77,73.92a1.37,1.37,0,1,0-1.37-1.37A1.38,1.38,0,0,0,81.77,73.92Z"/><path class="cls-6" d="M85.5,74a1.49,1.49,0,0,0,0-3,1.49,1.49,0,1,0,0,3Z"/><path class="cls-6" d="M89.23,74.12a1.57,1.57,0,1,0-1.57-1.57A1.57,1.57,0,0,0,89.23,74.12Z"/><path class="cls-6" d="M100.42,74.11a1.56,1.56,0,1,0-1.56-1.56A1.55,1.55,0,0,0,100.42,74.11Z"/><path class="cls-6" d="M104.15,74a1.47,1.47,0,1,0-1.48-1.47A1.47,1.47,0,0,0,104.15,74Z"/><path class="cls-6" d="M107.88,73.88a1.33,1.33,0,1,0-1.33-1.33A1.33,1.33,0,0,0,107.88,73.88Z"/><path class="cls-6" d="M111.61,73.67a1.12,1.12,0,1,0-1.12-1.12A1.12,1.12,0,0,0,111.61,73.67Z"/><path class="cls-6" d="M115.34,73.48a.93.93,0,1,0-.93-.93A.93.93,0,0,0,115.34,73.48Z"/><path class="cls-6" d="M119.07,73.17a.62.62,0,0,0,0-1.24.62.62,0,0,0,0,1.24Z"/><path class="cls-6" d="M122.8,73a.45.45,0,1,0-.45-.45A.45.45,0,0,0,122.8,73Z"/><path class="cls-6" d="M59.39,76.64a.36.36,0,0,0,.36-.36.37.37,0,1,0-.73,0A.36.36,0,0,0,59.39,76.64Z"/><path class="cls-6" d="M63.12,76.88a.61.61,0,1,0-.61-.6A.6.6,0,0,0,63.12,76.88Z"/><path class="cls-6" d="M66.85,77.3a1,1,0,1,0-1-1A1,1,0,0,0,66.85,77.3Z"/><circle class="cls-6" cx="70.58" cy="76.28" r="1.26"/><path class="cls-6" d="M74.31,77.81a1.54,1.54,0,1,0-1.54-1.53A1.53,1.53,0,0,0,74.31,77.81Z"/><path class="cls-6" d="M111.61,77.91A1.63,1.63,0,1,0,110,76.28,1.63,1.63,0,0,0,111.61,77.91Z"/><path class="cls-6" d="M115.34,77.68a1.4,1.4,0,1,0-1.4-1.4A1.4,1.4,0,0,0,115.34,77.68Z"/><path class="cls-6" d="M119.07,77.3a1,1,0,1,0-1-1A1,1,0,0,0,119.07,77.3Z"/><path class="cls-6" d="M122.8,77.06a.78.78,0,1,0-.79-.78A.78.78,0,0,0,122.8,77.06Z"/><path class="cls-6" d="M126.53,76.8a.52.52,0,0,0,0-1,.52.52,0,1,0,0,1Z"/><path class="cls-6" d="M59.39,80.55a.54.54,0,0,0,0-1.08.54.54,0,1,0,0,1.08Z"/><circle class="cls-6" cx="63.12" cy="80.01" r="0.85"/><path class="cls-6" d="M66.85,81.26A1.26,1.26,0,1,0,65.59,80,1.25,1.25,0,0,0,66.85,81.26Z"/><path class="cls-6" d="M70.58,81.58A1.57,1.57,0,1,0,69,80,1.57,1.57,0,0,0,70.58,81.58Z"/><path class="cls-6" d="M115.34,81.73A1.73,1.73,0,1,0,113.61,80,1.72,1.72,0,0,0,115.34,81.73Z"/><path class="cls-6" d="M119.07,81.37A1.36,1.36,0,1,0,117.71,80,1.36,1.36,0,0,0,119.07,81.37Z"/><path class="cls-6" d="M122.8,81.05a1,1,0,0,0,0-2.09,1,1,0,1,0,0,2.09Z"/><path class="cls-6" d="M126.53,80.74a.73.73,0,0,0,0-1.46.73.73,0,1,0,0,1.46Z"/><path class="cls-6" d="M130.26,80.48a.47.47,0,1,0-.47-.47A.47.47,0,0,0,130.26,80.48Z"/><path class="cls-6" d="M55.66,84.18a.44.44,0,0,0,0-.88.44.44,0,1,0,0,.88Z"/><path class="cls-6" d="M59.39,84.44a.7.7,0,1,0-.7-.7A.7.7,0,0,0,59.39,84.44Z"/><path class="cls-6" d="M63.12,84.77a1,1,0,0,0,0-2.07,1,1,0,1,0,0,2.07Z"/><path class="cls-6" d="M66.85,85.27a1.54,1.54,0,1,0-1.54-1.53A1.53,1.53,0,0,0,66.85,85.27Z"/><path class="cls-6" d="M119.07,85.35a1.61,1.61,0,1,0-1.61-1.61A1.61,1.61,0,0,0,119.07,85.35Z"/><path class="cls-6" d="M122.8,85a1.28,1.28,0,1,0-1.28-1.27A1.27,1.27,0,0,0,122.8,85Z"/><path class="cls-6" d="M126.53,84.65a.91.91,0,1,0-.91-.91A.91.91,0,0,0,126.53,84.65Z"/><path class="cls-6" d="M130.26,84.36a.62.62,0,0,0,0-1.24.62.62,0,0,0,0,1.24Z"/><path class="cls-6" d="M134,84.13a.39.39,0,1,0-.39-.39A.39.39,0,0,0,134,84.13Z"/><path class="cls-6" d="M55.66,88a.54.54,0,0,0,0-1.08.54.54,0,1,0,0,1.08Z"/><path class="cls-6" d="M59.39,88.33a.86.86,0,1,0-.86-.86A.86.86,0,0,0,59.39,88.33Z"/><path class="cls-6" d="M63.12,88.71a1.24,1.24,0,1,0-1.25-1.24A1.24,1.24,0,0,0,63.12,88.71Z"/><path class="cls-6" d="M122.8,88.92a1.45,1.45,0,1,0-1.46-1.45A1.45,1.45,0,0,0,122.8,88.92Z"/><path class="cls-6" d="M126.53,88.57a1.1,1.1,0,1,0-1.1-1.1A1.1,1.1,0,0,0,126.53,88.57Z"/><path class="cls-6" d="M130.26,88.24a.77.77,0,1,0-.78-.77A.77.77,0,0,0,130.26,88.24Z"/><path class="cls-6" d="M134,88a.49.49,0,0,0,.48-.48A.48.48,0,0,0,134,87a.47.47,0,0,0-.48.48A.48.48,0,0,0,134,88Z"/><path class="cls-6" d="M51.93,91.62a.42.42,0,0,0,0-.84.42.42,0,1,0,0,.84Z"/><path class="cls-6" d="M55.66,91.86A.66.66,0,1,0,55,91.2.66.66,0,0,0,55.66,91.86Z"/><path class="cls-6" d="M59.39,92.19a1,1,0,1,0-1-1A1,1,0,0,0,59.39,92.19Z"/><path class="cls-6" d="M63.12,92.6a1.4,1.4,0,1,0-1.4-1.4A1.4,1.4,0,0,0,63.12,92.6Z"/><path class="cls-6" d="M122.8,92.84a1.64,1.64,0,1,0-1.64-1.64A1.65,1.65,0,0,0,122.8,92.84Z"/><path class="cls-6" d="M126.53,92.46a1.27,1.27,0,0,0,0-2.53,1.27,1.27,0,1,0,0,2.53Z"/><path class="cls-6" d="M130.26,92.12a.92.92,0,1,0-.92-.92A.92.92,0,0,0,130.26,92.12Z"/><path class="cls-6" d="M134,91.77a.57.57,0,0,0,.57-.57.58.58,0,1,0-1.15,0A.57.57,0,0,0,134,91.77Z"/><circle class="cls-6" cx="51.93" cy="94.93" r="0.43"/><circle class="cls-6" cx="55.66" cy="94.93" r="0.75"/><path class="cls-6" d="M59.39,96a1.11,1.11,0,1,0-1.11-1.11A1.11,1.11,0,0,0,59.39,96Z"/><path class="cls-6" d="M63.12,96.48a1.55,1.55,0,1,0-1.55-1.55A1.55,1.55,0,0,0,63.12,96.48Z"/><path class="cls-6" d="M126.53,96.34a1.41,1.41,0,1,0-1.41-1.41A1.41,1.41,0,0,0,126.53,96.34Z"/><path class="cls-6" d="M130.26,95.94a1,1,0,1,0-1-1A1,1,0,0,0,130.26,95.94Z"/><path class="cls-6" d="M134,95.6a.67.67,0,1,0-.67-.67A.67.67,0,0,0,134,95.6Z"/><path class="cls-6" d="M137.72,95.3a.37.37,0,0,0,.37-.37.38.38,0,1,0-.75,0A.37.37,0,0,0,137.72,95.3Z"/><path class="cls-6" d="M51.93,99.13a.47.47,0,1,0-.47-.47A.47.47,0,0,0,51.93,99.13Z"/><path class="cls-6" d="M55.66,99.46a.81.81,0,1,0-.81-.8A.8.8,0,0,0,55.66,99.46Z"/><path class="cls-6" d="M59.39,99.82a1.16,1.16,0,1,0-1.16-1.16A1.16,1.16,0,0,0,59.39,99.82Z"/><circle class="cls-6" cx="63.12" cy="98.66" r="1.6"/><path class="cls-6" d="M126.53,100.12a1.46,1.46,0,1,0-1.47-1.46A1.46,1.46,0,0,0,126.53,100.12Z"/><path class="cls-6" d="M130.26,99.72a1.07,1.07,0,0,0,0-2.13,1.07,1.07,0,1,0,0,2.13Z"/><path class="cls-6" d="M134,99.38a.72.72,0,1,0-.72-.72A.72.72,0,0,0,134,99.38Z"/><path class="cls-6" d="M137.72,99.08a.42.42,0,1,0-.42-.42A.42.42,0,0,0,137.72,99.08Z"/><path class="cls-6" d="M51.93,101.87a.52.52,0,1,0,0,1,.52.52,0,1,0,0-1Z"/><circle class="cls-6" cx="55.66" cy="102.39" r="0.85"/><path class="cls-6" d="M59.39,101.19a1.2,1.2,0,1,0,1.2,1.2A1.2,1.2,0,0,0,59.39,101.19Z"/><path class="cls-6" d="M124.69,102.39a1.88,1.88,0,0,0-3.58-.82,2.2,2.2,0,0,0-1-1.07,2.08,2.08,0,0,0,1-1.17,1.84,1.84,0,1,0,0-1.34,2.08,2.08,0,0,0-1-1.23,2,2,0,0,0,1-1.47,1.74,1.74,0,0,0,1.7,1.4,1.77,1.77,0,1,0-1.7-2.12A2.06,2.06,0,0,0,119.9,93a2,2,0,0,0-.68-3.75,1.79,1.79,0,0,0-.15-3.58,1.81,1.81,0,0,0-1.69,1.19,2.13,2.13,0,0,0-1.16-1.36,2,2,0,0,0,1.1-1.75,2,2,0,0,0-3.71-.93,2.22,2.22,0,0,0-1.09-1.09,1.93,1.93,0,0,0,1-1.71,1.95,1.95,0,0,0-3.7-.87A2.16,2.16,0,0,0,108.63,78a1.87,1.87,0,0,0-.75-3.58,1.83,1.83,0,0,0-1.8,1.51,2,2,0,0,0-3.75-.46,2.09,2.09,0,0,0-1.91-1.26,2,2,0,0,0-1.83,1.14,2.12,2.12,0,0,0-1.8-1.18,1.63,1.63,0,1,0-.21,0,2.11,2.11,0,0,0-1.77,1.14A2.11,2.11,0,0,0,93,74.16a1.62,1.62,0,1,0-1.64-1.61A1.62,1.62,0,0,0,93,74.16a2.1,2.1,0,0,0-1.86,1.2,2.06,2.06,0,0,0-3.74.08,2,2,0,0,0-3.75.3,1.89,1.89,0,0,0-1.81-1.38,1.93,1.93,0,0,0-1.93,1.92,1.9,1.9,0,0,0,1,1.68A2.2,2.2,0,0,0,79.78,79a2,2,0,0,0-1.64-1,1.72,1.72,0,0,0,1.64-1.72,1.75,1.75,0,1,0-3.49,0A1.72,1.72,0,0,0,77.93,78a2,2,0,0,0-1.86,1.7,1.79,1.79,0,0,0-1.76-1.52A1.83,1.83,0,0,0,72.48,80a1.81,1.81,0,0,0,1.39,1.74,2,2,0,0,0-1.55,1.55,1.81,1.81,0,0,0-1.74-1.39,1.83,1.83,0,0,0-1.83,1.83,1.79,1.79,0,0,0,1.46,1.75,2,2,0,0,0-1.64,1.77,1.76,1.76,0,1,0,0,.42,2,2,0,0,0,1.05,1.57,2.16,2.16,0,0,0-1.06,1.09A1.92,1.92,0,1,0,66.3,93a2,2,0,0,0-.3,3.72,2.08,2.08,0,0,0-.13,3.75,2.14,2.14,0,0,0-1.15,1.72,1.62,1.62,0,0,0-1.6-1.46,1.64,1.64,0,0,0,0,3.28,1.62,1.62,0,0,0,1.6-1.46,2.15,2.15,0,0,0,1.13,1.71,2.09,2.09,0,0,0-1.11,1.79,1.63,1.63,0,1,0,0,.1A2.1,2.1,0,0,0,65.9,108a2.08,2.08,0,0,0,.08,3.77,2,2,0,0,0-1.16,1.82,2,2,0,0,0,1.56,1.93,1.86,1.86,0,0,0-1.42,1.8,1.89,1.89,0,0,0,3.61.77,2.17,2.17,0,0,0,1.15,1.21,2,2,0,1,0,2.58,2.64A2.18,2.18,0,0,0,73.36,123a2,2,0,0,0-1,1.6A1.74,1.74,0,0,0,70.58,123a1.77,1.77,0,1,0,0,3.53,1.74,1.74,0,0,0,1.73-1.61,2,2,0,0,0,2,1.88,2,2,0,0,0,1.74-1.06,2.19,2.19,0,0,0,1.29,1.11,1.79,1.79,0,0,0,.7,3.44,1.78,1.78,0,0,0,1.77-1.71,2,2,0,0,0,2,1.89,2,2,0,0,0,1.81-1.19,2,2,0,0,0,1.68,1.25,1.75,1.75,0,1,0,.47,0,2,2,0,0,0,1.59-1.09,2.14,2.14,0,0,0,1.31,1.08,1.84,1.84,0,1,0,1.19,0,2.08,2.08,0,0,0,1.25-1,2.15,2.15,0,0,0,1.11,1,1.89,1.89,0,1,0,2.65,1.82,1.87,1.87,0,1,0,2.62-1.81,2.19,2.19,0,0,0,1.13-1,2.05,2.05,0,0,0,1.29,1,1.8,1.8,0,0,0-1.27,1.71,1.82,1.82,0,1,0,3.63,0,1.8,1.8,0,0,0-1.27-1.71,2.09,2.09,0,0,0,1.36-1.1,2,2,0,0,0,1.65,1.11,1.73,1.73,0,1,0,.36,0,2,2,0,0,0,1.76-1.41,1.89,1.89,0,0,0,1.79,1.29,1.92,1.92,0,0,0,1.91-1.91,1.87,1.87,0,0,0-1-1.64,2.31,2.31,0,0,0,1-1,2.12,2.12,0,0,0,1.42.95,1.7,1.7,0,0,0-1.36,1.65,1.73,1.73,0,0,0,3.45,0,1.7,1.7,0,0,0-1.36-1.65,2.16,2.16,0,0,0,1.63-1.27,1.9,1.9,0,0,0,1.74,1.12,1.93,1.93,0,0,0,1.93-1.93A1.91,1.91,0,0,0,116.1,123a2.07,2.07,0,0,0,1.28-1.65,1.73,1.73,0,0,0,3.43-.31,1.73,1.73,0,0,0-3.43-.31,2,2,0,0,0-.95-1.45,2.35,2.35,0,0,0,1-1,1.91,1.91,0,0,0,1.66,1,1.93,1.93,0,0,0,.7-3.74,2,2,0,0,0,1.33-1.75,1.71,1.71,0,0,0,1.7,1.55,1.74,1.74,0,1,0-1.7-1.91,2.05,2.05,0,0,0-1.09-1.64,2.12,2.12,0,0,0,1.09-1.32,1.8,1.8,0,0,0,1.7,1.23,1.82,1.82,0,1,0,0-3.64,1.81,1.81,0,0,0-1.7,1.22,2.1,2.1,0,0,0-1-1.25,2.15,2.15,0,0,0,1-1.13,1.86,1.86,0,1,0,1.75-2.6A1.89,1.89,0,0,0,124.69,102.39Zm-7.3,10a2.27,2.27,0,0,0-.58-.69,2.63,2.63,0,0,0,.57-.63,2,2,0,0,0,.75.64A2,2,0,0,0,117.39,112.44Zm-3.79,7.47a2.26,2.26,0,0,0-.54-.65,2.61,2.61,0,0,0,.52-.53,2.48,2.48,0,0,0,.66.55A2,2,0,0,0,113.6,119.91Zm-3.78,3.73a2.13,2.13,0,0,0-.55-.64,2.31,2.31,0,0,0,.54-.54,2.21,2.21,0,0,0,.63.55A2.07,2.07,0,0,0,109.82,123.64Zm-3.73-.24a2.33,2.33,0,0,0-.38-.45,2.13,2.13,0,0,0,.34-.33,2.67,2.67,0,0,0,.44.38A2.52,2.52,0,0,0,106.09,123.4Zm-3.79-.15a3.22,3.22,0,0,0-.24-.28l.26-.24a2.75,2.75,0,0,0,.26.22A2.68,2.68,0,0,0,102.3,123.25Zm-7.48,4.2a2.06,2.06,0,0,0-.54-.63,2.35,2.35,0,0,0,.54-.45,2.58,2.58,0,0,0,.54.45A2.06,2.06,0,0,0,94.82,127.45Zm-11.24-4.13a2.5,2.5,0,0,0-.32-.33,2.59,2.59,0,0,0,.35-.31,1.86,1.86,0,0,0,.29.27A2.24,2.24,0,0,0,83.58,123.32Zm-3.75.2a2.38,2.38,0,0,0-.52-.53,2.75,2.75,0,0,0,.52-.44,2.34,2.34,0,0,0,.45.44A2.3,2.3,0,0,0,79.83,123.52Zm-3.76-3.73a1.84,1.84,0,0,0-.52-.52,2.58,2.58,0,0,0,.54-.45,2,2,0,0,0,.43.43A2.58,2.58,0,0,0,76.07,119.79Zm-3.75-3.69a2,2,0,0,0-.61-.59,2.09,2.09,0,0,0,.63-.55,2.56,2.56,0,0,0,.51.53A2.59,2.59,0,0,0,72.32,116.1Zm-3.76-3.53a2,2,0,0,0-.85-.81,2.11,2.11,0,0,0,.86-.76,2.35,2.35,0,0,0,.71.76A2.25,2.25,0,0,0,68.56,112.57Zm0-16.63a2.36,2.36,0,0,0,.72.82,2.35,2.35,0,0,0-.71.76,2.12,2.12,0,0,0-.87-.78A1.9,1.9,0,0,0,68.55,95.94Zm3.77-7.46a2.19,2.19,0,0,0,.69.79,2.21,2.21,0,0,0-.67.69,2.13,2.13,0,0,0-.81-.71A2,2,0,0,0,72.32,88.48Zm3.74-3.69a2.33,2.33,0,0,0,.63.73,2.52,2.52,0,0,0-.61.61,2.21,2.21,0,0,0-.73-.63A2.19,2.19,0,0,0,76.06,84.79Zm3.77.27a2.12,2.12,0,0,0,.38.46,3.41,3.41,0,0,0-.38.38,2.06,2.06,0,0,0-.45-.38A2.18,2.18,0,0,0,79.83,85.06Zm3.77-3.85a2.13,2.13,0,0,0,.51.57,2.33,2.33,0,0,0-.51.48,2.27,2.27,0,0,0-.54-.48A2.1,2.1,0,0,0,83.6,81.21Zm3.71.12a2.21,2.21,0,0,0,.4.46,2.72,2.72,0,0,0-.39.37,2,2,0,0,0-.43-.38A2.24,2.24,0,0,0,87.31,81.33Zm3.76.11a2.11,2.11,0,0,0,.31.36,4,4,0,0,0-.31.27,2.31,2.31,0,0,0-.33-.28A1.83,1.83,0,0,0,91.07,81.44Zm3.77,0a2,2,0,0,0,.31.34,2.79,2.79,0,0,0-.32.28,1.82,1.82,0,0,0-.29-.27A1.68,1.68,0,0,0,94.84,81.45Zm3.74-.07a3,3,0,0,0,.38.41,2,2,0,0,0-.38.33,2.82,2.82,0,0,0-.36-.33A2.35,2.35,0,0,0,98.58,81.38Zm3.73-.08a2.27,2.27,0,0,0,.45.48,2.54,2.54,0,0,0-.46.4,2.66,2.66,0,0,0-.43-.39A2.57,2.57,0,0,0,102.31,81.3Zm3.77-.14a2.05,2.05,0,0,0,.6.61,2.59,2.59,0,0,0-.61.53,2.61,2.61,0,0,0-.53-.52A2.14,2.14,0,0,0,106.08,81.16ZM109.81,85a1.94,1.94,0,0,0,.51.52,2.25,2.25,0,0,0-.52.45,2.29,2.29,0,0,0-.45-.43A2.63,2.63,0,0,0,109.81,85Zm3.79,3.73a2,2,0,0,0,.57.54,2.21,2.21,0,0,0-.59.5,2.56,2.56,0,0,0-.46-.47A2.17,2.17,0,0,0,113.6,88.71Zm3.79,3.49a2,2,0,0,0,.85.79,2.16,2.16,0,0,0-.85.71,2.45,2.45,0,0,0-.65-.71A2.18,2.18,0,0,0,117.39,92.2Zm0,8.85a2.3,2.3,0,0,0-.45-.53,2.3,2.3,0,0,0,.47-.56,2.14,2.14,0,0,0,.62.54A2.11,2.11,0,0,0,117.36,101.05Zm-3.8,11a1.78,1.78,0,0,0-.21-.27,2.39,2.39,0,0,0,.22-.23,3.4,3.4,0,0,0,.3.23A4,4,0,0,0,113.56,112Zm-3.75,7.59a2,2,0,0,0-.3-.36,2.57,2.57,0,0,0,.29-.28,1.93,1.93,0,0,0,.35.29A2.24,2.24,0,0,0,109.81,119.61Zm-15,3.56a1.63,1.63,0,0,0-.17-.2l.18-.16L95,123C94.93,123,94.88,123.1,94.82,123.17ZM72.34,96.34a2.48,2.48,0,0,0,.37.43,2.64,2.64,0,0,0-.36.39,2.26,2.26,0,0,0-.47-.4A2.64,2.64,0,0,0,72.34,96.34Zm3.74-7.54a2.32,2.32,0,0,0,.4.48,2.46,2.46,0,0,0-.39.4,2.43,2.43,0,0,0-.49-.41A2.38,2.38,0,0,0,76.08,88.8Zm7.52-3.58a2.34,2.34,0,0,0,.25.3,1.81,1.81,0,0,0-.24.24,3.36,3.36,0,0,0-.29-.24A2,2,0,0,0,83.6,85.22Zm22.47,0a2.24,2.24,0,0,0,.34.35,2.18,2.18,0,0,0-.34.26,2.23,2.23,0,0,0-.27-.26A1.82,1.82,0,0,0,106.07,85.17Zm7.5,23a2,2,0,0,0-.19-.22l.15-.17c.08.08.17.14.25.21A1.81,1.81,0,0,0,113.57,108.18Zm-3.77,7.47-.17-.19a.93.93,0,0,0,.14-.14c.06.06.13.1.2.16S109.85,115.59,109.8,115.65Zm-15,3.62,0-.06,0,0,.05,0ZM72,108a3.34,3.34,0,0,0,.4-.35,2.51,2.51,0,0,0,.31.35,1.79,1.79,0,0,0-.31.36A2.71,2.71,0,0,0,72,108Zm.39-7.84a2.52,2.52,0,0,0,.3.35,2.14,2.14,0,0,0-.28.32,3.17,3.17,0,0,0-.39-.34A1.94,1.94,0,0,0,72.35,100.16Zm3.74-7.44a3.5,3.5,0,0,0,.24.3,1.75,1.75,0,0,0-.23.24,2.42,2.42,0,0,0-.31-.25A2.06,2.06,0,0,0,76.09,92.72Zm7.52-3.54.09.11-.08.08-.11-.09S83.57,89.21,83.61,89.18Zm30.19,7.6a1.78,1.78,0,0,0-.26.22,1.34,1.34,0,0,0-.2-.21,1.51,1.51,0,0,0,.21-.23Zm-4,11.26-.05-.05a.27.27,0,0,0,.07-.08l.06,0A.6.6,0,0,0,109.76,108Zm-33.64-7.67.13.15-.12.13-.17-.14ZM83.62,93v0h0Zm26.16,11.31-.06-.08.06-.07.08.07A.6.6,0,0,1,109.78,104.33ZM106,108h0ZM76,104.26l.16-.13.11.12-.12.14Zm3.89-3.78,0,0s0,0,0,0l-.05,0ZM106,104.25Zm-26.2,0,0,0,0,0s0,0,0,0S79.84,104.27,79.83,104.25ZM106,100.52h0Zm0-3.73h0ZM79.83,108l0,0,0,0s0,0,0,0Zm30-7.38-.06-.08.06-.07.08.07A.6.6,0,0,1,109.78,100.6Zm.09-3.81-.09.08-.06-.08.07-.08ZM106.08,93l0,0h0l0,0ZM79.89,96.79l0,0-.06,0,0,0S79.88,96.78,79.89,96.79Zm-4,11.21c.06-.06.13-.09.18-.15l.12.13-.13.15A1.09,1.09,0,0,0,75.94,108Zm3.86,3.73.07,0a.12.12,0,0,0,0,0s0,0,0,.06Zm3.82,0Zm22.39,0,0,0s0,0,0,0l0,0ZM109.94,93l-.15.12a1.14,1.14,0,0,1-.11-.11l.12-.14Zm-3.75-3.75-.14.12-.09-.1.11-.13Zm-3.85,0-.06.06,0,0,.06-.07S102.32,89.28,102.34,89.29Zm-3.73,0,0,0,0,0,0,0Zm-3.77,0,0,0h0l0,0Zm-3.72,0h0l0,0a0,0,0,0,1,0,0S91.1,89.31,91.12,89.32Zm-3.73,0,0,0-.06,0a.1.1,0,0,0,0-.05ZM79.93,93l-.08.07L79.74,93l.1-.09ZM76.1,96.6l.17.19-.15.16a1.81,1.81,0,0,0-.21-.18ZM72.37,104a2.73,2.73,0,0,0,.27.31,2.22,2.22,0,0,0-.28.33,2.74,2.74,0,0,0-.36-.32A2.24,2.24,0,0,0,72.37,104Zm3.51,7.79a2,2,0,0,0,.23-.18,1.29,1.29,0,0,0,.16.17l-.18.2C76,111.86,76,111.81,75.88,111.74Zm3.85,3.74a.81.81,0,0,0,.14-.12l.09.1-.12.13A1.14,1.14,0,0,0,79.73,115.48Zm3.85,0,0,0,0,0,0,0Zm3.76,0v0Zm14.94,0h0l0,0,0,0Zm3.69,0,.07-.07.09.07a.6.6,0,0,0-.08.08Zm3.8-3.62-.09-.11.08-.07.1.09Zm3.76-7.39a1.71,1.71,0,0,0-.18-.2,1.62,1.62,0,0,0,.18-.19,2.11,2.11,0,0,0,.23.19A2.2,2.2,0,0,0,113.53,104.45Zm0-3.73a1.71,1.71,0,0,0-.18-.2,1.8,1.8,0,0,0,.19-.2c.07.08.15.13.22.2A1.43,1.43,0,0,0,113.53,100.72Zm.41-7.73a3,3,0,0,0-.39.31,1.79,1.79,0,0,0-.27-.28,2.79,2.79,0,0,0,.3-.38A2.39,2.39,0,0,0,113.94,93Zm-3.85-3.71a3.25,3.25,0,0,0-.29.23l-.23-.24a3.11,3.11,0,0,0,.23-.28A2.65,2.65,0,0,0,110.09,89.28Zm-7.6-3.76a1.71,1.71,0,0,0-.2.18l-.18-.17c.07-.07.12-.16.19-.24A2.11,2.11,0,0,0,102.49,85.52Zm-3.76,0-.16.14a1.59,1.59,0,0,0-.13-.13c0-.05.09-.12.14-.18A1.22,1.22,0,0,0,98.73,85.53Zm-3.79,0-.12.1-.1-.09a.76.76,0,0,0,.11-.14Zm-3.75,0a.94.94,0,0,1-.1.1L91,85.54a1.71,1.71,0,0,0,.11-.14C91.12,85.45,91.15,85.51,91.19,85.55Zm-3.69,0-.17.15a1.62,1.62,0,0,0-.19-.17,1.71,1.71,0,0,0,.18-.2C87.38,85.39,87.43,85.47,87.5,85.54ZM80,89.28l-.18.19a1.5,1.5,0,0,0-.25-.19,1.81,1.81,0,0,0,.24-.24A2.23,2.23,0,0,0,80,89.28Zm-8.15,22.48a2.85,2.85,0,0,0,.49-.42,2.34,2.34,0,0,0,.37.4,2.88,2.88,0,0,0-.39.46A2,2,0,0,0,71.87,111.76Zm3.89,3.73a1.7,1.7,0,0,0,.33-.27,2.06,2.06,0,0,0,.25.26,2.51,2.51,0,0,0-.25.32A2.42,2.42,0,0,0,75.76,115.49Zm3.79,3.76a1.58,1.58,0,0,0,.29-.22l.21.21a1.58,1.58,0,0,0-.22.29A2.47,2.47,0,0,0,79.55,119.25Zm3.93,0,.14-.12.12.11s-.08.11-.13.16Zm3.77,0,.09-.07.07.06-.08.1Zm3.79,0a.1.1,0,0,0,0,0l0,0,0,.06S91.06,119.24,91,119.22Zm7.46,0,.06,0,.06.06-.05.07S98.53,119.24,98.5,119.22Zm3.71,0,.09-.09.12.1a.52.52,0,0,0-.1.11Zm3.67,0,.17-.16.19.17a1.29,1.29,0,0,0-.19.21A1.28,1.28,0,0,0,105.88,119.24Zm11.5-21.88a2.17,2.17,0,0,0-.51-.58,2.43,2.43,0,0,0,.52-.63,2,2,0,0,0,.69.61A2.13,2.13,0,0,0,117.38,97.36Zm-45-4.92a2.06,2.06,0,0,0,.49.57,2.15,2.15,0,0,0-.49.51,2.38,2.38,0,0,0-.59-.51A2.13,2.13,0,0,0,72.34,92.44ZM68.56,99.8a2.37,2.37,0,0,0,.61.69,2.37,2.37,0,0,0-.6.66,2,2,0,0,0-.75-.66A2,2,0,0,0,68.56,99.8Zm0,3.83a2.53,2.53,0,0,0,.58.64,2.52,2.52,0,0,0-.59.67,2.08,2.08,0,0,0-.72-.66A2.08,2.08,0,0,0,68.57,103.63Zm0,3.67a2.51,2.51,0,0,0,.64.7,2.22,2.22,0,0,0-.63.7,2,2,0,0,0-.77-.71A2.1,2.1,0,0,0,68.56,107.3ZM87.1,123a2.11,2.11,0,0,0,.23-.19l.22.21a2.41,2.41,0,0,0-.21.24A3,3,0,0,0,87.1,123Zm3.81,0,.18-.16.17.16a1.73,1.73,0,0,0-.17.21C91,123.11,91,123,90.91,123Zm7.46,0a1.71,1.71,0,0,0,.2-.18,1.8,1.8,0,0,0,.2.19c-.07.07-.13.15-.2.23A2.31,2.31,0,0,0,98.37,123Zm15.21-7.07a2.18,2.18,0,0,0-.34-.41,1.78,1.78,0,0,0,.32-.35,2.22,2.22,0,0,0,.44.37A3.08,3.08,0,0,0,113.58,115.89Zm3.8-7.31a2.48,2.48,0,0,0-.49-.58,2.63,2.63,0,0,0,.49-.56,2,2,0,0,0,.65.56A2,2,0,0,0,117.38,108.58Zm0-3.79a3,3,0,0,0-.46-.54,2.21,2.21,0,0,0,.44-.52,2.14,2.14,0,0,0,.62.54A2,2,0,0,0,117.38,104.79Zm0-16.7a1.79,1.79,0,0,0,1.53,1.15,2,2,0,0,0-1.52,1,2.34,2.34,0,0,0-.88-.94A2,2,0,0,0,117.38,88.09Zm-3.77-3.42a2,2,0,0,0,.84.82,2.17,2.17,0,0,0-.85.74,2.33,2.33,0,0,0-.7-.73A2.19,2.19,0,0,0,113.61,84.67Zm-3.74-3.79a2,2,0,0,0,.82.84,2.28,2.28,0,0,0-.88.78,2.34,2.34,0,0,0-.74-.73A2.15,2.15,0,0,0,109.87,80.88Zm-3.79-4.24a1.84,1.84,0,0,0,1,1.35,2.09,2.09,0,0,0-1,.87,2.19,2.19,0,0,0-.93-.88A2,2,0,0,0,106.08,76.64Zm-3.75.46a2,2,0,0,0,.81.88,2.27,2.27,0,0,0-.83.74,2.27,2.27,0,0,0-.79-.72A2.13,2.13,0,0,0,102.33,77.1Zm-3.74.12a2.16,2.16,0,0,0,.72.78,2.24,2.24,0,0,0-.73.64,2.23,2.23,0,0,0-.69-.64A2.1,2.1,0,0,0,98.59,77.22Zm-3.78,0a2.1,2.1,0,0,0,.67.75,2.46,2.46,0,0,0-.64.56,2.37,2.37,0,0,0-.67-.59A2,2,0,0,0,94.81,77.25Zm-3.74,0a2,2,0,0,0,.67.77,2.41,2.41,0,0,0-.67.6,2.69,2.69,0,0,0-.7-.6A2.07,2.07,0,0,0,91.07,77.2Zm-3.74-.08a2,2,0,0,0,.76.85,2.42,2.42,0,0,0-.78.71,2.19,2.19,0,0,0-.79-.69A2,2,0,0,0,87.33,77.12Zm-3.75-.3A2,2,0,0,0,84.47,78a2.26,2.26,0,0,0-.87.81,2.21,2.21,0,0,0-.95-.84A1.89,1.89,0,0,0,83.58,76.82ZM79.78,81a2.19,2.19,0,0,0,.69.79,2.26,2.26,0,0,0-.64.63,2.26,2.26,0,0,0-.79-.68A2,2,0,0,0,79.78,81Zm-3.71-.67a2,2,0,0,0,1,1.41,2.25,2.25,0,0,0-1,1,2,2,0,0,0-1.31-.94A1.77,1.77,0,0,0,76.07,80.32Zm-3.75,3.86a2,2,0,0,0,1,1.32,2.2,2.2,0,0,0-1,1,2,2,0,0,0-1.38-1A1.78,1.78,0,0,0,72.32,84.18Zm-3.76,7.88a2.17,2.17,0,0,0,.85,1,2.16,2.16,0,0,0-.86.91,1.94,1.94,0,0,0-1.16-.9A1.9,1.9,0,0,0,68.56,92.06Zm0,24.48a1.88,1.88,0,0,0-1.26-1,2,2,0,0,0,1.25-.92,2.29,2.29,0,0,0,.88.92A2.14,2.14,0,0,0,68.57,116.54Zm3.73,3.6a2,2,0,0,0-.87-.85,2,2,0,0,0,.89-.78,2.44,2.44,0,0,0,.74.76A2.13,2.13,0,0,0,72.3,120.14Zm3.75,3.66a1.94,1.94,0,0,0-.79-.79,2.16,2.16,0,0,0,.81-.72,2.34,2.34,0,0,0,.7.7A2.25,2.25,0,0,0,76.05,123.8Zm3.76,4.62a1.8,1.8,0,0,0-1.08-1.57,2.13,2.13,0,0,0,1.1-.83,2.37,2.37,0,0,0,.91.84A1.89,1.89,0,0,0,79.81,128.42Zm3.77-.71a2,2,0,0,0-.78-.85,2.44,2.44,0,0,0,.78-.65,2.29,2.29,0,0,0,.71.64A2,2,0,0,0,83.58,127.71Zm3.74-.15a1.93,1.93,0,0,0-.62-.71,2.19,2.19,0,0,0,.64-.53,2.26,2.26,0,0,0,.6.51A2.18,2.18,0,0,0,87.32,127.56Zm3.75-.08a2.16,2.16,0,0,0-.55-.65,2.55,2.55,0,0,0,.57-.47,2.39,2.39,0,0,0,.54.46A2.1,2.1,0,0,0,91.07,127.48Zm3.76,4.65a1.9,1.9,0,0,0-1.09-1.62,2.11,2.11,0,0,0,1.08-1,2.17,2.17,0,0,0,1.1,1A1.87,1.87,0,0,0,94.83,132.13Zm3.75-4.64a2.18,2.18,0,0,0-.57-.67,2.59,2.59,0,0,0,.56-.48,2.53,2.53,0,0,0,.59.49A1.94,1.94,0,0,0,98.58,127.49Zm3.74.09a2,2,0,0,0-.64-.75,2.49,2.49,0,0,0,.62-.54,2.38,2.38,0,0,0,.67.55A2.1,2.1,0,0,0,102.32,127.58Zm3.77.3a2.1,2.1,0,0,0-.76-1,2.31,2.31,0,0,0,.76-.7,2.26,2.26,0,0,0,.87.72A1.82,1.82,0,0,0,106.09,127.88ZM113.6,124a2.23,2.23,0,0,0-.82-.95,2.36,2.36,0,0,0,.82-.84,2.12,2.12,0,0,0,1,.83A1.89,1.89,0,0,0,113.6,124Zm3.81-7.6a2.36,2.36,0,0,0-.74-.86,2.34,2.34,0,0,0,.72-.78,2,2,0,0,0,1,.79A1.9,1.9,0,0,0,117.41,116.36Zm3.69-11a2.18,2.18,0,0,0-.95-1.1,2.22,2.22,0,0,0,1-1.07,1.87,1.87,0,0,0,1.64,1.07A1.84,1.84,0,0,0,121.1,105.37Z"/><circle class="cls-6" cx="126.53" cy="102.39" r="1.51"/><path class="cls-6" d="M130.26,101.28a1.11,1.11,0,1,0,1.1,1.11A1.11,1.11,0,0,0,130.26,101.28Z"/><path class="cls-6" d="M134,101.65a.74.74,0,1,0,.74.74A.74.74,0,0,0,134,101.65Z"/><path class="cls-6" d="M137.72,102.83a.44.44,0,0,0,0-.88.44.44,0,0,0,0,.88Z"/><path class="cls-6" d="M51.93,105.61a.51.51,0,1,0,.51.51A.51.51,0,0,0,51.93,105.61Z"/><path class="cls-6" d="M55.66,105.28a.85.85,0,0,0-.84.84.84.84,0,0,0,.84.83.83.83,0,0,0,.83-.83A.84.84,0,0,0,55.66,105.28Z"/><path class="cls-6" d="M59.39,104.93a1.19,1.19,0,1,0,1.19,1.19A1.19,1.19,0,0,0,59.39,104.93Z"/><path class="cls-6" d="M126.53,104.6a1.52,1.52,0,1,0,1.51,1.52A1.52,1.52,0,0,0,126.53,104.6Z"/><path class="cls-6" d="M130.26,105a1.1,1.1,0,1,0,1.09,1.1A1.1,1.1,0,0,0,130.26,105Z"/><path class="cls-6" d="M134,105.4a.72.72,0,1,0,.72.72A.72.72,0,0,0,134,105.4Z"/><path class="cls-6" d="M137.72,105.71a.41.41,0,0,0-.41.41.41.41,0,1,0,.81,0A.4.4,0,0,0,137.72,105.71Z"/><path class="cls-6" d="M51.93,109.35a.5.5,0,0,0,0,1,.5.5,0,1,0,0-1Z"/><path class="cls-6" d="M55.66,109a.81.81,0,1,0,.8.81A.81.81,0,0,0,55.66,109Z"/><path class="cls-6" d="M59.39,108.71a1.14,1.14,0,1,0,1.14,1.14A1.14,1.14,0,0,0,59.39,108.71Z"/><path class="cls-6" d="M63.12,108.27a1.58,1.58,0,1,0,1.57,1.58A1.58,1.58,0,0,0,63.12,108.27Z"/><path class="cls-6" d="M126.53,108.43a1.42,1.42,0,1,0,1.42,1.42A1.41,1.41,0,0,0,126.53,108.43Z"/><path class="cls-6" d="M130.26,108.79a1.06,1.06,0,1,0,0,2.11,1.06,1.06,0,0,0,0-2.11Z"/><path class="cls-6" d="M134,109.17a.68.68,0,1,0,0,1.36.68.68,0,1,0,0-1.36Z"/><path class="cls-6" d="M137.72,109.45a.4.4,0,1,0,0,.8.4.4,0,0,0,0-.8Z"/><path class="cls-6" d="M51.93,113.15a.43.43,0,0,0,0,.86.43.43,0,0,0,0-.86Z"/><path class="cls-6" d="M55.66,112.85a.73.73,0,1,0,0,1.46.73.73,0,1,0,0-1.46Z"/><path class="cls-6" d="M59.39,112.51a1.07,1.07,0,1,0,0,2.13,1.07,1.07,0,0,0,0-2.13Z"/><path class="cls-6" d="M63.12,112.07a1.51,1.51,0,1,0,0,3,1.51,1.51,0,0,0,0-3Z"/><path class="cls-6" d="M126.53,112.25a1.33,1.33,0,1,0,1.32,1.33A1.33,1.33,0,0,0,126.53,112.25Z"/><path class="cls-6" d="M130.26,112.61a1,1,0,1,0,1,1A1,1,0,0,0,130.26,112.61Z"/><path class="cls-6" d="M134,113a.62.62,0,0,0,0,1.24.62.62,0,0,0,0-1.24Z"/><path class="cls-6" d="M51.93,116.94a.37.37,0,0,0-.37.37.37.37,0,0,0,.73,0A.37.37,0,0,0,51.93,116.94Z"/><path class="cls-6" d="M55.66,116.65a.66.66,0,1,0,.65.66A.66.66,0,0,0,55.66,116.65Z"/><path class="cls-6" d="M59.39,116.35a1,1,0,1,0,1,1A1,1,0,0,0,59.39,116.35Z"/><path class="cls-6" d="M63.12,115.93a1.38,1.38,0,1,0,1.38,1.38A1.38,1.38,0,0,0,63.12,115.93Z"/><path class="cls-6" d="M122.8,115.7a1.61,1.61,0,1,0,1.61,1.61A1.61,1.61,0,0,0,122.8,115.7Z"/><path class="cls-6" d="M126.53,116.11a1.2,1.2,0,1,0,1.2,1.2A1.2,1.2,0,0,0,126.53,116.11Z"/><path class="cls-6" d="M130.26,116.44a.87.87,0,1,0,.86.87A.87.87,0,0,0,130.26,116.44Z"/><path class="cls-6" d="M134,116.76a.55.55,0,0,0-.56.55.56.56,0,0,0,1.11,0A.55.55,0,0,0,134,116.76Z"/><path class="cls-6" d="M55.66,120.51a.53.53,0,0,0-.54.53.54.54,0,0,0,1.07,0A.53.53,0,0,0,55.66,120.51Z"/><path class="cls-6" d="M59.39,120.24a.8.8,0,0,0-.8.8.79.79,0,0,0,.8.79.79.79,0,0,0,.79-.79A.79.79,0,0,0,59.39,120.24Z"/><path class="cls-6" d="M63.12,119.87A1.17,1.17,0,1,0,64.29,121,1.17,1.17,0,0,0,63.12,119.87Z"/><path class="cls-6" d="M66.85,119.36A1.68,1.68,0,1,0,68.53,121,1.69,1.69,0,0,0,66.85,119.36Z"/><path class="cls-6" d="M122.8,119.63a1.41,1.41,0,1,0,1.41,1.41A1.41,1.41,0,0,0,122.8,119.63Z"/><path class="cls-6" d="M126.53,120a1.06,1.06,0,1,0,0,2.11,1.06,1.06,0,0,0,0-2.11Z"/><path class="cls-6" d="M130.26,120.31a.73.73,0,1,0,.73.73A.73.73,0,0,0,130.26,120.31Z"/><path class="cls-6" d="M134,120.6a.44.44,0,1,0,0,.88.44.44,0,0,0,0-.88Z"/><path class="cls-6" d="M55.66,124.38a.39.39,0,1,0,.38.39A.39.39,0,0,0,55.66,124.38Z"/><path class="cls-6" d="M59.39,124.13a.64.64,0,1,0,.63.64A.64.64,0,0,0,59.39,124.13Z"/><path class="cls-6" d="M63.12,123.78a1,1,0,1,0,1,1A1,1,0,0,0,63.12,123.78Z"/><path class="cls-6" d="M66.85,123.3a1.47,1.47,0,1,0,1.47,1.47A1.47,1.47,0,0,0,66.85,123.3Z"/><circle class="cls-6" cx="119.07" cy="124.77" r="1.51"/><path class="cls-6" d="M122.8,123.56a1.21,1.21,0,1,0,1.21,1.21A1.22,1.22,0,0,0,122.8,123.56Z"/><circle class="cls-6" cx="126.53" cy="124.77" r="0.83"/><path class="cls-6" d="M130.26,124.2a.58.58,0,0,0-.57.57.57.57,0,0,0,.57.56.56.56,0,0,0,.56-.56A.57.57,0,0,0,130.26,124.2Z"/><path class="cls-6" d="M59.39,128.12a.38.38,0,0,0-.38.38.38.38,0,0,0,.75,0A.38.38,0,0,0,59.39,128.12Z"/><path class="cls-6" d="M63.12,127.86a.64.64,0,1,0,.63.64A.64.64,0,0,0,63.12,127.86Z"/><path class="cls-6" d="M66.85,127.46a1,1,0,1,0,0,2.07,1,1,0,0,0,0-2.07Z"/><path class="cls-6" d="M70.58,127.18a1.32,1.32,0,1,0,1.31,1.32A1.32,1.32,0,0,0,70.58,127.18Z"/><path class="cls-6" d="M74.31,126.92a1.58,1.58,0,1,0,1.57,1.58A1.58,1.58,0,0,0,74.31,126.92Z"/><path class="cls-6" d="M115.34,127a1.5,1.5,0,1,0,1.49,1.5A1.5,1.5,0,0,0,115.34,127Z"/><path class="cls-6" d="M119.07,127.41a1.09,1.09,0,1,0,1.08,1.09A1.09,1.09,0,0,0,119.07,127.41Z"/><path class="cls-6" d="M122.8,127.69a.81.81,0,1,0,.8.81A.81.81,0,0,0,122.8,127.69Z"/><path class="cls-6" d="M126.53,127.93a.58.58,0,0,0-.57.57.57.57,0,0,0,.57.56.56.56,0,0,0,.56-.56A.57.57,0,0,0,126.53,127.93Z"/><path class="cls-6" d="M130.26,128.13a.38.38,0,0,0-.37.37.37.37,0,0,0,.37.36.36.36,0,0,0,.36-.36A.37.37,0,0,0,130.26,128.13Z"/><path class="cls-6" d="M63.12,131.73a.5.5,0,0,0,0,1,.5.5,0,1,0,0-1Z"/><path class="cls-6" d="M66.85,131.43a.8.8,0,0,0-.8.8.79.79,0,0,0,.8.79.79.79,0,0,0,.79-.79A.79.79,0,0,0,66.85,131.43Z"/><path class="cls-6" d="M70.58,131.19a1,1,0,1,0,0,2.07,1,1,0,0,0,0-2.07Z"/><path class="cls-6" d="M74.31,131a1.27,1.27,0,1,0,1.26,1.27A1.27,1.27,0,0,0,74.31,131Z"/><path class="cls-6" d="M78,130.76a1.47,1.47,0,1,0,1.47,1.47A1.47,1.47,0,0,0,78,130.76Z"/><path class="cls-6" d="M81.77,130.6a1.63,1.63,0,1,0,1.63,1.63A1.63,1.63,0,0,0,81.77,130.6Z"/><path class="cls-6" d="M107.88,130.66a1.57,1.57,0,1,0,1.56,1.57A1.57,1.57,0,0,0,107.88,130.66Z"/><circle class="cls-6" cx="111.61" cy="132.23" r="1.42"/><path class="cls-6" d="M115.34,131a1.2,1.2,0,1,0,1.2,1.2A1.2,1.2,0,0,0,115.34,131Z"/><circle class="cls-6" cx="119.07" cy="132.23" r="0.83"/><path class="cls-6" d="M122.8,131.61a.62.62,0,0,0,0,1.24.62.62,0,0,0,0-1.24Z"/><path class="cls-6" d="M126.53,131.83a.4.4,0,0,0,0,.8.4.4,0,0,0,0-.8Z"/><path class="cls-6" d="M66.85,135.39a.58.58,0,0,0-.57.57.57.57,0,0,0,.57.56.56.56,0,0,0,.56-.56A.57.57,0,0,0,66.85,135.39Z"/><path class="cls-6" d="M70.58,135.2a.76.76,0,1,0,0,1.52.76.76,0,1,0,0-1.52Z"/><path class="cls-6" d="M74.31,135a.93.93,0,1,0,.93.93A.93.93,0,0,0,74.31,135Z"/><path class="cls-6" d="M78,134.84A1.12,1.12,0,1,0,79.15,136,1.12,1.12,0,0,0,78,134.84Z"/><circle class="cls-6" cx="81.77" cy="135.96" r="1.3"/><path class="cls-6" d="M85.5,134.55A1.41,1.41,0,1,0,86.91,136,1.41,1.41,0,0,0,85.5,134.55Z"/><circle class="cls-6" cx="89.23" cy="135.96" r="1.48"/><path class="cls-6" d="M93,134.43A1.53,1.53,0,1,0,94.48,136,1.53,1.53,0,0,0,93,134.43Z"/><path class="cls-6" d="M96.69,134.44A1.52,1.52,0,1,0,98.2,136,1.52,1.52,0,0,0,96.69,134.44Z"/><path class="cls-6" d="M100.42,134.5a1.46,1.46,0,1,0,1.46,1.46A1.46,1.46,0,0,0,100.42,134.5Z"/><path class="cls-6" d="M104.15,134.57a1.39,1.39,0,1,0,1.39,1.39A1.39,1.39,0,0,0,104.15,134.57Z"/><path class="cls-6" d="M107.88,134.74A1.22,1.22,0,1,0,109.1,136,1.22,1.22,0,0,0,107.88,134.74Z"/><path class="cls-6" d="M111.61,134.89a1.07,1.07,0,1,0,0,2.13,1.07,1.07,0,0,0,0-2.13Z"/><path class="cls-6" d="M115.34,135.09a.87.87,0,1,0,.86.87A.87.87,0,0,0,115.34,135.09Z"/><path class="cls-6" d="M119.07,135.39a.58.58,0,0,0-.57.57.57.57,0,0,0,.57.56.56.56,0,0,0,.56-.56A.57.57,0,0,0,119.07,135.39Z"/><path class="cls-6" d="M122.8,135.54a.42.42,0,1,0,.42.42A.42.42,0,0,0,122.8,135.54Z"/><path class="cls-6" d="M70.58,139.22a.47.47,0,1,0,.47.47A.47.47,0,0,0,70.58,139.22Z"/><path class="cls-6" d="M74.31,139.08a.61.61,0,1,0,.6.61A.61.61,0,0,0,74.31,139.08Z"/><path class="cls-6" d="M78,138.94a.75.75,0,1,0,.75.75A.75.75,0,0,0,78,138.94Z"/><path class="cls-6" d="M81.77,138.8a.89.89,0,1,0,.88.89A.89.89,0,0,0,81.77,138.8Z"/><path class="cls-6" d="M85.5,138.71a1,1,0,1,0,1,1A1,1,0,0,0,85.5,138.71Z"/><path class="cls-6" d="M89.23,138.61a1.08,1.08,0,1,0,1.07,1.08A1.08,1.08,0,0,0,89.23,138.61Z"/><path class="cls-6" d="M93,138.59a1.1,1.1,0,1,0,1.09,1.1A1.1,1.1,0,0,0,93,138.59Z"/><path class="cls-6" d="M96.69,138.62a1.07,1.07,0,1,0,0,2.13,1.07,1.07,0,0,0,0-2.13Z"/><path class="cls-6" d="M100.42,138.65a1,1,0,1,0,0,2.07,1,1,0,0,0,0-2.07Z"/><circle class="cls-6" cx="104.15" cy="139.69" r="0.95"/><path class="cls-6" d="M107.88,138.83a.86.86,0,1,0,.85.86A.86.86,0,0,0,107.88,138.83Z"/><path class="cls-6" d="M111.61,139a.7.7,0,1,0,.7.7A.7.7,0,0,0,111.61,139Z"/><path class="cls-6" d="M115.34,139.15a.54.54,0,1,0,0,1.08.54.54,0,1,0,0-1.08Z"/><path class="cls-6" d="M74.31,143a.39.39,0,1,0,.38.39A.39.39,0,0,0,74.31,143Z"/><path class="cls-6" d="M78,142.93a.49.49,0,1,0,.49.49A.49.49,0,0,0,78,142.93Z"/><path class="cls-6" d="M81.77,142.83a.59.59,0,0,0-.59.59.59.59,0,0,0,1.17,0A.59.59,0,0,0,81.77,142.83Z"/><path class="cls-6" d="M85.5,142.76a.66.66,0,1,0,.66.66A.66.66,0,0,0,85.5,142.76Z"/><path class="cls-6" d="M89.23,142.69a.73.73,0,1,0,.73.73A.73.73,0,0,0,89.23,142.69Z"/><path class="cls-6" d="M93,142.67a.75.75,0,1,0,.75.75A.75.75,0,0,0,93,142.67Z"/><path class="cls-6" d="M96.69,142.69a.73.73,0,1,0,.73.73A.73.73,0,0,0,96.69,142.69Z"/><path class="cls-6" d="M100.42,142.72a.7.7,0,1,0,.7.7A.7.7,0,0,0,100.42,142.72Z"/><circle class="cls-6" cx="104.15" cy="143.42" r="0.63"/><path class="cls-6" d="M107.88,142.87a.55.55,0,0,0-.56.55.56.56,0,0,0,1.11,0A.55.55,0,0,0,107.88,142.87Z"/><path class="cls-6" d="M111.61,143a.46.46,0,1,0,0,.92.46.46,0,1,0,0-.92Z"/><path class="cls-6" d="M85.5,146.78a.37.37,0,0,0-.37.37.37.37,0,0,0,.73,0A.37.37,0,0,0,85.5,146.78Z"/><path class="cls-6" d="M89.23,146.73a.42.42,0,0,0,0,.84.42.42,0,0,0,0-.84Z"/><path class="cls-6" d="M93,146.71a.44.44,0,0,0,0,.88.44.44,0,1,0,0-.88Z"/><path class="cls-6" d="M96.69,146.73a.42.42,0,0,0,0,.84.42.42,0,0,0,0-.84Z"/><path class="cls-6" d="M100.42,146.74a.41.41,0,0,0-.41.41.41.41,0,1,0,.81,0A.4.4,0,0,0,100.42,146.74Z"/><path class="cls-6" d="M104.15,146.79a.36.36,0,0,0-.36.36.36.36,0,0,0,.71,0A.36.36,0,0,0,104.15,146.79Z"/><path class="cls-6" d="M96.67,91.59a.39.39,0,1,0-.39-.38A.39.39,0,0,0,96.67,91.59Z"/><path class="cls-6" d="M100.4,91.64a.43.43,0,0,0,.43-.43.43.43,0,0,0-.86,0A.43.43,0,0,0,100.4,91.64Z"/><path class="cls-6" d="M104.13,91.69a.48.48,0,0,0,.48-.48.48.48,0,0,0-1,0A.48.48,0,0,0,104.13,91.69Z"/><path class="cls-6" d="M107.86,91.71a.5.5,0,0,0,.5-.5.5.5,0,0,0-1,0A.5.5,0,0,0,107.86,91.71Z"/><circle class="cls-6" cx="111.59" cy="91.21" r="0.52"/><path class="cls-6" d="M115.32,91.71a.5.5,0,0,0,.5-.5.5.5,0,1,0-1,0A.5.5,0,0,0,115.32,91.71Z"/><circle class="cls-6" cx="119.05" cy="91.21" r="0.45"/><path class="cls-6" d="M122.78,91.58a.37.37,0,0,0,.38-.37.38.38,0,0,0-.76,0A.37.37,0,0,0,122.78,91.58Z"/><path class="cls-6" d="M89.21,95.35a.42.42,0,0,0,.41-.41.41.41,0,0,0-.41-.41.41.41,0,0,0-.41.41A.41.41,0,0,0,89.21,95.35Z"/><path class="cls-6" d="M92.94,95.48a.54.54,0,0,0,.54-.54.54.54,0,1,0-1.08,0A.54.54,0,0,0,92.94,95.48Z"/><path class="cls-6" d="M96.67,95.58a.64.64,0,1,0-.64-.64A.64.64,0,0,0,96.67,95.58Z"/><path class="cls-6" d="M100.4,95.68a.74.74,0,1,0-.74-.74A.74.74,0,0,0,100.4,95.68Z"/><path class="cls-6" d="M104.13,95.72a.79.79,0,1,0-.78-.78A.78.78,0,0,0,104.13,95.72Z"/><path class="cls-6" d="M107.86,95.75a.82.82,0,0,0,.82-.81.82.82,0,0,0-.82-.82.82.82,0,0,0-.81.82A.81.81,0,0,0,107.86,95.75Z"/><path class="cls-6" d="M111.59,95.73a.79.79,0,0,0,.79-.79.79.79,0,1,0-1.58,0A.79.79,0,0,0,111.59,95.73Z"/><path class="cls-6" d="M115.32,95.69a.75.75,0,1,0-.75-.75A.75.75,0,0,0,115.32,95.69Z"/><path class="cls-6" d="M119.05,95.66a.72.72,0,1,0-.72-.72A.72.72,0,0,0,119.05,95.66Z"/><path class="cls-6" d="M122.78,95.55a.61.61,0,0,0,.62-.61.62.62,0,0,0-1.24,0A.61.61,0,0,0,122.78,95.55Z"/><path class="cls-6" d="M126.51,95.46a.52.52,0,1,0-.52-.52A.52.52,0,0,0,126.51,95.46Z"/><path class="cls-6" d="M130.24,95.35a.41.41,0,0,0,.41-.41.41.41,0,0,0-.41-.41.41.41,0,0,0-.41.41A.42.42,0,0,0,130.24,95.35Z"/><path class="cls-6" d="M81.75,99.05a.39.39,0,1,0-.39-.38A.39.39,0,0,0,81.75,99.05Z"/><path class="cls-6" d="M85.48,99.19a.52.52,0,1,0-.52-.52A.52.52,0,0,0,85.48,99.19Z"/><path class="cls-6" d="M89.21,99.34a.67.67,0,1,0-.67-.67A.67.67,0,0,0,89.21,99.34Z"/><path class="cls-6" d="M92.94,99.49a.83.83,0,1,0-.83-.82A.83.83,0,0,0,92.94,99.49Z"/><path class="cls-6" d="M96.67,99.63a1,1,0,1,0-1-1A1,1,0,0,0,96.67,99.63Z"/><path class="cls-6" d="M100.4,99.74a1.08,1.08,0,1,0-1.08-1.07A1.08,1.08,0,0,0,100.4,99.74Z"/><path class="cls-6" d="M104.13,99.81A1.14,1.14,0,1,0,103,98.67,1.14,1.14,0,0,0,104.13,99.81Z"/><path class="cls-6" d="M107.86,99.86a1.19,1.19,0,1,0-1.19-1.19A1.19,1.19,0,0,0,107.86,99.86Z"/><path class="cls-6" d="M111.59,99.85a1.18,1.18,0,1,0-1.18-1.18A1.18,1.18,0,0,0,111.59,99.85Z"/><path class="cls-6" d="M115.32,99.8a1.13,1.13,0,1,0-1.13-1.13A1.14,1.14,0,0,0,115.32,99.8Z"/><circle class="cls-6" cx="119.05" cy="98.67" r="1.07"/><path class="cls-6" d="M122.78,99.6a.93.93,0,1,0-.93-.93A.93.93,0,0,0,122.78,99.6Z"/><path class="cls-6" d="M126.51,99.49a.83.83,0,1,0-.83-.82A.83.83,0,0,0,126.51,99.49Z"/><path class="cls-6" d="M130.24,99.34a.67.67,0,1,0-.67-.67A.67.67,0,0,0,130.24,99.34Z"/><path class="cls-6" d="M134,99.08a.41.41,0,0,0,.41-.41.41.41,0,0,0-.41-.41.41.41,0,0,0-.41.41A.42.42,0,0,0,134,99.08Z"/><path class="cls-6" d="M81.75,103a.61.61,0,1,0-.61-.6A.61.61,0,0,0,81.75,103Z"/><path class="cls-6" d="M85.48,103.19a.79.79,0,0,0,.79-.79.79.79,0,1,0-1.58,0A.79.79,0,0,0,85.48,103.19Z"/><path class="cls-6" d="M89.21,103.41a1,1,0,1,0-1-1A1,1,0,0,0,89.21,103.41Z"/><path class="cls-6" d="M92.94,103.6a1.2,1.2,0,1,0-1.2-1.2A1.2,1.2,0,0,0,92.94,103.6Z"/><path class="cls-6" d="M96.67,103.77a1.37,1.37,0,1,0-1.37-1.37A1.37,1.37,0,0,0,96.67,103.77Z"/><path class="cls-6" d="M100.4,103.88a1.49,1.49,0,1,0-1.48-1.48A1.48,1.48,0,0,0,100.4,103.88Z"/><path class="cls-6" d="M104.13,104a1.57,1.57,0,1,0-1.57-1.57A1.57,1.57,0,0,0,104.13,104Z"/><path class="cls-6" d="M115.32,104a1.56,1.56,0,1,0-1.56-1.55A1.55,1.55,0,0,0,115.32,104Z"/><path class="cls-6" d="M119.05,103.87a1.48,1.48,0,1,0-1.47-1.47A1.47,1.47,0,0,0,119.05,103.87Z"/><path class="cls-6" d="M122.78,103.72a1.33,1.33,0,1,0-1.33-1.32A1.33,1.33,0,0,0,122.78,103.72Z"/><path class="cls-6" d="M126.51,103.52a1.12,1.12,0,1,0-1.12-1.12A1.12,1.12,0,0,0,126.51,103.52Z"/><path class="cls-6" d="M130.24,103.33a.93.93,0,1,0-.93-.93A.93.93,0,0,0,130.24,103.33Z"/><path class="cls-6" d="M134,103a.61.61,0,0,0,.62-.61.62.62,0,0,0-1.24,0A.61.61,0,0,0,134,103Z"/><path class="cls-6" d="M137.7,102.85a.45.45,0,1,0-.45-.45A.45.45,0,0,0,137.7,102.85Z"/><path class="cls-6" d="M74.29,106.49a.37.37,0,0,0,.37-.36.37.37,0,1,0-.74,0A.37.37,0,0,0,74.29,106.49Z"/><path class="cls-6" d="M78,106.73a.61.61,0,1,0-.61-.6A.61.61,0,0,0,78,106.73Z"/><path class="cls-6" d="M81.75,107.15a1,1,0,1,0-1-1A1,1,0,0,0,81.75,107.15Z"/><circle class="cls-6" cx="85.48" cy="106.13" r="1.26"/><path class="cls-6" d="M89.21,107.66a1.54,1.54,0,1,0-1.54-1.53A1.53,1.53,0,0,0,89.21,107.66Z"/><path class="cls-6" d="M126.51,107.76a1.63,1.63,0,1,0-1.63-1.63A1.63,1.63,0,0,0,126.51,107.76Z"/><path class="cls-6" d="M130.24,107.53a1.4,1.4,0,1,0-1.4-1.4A1.4,1.4,0,0,0,130.24,107.53Z"/><path class="cls-6" d="M134,107.15a1,1,0,1,0-1-1A1,1,0,0,0,134,107.15Z"/><path class="cls-6" d="M137.7,106.91a.78.78,0,0,0,.78-.78.78.78,0,1,0-1.56,0A.78.78,0,0,0,137.7,106.91Z"/><path class="cls-6" d="M141.43,106.65a.52.52,0,1,0-.52-.52A.52.52,0,0,0,141.43,106.65Z"/><path class="cls-6" d="M74.29,110.4a.54.54,0,0,0,.54-.54.54.54,0,1,0-1.08,0A.54.54,0,0,0,74.29,110.4Z"/><circle class="cls-6" cx="78.02" cy="109.86" r="0.85"/><path class="cls-6" d="M81.75,111.11a1.26,1.26,0,1,0-1.25-1.25A1.25,1.25,0,0,0,81.75,111.11Z"/><path class="cls-6" d="M85.48,111.43a1.57,1.57,0,1,0-1.57-1.57A1.57,1.57,0,0,0,85.48,111.43Z"/><path class="cls-6" d="M130.24,111.58a1.73,1.73,0,1,0-1.72-1.72A1.72,1.72,0,0,0,130.24,111.58Z"/><path class="cls-6" d="M134,111.22a1.36,1.36,0,1,0-1.36-1.36A1.36,1.36,0,0,0,134,111.22Z"/><path class="cls-6" d="M137.7,110.9a1,1,0,1,0-1-1A1,1,0,0,0,137.7,110.9Z"/><path class="cls-6" d="M141.43,110.59a.73.73,0,1,0-.73-.73A.73.73,0,0,0,141.43,110.59Z"/><path class="cls-6" d="M145.16,110.33a.47.47,0,1,0-.47-.47A.47.47,0,0,0,145.16,110.33Z"/><path class="cls-6" d="M70.56,114a.44.44,0,1,0-.44-.44A.44.44,0,0,0,70.56,114Z"/><path class="cls-6" d="M74.29,114.29a.7.7,0,1,0-.7-.7A.7.7,0,0,0,74.29,114.29Z"/><path class="cls-6" d="M78,114.62a1,1,0,1,0-1-1A1,1,0,0,0,78,114.62Z"/><path class="cls-6" d="M81.75,115.12a1.54,1.54,0,1,0-1.54-1.53A1.53,1.53,0,0,0,81.75,115.12Z"/><path class="cls-6" d="M134,115.2a1.61,1.61,0,1,0-1.61-1.61A1.61,1.61,0,0,0,134,115.2Z"/><path class="cls-6" d="M137.7,114.86a1.28,1.28,0,1,0-1.27-1.27A1.28,1.28,0,0,0,137.7,114.86Z"/><path class="cls-6" d="M141.43,114.5a.91.91,0,1,0-.91-.91A.91.91,0,0,0,141.43,114.5Z"/><path class="cls-6" d="M145.16,114.2a.61.61,0,0,0,.62-.61.62.62,0,0,0-1.24,0A.61.61,0,0,0,145.16,114.2Z"/><path class="cls-6" d="M148.89,114a.39.39,0,1,0-.39-.38A.39.39,0,0,0,148.89,114Z"/><path class="cls-6" d="M70.56,117.86a.54.54,0,0,0,.54-.54.54.54,0,1,0-1.08,0A.54.54,0,0,0,70.56,117.86Z"/><path class="cls-6" d="M74.29,118.17a.86.86,0,1,0-.86-.85A.86.86,0,0,0,74.29,118.17Z"/><path class="cls-6" d="M78,118.56a1.25,1.25,0,1,0-1.24-1.24A1.24,1.24,0,0,0,78,118.56Z"/><path class="cls-6" d="M137.7,118.77a1.45,1.45,0,1,0-1.45-1.45A1.45,1.45,0,0,0,137.7,118.77Z"/><path class="cls-6" d="M141.43,118.42a1.1,1.1,0,1,0-1.1-1.1A1.1,1.1,0,0,0,141.43,118.42Z"/><path class="cls-6" d="M145.16,118.09a.78.78,0,1,0-.77-.77A.77.77,0,0,0,145.16,118.09Z"/><path class="cls-6" d="M148.89,117.8a.48.48,0,0,0,.48-.48.48.48,0,0,0-1,0A.48.48,0,0,0,148.89,117.8Z"/><path class="cls-6" d="M66.83,121.47a.42.42,0,1,0-.42-.42A.42.42,0,0,0,66.83,121.47Z"/><path class="cls-6" d="M70.56,121.71a.66.66,0,1,0-.66-.66A.67.67,0,0,0,70.56,121.71Z"/><path class="cls-6" d="M74.29,122a1,1,0,1,0-1-1A1,1,0,0,0,74.29,122Z"/><path class="cls-6" d="M78,122.45a1.4,1.4,0,1,0-1.4-1.4A1.4,1.4,0,0,0,78,122.45Z"/><path class="cls-6" d="M137.7,122.69a1.64,1.64,0,1,0-1.64-1.64A1.64,1.64,0,0,0,137.7,122.69Z"/><path class="cls-6" d="M141.43,122.31a1.27,1.27,0,1,0-1.26-1.26A1.25,1.25,0,0,0,141.43,122.31Z"/><path class="cls-6" d="M145.16,122a.92.92,0,1,0-.92-.92A.92.92,0,0,0,145.16,122Z"/><path class="cls-6" d="M148.89,121.62a.56.56,0,0,0,.57-.57.57.57,0,1,0-1.14,0A.56.56,0,0,0,148.89,121.62Z"/><circle class="cls-6" cx="66.83" cy="124.78" r="0.43"/><circle class="cls-6" cx="70.56" cy="124.78" r="0.75"/><path class="cls-6" d="M74.29,125.89a1.11,1.11,0,1,0-1.11-1.11A1.11,1.11,0,0,0,74.29,125.89Z"/><path class="cls-6" d="M78,126.32a1.55,1.55,0,1,0-1.55-1.54A1.55,1.55,0,0,0,78,126.32Z"/><path class="cls-6" d="M141.43,126.19a1.41,1.41,0,1,0-1.41-1.41A1.41,1.41,0,0,0,141.43,126.19Z"/><path class="cls-6" d="M145.16,125.79a1,1,0,1,0-1-1A1,1,0,0,0,145.16,125.79Z"/><path class="cls-6" d="M148.89,125.45a.67.67,0,1,0-.67-.67A.67.67,0,0,0,148.89,125.45Z"/><path class="cls-6" d="M152.62,125.15a.37.37,0,0,0,.38-.37.38.38,0,1,0-.76,0A.37.37,0,0,0,152.62,125.15Z"/><path class="cls-6" d="M66.83,129a.47.47,0,1,0-.47-.47A.47.47,0,0,0,66.83,129Z"/><path class="cls-6" d="M70.56,129.31a.81.81,0,1,0-.8-.8A.8.8,0,0,0,70.56,129.31Z"/><path class="cls-6" d="M74.29,129.67a1.16,1.16,0,1,0-1.16-1.16A1.16,1.16,0,0,0,74.29,129.67Z"/><circle class="cls-6" cx="78.02" cy="128.51" r="1.6"/><path class="cls-6" d="M141.43,130a1.46,1.46,0,1,0-1.46-1.46A1.46,1.46,0,0,0,141.43,130Z"/><path class="cls-6" d="M145.16,129.57a1.07,1.07,0,1,0-1.07-1.06A1.06,1.06,0,0,0,145.16,129.57Z"/><path class="cls-6" d="M148.89,129.23a.72.72,0,1,0-.72-.72A.72.72,0,0,0,148.89,129.23Z"/><path class="cls-6" d="M152.62,128.93a.42.42,0,1,0-.42-.42A.42.42,0,0,0,152.62,128.93Z"/><path class="cls-6" d="M66.83,131.72a.52.52,0,1,0,.52.52A.52.52,0,0,0,66.83,131.72Z"/><circle class="cls-6" cx="70.56" cy="132.24" r="0.85"/><path class="cls-6" d="M74.29,131a1.2,1.2,0,1,0,1.2,1.2A1.2,1.2,0,0,0,74.29,131Z"/><path class="cls-6" d="M139.59,132.24a1.88,1.88,0,0,0-3.58-.82,2.2,2.2,0,0,0-1-1.07,2.14,2.14,0,0,0,1-1.17,1.84,1.84,0,1,0,0-1.34,2.15,2.15,0,0,0-1-1.23,2.09,2.09,0,0,0,1-1.47,1.73,1.73,0,0,0,1.69,1.4,1.77,1.77,0,1,0,0-3.53,1.73,1.73,0,0,0-1.69,1.41,2.09,2.09,0,0,0-1.21-1.58,2,2,0,0,0-.67-3.75,1.79,1.79,0,0,0,1.65-1.77,1.81,1.81,0,0,0-1.81-1.81,1.79,1.79,0,0,0-1.68,1.19,2.19,2.19,0,0,0-1.16-1.36,2,2,0,0,0-.89-3.74,2,2,0,0,0-1.72,1.06,2.24,2.24,0,0,0-1.1-1.09,1.93,1.93,0,0,0,1-1.71,1.95,1.95,0,0,0-3.7-.87,2.16,2.16,0,0,0-1.24-1.15,1.87,1.87,0,0,0-.75-3.58,1.85,1.85,0,0,0-1.8,1.51,2,2,0,0,0-1.93-1.65,2,2,0,0,0-1.82,1.19,2.06,2.06,0,0,0-3.74-.12,2.1,2.1,0,0,0-1.8-1.18,1.63,1.63,0,1,0-.2,0,2.12,2.12,0,0,0-1.78,1.14,2.09,2.09,0,0,0-1.82-1.14,1.62,1.62,0,1,0-.06,0,2.1,2.1,0,0,0-1.86,1.2,2.06,2.06,0,0,0-3.74.08,2,2,0,0,0-3.75.29,1.89,1.89,0,0,0-1.81-1.37,1.9,1.9,0,0,0-.88,3.6,2.26,2.26,0,0,0-1.11,1.07,2,2,0,0,0-1.64-1,1.72,1.72,0,0,0,1.64-1.72,1.74,1.74,0,1,0-3.48,0,1.72,1.72,0,0,0,1.64,1.72,2,2,0,0,0-1.86,1.7A1.81,1.81,0,0,0,89.21,108a1.83,1.83,0,0,0-1.83,1.83,1.81,1.81,0,0,0,1.39,1.74,2,2,0,0,0-1.55,1.55,1.81,1.81,0,0,0-1.74-1.39,1.83,1.83,0,0,0-1.83,1.83,1.8,1.8,0,0,0,1.47,1.75,2,2,0,0,0-1.65,1.77,1.74,1.74,0,0,0-1.72-1.56,1.77,1.77,0,1,0,0,3.53,1.73,1.73,0,0,0,1.72-1.55,2,2,0,0,0,1,1.57,2.2,2.2,0,0,0-1.06,1.09,1.92,1.92,0,1,0-2.25,2.68,2,2,0,0,0-.31,3.72,2.11,2.11,0,0,0-1.25,1.92,2.08,2.08,0,0,0,1.12,1.83,2.14,2.14,0,0,0-1.15,1.72A1.62,1.62,0,0,0,78,130.6a1.64,1.64,0,0,0,0,3.28,1.62,1.62,0,0,0,1.6-1.46,2.14,2.14,0,0,0,1.14,1.71,2.08,2.08,0,0,0-1.12,1.79,1.63,1.63,0,1,0,0,.1,2.1,2.1,0,0,0,1.16,1.82,2.08,2.08,0,0,0,.08,3.77,2,2,0,0,0-1.16,1.82,2,2,0,0,0,1.56,1.93,1.86,1.86,0,0,0-1.42,1.8,1.89,1.89,0,0,0,1.89,1.89,1.87,1.87,0,0,0,1.72-1.13,2.16,2.16,0,0,0,1.15,1.22,1.94,1.94,0,0,0-1.1,1.75,2,2,0,0,0,2,2,1.94,1.94,0,0,0,1.72-1.07,2.18,2.18,0,0,0,1.06,1.08,2,2,0,0,0-1.05,1.6,1.74,1.74,0,0,0-1.73-1.61,1.77,1.77,0,1,0,0,3.53,1.74,1.74,0,0,0,1.73-1.61,2,2,0,0,0,3.75.82,2.2,2.2,0,0,0,1.28,1.11,1.79,1.79,0,0,0,.7,3.43,1.77,1.77,0,0,0,1.77-1.7,2,2,0,0,0,3.77.7,2,2,0,0,0,1.69,1.25,1.73,1.73,0,0,0,.23,3.44,1.73,1.73,0,0,0,.23-3.44,2,2,0,0,0,1.6-1.09,2.09,2.09,0,0,0,1.3,1.08,1.83,1.83,0,1,0,1.2,0,2.08,2.08,0,0,0,1.25-1,2.09,2.09,0,0,0,1.1,1,1.89,1.89,0,1,0,2.65,1.82,1.87,1.87,0,1,0,2.62-1.81,2.15,2.15,0,0,0,1.13-1,2.07,2.07,0,0,0,1.3,1,1.79,1.79,0,0,0-1.28,1.71,1.82,1.82,0,0,0,3.64,0,1.79,1.79,0,0,0-1.28-1.71,2.07,2.07,0,0,0,1.36-1.1,2.05,2.05,0,0,0,1.65,1.11,1.73,1.73,0,1,0,.36,0A2,2,0,0,0,121,159a1.89,1.89,0,0,0,1.79,1.29,1.91,1.91,0,0,0,1.91-1.91,1.87,1.87,0,0,0-1-1.64,2.39,2.39,0,0,0,1-1,2.07,2.07,0,0,0,1.42.95,1.69,1.69,0,0,0-1.36,1.65,1.72,1.72,0,1,0,3.44,0,1.69,1.69,0,0,0-1.36-1.65,2.14,2.14,0,0,0,1.63-1.27,1.93,1.93,0,1,0,2.5-2.59,2.07,2.07,0,0,0,1.29-1.64,1.72,1.72,0,0,0,1.68,1.43,1.75,1.75,0,1,0,0-3.49,1.73,1.73,0,0,0-1.68,1.44,2.07,2.07,0,0,0-.95-1.45,2.28,2.28,0,0,0,1-1,1.91,1.91,0,0,0,1.66,1,1.93,1.93,0,0,0,.7-3.74,2,2,0,0,0,1.33-1.75,1.74,1.74,0,1,0,0-.36,2,2,0,0,0-1.09-1.64,2.12,2.12,0,0,0,1.09-1.32,1.82,1.82,0,1,0,0-1.19,2.1,2.1,0,0,0-1-1.25,2.11,2.11,0,0,0,1-1.13,1.86,1.86,0,1,0,1.75-2.6A1.89,1.89,0,0,0,139.59,132.24Zm-7.3,10a2.27,2.27,0,0,0-.58-.69,2.63,2.63,0,0,0,.57-.63,2.1,2.1,0,0,0,.75.64A2,2,0,0,0,132.29,142.29Zm-3.78,7.47a2.47,2.47,0,0,0-.55-.65,2.26,2.26,0,0,0,.53-.54,2.33,2.33,0,0,0,.65.56A2,2,0,0,0,128.51,149.76Zm-3.78,3.73a2.16,2.16,0,0,0-.56-.64,2.31,2.31,0,0,0,.54-.54,2.36,2.36,0,0,0,.63.55A1.93,1.93,0,0,0,124.73,153.49Zm-3.73-.24a2.43,2.43,0,0,0-.39-.45,2.13,2.13,0,0,0,.34-.33,2.67,2.67,0,0,0,.44.38A1.85,1.85,0,0,0,121,153.25Zm-3.8-.15a1.56,1.56,0,0,0-.23-.28,3,3,0,0,0,.25-.25,1.49,1.49,0,0,0,.27.23A2.06,2.06,0,0,0,117.2,153.1Zm-7.47,4.2a2.06,2.06,0,0,0-.54-.63,2.58,2.58,0,0,0,.54-.45,2.16,2.16,0,0,0,.54.45A1.82,1.82,0,0,0,109.73,157.3Zm-11.25-4.13a2.5,2.5,0,0,0-.32-.33,2.67,2.67,0,0,0,.36-.31,1.79,1.79,0,0,0,.28.27A2.24,2.24,0,0,0,98.48,153.17Zm-3.75.2a2,2,0,0,0-.52-.53,2.75,2.75,0,0,0,.52-.44,2.34,2.34,0,0,0,.45.44A2.3,2.3,0,0,0,94.73,153.37ZM91,149.64a2,2,0,0,0-.53-.52,2.58,2.58,0,0,0,.54-.45,2.91,2.91,0,0,0,.43.43A2.27,2.27,0,0,0,91,149.64ZM87.23,146a2.18,2.18,0,0,0-.62-.59,2.25,2.25,0,0,0,.64-.55,2.33,2.33,0,0,0,.51.53A2.2,2.2,0,0,0,87.23,146Zm-3.76-3.53a2.07,2.07,0,0,0-.85-.81,2,2,0,0,0,.85-.76,2.35,2.35,0,0,0,.71.76A2.06,2.06,0,0,0,83.47,142.42Zm0-16.63a2.36,2.36,0,0,0,.72.82,2.22,2.22,0,0,0-.7.76,2.18,2.18,0,0,0-.87-.78A1.93,1.93,0,0,0,83.45,125.79Zm3.77-7.46a2.08,2.08,0,0,0,.69.78,2.48,2.48,0,0,0-.67.7,2.1,2.1,0,0,0-.8-.71A2.06,2.06,0,0,0,87.22,118.33ZM91,114.64a2.36,2.36,0,0,0,.64.73A2.4,2.4,0,0,0,91,116a2.21,2.21,0,0,0-.73-.63A2,2,0,0,0,91,114.64Zm3.77.27a2.16,2.16,0,0,0,.39.46,2,2,0,0,0-.38.38,1.87,1.87,0,0,0-.46-.38A2,2,0,0,0,94.73,114.91Zm3.77-3.85a2.32,2.32,0,0,0,.51.57,2.57,2.57,0,0,0-.51.48,2.43,2.43,0,0,0-.53-.48A2.06,2.06,0,0,0,98.5,111.06Zm3.72.12a2.16,2.16,0,0,0,.39.46,2.22,2.22,0,0,0-.38.37,2.27,2.27,0,0,0-.44-.38A2.63,2.63,0,0,0,102.22,111.18Zm3.75.11a2.67,2.67,0,0,0,.31.36,2.61,2.61,0,0,0-.3.27,2.88,2.88,0,0,0-.33-.28A2.15,2.15,0,0,0,106,111.29Zm3.77,0a2.56,2.56,0,0,0,.31.34,2.73,2.73,0,0,0-.31.27,1.87,1.87,0,0,0-.3-.26A1.68,1.68,0,0,0,109.74,111.3Zm3.75-.07a2.1,2.1,0,0,0,.38.41,2.07,2.07,0,0,0-.39.33,3.61,3.61,0,0,0-.35-.33A2.35,2.35,0,0,0,113.49,111.23Zm3.72-.08a2.27,2.27,0,0,0,.45.48,2.93,2.93,0,0,0-.46.4,2.3,2.3,0,0,0-.43-.39A2.27,2.27,0,0,0,117.21,111.15ZM121,111a2.05,2.05,0,0,0,.6.61,2.54,2.54,0,0,0-.6.53,2.66,2.66,0,0,0-.54-.52A2.14,2.14,0,0,0,121,111Zm3.73,3.82a2.29,2.29,0,0,0,.51.52,2.48,2.48,0,0,0-.52.45,2,2,0,0,0-.45-.43A2.36,2.36,0,0,0,124.71,114.83Zm3.8,3.73a1.92,1.92,0,0,0,.56.54,2.57,2.57,0,0,0-.59.5,2.51,2.51,0,0,0-.45-.47A2.64,2.64,0,0,0,128.51,118.56Zm3.79,3.49a1.94,1.94,0,0,0,.84.79,2.07,2.07,0,0,0-.84.71,2.35,2.35,0,0,0-.66-.71A2.41,2.41,0,0,0,132.3,122.05Zm0,8.84a2.86,2.86,0,0,0-.46-.52,2.3,2.3,0,0,0,.47-.56,2.28,2.28,0,0,0,.62.54A2.06,2.06,0,0,0,132.27,130.89Zm-3.8,11a2.78,2.78,0,0,0-.21-.27,1.51,1.51,0,0,0,.21-.23,3.4,3.4,0,0,0,.3.23A2.61,2.61,0,0,0,128.47,141.87Zm-3.76,7.59a2.08,2.08,0,0,0-.29-.36l.28-.28a2.08,2.08,0,0,0,.36.29A2.89,2.89,0,0,0,124.71,149.46Zm-15,3.56c-.06-.07-.11-.14-.17-.2l.17-.16.17.15ZM87.24,126.19a2.48,2.48,0,0,0,.37.43,2.22,2.22,0,0,0-.36.39,2,2,0,0,0-.46-.4A2.57,2.57,0,0,0,87.24,126.19ZM91,118.65a2.37,2.37,0,0,0,.41.48,2.52,2.52,0,0,0-.4.4,2.41,2.41,0,0,0-.48-.42A2.05,2.05,0,0,0,91,118.65Zm7.52-3.58c.09.1.16.21.25.3-.08.08-.16.15-.24.24a2.17,2.17,0,0,0-.29-.24A1.58,1.58,0,0,0,98.5,115.07ZM121,115a2.18,2.18,0,0,0,.33.35,1.7,1.7,0,0,0-.34.26,2.13,2.13,0,0,0-.26-.26A3.24,3.24,0,0,0,121,115Zm7.49,23a2,2,0,0,0-.19-.22l.16-.17a1.73,1.73,0,0,0,.25.21C128.62,137.91,128.54,138,128.47,138Zm-3.77,7.47-.17-.19.15-.14.19.16A1.37,1.37,0,0,0,124.7,145.5Zm-15,3.62,0-.06,0,0s0,0,0,0ZM86.86,137.85a2.29,2.29,0,0,0,.4-.36,2.67,2.67,0,0,0,.31.36,2.17,2.17,0,0,0-.31.36A2.29,2.29,0,0,0,86.86,137.85Zm.39-7.84a3.44,3.44,0,0,0,.3.35,4.12,4.12,0,0,0-.28.31,2,2,0,0,0-.38-.33A2.24,2.24,0,0,0,87.25,130ZM91,122.57a2.34,2.34,0,0,0,.25.3,1.81,1.81,0,0,0-.24.24,1.89,1.89,0,0,0-.31-.25A2.76,2.76,0,0,0,91,122.57ZM98.51,119a.52.52,0,0,0,.1.11l-.09.08-.1-.09Zm30.19,7.59a2.85,2.85,0,0,0-.26.23,1.29,1.29,0,0,0-.19-.21l.21-.23A2.41,2.41,0,0,0,128.7,126.62Zm-4,11.27,0,0,.08-.08a.12.12,0,0,0,0,.05ZM91,130.22l.14.15a.8.8,0,0,0-.13.13l-.16-.14Zm7.5-7.35,0,0h0Zm26.17,11.31-.07-.08.07-.07a.27.27,0,0,0,.08.07Zm-3.75,3.66h0Zm-30.07-3.73L91,134l.12.12-.13.14A.93.93,0,0,0,90.87,134.11Zm3.89-3.78,0,0s0,0,0,0l0,0Zm26.18,3.77Zm-26.21,0,0,0,0,0,0,0Zm26.21-3.73Zm0-3.73ZM94.73,137.83l0,0,0,0,0,0Zm30-7.38-.07-.08a.46.46,0,0,1,.07-.07.27.27,0,0,0,.08.07A.6.6,0,0,0,124.69,130.45Zm.08-3.81a.6.6,0,0,0-.08.08l-.07-.08a.27.27,0,0,0,.07-.08A.6.6,0,0,1,124.77,126.64ZM121,122.88l0,0h0l0,0ZM94.8,126.64a.08.08,0,0,1,0,0l-.05,0,.05,0A.1.1,0,0,0,94.8,126.64Zm-4,11.21c.06-.06.12-.09.17-.15l.13.13L91,138Zm3.86,3.73.06-.05,0,.05,0,.06Zm3.81,0Zm22.39,0,0,0,0,0,0,0Zm3.93-18.72-.15.12-.11-.11.12-.14Zm-3.75-3.75-.13.12-.1-.1L121,119Zm-3.85,0-.06.06-.05,0,.06-.07S117.22,119.12,117.24,119.14Zm-3.73,0,0,0,0,0s0,0,0,0Zm-3.77,0,0,0h0l0,0Zm-3.72,0h0l0,0,0,0Zm-3.73,0,0,0-.06,0,0,0Zm-7.46,3.73a.46.46,0,0,0-.07.07l-.12-.09.1-.09ZM91,126.45l.17.19-.15.15c-.06-.06-.14-.11-.21-.17Zm-3.73,7.35a2.06,2.06,0,0,0,.28.31,1.81,1.81,0,0,0-.29.33,3.49,3.49,0,0,0-.35-.32A2.17,2.17,0,0,0,87.27,133.8Zm3.51,7.79a2,2,0,0,0,.23-.18,1.29,1.29,0,0,0,.16.17l-.18.2A2,2,0,0,0,90.78,141.59Zm3.86,3.74a1.42,1.42,0,0,0,.13-.12l.09.1-.11.13Zm3.84,0s0,0,0,0l0,0,0,0Zm3.76,0,0,0,0,0Zm15,0h0l0,0h0Zm3.69,0,.06-.07.09.07-.08.08Zm3.8-3.62-.1-.11.08-.07.1.09Zm3.76-7.39a1.8,1.8,0,0,0-.19-.2l.19-.19a1.37,1.37,0,0,0,.22.19A1.42,1.42,0,0,0,128.44,134.3Zm0-3.73a1.8,1.8,0,0,0-.19-.2,1.8,1.8,0,0,0,.19-.2,2.2,2.2,0,0,0,.23.2A1.43,1.43,0,0,0,128.44,130.57Zm.4-7.73a2.85,2.85,0,0,0-.38.31,2.47,2.47,0,0,0-.28-.28,2.79,2.79,0,0,0,.3-.38A3,3,0,0,0,128.84,122.84ZM125,119.13a3.25,3.25,0,0,0-.29.23l-.23-.24a3.11,3.11,0,0,0,.23-.28A2.65,2.65,0,0,0,125,119.13Zm-7.59-3.76-.21.18-.18-.17a2.23,2.23,0,0,0,.19-.24A2.2,2.2,0,0,0,117.4,115.37Zm-3.77,0c0,.05-.11.09-.15.14l-.14-.13s.09-.12.14-.18A1.22,1.22,0,0,0,113.63,115.38Zm-3.79,0-.11.1-.1-.09a1.71,1.71,0,0,0,.11-.14S109.8,115.35,109.84,115.39Zm-3.75,0-.1.1-.13-.11a.81.81,0,0,0,.12-.14S106.05,115.36,106.09,115.4Zm-3.69,0-.16.15-.19-.17.18-.2C102.29,115.24,102.33,115.32,102.4,115.39Zm-7.48,3.74-.18.19a1.18,1.18,0,0,0-.25-.19,2.83,2.83,0,0,0,.25-.24A2.15,2.15,0,0,0,94.92,119.13Zm-8.14,22.48a2.78,2.78,0,0,0,.48-.42,2.05,2.05,0,0,0,.38.4,2.12,2.12,0,0,0-.39.46A2.18,2.18,0,0,0,86.78,141.61Zm3.88,3.73a1.44,1.44,0,0,0,.33-.27,2.06,2.06,0,0,0,.25.26,2.51,2.51,0,0,0-.25.32A2.42,2.42,0,0,0,90.66,145.34Zm3.8,3.76a2.77,2.77,0,0,0,.29-.22,2.08,2.08,0,0,0,.21.21,2.26,2.26,0,0,0-.23.29A2.37,2.37,0,0,0,94.46,149.1Zm3.92,0,.14-.12.12.11a1.67,1.67,0,0,0-.12.16Zm3.78,0a.5.5,0,0,1,.08-.07l.07.06-.08.1Zm3.79,0,0,0,0,0,0,.06Zm7.46,0,0,0,.07.06-.06.06Zm3.7,0,.1-.09a1.09,1.09,0,0,0,.11.1.52.52,0,0,0-.1.11Zm3.67,0,.17-.16.19.17a2,2,0,0,0-.19.21A1.28,1.28,0,0,0,120.78,149.09Zm11.5-21.88a2.57,2.57,0,0,0-.5-.59,2.23,2.23,0,0,0,.52-.62,2.09,2.09,0,0,0,.68.61A2.35,2.35,0,0,0,132.28,127.21Zm-45-4.92a2.24,2.24,0,0,0,.49.57,2.16,2.16,0,0,0-.49.51,2.22,2.22,0,0,0-.59-.51A2.13,2.13,0,0,0,87.24,122.29Zm-3.77,7.36a2.2,2.2,0,0,0,.6.69,2.37,2.37,0,0,0-.6.66,2,2,0,0,0-.74-.66A2.13,2.13,0,0,0,83.47,129.65Zm0,3.83a2.53,2.53,0,0,0,.58.64,2.32,2.32,0,0,0-.58.67,2,2,0,0,0-.73-.66A2.08,2.08,0,0,0,83.47,133.48Zm0,3.67a2.34,2.34,0,0,0,.63.7,2.22,2.22,0,0,0-.63.7,2,2,0,0,0-.77-.71A2.13,2.13,0,0,0,83.47,137.15ZM102,152.8a2.11,2.11,0,0,0,.23-.19l.22.21a2.31,2.31,0,0,0-.2.24A3.07,3.07,0,0,0,102,152.8Zm3.81,0,.18-.16.17.16c-.06.06-.11.14-.17.21A1.81,1.81,0,0,0,105.81,152.82Zm7.47,0c.06-.06.13-.11.19-.18a1.8,1.8,0,0,0,.2.19c-.07.07-.13.15-.2.23A2.23,2.23,0,0,0,113.28,152.81Zm15.21-7.07a2.74,2.74,0,0,0-.34-.41,2.15,2.15,0,0,0,.32-.35,2.22,2.22,0,0,0,.44.37A2.23,2.23,0,0,0,128.49,145.74Zm3.79-7.31a2.48,2.48,0,0,0-.49-.58,2.38,2.38,0,0,0,.49-.56,2.06,2.06,0,0,0,.65.56A2.12,2.12,0,0,0,132.28,138.43Zm0-3.79a2.63,2.63,0,0,0-.46-.54,2.25,2.25,0,0,0,.45-.52,2.1,2.1,0,0,0,.61.54A2.13,2.13,0,0,0,132.28,134.64Zm0-16.7a1.78,1.78,0,0,0,1.53,1.15,2,2,0,0,0-1.52,1,2.3,2.3,0,0,0-.89-.94A2.1,2.1,0,0,0,132.29,117.94Zm-3.77-3.42a2,2,0,0,0,.84.82,2.1,2.1,0,0,0-.85.74,2.36,2.36,0,0,0-.71-.73A2.22,2.22,0,0,0,128.52,114.52Zm-3.75-3.8a1.9,1.9,0,0,0,.83.85,2.24,2.24,0,0,0-.89.78,2.31,2.31,0,0,0-.73-.73A2.22,2.22,0,0,0,124.77,110.72ZM121,106.49a1.87,1.87,0,0,0,1,1.35,2.12,2.12,0,0,0-1,.87,2.14,2.14,0,0,0-.93-.88A2,2,0,0,0,121,106.49Zm-3.75.46a2,2,0,0,0,.82.88,2.22,2.22,0,0,0-.84.74,2.37,2.37,0,0,0-.78-.73A2.09,2.09,0,0,0,117.23,107Zm-3.74.12a2,2,0,0,0,.73.77,2.18,2.18,0,0,0-.73.65,2.47,2.47,0,0,0-.69-.64A2.08,2.08,0,0,0,113.49,107.07Zm-3.78,0a2.1,2.1,0,0,0,.67.75,2.63,2.63,0,0,0-.64.56,2.33,2.33,0,0,0-.66-.59A2.08,2.08,0,0,0,109.71,107.1Zm-3.74,0a2,2,0,0,0,.68.77,2.45,2.45,0,0,0-.68.6,2.26,2.26,0,0,0-.7-.6A2,2,0,0,0,106,107.05Zm-3.74-.08a2.14,2.14,0,0,0,.76.85,2.28,2.28,0,0,0-.77.71,2.3,2.3,0,0,0-.8-.69A2,2,0,0,0,102.23,107Zm-3.75-.3a2,2,0,0,0,.9,1.17,2.22,2.22,0,0,0-.88.81,2.1,2.1,0,0,0-1-.84A1.89,1.89,0,0,0,98.48,106.67Zm-3.8,4.16a2.14,2.14,0,0,0,.69.8,2.4,2.4,0,0,0-.64.63,2.26,2.26,0,0,0-.79-.68A2,2,0,0,0,94.68,110.83Zm-3.7-.66a1.93,1.93,0,0,0,1,1.41,2.27,2.27,0,0,0-1,1,2,2,0,0,0-1.31-.94A1.79,1.79,0,0,0,91,110.17ZM87.22,114a2,2,0,0,0,1,1.32,2.18,2.18,0,0,0-1,1,2,2,0,0,0-1.38-1A1.76,1.76,0,0,0,87.22,114Zm-3.76,7.87a2.2,2.2,0,0,0,.85,1,2.33,2.33,0,0,0-.86.9,2,2,0,0,0-1.16-.89A1.86,1.86,0,0,0,83.46,121.9Zm0,24.49a1.88,1.88,0,0,0-1.25-1,2,2,0,0,0,1.25-.92,2.17,2.17,0,0,0,.88.92A2.16,2.16,0,0,0,83.47,146.39ZM87.2,150a2,2,0,0,0-.86-.85,2.16,2.16,0,0,0,.89-.78,2.34,2.34,0,0,0,.74.76A2.16,2.16,0,0,0,87.2,150ZM91,153.65a2,2,0,0,0-.8-.79,2.27,2.27,0,0,0,.82-.72,2.3,2.3,0,0,0,.69.7A2.13,2.13,0,0,0,91,153.65Zm3.75,4.62a1.79,1.79,0,0,0-1.07-1.57,2.14,2.14,0,0,0,1.09-.83,2.37,2.37,0,0,0,.91.84A1.93,1.93,0,0,0,94.71,158.27Zm3.77-.71a1.94,1.94,0,0,0-.78-.85,2.34,2.34,0,0,0,.78-.65,2.55,2.55,0,0,0,.71.64A2.19,2.19,0,0,0,98.48,157.56Zm3.75-.15a2.13,2.13,0,0,0-.62-.71,2.32,2.32,0,0,0,.64-.53,2.38,2.38,0,0,0,.59.51A2.15,2.15,0,0,0,102.23,157.41Zm3.75-.08a2.2,2.2,0,0,0-.56-.65,2.34,2.34,0,0,0,.57-.47,2.45,2.45,0,0,0,.55.46A2.1,2.1,0,0,0,106,157.33Zm3.75,4.64a1.89,1.89,0,0,0-1.09-1.61,2.17,2.17,0,0,0,1.09-1,2.09,2.09,0,0,0,1.1,1A1.86,1.86,0,0,0,109.73,162Zm3.75-4.63a2,2,0,0,0-.56-.67,2.79,2.79,0,0,0,.55-.48,2.26,2.26,0,0,0,.59.48A2.09,2.09,0,0,0,113.48,157.34Zm3.74.09a2.14,2.14,0,0,0-.64-.76,2.27,2.27,0,0,0,.62-.53,2.38,2.38,0,0,0,.67.55A2.1,2.1,0,0,0,117.22,157.43Zm3.77.3a2,2,0,0,0-.76-1,2.34,2.34,0,0,0,.77-.7,2.31,2.31,0,0,0,.86.72A1.87,1.87,0,0,0,121,157.73Zm7.51-3.92a2.1,2.1,0,0,0-.82-.95,2.38,2.38,0,0,0,.83-.84,2,2,0,0,0,1,.82A1.93,1.93,0,0,0,128.5,153.81Zm3.81-7.6a2.27,2.27,0,0,0-.74-.86,2.34,2.34,0,0,0,.72-.78,2,2,0,0,0,1,.79A1.94,1.94,0,0,0,132.31,146.21Zm3.69-11a2.08,2.08,0,0,0-.94-1.1,2.2,2.2,0,0,0,.95-1.07,1.87,1.87,0,0,0,1.64,1.07A1.84,1.84,0,0,0,136,135.22Z"/><circle class="cls-6" cx="141.43" cy="132.24" r="1.51"/><path class="cls-6" d="M145.16,131.13a1.11,1.11,0,1,0,1.11,1.11A1.11,1.11,0,0,0,145.16,131.13Z"/><path class="cls-6" d="M148.89,131.5a.74.74,0,1,0,.74.74A.74.74,0,0,0,148.89,131.5Z"/><path class="cls-6" d="M152.62,132.68a.44.44,0,1,0-.44-.44A.44.44,0,0,0,152.62,132.68Z"/><path class="cls-6" d="M66.83,135.46a.51.51,0,1,0,.51.51A.51.51,0,0,0,66.83,135.46Z"/><path class="cls-6" d="M70.56,135.13a.85.85,0,0,0-.84.84.84.84,0,0,0,1.68,0A.85.85,0,0,0,70.56,135.13Z"/><path class="cls-6" d="M74.29,134.78A1.19,1.19,0,1,0,75.48,136,1.19,1.19,0,0,0,74.29,134.78Z"/><path class="cls-6" d="M141.43,134.45A1.52,1.52,0,1,0,143,136,1.51,1.51,0,0,0,141.43,134.45Z"/><path class="cls-6" d="M145.16,134.87a1.1,1.1,0,1,0,1.1,1.1A1.1,1.1,0,0,0,145.16,134.87Z"/><path class="cls-6" d="M148.89,135.25a.72.72,0,1,0,.72.72A.72.72,0,0,0,148.89,135.25Z"/><path class="cls-6" d="M152.62,135.56a.41.41,0,0,0-.41.41.42.42,0,0,0,.41.41A.41.41,0,0,0,153,136,.41.41,0,0,0,152.62,135.56Z"/><path class="cls-6" d="M66.83,139.2a.5.5,0,0,0-.5.5.5.5,0,0,0,1,0A.5.5,0,0,0,66.83,139.2Z"/><path class="cls-6" d="M70.56,138.89a.81.81,0,1,0,.8.81A.8.8,0,0,0,70.56,138.89Z"/><path class="cls-6" d="M74.29,138.56a1.14,1.14,0,1,0,1.14,1.14A1.14,1.14,0,0,0,74.29,138.56Z"/><path class="cls-6" d="M78,138.12a1.58,1.58,0,1,0,1.58,1.58A1.58,1.58,0,0,0,78,138.12Z"/><path class="cls-6" d="M141.43,138.28a1.42,1.42,0,1,0,1.42,1.42A1.42,1.42,0,0,0,141.43,138.28Z"/><path class="cls-6" d="M145.16,138.64a1.06,1.06,0,1,0,1.06,1.06A1.06,1.06,0,0,0,145.16,138.64Z"/><path class="cls-6" d="M148.89,139a.68.68,0,1,0,.68.68A.68.68,0,0,0,148.89,139Z"/><path class="cls-6" d="M152.62,139.3a.4.4,0,1,0,.4.4A.4.4,0,0,0,152.62,139.3Z"/><path class="cls-6" d="M66.83,143a.43.43,0,0,0-.43.43.43.43,0,0,0,.86,0A.43.43,0,0,0,66.83,143Z"/><path class="cls-6" d="M70.56,142.7a.73.73,0,1,0,.73.73A.73.73,0,0,0,70.56,142.7Z"/><path class="cls-6" d="M74.29,142.36a1.07,1.07,0,1,0,1.07,1.07A1.07,1.07,0,0,0,74.29,142.36Z"/><path class="cls-6" d="M78,141.92a1.51,1.51,0,1,0,1.5,1.51A1.51,1.51,0,0,0,78,141.92Z"/><path class="cls-6" d="M141.43,142.1a1.33,1.33,0,1,0,1.33,1.33A1.34,1.34,0,0,0,141.43,142.1Z"/><path class="cls-6" d="M145.16,142.46a1,1,0,1,0,1,1A1,1,0,0,0,145.16,142.46Z"/><path class="cls-6" d="M148.89,142.81a.62.62,0,0,0-.62.62.62.62,0,0,0,1.24,0A.62.62,0,0,0,148.89,142.81Z"/><path class="cls-6" d="M66.83,146.79a.38.38,0,0,0-.37.37.37.37,0,0,0,.74,0A.38.38,0,0,0,66.83,146.79Z"/><path class="cls-6" d="M70.56,146.5a.66.66,0,1,0,.66.66A.66.66,0,0,0,70.56,146.5Z"/><path class="cls-6" d="M74.29,146.2a1,1,0,1,0,1,1A1,1,0,0,0,74.29,146.2Z"/><path class="cls-6" d="M78,145.78a1.38,1.38,0,1,0,1.38,1.38A1.38,1.38,0,0,0,78,145.78Z"/><path class="cls-6" d="M137.7,145.55a1.61,1.61,0,1,0,1.61,1.61A1.61,1.61,0,0,0,137.7,145.55Z"/><path class="cls-6" d="M141.43,146a1.2,1.2,0,1,0,1.2,1.2A1.2,1.2,0,0,0,141.43,146Z"/><path class="cls-6" d="M145.16,146.29a.87.87,0,1,0,.87.87A.87.87,0,0,0,145.16,146.29Z"/><path class="cls-6" d="M148.89,146.6a.56.56,0,1,0,.55.56A.55.55,0,0,0,148.89,146.6Z"/><path class="cls-6" d="M70.56,150.36a.53.53,0,0,0-.53.53.53.53,0,0,0,1.06,0A.53.53,0,0,0,70.56,150.36Z"/><path class="cls-6" d="M74.29,150.09a.79.79,0,0,0-.79.8.79.79,0,1,0,1.58,0A.79.79,0,0,0,74.29,150.09Z"/><path class="cls-6" d="M78,149.72a1.17,1.17,0,1,0,1.17,1.17A1.17,1.17,0,0,0,78,149.72Z"/><path class="cls-6" d="M81.75,149.21a1.68,1.68,0,1,0,1.68,1.68A1.68,1.68,0,0,0,81.75,149.21Z"/><path class="cls-6" d="M137.7,149.48a1.41,1.41,0,1,0,1.41,1.41A1.41,1.41,0,0,0,137.7,149.48Z"/><path class="cls-6" d="M141.43,149.83a1.06,1.06,0,1,0,1.06,1.06A1.07,1.07,0,0,0,141.43,149.83Z"/><path class="cls-6" d="M145.16,150.16a.73.73,0,1,0,.73.73A.73.73,0,0,0,145.16,150.16Z"/><path class="cls-6" d="M148.89,150.45a.44.44,0,1,0,.44.44A.44.44,0,0,0,148.89,150.45Z"/><path class="cls-6" d="M70.56,154.23a.39.39,0,1,0,.39.39A.39.39,0,0,0,70.56,154.23Z"/><path class="cls-6" d="M74.29,154a.64.64,0,1,0,.64.64A.64.64,0,0,0,74.29,154Z"/><path class="cls-6" d="M78,153.63a1,1,0,1,0,1,1A1,1,0,0,0,78,153.63Z"/><path class="cls-6" d="M81.75,153.15a1.47,1.47,0,1,0,1.47,1.47A1.47,1.47,0,0,0,81.75,153.15Z"/><circle class="cls-6" cx="133.97" cy="154.62" r="1.51"/><path class="cls-6" d="M137.7,153.41a1.21,1.21,0,1,0,1.21,1.21A1.21,1.21,0,0,0,137.7,153.41Z"/><circle class="cls-6" cx="141.43" cy="154.62" r="0.83"/><path class="cls-6" d="M145.16,154.05a.57.57,0,0,0-.56.57.56.56,0,0,0,1.12,0A.57.57,0,0,0,145.16,154.05Z"/><path class="cls-6" d="M74.29,158a.38.38,0,0,0-.38.38.38.38,0,0,0,.76,0A.38.38,0,0,0,74.29,158Z"/><path class="cls-6" d="M78,157.71a.64.64,0,1,0,.64.64A.64.64,0,0,0,78,157.71Z"/><path class="cls-6" d="M81.75,157.31a1,1,0,1,0,1,1A1,1,0,0,0,81.75,157.31Z"/><path class="cls-6" d="M85.48,157a1.32,1.32,0,1,0,1.32,1.32A1.32,1.32,0,0,0,85.48,157Z"/><path class="cls-6" d="M89.21,156.77a1.58,1.58,0,1,0,1.58,1.58A1.58,1.58,0,0,0,89.21,156.77Z"/><path class="cls-6" d="M130.24,156.85a1.5,1.5,0,1,0,1.49,1.5A1.5,1.5,0,0,0,130.24,156.85Z"/><path class="cls-6" d="M134,157.26a1.09,1.09,0,1,0,1.09,1.09A1.09,1.09,0,0,0,134,157.26Z"/><path class="cls-6" d="M137.7,157.54a.81.81,0,1,0,.8.81A.8.8,0,0,0,137.7,157.54Z"/><path class="cls-6" d="M141.43,157.78a.57.57,0,0,0-.56.57.56.56,0,0,0,1.12,0A.57.57,0,0,0,141.43,157.78Z"/><path class="cls-6" d="M145.16,158a.38.38,0,0,0-.37.37.37.37,0,0,0,.74,0A.38.38,0,0,0,145.16,158Z"/><path class="cls-6" d="M78,161.58a.5.5,0,1,0,.5.5A.5.5,0,0,0,78,161.58Z"/><path class="cls-6" d="M81.75,161.28a.79.79,0,0,0-.79.8.79.79,0,0,0,1.58,0A.79.79,0,0,0,81.75,161.28Z"/><path class="cls-6" d="M85.48,161a1,1,0,1,0,1,1A1,1,0,0,0,85.48,161Z"/><path class="cls-6" d="M89.21,160.81a1.27,1.27,0,1,0,1.26,1.27A1.26,1.26,0,0,0,89.21,160.81Z"/><path class="cls-6" d="M92.94,160.61a1.47,1.47,0,1,0,1.47,1.47A1.47,1.47,0,0,0,92.94,160.61Z"/><path class="cls-6" d="M96.67,160.45a1.63,1.63,0,1,0,1.63,1.63A1.63,1.63,0,0,0,96.67,160.45Z"/><path class="cls-6" d="M122.78,160.51a1.57,1.57,0,1,0,1.57,1.57A1.57,1.57,0,0,0,122.78,160.51Z"/><circle class="cls-6" cx="126.51" cy="162.08" r="1.42"/><path class="cls-6" d="M130.24,160.88a1.2,1.2,0,1,0,1.2,1.2A1.2,1.2,0,0,0,130.24,160.88Z"/><circle class="cls-6" cx="133.97" cy="162.08" r="0.83"/><path class="cls-6" d="M137.7,161.46a.62.62,0,0,0-.62.62.62.62,0,0,0,1.24,0A.62.62,0,0,0,137.7,161.46Z"/><path class="cls-6" d="M141.43,161.68a.4.4,0,1,0,.4.4A.4.4,0,0,0,141.43,161.68Z"/><path class="cls-6" d="M81.75,165.24a.57.57,0,0,0-.56.57.56.56,0,0,0,1.12,0A.57.57,0,0,0,81.75,165.24Z"/><path class="cls-6" d="M85.48,165.05a.76.76,0,1,0,.76.76A.76.76,0,0,0,85.48,165.05Z"/><path class="cls-6" d="M89.21,164.88a.93.93,0,1,0,.93.93A.93.93,0,0,0,89.21,164.88Z"/><path class="cls-6" d="M92.94,164.69a1.12,1.12,0,1,0,1.12,1.12A1.12,1.12,0,0,0,92.94,164.69Z"/><circle class="cls-6" cx="96.67" cy="165.81" r="1.3"/><path class="cls-6" d="M100.4,164.4a1.41,1.41,0,1,0,1.41,1.41A1.41,1.41,0,0,0,100.4,164.4Z"/><circle class="cls-6" cx="104.13" cy="165.81" r="1.48"/><path class="cls-6" d="M107.86,164.28a1.53,1.53,0,1,0,1.53,1.53A1.54,1.54,0,0,0,107.86,164.28Z"/><path class="cls-6" d="M111.59,164.29a1.52,1.52,0,1,0,1.52,1.52A1.51,1.51,0,0,0,111.59,164.29Z"/><path class="cls-6" d="M115.32,164.35a1.46,1.46,0,1,0,1.46,1.46A1.46,1.46,0,0,0,115.32,164.35Z"/><path class="cls-6" d="M119.05,164.42a1.39,1.39,0,1,0,1.39,1.39A1.39,1.39,0,0,0,119.05,164.42Z"/><path class="cls-6" d="M122.78,164.59a1.22,1.22,0,1,0,1.22,1.22A1.22,1.22,0,0,0,122.78,164.59Z"/><path class="cls-6" d="M126.51,164.74a1.07,1.07,0,1,0,1.07,1.07A1.07,1.07,0,0,0,126.51,164.74Z"/><path class="cls-6" d="M130.24,164.94a.87.87,0,1,0,.87.87A.87.87,0,0,0,130.24,164.94Z"/><path class="cls-6" d="M134,165.24a.57.57,0,0,0-.56.57.56.56,0,0,0,1.12,0A.57.57,0,0,0,134,165.24Z"/><path class="cls-6" d="M137.7,165.39a.42.42,0,1,0,.42.42A.42.42,0,0,0,137.7,165.39Z"/><path class="cls-6" d="M85.48,169.07a.47.47,0,1,0,.47.47A.47.47,0,0,0,85.48,169.07Z"/><path class="cls-6" d="M89.21,168.93a.61.61,0,1,0,.61.61A.61.61,0,0,0,89.21,168.93Z"/><path class="cls-6" d="M92.94,168.79a.75.75,0,1,0,.75.75A.74.74,0,0,0,92.94,168.79Z"/><path class="cls-6" d="M96.67,168.65a.89.89,0,1,0,.89.89A.89.89,0,0,0,96.67,168.65Z"/><path class="cls-6" d="M100.4,168.56a1,1,0,1,0,1,1A1,1,0,0,0,100.4,168.56Z"/><path class="cls-6" d="M104.13,168.46a1.08,1.08,0,1,0,1.08,1.08A1.08,1.08,0,0,0,104.13,168.46Z"/><path class="cls-6" d="M107.86,168.44a1.1,1.1,0,1,0,1.1,1.1A1.1,1.1,0,0,0,107.86,168.44Z"/><path class="cls-6" d="M111.59,168.47a1.07,1.07,0,1,0,1.07,1.07A1.07,1.07,0,0,0,111.59,168.47Z"/><path class="cls-6" d="M115.32,168.5a1,1,0,1,0,1,1A1,1,0,0,0,115.32,168.5Z"/><circle class="cls-6" cx="119.05" cy="169.54" r="0.95"/><path class="cls-6" d="M122.78,168.68a.86.86,0,1,0,.86.86A.87.87,0,0,0,122.78,168.68Z"/><path class="cls-6" d="M126.51,168.84a.7.7,0,1,0,.7.7A.7.7,0,0,0,126.51,168.84Z"/><path class="cls-6" d="M130.24,169a.55.55,0,0,0-.54.55.54.54,0,1,0,1.08,0A.55.55,0,0,0,130.24,169Z"/><path class="cls-6" d="M89.21,172.88a.39.39,0,1,0,.39.39A.39.39,0,0,0,89.21,172.88Z"/><path class="cls-6" d="M92.94,172.78a.49.49,0,1,0,.49.49A.49.49,0,0,0,92.94,172.78Z"/><path class="cls-6" d="M96.67,172.68a.6.6,0,0,0-.59.59.59.59,0,0,0,1.18,0A.6.6,0,0,0,96.67,172.68Z"/><path class="cls-6" d="M100.4,172.61a.66.66,0,1,0,.66.66A.66.66,0,0,0,100.4,172.61Z"/><path class="cls-6" d="M104.13,172.54a.73.73,0,1,0,.73.73A.73.73,0,0,0,104.13,172.54Z"/><path class="cls-6" d="M107.86,172.52a.75.75,0,1,0,.75.75A.74.74,0,0,0,107.86,172.52Z"/><path class="cls-6" d="M111.59,172.54a.73.73,0,1,0,.73.73A.73.73,0,0,0,111.59,172.54Z"/><path class="cls-6" d="M115.32,172.57a.7.7,0,1,0,.7.7A.7.7,0,0,0,115.32,172.57Z"/><circle class="cls-6" cx="119.05" cy="173.27" r="0.63"/><path class="cls-6" d="M122.78,172.71a.56.56,0,1,0,.55.56A.55.55,0,0,0,122.78,172.71Z"/><path class="cls-6" d="M126.51,172.81a.46.46,0,0,0-.46.46.46.46,0,1,0,.92,0A.46.46,0,0,0,126.51,172.81Z"/><path class="cls-6" d="M100.4,176.63a.38.38,0,0,0-.37.37.37.37,0,0,0,.74,0A.38.38,0,0,0,100.4,176.63Z"/><path class="cls-6" d="M104.13,176.58a.42.42,0,1,0,.42.42A.42.42,0,0,0,104.13,176.58Z"/><path class="cls-6" d="M107.86,176.56a.44.44,0,1,0,.44.44A.44.44,0,0,0,107.86,176.56Z"/><path class="cls-6" d="M111.59,176.58a.42.42,0,1,0,.42.42A.42.42,0,0,0,111.59,176.58Z"/><path class="cls-6" d="M115.32,176.59a.41.41,0,0,0-.41.41.42.42,0,0,0,.41.41.41.41,0,0,0,.41-.41A.41.41,0,0,0,115.32,176.59Z"/><path class="cls-6" d="M119.05,176.64a.36.36,0,1,0,.36.36A.36.36,0,0,0,119.05,176.64Z"/><polygon class="cls-6" points="105.65 90.56 102.51 102.4 113.6 123.96 124.67 117.91 124.42 100.32 105.65 90.56"/></g><polygon class="cls-1" points="31.25 107.14 31.25 57.04 49.02 46.67 50.47 47.98 54.35 46.67 69.38 59.6 68.04 63.87 80.8 75.41 80.94 104.36 83.08 105.53 89.03 102.19 89.04 99.83 105.65 90.56 124.42 100.32 124.67 117.91 75.9 144.21 64.57 138.23 64.57 134.06 31.25 107.14"/><polyline class="cls-7" points="121.92 101.4 75.89 125.77 65.36 120.06 69.71 118.16 63.05 114.27 79.29 105.41"/><line class="cls-7" x1="75.89" y1="125.77" x2="75.89" y2="141.26"/><polyline class="cls-7" points="33.73 58.51 63.05 85.09 78.36 76.97"/><polyline class="cls-7" points="67.99 66.5 67.99 67.41 57.62 72.9 43.51 60.11 43.51 51.95"/><line class="cls-7" x1="57.62" y1="64.75" x2="57.62" y2="72.9"/><polyline class="cls-7" points="49.07 48.76 43.51 51.95 57.62 64.75 65.89 60.37"/><line class="cls-7" x1="64.97" y1="120.05" x2="64.97" y2="131.95"/><line class="cls-7" x1="63.05" y1="85.03" x2="63.05" y2="129.81"/></g></svg>