<svg xmlns="http://www.w3.org/2000/svg" xmlns:xlink="http://www.w3.org/1999/xlink" viewBox="0 0 102.97 104.88"><defs><style>.cls-1,.cls-4{fill:#99221a;}.cls-1,.cls-7{stroke:#000;stroke-width:3px;}.cls-1,.cls-7,.cls-8{stroke-miterlimit:10;}.cls-2{opacity:0.5;}.cls-3{opacity:0.07;}.cls-5{clip-path:url(#clip-path);}.cls-6{fill:#395054;}.cls-7,.cls-8{fill:none;}.cls-8{stroke:#fff;}</style><clipPath id="clip-path"><polygon class="cls-1" points="83.78 60.02 83.55 30.84 77.09 27.26 77.09 25.48 74.42 24.09 74.42 15.98 47.65 1.7 36.68 7.57 36.63 11.96 32.05 14.29 29.92 15.35 29.96 15.36 5.87 27.62 5.87 46.29 1.5 48.35 1.5 71.27 20.38 81.74 41.66 70.56 48.17 73.86 48.17 77.58 43.12 80.27 43.12 92.54 62.88 103.18 101.47 82.73 101.47 68.94 83.78 60.02"/></clipPath></defs><g id="Buildings_AYPP"><polygon class="cls-4" points="83.78 60.02 83.55 30.84 77.09 27.26 77.09 25.48 74.42 24.09 74.42 15.98 47.65 1.7 36.68 7.57 36.63 11.96 32.05 14.29 29.92 15.35 29.96 15.36 5.87 27.62 5.87 46.29 1.5 48.35 1.5 71.27 20.38 81.74 41.66 70.56 48.17 73.86 48.17 77.58 43.12 80.27 43.12 92.54 62.88 103.18 101.47 82.73 101.47 68.94 83.78 60.02"/><g class="cls-5"><polygon class="cls-6" points="37.2 7.57 37.2 16.37 64.03 30.35 73.73 25.13 73.73 15.44 47.95 2.26 37.2 7.57"/></g><polygon class="cls-7" points="83.78 60.02 83.55 30.84 77.09 27.26 77.09 25.48 74.42 24.09 74.42 15.98 47.65 1.7 36.68 7.57 36.63 11.96 32.05 14.29 29.92 15.35 29.96 15.36 5.87 27.62 5.87 46.29 1.5 48.35 1.5 71.27 20.38 81.74 41.66 70.56 48.17 73.86 48.17 77.58 43.12 80.27 43.12 92.54 62.88 103.18 101.47 82.73 101.47 68.94 83.78 60.02"/><polyline class="cls-8" points="8.25 29.29 25.31 39.12 41.66 30.15 63.34 41.52 81.25 32.21"/><path class="cls-8" d="M4.17,49.48l17.07,9.15S25,56.39,25,56.39L7.91,47"/><line class="cls-8" x1="25.21" y1="39.17" x2="24.98" y2="56.65"/><line class="cls-8" x1="21.29" y1="58.63" x2="21.29" y2="77.41"/><line class="cls-8" x1="41.66" y1="30.15" x2="41.66" y2="67.03"/><line class="cls-8" x1="63.33" y1="41.51" x2="63.33" y2="64.88"/><polyline class="cls-8" points="50.69 75.03 66.32 82.75 93.67 68.24"/><polyline class="cls-8" points="81.25 59.03 78.04 57.13 50.13 71.84"/><polyline class="cls-8" points="98.94 71.21 62.88 89.87 46.15 81.59"/><line class="cls-8" x1="62.88" y1="89.87" x2="62.88" y2="100.42"/><polyline class="cls-8" points="40.42 9.21 64.11 21.57 71.99 17.43"/><line class="cls-8" x1="64.03" y1="30.35" x2="64.03" y2="21.57"/><polyline class="cls-8" points="37.2 14.44 37.2 16.38 64.03 30.35 72.53 25.9"/><polyline class="cls-8" points="29.92 18.21 29.92 19.68 63.48 37.03 76.26 30.02 76.26 29.29"/></g></svg>