<svg xmlns="http://www.w3.org/2000/svg" xmlns:xlink="http://www.w3.org/1999/xlink" viewBox="0 0 66.41 76.24"><defs><style>.cls-1,.cls-4{fill:#5cb867;}.cls-1,.cls-7{stroke:#000;stroke-width:3px;}.cls-1,.cls-7,.cls-8{stroke-miterlimit:10;}.cls-2{opacity:0.5;}.cls-3{opacity:0.07;}.cls-5{clip-path:url(#clip-path);}.cls-6{fill:#395054;}.cls-7,.cls-8{fill:none;}.cls-8{stroke:#fff;}</style><clipPath id="clip-path"><polygon class="cls-1" points="45.61 74.54 64.91 64.42 64.91 51.26 63.67 50.42 63.67 36.34 50.75 28.67 50.75 18.71 19.42 1.71 1.5 11.82 1.5 18.7 1.5 51.11 45.61 74.54"/></clipPath></defs><g id="Buildings_AYPP"><polygon class="cls-4" points="45.61 74.54 64.91 64.42 64.91 51.26 63.67 50.42 63.67 36.34 50.75 28.67 50.75 18.71 19.42 1.71 1.5 11.82 1.5 18.7 1.5 51.11 45.61 74.54"/><g class="cls-5"><polygon class="cls-6" points="1.93 27.03 18.57 36.29 18.57 50.38 37.49 60.32 37.49 70.13 1.34 50.99 1.93 27.03"/></g><polygon class="cls-7" points="45.61 74.54 64.91 64.42 64.91 51.26 63.67 50.42 63.67 36.34 50.75 28.67 50.75 18.71 19.42 1.71 1.5 11.82 1.5 18.7 1.5 51.11 45.61 74.54"/><polyline class="cls-8" points="31.6 42.3 31.6 28.13 5.03 13.66"/><polyline class="cls-8" points="45.61 71.48 45.61 60.94 33.21 54.67 33.21 41.23"/><line class="cls-8" x1="48.49" y1="19.99" x2="31.6" y2="28.13"/><polyline class="cls-8" points="4.39 27.74 31.45 42.3 49.83 32.61 49.83 31.13"/><polyline class="cls-8" points="61.93 52.45 46.07 60.92 44.43 60.07"/><polyline class="cls-8" points="60.81 37.91 44.62 46.39 44.62 60.42"/><line class="cls-8" x1="34.67" y1="40.66" x2="44.84" y2="46.16"/><line class="cls-8" x1="18.2" y1="35.17" x2="18.2" y2="48.04"/></g></svg>