<svg xmlns="http://www.w3.org/2000/svg" xmlns:xlink="http://www.w3.org/1999/xlink" viewBox="0 0 80.42 143.45"><defs><style>.cls-1,.cls-5{fill:#395054;}.cls-1,.cls-11,.cls-7{stroke:#000;stroke-width:3px;}.cls-1,.cls-11,.cls-12,.cls-7{stroke-miterlimit:10;}.cls-11,.cls-12,.cls-2{fill:none;}.cls-3{opacity:0.5;}.cls-4{opacity:0.07;}.cls-6{clip-path:url(#clip-path);}.cls-7{fill:#dc4230;}.cls-8{fill:#5cb867;}.cls-9{clip-path:url(#clip-path-2);}.cls-10{clip-path:url(#clip-path-3);}.cls-12{stroke:#fff;}.cls-13{fill:#fff;}</style><clipPath id="clip-path"><polygon class="cls-1" points="32.19 5.01 12.88 15.41 12.92 58.27 14.5 58.79 14.49 59.84 7.62 61.67 7.58 98.32 8.47 98.55 8.36 103.01 6.59 104.03 6.59 118.08 45.57 138.45 74.14 123.67 74.14 109.74 73.07 109.03 73.07 107.8 73.48 107.51 73.48 71.08 68.42 68.15 68.42 20.49 43.18 7.27 39.77 9.11 32.19 5.01"/></clipPath><clipPath id="clip-path-2"><polygon class="cls-2" points="42.34 17.93 57.67 25.84 69.83 20.09 96.29 0.47 96.48 79 54.16 90.58 28.91 48.22 42.34 17.93"/></clipPath><clipPath id="clip-path-3"><polygon class="cls-2" points="49.65 21.25 55.61 11.06 74.25 20.82 57.87 36.33 57.87 27.4 49.65 21.25"/></clipPath></defs><g id="Buildings_AYPP"><polygon class="cls-5" points="32.19 5.01 12.88 15.41 12.92 58.27 14.5 58.79 14.49 59.84 7.62 61.67 7.58 98.32 8.47 98.55 8.36 103.01 6.59 104.03 6.59 118.08 45.57 138.45 74.14 123.67 74.14 109.74 73.07 109.03 73.07 107.8 73.48 107.51 73.48 71.08 68.42 68.15 68.42 20.49 43.18 7.27 39.77 9.11 32.19 5.01"/><g class="cls-6"><rect class="cls-7" x="-35.33" y="-43.33" width="153.69" height="176.97"/><path class="cls-8" d="M76,35.63a.38.38,0,1,0-.38-.38A.38.38,0,0,0,76,35.63Z"/><path class="cls-8" d="M79.65,35.67a.42.42,0,1,0,0-.83.42.42,0,0,0,0,.83Z"/><path class="cls-8" d="M68.74,39.29a.4.4,0,1,0,0-.8.4.4,0,0,0,0,.8Z"/><path class="cls-8" d="M72.38,39.42a.53.53,0,1,0-.53-.53A.53.53,0,0,0,72.38,39.42Z"/><path class="cls-8" d="M76,39.51a.62.62,0,0,0,.62-.62.63.63,0,1,0-.62.62Z"/><path class="cls-8" d="M79.65,39.62a.73.73,0,0,0,.73-.73.73.73,0,0,0-.73-.72.72.72,0,0,0-.72.72A.73.73,0,0,0,79.65,39.62Z"/><path class="cls-8" d="M61.47,42.91a.38.38,0,1,0-.38-.38A.38.38,0,0,0,61.47,42.91Z"/><path class="cls-8" d="M65.11,43a.51.51,0,1,0-.51-.51A.5.5,0,0,0,65.11,43Z"/><path class="cls-8" d="M68.74,43.18a.65.65,0,1,0-.65-.65A.65.65,0,0,0,68.74,43.18Z"/><path class="cls-8" d="M72.38,43.33a.81.81,0,1,0-.81-.8A.8.8,0,0,0,72.38,43.33Z"/><path class="cls-8" d="M76,43.47a.94.94,0,1,0-.94-.94A.94.94,0,0,0,76,43.47Z"/><path class="cls-8" d="M79.65,43.58a1,1,0,1,0-1.05-1A1,1,0,0,0,79.65,43.58Z"/><path class="cls-8" d="M61.47,46.76a.6.6,0,1,0-.59-.59A.59.59,0,0,0,61.47,46.76Z"/><path class="cls-8" d="M65.11,46.94a.78.78,0,1,0-.78-.77A.78.78,0,0,0,65.11,46.94Z"/><path class="cls-8" d="M68.74,47.15a1,1,0,1,0-1-1A1,1,0,0,0,68.74,47.15Z"/><path class="cls-8" d="M72.38,47.34a1.18,1.18,0,1,0-1.17-1.17A1.17,1.17,0,0,0,72.38,47.34Z"/><path class="cls-8" d="M76,47.5a1.34,1.34,0,1,0-1.34-1.33A1.34,1.34,0,0,0,76,47.5Z"/><path class="cls-8" d="M79.65,47.61a1.45,1.45,0,1,0-1.44-1.44A1.45,1.45,0,0,0,79.65,47.61Z"/><path class="cls-8" d="M54.19,50.16a.36.36,0,1,0,0-.71.36.36,0,0,0,0,.71Z"/><path class="cls-8" d="M57.83,50.39a.58.58,0,0,0,.59-.59.59.59,0,0,0-.59-.59.6.6,0,0,0-.59.59A.59.59,0,0,0,57.83,50.39Z"/><path class="cls-8" d="M61.47,50.8a1,1,0,1,0-1-1A1,1,0,0,0,61.47,50.8Z"/><circle class="cls-8" cx="65.11" cy="49.8" r="1.23"/><path class="cls-8" d="M68.74,51.3a1.5,1.5,0,1,0-1.5-1.5A1.5,1.5,0,0,0,68.74,51.3Z"/><path class="cls-8" d="M54.19,54a.53.53,0,1,0-.52-.53A.53.53,0,0,0,54.19,54Z"/><circle class="cls-8" cx="57.83" cy="53.44" r="0.83"/><path class="cls-8" d="M61.47,54.66a1.22,1.22,0,0,0,0-2.44,1.22,1.22,0,0,0,0,2.44Z"/><path class="cls-8" d="M65.11,55a1.53,1.53,0,1,0-1.53-1.53A1.53,1.53,0,0,0,65.11,55Z"/><path class="cls-8" d="M50.56,57.5a.43.43,0,1,0,0-.85.43.43,0,1,0,0,.85Z"/><path class="cls-8" d="M54.19,57.76a.69.69,0,1,0-.68-.68A.69.69,0,0,0,54.19,57.76Z"/><path class="cls-8" d="M57.83,58.09a1,1,0,1,0-1-1A1,1,0,0,0,57.83,58.09Z"/><path class="cls-8" d="M61.47,58.57A1.5,1.5,0,1,0,60,57.08,1.5,1.5,0,0,0,61.47,58.57Z"/><path class="cls-8" d="M50.56,61.24a.53.53,0,0,0,.53-.53.53.53,0,0,0-1.06,0A.53.53,0,0,0,50.56,61.24Z"/><path class="cls-8" d="M54.19,61.55a.84.84,0,0,0,.84-.84.84.84,0,1,0-.84.84Z"/><path class="cls-8" d="M57.83,61.93a1.22,1.22,0,1,0-1.21-1.22A1.22,1.22,0,0,0,57.83,61.93Z"/><path class="cls-8" d="M46.92,64.76a.41.41,0,0,0,.41-.41.41.41,0,0,0-.41-.41.42.42,0,0,0-.41.41A.41.41,0,0,0,46.92,64.76Z"/><path class="cls-8" d="M50.56,65a.64.64,0,0,0,0-1.28.64.64,0,0,0,0,1.28Z"/><path class="cls-8" d="M54.19,65.32a1,1,0,1,0-1-1A1,1,0,0,0,54.19,65.32Z"/><path class="cls-8" d="M57.83,65.72a1.37,1.37,0,1,0-1.36-1.37A1.37,1.37,0,0,0,57.83,65.72Z"/><circle class="cls-8" cx="46.92" cy="67.99" r="0.42"/><circle class="cls-8" cx="50.56" cy="67.99" r="0.73"/><path class="cls-8" d="M54.19,69.07A1.08,1.08,0,1,0,53.11,68,1.08,1.08,0,0,0,54.19,69.07Z"/><path class="cls-8" d="M57.83,69.5A1.51,1.51,0,1,0,56.32,68,1.52,1.52,0,0,0,57.83,69.5Z"/><path class="cls-8" d="M46.92,72.08a.46.46,0,1,0-.46-.46A.46.46,0,0,0,46.92,72.08Z"/><path class="cls-8" d="M50.56,72.41a.79.79,0,1,0-.79-.79A.78.78,0,0,0,50.56,72.41Z"/><path class="cls-8" d="M54.19,72.76a1.14,1.14,0,1,0-1.13-1.14A1.14,1.14,0,0,0,54.19,72.76Z"/><circle class="cls-8" cx="57.83" cy="71.62" r="1.56"/><path class="cls-8" d="M46.92,74.75a.51.51,0,1,0,.51.51A.51.51,0,0,0,46.92,74.75Z"/><circle class="cls-8" cx="50.56" cy="75.26" r="0.83"/><path class="cls-8" d="M54.19,74.09a1.17,1.17,0,1,0,1.18,1.17A1.17,1.17,0,0,0,54.19,74.09Z"/><path class="cls-8" d="M117.87,75.26A1.84,1.84,0,0,0,116,73.42a1.81,1.81,0,0,0-1.64,1,2.16,2.16,0,0,0-.95-1,2.06,2.06,0,0,0,.93-1.14,1.8,1.8,0,1,0,0-1.31,2.05,2.05,0,0,0-1-1.19,2,2,0,0,0,1-1.44A1.7,1.7,0,0,0,116,69.71a1.72,1.72,0,0,0,0-3.44,1.7,1.7,0,0,0-1.65,1.36,2,2,0,0,0-1.18-1.53,1.91,1.91,0,0,0-.65-3.65,1.75,1.75,0,1,0-1.79-2.34,2.08,2.08,0,0,0-1.14-1.32,1.92,1.92,0,1,0-2.54-2.62A2.16,2.16,0,0,0,106,55.11a1.9,1.9,0,1,0-2.59-2.52,2.1,2.1,0,0,0-1.2-1.12,1.82,1.82,0,0,0-.73-3.49,1.8,1.8,0,0,0-1.76,1.47,1.92,1.92,0,0,0-1.88-1.6A1.94,1.94,0,0,0,96.06,49a2,2,0,0,0-3.64-.11,2.08,2.08,0,0,0-1.76-1.16,1.57,1.57,0,0,0,1.49-1.56,1.59,1.59,0,1,0-1.69,1.56,2.07,2.07,0,0,0-1.73,1.12A2,2,0,0,0,87,47.74a1.58,1.58,0,1,0-1.6-1.57A1.58,1.58,0,0,0,87,47.74a2.08,2.08,0,0,0-1.82,1.16,2,2,0,0,0-3.64.08,1.95,1.95,0,0,0-3.66.29A1.84,1.84,0,0,0,76,47.93a1.86,1.86,0,0,0-.87,3.51,2.18,2.18,0,0,0-1.07,1.05,2,2,0,0,0-1.6-1,1.7,1.7,0,1,0-.2,0,2,2,0,0,0-1.82,1.66,1.74,1.74,0,0,0-1.72-1.48A1.78,1.78,0,0,0,67,53.44a1.77,1.77,0,0,0,1.35,1.7,2,2,0,0,0-1.51,1.51,1.75,1.75,0,0,0-1.69-1.36,1.79,1.79,0,0,0-1.79,1.79,1.76,1.76,0,0,0,1.43,1.71,1.94,1.94,0,0,0-1.6,1.72A1.7,1.7,0,0,0,61.47,59a1.73,1.73,0,0,0,0,3.45,1.7,1.7,0,0,0,1.68-1.52,2,2,0,0,0,1,1.53,2.09,2.09,0,0,0-1,1.06,1.87,1.87,0,1,0-2.2,2.62,1.93,1.93,0,0,0-.3,3.63,2,2,0,0,0-.12,3.65,2.05,2.05,0,0,0-1.12,1.67,1.6,1.6,0,1,0,0,.36,2,2,0,0,0,1.1,1.66,2.07,2.07,0,0,0-1.09,1.75,1.59,1.59,0,1,0,0,.1,2,2,0,0,0,1.13,1.77,2,2,0,0,0,.08,3.68,2,2,0,0,0-1.13,1.77A2,2,0,0,0,61,88.06a1.81,1.81,0,0,0-1.39,1.75,1.85,1.85,0,0,0,3.53.75,2.06,2.06,0,0,0,1.12,1.18,1.9,1.9,0,1,0,2.52,2.58,2.11,2.11,0,0,0,1,1.05,1.91,1.91,0,0,0-1,1.56,1.72,1.72,0,1,0,0,.3,1.94,1.94,0,0,0,3.65.8,2.17,2.17,0,0,0,1.25,1.09,1.74,1.74,0,1,0,2.41,1.68,1.91,1.91,0,0,0,3.67.68,2,2,0,0,0,1.65,1.22,1.7,1.7,0,1,0,.45,0,2,2,0,0,0,1.56-1.06,2,2,0,0,0,1.27,1,1.76,1.76,0,0,0-1.2,1.67,1.78,1.78,0,1,0,3.56,0,1.76,1.76,0,0,0-1.2-1.67,2,2,0,0,0,1.22-1,2.18,2.18,0,0,0,1.08,1,1.83,1.83,0,1,0,2.58,1.77,1.83,1.83,0,1,0,2.56-1.77,2.11,2.11,0,0,0,1.1-1,2,2,0,0,0,1.26,1,1.77,1.77,0,1,0,1.06,0,2.05,2.05,0,0,0,1.33-1.07,2,2,0,0,0,1.6,1.08,1.68,1.68,0,0,0,.18,3.35A1.68,1.68,0,0,0,98,102.7a2,2,0,0,0,1.72-1.37,1.86,1.86,0,0,0,3.61-.61,1.83,1.83,0,0,0-1-1.6,2.2,2.2,0,0,0,1-.93,2.05,2.05,0,0,0,1.39.92,1.68,1.68,0,1,0,.7,0,2.08,2.08,0,0,0,1.59-1.24,1.87,1.87,0,0,0,1.7,1.1,1.89,1.89,0,0,0,.74-3.62,2,2,0,0,0,1.26-1.6,1.67,1.67,0,0,0,1.64,1.4,1.71,1.71,0,0,0,0-3.41,1.67,1.67,0,0,0-1.64,1.4,2.05,2.05,0,0,0-.93-1.41,2.24,2.24,0,0,0,1-1,1.85,1.85,0,0,0,1.62,1,1.89,1.89,0,0,0,.68-3.65,2,2,0,0,0,1.3-1.7A1.66,1.66,0,0,0,116,87.86,1.69,1.69,0,1,0,114.37,86a2,2,0,0,0-1.07-1.6,2.1,2.1,0,0,0,1.07-1.28A1.75,1.75,0,0,0,116,84.31a1.78,1.78,0,1,0,0-3.55A1.75,1.75,0,0,0,114.37,82a2.11,2.11,0,0,0-1-1.22,2.09,2.09,0,0,0,1-1.1,1.81,1.81,0,1,0,1.7-2.53A1.85,1.85,0,0,0,117.87,75.26Zm-7.12,9.8a2.29,2.29,0,0,0-.57-.67,2.21,2.21,0,0,0,.56-.62,1.85,1.85,0,0,0,.73.63A2,2,0,0,0,110.75,85.06Zm-3.69,7.28a2.47,2.47,0,0,0-.53-.63,2.51,2.51,0,0,0,.51-.52,2.22,2.22,0,0,0,.64.54A2,2,0,0,0,107.06,92.34ZM103.37,96a2.32,2.32,0,0,0-.54-.63,2.14,2.14,0,0,0,.53-.51,2.22,2.22,0,0,0,.61.53A2.05,2.05,0,0,0,103.37,96Zm-3.64-.23a2.22,2.22,0,0,0-.37-.44,2.5,2.5,0,0,0,.33-.32,2.49,2.49,0,0,0,.43.36A2.46,2.46,0,0,0,99.73,95.75ZM96,95.6c-.08-.09-.15-.19-.23-.27a1.81,1.81,0,0,0,.24-.24,1.78,1.78,0,0,0,.26.22A2.44,2.44,0,0,0,96,95.6Zm-7.29,4.1a2.27,2.27,0,0,0-.53-.62,2.43,2.43,0,0,0,.53-.44,2.17,2.17,0,0,0,.52.44A2.07,2.07,0,0,0,88.75,99.7Zm-11-4a2.34,2.34,0,0,0-.31-.32,3.27,3.27,0,0,0,.35-.3,1.66,1.66,0,0,0,.27.26A2.67,2.67,0,0,0,77.78,95.67Zm-3.65.19a2.24,2.24,0,0,0-.51-.51,2.64,2.64,0,0,0,.51-.43,2.5,2.5,0,0,0,.43.43A2.33,2.33,0,0,0,74.13,95.86Zm-3.67-3.63a2.06,2.06,0,0,0-.51-.51,2.26,2.26,0,0,0,.53-.44,2.44,2.44,0,0,0,.42.43A2,2,0,0,0,70.46,92.23Zm-3.65-3.6a2,2,0,0,0-.6-.57,2.3,2.3,0,0,0,.62-.54,2.24,2.24,0,0,0,.5.52A2.25,2.25,0,0,0,66.81,88.63Zm-3.67-3.45a2,2,0,0,0-.83-.78,2.08,2.08,0,0,0,.84-.74,2.32,2.32,0,0,0,.69.74A2.19,2.19,0,0,0,63.14,85.18Zm0-16.2a2.21,2.21,0,0,0,.7.79,2.32,2.32,0,0,0-.69.74,2,2,0,0,0-.84-.75A2,2,0,0,0,63.13,69ZM66.8,61.7a2.28,2.28,0,0,0,.68.77,2.11,2.11,0,0,0-.66.67,2.08,2.08,0,0,0-.78-.69A2,2,0,0,0,66.8,61.7Zm3.65-3.6a2.11,2.11,0,0,0,.62.71,2.28,2.28,0,0,0-.6.6,2.23,2.23,0,0,0-.71-.62A1.9,1.9,0,0,0,70.45,58.1Zm3.68.27a2.27,2.27,0,0,0,.37.45,2.1,2.1,0,0,0-.37.36,2.22,2.22,0,0,0-.44-.37A2.29,2.29,0,0,0,74.13,58.37Zm3.67-3.75a2.37,2.37,0,0,0,.5.55,2.42,2.42,0,0,0-.5.46,2.1,2.1,0,0,0-.52-.46A2.26,2.26,0,0,0,77.8,54.62Zm3.62.11a2.43,2.43,0,0,0,.39.45,2.47,2.47,0,0,0-.37.35,2.93,2.93,0,0,0-.43-.36A2.14,2.14,0,0,0,81.42,54.73Zm3.66.11c.1.12.19.24.3.35a2.35,2.35,0,0,0-.29.26,4.15,4.15,0,0,0-.32-.27A2,2,0,0,0,85.08,54.84Zm3.68,0a2.42,2.42,0,0,0,.31.33,2.66,2.66,0,0,0-.31.26,3.47,3.47,0,0,0-.29-.25A2.37,2.37,0,0,0,88.76,54.85Zm3.65-.07a2.28,2.28,0,0,0,.37.39,2.3,2.3,0,0,0-.37.33,2.66,2.66,0,0,0-.35-.32A2.18,2.18,0,0,0,92.41,54.78ZM96,54.7a2.45,2.45,0,0,0,.44.47,2.32,2.32,0,0,0-.44.39,3.08,3.08,0,0,0-.42-.39A1.89,1.89,0,0,0,96,54.7Zm3.68-.14a2.11,2.11,0,0,0,.59.6,2.11,2.11,0,0,0-.59.52,2.14,2.14,0,0,0-.53-.51A2.07,2.07,0,0,0,99.72,54.56Zm3.64,3.73a2,2,0,0,0,.5.51,2.12,2.12,0,0,0-.51.43,2.51,2.51,0,0,0-.44-.42A2.25,2.25,0,0,0,103.36,58.29Zm3.7,3.63a1.85,1.85,0,0,0,.55.53,2.48,2.48,0,0,0-.58.49,2.4,2.4,0,0,0-.44-.46A2.3,2.3,0,0,0,107.06,61.92Zm3.69,3.41a2,2,0,0,0,.83.77,2.06,2.06,0,0,0-.83.69,2.34,2.34,0,0,0-.64-.69A2.17,2.17,0,0,0,110.75,65.33Zm0,8.62a2,2,0,0,0-.44-.51,2.4,2.4,0,0,0,.46-.55,2.16,2.16,0,0,0,.6.53A2.24,2.24,0,0,0,110.72,74ZM107,84.66a2.69,2.69,0,0,0-.2-.27l.21-.22a3,3,0,0,0,.28.22A2.44,2.44,0,0,0,107,84.66Zm-3.66,7.4a1.7,1.7,0,0,0-.29-.36,2.37,2.37,0,0,0,.28-.27,2.3,2.3,0,0,0,.34.28A2.73,2.73,0,0,0,103.36,92.06ZM88.75,95.52l-.17-.19a1.29,1.29,0,0,0,.17-.16l.17.15A1.06,1.06,0,0,0,88.75,95.52ZM66.82,69.36a2.42,2.42,0,0,0,.36.42,3.15,3.15,0,0,0-.35.38,2.43,2.43,0,0,0-.45-.39A2.14,2.14,0,0,0,66.82,69.36ZM70.47,62a3,3,0,0,0,.39.47,2.81,2.81,0,0,0-.38.39,2,2,0,0,0-.47-.4A2,2,0,0,0,70.47,62Zm7.33-3.49a2.34,2.34,0,0,0,.25.3,1.7,1.7,0,0,0-.24.22,2.09,2.09,0,0,0-.28-.22A1.93,1.93,0,0,0,77.8,58.52Zm21.92,0a2.5,2.5,0,0,0,.32.33,4.19,4.19,0,0,0-.33.26,2.13,2.13,0,0,0-.26-.26A2.78,2.78,0,0,0,99.72,58.48ZM107,80.9l-.19-.2.15-.17a1.5,1.5,0,0,0,.24.2Zm-3.68,7.29-.17-.18a1.85,1.85,0,0,0,.14-.14c.06.06.13.1.2.16A1.29,1.29,0,0,0,103.35,88.19Zm-14.6,3.53,0,0,0,0s0,0,0,0A.1.1,0,0,1,88.75,91.72Zm-22.3-11a2.57,2.57,0,0,0,.39-.34,2.5,2.5,0,0,0,.31.34,2.59,2.59,0,0,0-.31.35A3.25,3.25,0,0,0,66.45,80.73Zm.38-7.64a2.43,2.43,0,0,0,.3.34,2.06,2.06,0,0,0-.28.31,2.3,2.3,0,0,0-.37-.33A2.15,2.15,0,0,0,66.83,73.09Zm3.65-7.26a1.68,1.68,0,0,0,.24.29,2.61,2.61,0,0,0-.23.24,2.34,2.34,0,0,0-.3-.25A1.9,1.9,0,0,0,70.48,65.83Zm7.33-3.45a.52.52,0,0,0,.1.11l-.09.08-.1-.09Zm29.44,7.41A1.73,1.73,0,0,0,107,70c-.07-.07-.13-.14-.2-.2.08-.07.14-.15.21-.22A2.41,2.41,0,0,0,107.25,69.79Zm-3.94,11s0,0,0,0a.46.46,0,0,0,.07-.07l.06,0ZM70.51,73.3l.13.14-.12.13a2,2,0,0,0-.16-.14Zm7.31-7.17,0,0h0Zm25.51,11-.06-.07.06-.07.08.07Zm-3.65,3.58h0ZM70.37,77.09l.15-.13.11.12-.12.13A1.49,1.49,0,0,0,70.37,77.09Zm3.79-3.69,0,0,0,0,0,0S74.15,73.42,74.16,73.4Zm25.52,3.68Zm-25.55,0,0,0,0,0,0,0Zm25.55-3.64Zm0-3.63ZM74.13,80.72l0,0,0,0,0,0Zm29.2-7.21-.06-.07.06-.07.08.07A.27.27,0,0,1,103.33,73.51Zm.09-3.71-.09.08-.06-.07.07-.08Zm-3.7-3.66,0,0,0,0s0,0,0,0ZM74.19,69.81l0,0-.06,0,.05,0A.1.1,0,0,1,74.19,69.81ZM70.34,80.73l.17-.14.12.13a.86.86,0,0,0-.13.14Zm3.76,3.64a.15.15,0,0,0,.06-.05l0,.05,0,.06Zm3.72,0Zm21.84,0,0,0,0,0,0,0Zm3.82-18.26a1.66,1.66,0,0,0-.14.13l-.11-.11.12-.14Zm-3.65-3.65-.13.12a.94.94,0,0,0-.1-.1l.11-.13Zm-3.76,0-.06.06a.1.1,0,0,0-.05,0l.07-.07Zm-3.63,0,0,0,0,0,0,0S92.43,62.49,92.44,62.51Zm-3.68,0,0,0h0l0,0Zm-3.63,0h0l0,0v0Zm-3.63,0,0,0-.06,0,0,0Zm-7.28,3.63-.07.08a1.09,1.09,0,0,0-.11-.1l.1-.08Zm-3.73,3.48.17.18c-.06,0-.1.1-.15.15s-.14-.11-.21-.17Zm-3.64,7.17a3.85,3.85,0,0,0,.27.3,2.14,2.14,0,0,0-.28.32,2,2,0,0,0-.34-.31A2.59,2.59,0,0,0,66.85,76.79Zm3.43,7.59c.07-.06.15-.1.22-.17l.16.16a1.71,1.71,0,0,0-.18.2A1.8,1.8,0,0,0,70.28,84.38ZM74,88l.14-.12.08.09-.11.13A.52.52,0,0,0,74,88Zm3.75,0,0,0,0,0,0,0Zm3.67,0h0v0ZM96,88v0l0,0,0,0Zm3.6,0,.06-.06.09.07a.6.6,0,0,0-.08.08Zm3.7-3.52-.09-.11.08-.07.1.09ZM107,77.27a1.62,1.62,0,0,0-.18-.19,1.62,1.62,0,0,0,.18-.19l.22.19Zm0-3.64c-.06-.06-.11-.13-.18-.19l.19-.19a2.15,2.15,0,0,0,.22.19A2.11,2.11,0,0,0,107,73.63Zm.4-7.53a1.86,1.86,0,0,0-.38.3,2.37,2.37,0,0,0-.27-.28,1.7,1.7,0,0,0,.29-.36A2.33,2.33,0,0,0,107.39,66.1Zm-3.76-3.62a3,3,0,0,0-.28.22c-.07-.08-.15-.15-.23-.23a2.15,2.15,0,0,0,.23-.28A2.57,2.57,0,0,0,103.63,62.48Zm-7.41-3.67c-.06.06-.13.11-.19.18l-.18-.17a2.33,2.33,0,0,0,.19-.23A1.92,1.92,0,0,0,96.22,58.81Zm-3.67,0L92.4,59l-.13-.13s.09-.12.14-.18S92.5,58.77,92.55,58.82Zm-3.69,0-.11.1-.1-.08s.07-.1.11-.14A.58.58,0,0,0,88.86,58.83Zm-3.65,0-.11.09L85,58.83l.11-.13A1.58,1.58,0,0,0,85.21,58.85Zm-3.61,0-.15.15-.19-.16.18-.2A1.66,1.66,0,0,0,81.6,58.83Zm-7.29,3.65-.17.18c-.08-.07-.17-.12-.25-.18a2.66,2.66,0,0,0,.24-.23C74.19,62.32,74.24,62.41,74.31,62.48ZM66.37,84.4a2.31,2.31,0,0,0,.47-.41,2.28,2.28,0,0,0,.37.39,2.06,2.06,0,0,0-.38.45A2.08,2.08,0,0,0,66.37,84.4ZM70.16,88a2.78,2.78,0,0,0,.32-.26,3,3,0,0,0,.25.25,1.89,1.89,0,0,0-.25.31A2.27,2.27,0,0,0,70.16,88Zm3.7,3.67a3,3,0,0,0,.28-.22c.07.07.13.14.2.2a2.16,2.16,0,0,0-.21.29A2.29,2.29,0,0,0,73.86,91.71Zm3.83,0a1.42,1.42,0,0,0,.13-.12l.12.11a1.67,1.67,0,0,0-.12.16Zm3.68,0a.5.5,0,0,0,.08-.07l.07.06-.08.1Zm3.69,0,0,0s0,0,0,0,0,0-.05,0Zm7.28,0,0,0,.06.05,0,.07Zm3.61,0L96,91.6l.11.09a1.09,1.09,0,0,0-.1.11Zm3.58,0s.11-.1.16-.16a1.54,1.54,0,0,0,.19.17,1.8,1.8,0,0,0-.19.2C99.63,91.83,99.59,91.75,99.53,91.69Zm11.21-21.33a2.24,2.24,0,0,0-.49-.57,2.27,2.27,0,0,0,.5-.61,2.13,2.13,0,0,0,.67.6A2.1,2.1,0,0,0,110.74,70.36Zm-43.92-4.8a2.11,2.11,0,0,0,.48.55,2.52,2.52,0,0,0-.48.5,2.28,2.28,0,0,0-.57-.5A2.13,2.13,0,0,0,66.82,65.56Zm-3.68,7.18a2.23,2.23,0,0,0,.59.67,2.36,2.36,0,0,0-.58.64,2,2,0,0,0-.73-.64A1.93,1.93,0,0,0,63.14,72.74Zm0,3.73a2.28,2.28,0,0,0,.57.63,2.12,2.12,0,0,0-.58.65,2,2,0,0,0-.7-.65A2,2,0,0,0,63.15,76.47Zm0,3.58a2.37,2.37,0,0,0,.62.68,2.33,2.33,0,0,0-.61.68,2,2,0,0,0-.76-.69A1.94,1.94,0,0,0,63.14,80.05ZM81.21,95.31a1.37,1.37,0,0,0,.23-.19l.21.21c-.07.07-.13.16-.2.24A2,2,0,0,0,81.21,95.31Zm3.72,0a1.29,1.29,0,0,0,.17-.16l.17.16c-.06.06-.11.13-.17.2S85,95.39,84.93,95.33Zm7.28,0,.19-.17.2.18a2.09,2.09,0,0,0-.2.22A2.11,2.11,0,0,0,92.21,95.32ZM107,88.43a1.85,1.85,0,0,0-.33-.4,3.28,3.28,0,0,0,.31-.34,2.06,2.06,0,0,0,.43.35A2.17,2.17,0,0,0,107,88.43Zm3.7-7.13a2.64,2.64,0,0,0-.48-.57,2.27,2.27,0,0,0,.48-.54,1.93,1.93,0,0,0,.63.54A2.15,2.15,0,0,0,110.74,81.3Zm0-3.69a2.3,2.3,0,0,0-.45-.53,2.33,2.33,0,0,0,.43-.51,2,2,0,0,0,.61.52A2.11,2.11,0,0,0,110.74,77.61Zm0-16.29a1.76,1.76,0,0,0,1.48,1.13,1.9,1.9,0,0,0-1.48.92,2.24,2.24,0,0,0-.86-.92A2.07,2.07,0,0,0,110.75,61.32ZM107.07,58a1.94,1.94,0,0,0,.82.81,2,2,0,0,0-.83.71,2.3,2.3,0,0,0-.69-.7A2.22,2.22,0,0,0,107.07,58Zm-3.66-3.7a1.91,1.91,0,0,0,.81.83,2,2,0,0,0-.86.76,2.32,2.32,0,0,0-.72-.71A2.05,2.05,0,0,0,103.41,54.28Zm-3.69-4.12a1.83,1.83,0,0,0,1,1.31,2.07,2.07,0,0,0-1,.85,2.19,2.19,0,0,0-.9-.86A1.88,1.88,0,0,0,99.72,50.16Zm-3.66.44a2,2,0,0,0,.8.86,2.19,2.19,0,0,0-.82.72,2.22,2.22,0,0,0-.76-.7A2.08,2.08,0,0,0,96.06,50.6Zm-3.64.12a2.12,2.12,0,0,0,.7.76,2.34,2.34,0,0,0-.71.62,2.21,2.21,0,0,0-.67-.62A2.16,2.16,0,0,0,92.42,50.72Zm-3.69,0a2.11,2.11,0,0,0,.66.73,2.55,2.55,0,0,0-.63.55,2.42,2.42,0,0,0-.65-.58A1.91,1.91,0,0,0,88.73,50.75Zm-3.65,0a2.17,2.17,0,0,0,.66.75,2.48,2.48,0,0,0-.66.59,2.15,2.15,0,0,0-.68-.59A1.89,1.89,0,0,0,85.08,50.7Zm-3.64-.08a2,2,0,0,0,.74.83,2.22,2.22,0,0,0-.76.7,2.19,2.19,0,0,0-.77-.68A2,2,0,0,0,81.44,50.62Zm-3.66-.29a1.94,1.94,0,0,0,.88,1.14,2.25,2.25,0,0,0-.86.79,2.15,2.15,0,0,0-.92-.82A1.79,1.79,0,0,0,77.78,50.33Zm-3.7,4.06a2.1,2.1,0,0,0,.67.78,2.25,2.25,0,0,0-.62.61,2.33,2.33,0,0,0-.77-.66A1.94,1.94,0,0,0,74.08,54.39Zm-3.62-.65a1.93,1.93,0,0,0,.94,1.38,2.19,2.19,0,0,0-1,.93,2,2,0,0,0-1.28-.91A1.74,1.74,0,0,0,70.46,53.74ZM66.8,57.51a2,2,0,0,0,.93,1.28,2.17,2.17,0,0,0-.93.94,1.91,1.91,0,0,0-1.34-.94A1.74,1.74,0,0,0,66.8,57.51Zm-3.66,7.68a2,2,0,0,0,.83.92,2.25,2.25,0,0,0-.84.89A1.94,1.94,0,0,0,62,66.13,1.88,1.88,0,0,0,63.14,65.19Zm0,23.87a1.83,1.83,0,0,0-1.23-1,1.94,1.94,0,0,0,1.22-.9,2.26,2.26,0,0,0,.86.9A2,2,0,0,0,63.15,89.06Zm3.64,3.51a1.9,1.9,0,0,0-.85-.83,2,2,0,0,0,.87-.76,2.21,2.21,0,0,0,.72.74A2.09,2.09,0,0,0,66.79,92.57Zm3.66,3.57a2,2,0,0,0-.78-.77,2.06,2.06,0,0,0,.79-.7,2.45,2.45,0,0,0,.68.68A2.19,2.19,0,0,0,70.45,96.14Zm3.66,4.5a1.73,1.73,0,0,0-1-1.52,2.17,2.17,0,0,0,1.07-.82,2.24,2.24,0,0,0,.88.82A1.86,1.86,0,0,0,74.11,100.64Zm3.67-.68a1.82,1.82,0,0,0-.76-.84,2.31,2.31,0,0,0,.76-.63,2.32,2.32,0,0,0,.7.62A2,2,0,0,0,77.78,100Zm3.66-.16a2.13,2.13,0,0,0-.61-.69,2.2,2.2,0,0,0,.62-.51,2.26,2.26,0,0,0,.58.49A2.24,2.24,0,0,0,81.44,99.8Zm3.65-.08a2.18,2.18,0,0,0-.54-.63,2.4,2.4,0,0,0,.55-.46,2.58,2.58,0,0,0,.54.45A2.11,2.11,0,0,0,85.09,99.72Zm3.66,4.54a1.83,1.83,0,0,0-1.06-1.57,2.09,2.09,0,0,0,1.06-1,2.07,2.07,0,0,0,1.07,1A1.82,1.82,0,0,0,88.75,104.26Zm3.66-4.53a2.29,2.29,0,0,0-.55-.65,2.63,2.63,0,0,0,.54-.46,2.34,2.34,0,0,0,.57.47A2,2,0,0,0,92.41,99.73Zm3.65.09a2.11,2.11,0,0,0-.63-.73,2.59,2.59,0,0,0,.61-.53,2.47,2.47,0,0,0,.65.55A1.87,1.87,0,0,0,96.06,99.82Zm3.67.29a2,2,0,0,0-.74-1,2.33,2.33,0,0,0,.74-.69,2.23,2.23,0,0,0,.85.7A1.8,1.8,0,0,0,99.73,100.11Zm7.32-3.82a2,2,0,0,0-.8-.92,2.27,2.27,0,0,0,.81-.82,1.93,1.93,0,0,0,.94.8A1.93,1.93,0,0,0,107.05,96.29Zm3.72-7.41a2.33,2.33,0,0,0-.72-.84,2.28,2.28,0,0,0,.7-.75,1.93,1.93,0,0,0,1,.76A1.88,1.88,0,0,0,110.77,88.88Zm3.6-10.71a2.12,2.12,0,0,0-.92-1.08,2.16,2.16,0,0,0,.93-1,1.83,1.83,0,0,0,1.59,1A1.79,1.79,0,0,0,114.37,78.17Z"/><path class="cls-8" d="M46.92,78.4a.5.5,0,0,0-.5.5.51.51,0,0,0,.5.5.5.5,0,0,0,.5-.5A.5.5,0,0,0,46.92,78.4Z"/><path class="cls-8" d="M50.56,78.08a.82.82,0,0,0-.82.82.82.82,0,0,0,.82.81.81.81,0,0,0,.81-.81A.82.82,0,0,0,50.56,78.08Z"/><path class="cls-8" d="M54.19,77.74a1.16,1.16,0,1,0,1.17,1.16A1.16,1.16,0,0,0,54.19,77.74Z"/><path class="cls-8" d="M46.92,82.05a.49.49,0,1,0,.49.49A.48.48,0,0,0,46.92,82.05Z"/><path class="cls-8" d="M50.56,81.75a.79.79,0,1,0,.78.79A.79.79,0,0,0,50.56,81.75Z"/><path class="cls-8" d="M54.19,81.42a1.12,1.12,0,1,0,1.12,1.12A1.12,1.12,0,0,0,54.19,81.42Z"/><path class="cls-8" d="M57.83,81a1.54,1.54,0,1,0,1.54,1.54A1.54,1.54,0,0,0,57.83,81Z"/><path class="cls-8" d="M46.92,85.75a.42.42,0,1,0,.42.42A.42.42,0,0,0,46.92,85.75Z"/><path class="cls-8" d="M50.56,85.46a.72.72,0,1,0,.71.71A.71.71,0,0,0,50.56,85.46Z"/><path class="cls-8" d="M54.19,85.13a1,1,0,1,0,1,1A1,1,0,0,0,54.19,85.13Z"/><path class="cls-8" d="M57.83,84.71a1.47,1.47,0,1,0,1.47,1.46A1.46,1.46,0,0,0,57.83,84.71Z"/><path class="cls-8" d="M46.92,89.45a.36.36,0,1,0,.36.36A.36.36,0,0,0,46.92,89.45Z"/><path class="cls-8" d="M50.56,89.17a.64.64,0,0,0,0,1.28.64.64,0,0,0,.64-.64A.64.64,0,0,0,50.56,89.17Z"/><path class="cls-8" d="M54.19,88.87a.94.94,0,1,0,.94.94A.94.94,0,0,0,54.19,88.87Z"/><path class="cls-8" d="M57.83,88.46a1.35,1.35,0,1,0,1.35,1.35A1.35,1.35,0,0,0,57.83,88.46Z"/><path class="cls-8" d="M50.56,92.93a.52.52,0,0,0-.52.52.52.52,0,0,0,.52.52.53.53,0,0,0,.52-.52A.52.52,0,0,0,50.56,92.93Z"/><path class="cls-8" d="M54.19,92.67a.78.78,0,1,0,.78.78A.78.78,0,0,0,54.19,92.67Z"/><path class="cls-8" d="M57.83,92.3A1.15,1.15,0,1,0,59,93.45,1.15,1.15,0,0,0,57.83,92.3Z"/><path class="cls-8" d="M61.47,91.81a1.64,1.64,0,1,0,1.64,1.64A1.63,1.63,0,0,0,61.47,91.81Z"/><path class="cls-8" d="M50.56,96.71a.37.37,0,0,0-.38.37.38.38,0,0,0,.38.38.37.37,0,0,0,.37-.38A.36.36,0,0,0,50.56,96.71Z"/><path class="cls-8" d="M54.19,96.46a.62.62,0,0,0-.62.62.63.63,0,0,0,1.25,0A.63.63,0,0,0,54.19,96.46Z"/><path class="cls-8" d="M57.83,96.12a1,1,0,1,0,1,1A1,1,0,0,0,57.83,96.12Z"/><path class="cls-8" d="M61.47,95.65a1.44,1.44,0,1,0,1.44,1.43A1.44,1.44,0,0,0,61.47,95.65Z"/><path class="cls-8" d="M54.19,100.35a.37.37,0,1,0,.37.37A.37.37,0,0,0,54.19,100.35Z"/><path class="cls-8" d="M57.83,100.1a.62.62,0,1,0,.62.62A.62.62,0,0,0,57.83,100.1Z"/><path class="cls-8" d="M61.47,99.71a1,1,0,1,0,1,1A1,1,0,0,0,61.47,99.71Z"/><path class="cls-8" d="M65.11,99.44a1.28,1.28,0,1,0,1.28,1.28A1.28,1.28,0,0,0,65.11,99.44Z"/><path class="cls-8" d="M68.74,99.18a1.54,1.54,0,1,0,1.54,1.54A1.54,1.54,0,0,0,68.74,99.18Z"/><path class="cls-8" d="M57.83,103.87a.49.49,0,1,0,.49.49A.49.49,0,0,0,57.83,103.87Z"/><path class="cls-8" d="M61.47,103.58a.78.78,0,1,0,0,1.55.78.78,0,0,0,0-1.55Z"/><path class="cls-8" d="M65.11,103.35a1,1,0,1,0,1,1A1,1,0,0,0,65.11,103.35Z"/><path class="cls-8" d="M68.74,103.12A1.24,1.24,0,1,0,70,104.36,1.24,1.24,0,0,0,68.74,103.12Z"/><path class="cls-8" d="M72.38,102.92a1.44,1.44,0,1,0,1.44,1.44A1.44,1.44,0,0,0,72.38,102.92Z"/><path class="cls-8" d="M76,102.77a1.59,1.59,0,1,0,1.59,1.59A1.59,1.59,0,0,0,76,102.77Z"/><path class="cls-8" d="M61.47,107.44a.55.55,0,0,0-.55.55.54.54,0,0,0,.55.55A.55.55,0,0,0,62,108,.55.55,0,0,0,61.47,107.44Z"/><path class="cls-8" d="M65.11,107.25a.74.74,0,0,0-.75.74.75.75,0,1,0,1.49,0A.74.74,0,0,0,65.11,107.25Z"/><path class="cls-8" d="M68.74,107.09a.91.91,0,0,0,0,1.81.91.91,0,1,0,0-1.81Z"/><path class="cls-8" d="M72.38,106.9A1.09,1.09,0,1,0,73.47,108,1.09,1.09,0,0,0,72.38,106.9Z"/><circle class="cls-8" cx="76.02" cy="107.99" r="1.26"/><path class="cls-8" d="M79.65,106.62a1.38,1.38,0,0,0,0,2.75,1.38,1.38,0,1,0,0-2.75Z"/><path class="cls-8" d="M65.11,111.17a.46.46,0,1,0,.45.46A.46.46,0,0,0,65.11,111.17Z"/><path class="cls-8" d="M68.74,111a.59.59,0,0,0,0,1.18.59.59,0,0,0,0-1.18Z"/><path class="cls-8" d="M72.38,110.9a.73.73,0,1,0,.73.73A.73.73,0,0,0,72.38,110.9Z"/><path class="cls-8" d="M76,110.76a.87.87,0,1,0,.86.87A.87.87,0,0,0,76,110.76Z"/><path class="cls-8" d="M79.65,110.67a1,1,0,1,0,1,1A1,1,0,0,0,79.65,110.67Z"/><path class="cls-8" d="M68.74,114.89a.37.37,0,0,0-.37.38.36.36,0,0,0,.37.37.37.37,0,0,0,.38-.37A.38.38,0,0,0,68.74,114.89Z"/><path class="cls-8" d="M72.38,114.79a.48.48,0,0,0-.48.48.48.48,0,0,0,1,0A.48.48,0,0,0,72.38,114.79Z"/><path class="cls-8" d="M76,114.7a.56.56,0,0,0-.57.57.57.57,0,0,0,.57.57.58.58,0,0,0,.57-.57A.57.57,0,0,0,76,114.7Z"/><path class="cls-8" d="M79.65,114.63a.64.64,0,0,0-.64.64.65.65,0,1,0,.64-.64Z"/><path class="cls-8" d="M79.65,118.55a.36.36,0,0,0,0,.71.36.36,0,1,0,0-.71Z"/><path class="cls-8" d="M76,64.66a.38.38,0,1,0,0-.76.38.38,0,0,0,0,.76Z"/><path class="cls-8" d="M79.62,64.7a.42.42,0,1,0-.42-.42A.42.42,0,0,0,79.62,64.7Z"/><path class="cls-8" d="M68.71,68.32a.4.4,0,1,0-.4-.4A.4.4,0,0,0,68.71,68.32Z"/><path class="cls-8" d="M72.35,68.45a.53.53,0,0,0,0-1.06.53.53,0,0,0,0,1.06Z"/><path class="cls-8" d="M76,68.54a.62.62,0,1,0,0-1.24.62.62,0,0,0,0,1.24Z"/><path class="cls-8" d="M79.62,68.64a.72.72,0,1,0-.72-.72A.72.72,0,0,0,79.62,68.64Z"/><path class="cls-8" d="M61.43,71.93a.38.38,0,1,0-.37-.37A.38.38,0,0,0,61.43,71.93Z"/><path class="cls-8" d="M65.07,72.07a.51.51,0,0,0,.51-.51.51.51,0,0,0-1,0A.51.51,0,0,0,65.07,72.07Z"/><path class="cls-8" d="M68.71,72.21a.65.65,0,0,0,.65-.65.65.65,0,1,0-1.3,0A.65.65,0,0,0,68.71,72.21Z"/><path class="cls-8" d="M72.35,72.36a.81.81,0,1,0-.81-.8A.8.8,0,0,0,72.35,72.36Z"/><path class="cls-8" d="M76,72.49a.94.94,0,1,0-.94-.93A.94.94,0,0,0,76,72.49Z"/><path class="cls-8" d="M79.62,72.6a1,1,0,1,0-1.05-1A1,1,0,0,0,79.62,72.6Z"/><path class="cls-8" d="M61.43,75.78a.59.59,0,0,0,.6-.59.6.6,0,0,0-1.19,0A.59.59,0,0,0,61.43,75.78Z"/><path class="cls-8" d="M65.07,76a.78.78,0,1,0,0-1.55.78.78,0,0,0,0,1.55Z"/><path class="cls-8" d="M68.71,76.18a1,1,0,1,0-1-1A1,1,0,0,0,68.71,76.18Z"/><path class="cls-8" d="M72.35,76.36a1.17,1.17,0,1,0-1.18-1.17A1.17,1.17,0,0,0,72.35,76.36Z"/><path class="cls-8" d="M76,76.53a1.34,1.34,0,1,0-1.33-1.34A1.34,1.34,0,0,0,76,76.53Z"/><path class="cls-8" d="M79.62,76.64a1.45,1.45,0,1,0-1.45-1.45A1.45,1.45,0,0,0,79.62,76.64Z"/><path class="cls-8" d="M54.16,79.19a.36.36,0,1,0-.36-.36A.36.36,0,0,0,54.16,79.19Z"/><path class="cls-8" d="M57.8,79.42a.59.59,0,0,0,0-1.18.59.59,0,1,0,0,1.18Z"/><path class="cls-8" d="M61.43,79.83a1,1,0,1,0-1-1A1,1,0,0,0,61.43,79.83Z"/><circle class="cls-8" cx="65.07" cy="78.83" r="1.23"/><path class="cls-8" d="M68.71,80.33a1.5,1.5,0,1,0-1.5-1.5A1.5,1.5,0,0,0,68.71,80.33Z"/><path class="cls-8" d="M54.16,83a.53.53,0,0,0,.53-.53.53.53,0,1,0-1.06,0A.53.53,0,0,0,54.16,83Z"/><circle class="cls-8" cx="57.8" cy="82.47" r="0.83"/><path class="cls-8" d="M61.43,83.69a1.23,1.23,0,1,0-1.22-1.22A1.23,1.23,0,0,0,61.43,83.69Z"/><path class="cls-8" d="M65.07,84a1.53,1.53,0,1,0-1.53-1.52A1.52,1.52,0,0,0,65.07,84Z"/><path class="cls-8" d="M50.52,86.53a.43.43,0,1,0,0-.85.43.43,0,0,0,0,.85Z"/><path class="cls-8" d="M54.16,86.79a.69.69,0,1,0-.68-.69A.68.68,0,0,0,54.16,86.79Z"/><path class="cls-8" d="M57.8,87.11a1,1,0,1,0-1-1A1,1,0,0,0,57.8,87.11Z"/><path class="cls-8" d="M61.43,87.6a1.5,1.5,0,1,0-1.49-1.5A1.5,1.5,0,0,0,61.43,87.6Z"/><path class="cls-8" d="M50.52,90.27a.53.53,0,0,0,0-1.06.53.53,0,1,0,0,1.06Z"/><path class="cls-8" d="M54.16,90.58a.84.84,0,0,0,0-1.68.84.84,0,0,0,0,1.68Z"/><path class="cls-8" d="M57.8,91a1.21,1.21,0,1,0-1.21-1.21A1.21,1.21,0,0,0,57.8,91Z"/><path class="cls-8" d="M46.89,93.78a.41.41,0,0,0,0-.81.41.41,0,1,0,0,.81Z"/><path class="cls-8" d="M50.52,94a.64.64,0,1,0,0-1.28.64.64,0,0,0-.64.64A.64.64,0,0,0,50.52,94Z"/><path class="cls-8" d="M54.16,94.35a1,1,0,1,0-1-1A1,1,0,0,0,54.16,94.35Z"/><path class="cls-8" d="M57.8,94.74a1.37,1.37,0,1,0-1.37-1.36A1.36,1.36,0,0,0,57.8,94.74Z"/><circle class="cls-8" cx="46.89" cy="97.01" r="0.42"/><circle class="cls-8" cx="50.52" cy="97.01" r="0.73"/><path class="cls-8" d="M54.16,98.09A1.08,1.08,0,1,0,53.08,97,1.08,1.08,0,0,0,54.16,98.09Z"/><path class="cls-8" d="M57.8,98.52A1.51,1.51,0,1,0,56.29,97,1.51,1.51,0,0,0,57.8,98.52Z"/><path class="cls-8" d="M46.89,101.11a.46.46,0,1,0,0-.92.46.46,0,1,0,0,.92Z"/><path class="cls-8" d="M50.52,101.44a.79.79,0,0,0,.79-.79.79.79,0,1,0-.79.79Z"/><path class="cls-8" d="M54.16,101.78a1.13,1.13,0,0,0,0-2.26,1.13,1.13,0,0,0,0,2.26Z"/><circle class="cls-8" cx="57.8" cy="100.65" r="1.56"/><path class="cls-8" d="M46.89,103.78a.51.51,0,1,0,.51.51A.51.51,0,0,0,46.89,103.78Z"/><circle class="cls-8" cx="50.52" cy="104.29" r="0.83"/><path class="cls-8" d="M54.16,103.12a1.17,1.17,0,1,0,1.17,1.17A1.17,1.17,0,0,0,54.16,103.12Z"/><path class="cls-8" d="M117.83,104.29a1.83,1.83,0,0,0-3.49-.8,2.13,2.13,0,0,0-1-1,2.08,2.08,0,0,0,.94-1.14,1.8,1.8,0,1,0,0-1.31,2.09,2.09,0,0,0-1-1.2,2,2,0,0,0,1-1.43A1.7,1.7,0,0,0,116,98.74a1.73,1.73,0,0,0,0-3.45,1.7,1.7,0,0,0-1.65,1.37,2,2,0,0,0-1.18-1.54,1.91,1.91,0,0,0-.66-3.65,1.75,1.75,0,1,0-1.79-2.34,2.12,2.12,0,0,0-1.13-1.32,1.91,1.91,0,0,0,1.07-1.71,1.93,1.93,0,0,0-1.94-1.93,1.88,1.88,0,0,0-1.67,1A2.23,2.23,0,0,0,106,84.13a1.88,1.88,0,0,0,1-1.66,1.9,1.9,0,0,0-3.61-.85,2.12,2.12,0,0,0-1.21-1.12,1.82,1.82,0,0,0-.73-3.49,1.79,1.79,0,0,0-1.75,1.47A1.92,1.92,0,0,0,96,78a2,2,0,0,0-3.65-.12,2.06,2.06,0,0,0-1.75-1.15,1.59,1.59,0,1,0-.2,0,2.06,2.06,0,0,0-1.73,1.12,2,2,0,0,0-1.78-1.11,1.58,1.58,0,1,0-1.61-1.58,1.58,1.58,0,0,0,1.61,1.58,2,2,0,0,0-1.82,1.16,2,2,0,0,0-3.64.08,1.94,1.94,0,0,0-3.66.29A1.85,1.85,0,0,0,76,77a1.86,1.86,0,0,0-.86,3.51,2.15,2.15,0,0,0-1.08,1,1.94,1.94,0,0,0-1.59-1,1.69,1.69,0,0,0-.1-3.38,1.71,1.71,0,0,0-1.71,1.7,1.69,1.69,0,0,0,1.6,1.68,2,2,0,0,0-1.81,1.65,1.76,1.76,0,0,0-1.72-1.48,1.78,1.78,0,0,0-1.78,1.79,1.75,1.75,0,0,0,1.35,1.69,2,2,0,0,0-1.51,1.51,1.77,1.77,0,0,0-1.7-1.35,1.77,1.77,0,0,0-.35,3.5,1.93,1.93,0,0,0-1.6,1.72,1.72,1.72,0,1,0,0,.4,1.93,1.93,0,0,0,1,1.53,2.16,2.16,0,0,0-1,1.07,1.87,1.87,0,1,0-2.2,2.62A1.93,1.93,0,0,0,59.47,97a2,2,0,0,0,1.14,1.77,2,2,0,0,0-1.22,1.87,2,2,0,0,0,1.09,1.78,2.11,2.11,0,0,0-1.12,1.68,1.58,1.58,0,0,0-3.16.18,1.6,1.6,0,0,0,1.6,1.6,1.58,1.58,0,0,0,1.56-1.43,2.11,2.11,0,0,0,1.1,1.67,2,2,0,0,0-1.08,1.74,1.59,1.59,0,1,0,0,.11,2,2,0,0,0,1.13,1.77,2,2,0,0,0-1.13,1.81,2,2,0,0,0,1.21,1.87,2,2,0,0,0-1.13,1.77A1.94,1.94,0,0,0,61,117.08a1.83,1.83,0,1,0,2.13,2.5,2.16,2.16,0,0,0,1.13,1.19,1.89,1.89,0,0,0-1.08,1.7,1.91,1.91,0,0,0,1.91,1.92,1.89,1.89,0,0,0,1.68-1,2.15,2.15,0,0,0,1,1,2,2,0,0,0-1,1.57,1.7,1.7,0,0,0-1.69-1.57,1.72,1.72,0,1,0,0,3.44,1.7,1.7,0,0,0,1.69-1.57,1.94,1.94,0,0,0,3.65.79,2.13,2.13,0,0,0,1.26,1.09,1.74,1.74,0,0,0,.68,3.35,1.73,1.73,0,0,0,1.72-1.67A1.92,1.92,0,0,0,76,131.67a1.94,1.94,0,0,0,1.77-1.16,2,2,0,0,0,1.64,1.22,1.67,1.67,0,0,0-1.47,1.65,1.7,1.7,0,0,0,3.4,0,1.67,1.67,0,0,0-1.47-1.65,2,2,0,0,0,1.55-1.07,2.08,2.08,0,0,0,1.28,1.06,1.77,1.77,0,0,0-1.21,1.66,1.79,1.79,0,1,0,2.37-1.66,2.06,2.06,0,0,0,1.22-1,2.07,2.07,0,0,0,1.07,1,1.84,1.84,0,1,0,2.59,1.77,1.82,1.82,0,1,0,2.56-1.76,2.15,2.15,0,0,0,1.09-1,2,2,0,0,0,1.27,1,1.75,1.75,0,0,0-1.25,1.66,1.78,1.78,0,1,0,3.55,0,1.75,1.75,0,0,0-1.24-1.66A2.06,2.06,0,0,0,96,130.65a2,2,0,0,0,1.61,1.08,1.67,1.67,0,0,0-1.52,1.65,1.7,1.7,0,0,0,3.39,0A1.67,1.67,0,0,0,98,131.73a2,2,0,0,0,1.72-1.38,1.85,1.85,0,0,0,1.74,1.26,1.87,1.87,0,0,0,1.87-1.86,1.83,1.83,0,0,0-1-1.6,2.22,2.22,0,0,0,1-.94,2.07,2.07,0,0,0,1.38.93,1.64,1.64,0,0,0-1.32,1.61,1.68,1.68,0,0,0,3.36,0,1.65,1.65,0,0,0-1.33-1.61A2.08,2.08,0,0,0,107,126.9a1.88,1.88,0,1,0,2.44-2.52,2,2,0,0,0,1.25-1.6,1.67,1.67,0,0,0,1.64,1.39,1.7,1.7,0,1,0-1.64-2,2,2,0,0,0-.93-1.41,2.24,2.24,0,0,0,1-1,1.88,1.88,0,0,0,1.62,1,1.89,1.89,0,0,0,.68-3.65,2,2,0,0,0,1.3-1.7,1.69,1.69,0,1,0,0-.36,2,2,0,0,0-1.06-1.59,2,2,0,0,0,1.06-1.29,1.77,1.77,0,1,0,0-1.16,2,2,0,0,0-1-1.22,2,2,0,0,0,1-1.11,1.81,1.81,0,0,0,3.47-.72,1.81,1.81,0,0,0-1.76-1.81A1.84,1.84,0,0,0,117.83,104.29Zm-7.12,9.8a2.13,2.13,0,0,0-.56-.67,2.5,2.5,0,0,0,.55-.62,2.15,2.15,0,0,0,.74.63A1.93,1.93,0,0,0,110.71,114.09ZM107,121.37a2.43,2.43,0,0,0-.52-.63,2.47,2.47,0,0,0,.5-.52,2.26,2.26,0,0,0,.65.54A2,2,0,0,0,107,121.37ZM103.34,125a2.18,2.18,0,0,0-.54-.63,2.18,2.18,0,0,0,.53-.52,2.07,2.07,0,0,0,.61.53A2.09,2.09,0,0,0,103.34,125Zm-3.64-.24a2.16,2.16,0,0,0-.37-.43,2.5,2.5,0,0,0,.33-.32,2.16,2.16,0,0,0,.43.36A2.06,2.06,0,0,0,99.7,124.77Zm-3.7-.14a1.94,1.94,0,0,0-.23-.27l.25-.24a2.75,2.75,0,0,0,.26.22A2.57,2.57,0,0,0,96,124.63Zm-7.29,4.09a2,2,0,0,0-.52-.61,2.43,2.43,0,0,0,.52-.44,2.26,2.26,0,0,0,.53.44A2.07,2.07,0,0,0,88.71,128.72Zm-11-4a2.36,2.36,0,0,0-.31-.32,3.31,3.31,0,0,0,.34-.3,2.27,2.27,0,0,0,.28.26A2.11,2.11,0,0,0,77.75,124.7Zm-3.66.19a2.06,2.06,0,0,0-.51-.51,2.16,2.16,0,0,0,.51-.44,2.29,2.29,0,0,0,.44.44A2.16,2.16,0,0,0,74.09,124.89Zm-3.66-3.64a2.24,2.24,0,0,0-.51-.51,2.17,2.17,0,0,0,.52-.43,2.14,2.14,0,0,0,.43.42A2.17,2.17,0,0,0,70.43,121.25Zm-3.65-3.59a2.36,2.36,0,0,0-.6-.58,2.1,2.1,0,0,0,.61-.54,2.53,2.53,0,0,0,.5.53A2.07,2.07,0,0,0,66.78,117.66Zm-3.67-3.45a2,2,0,0,0-.83-.78,2,2,0,0,0,.83-.75,2.25,2.25,0,0,0,.7.74A2.12,2.12,0,0,0,63.11,114.21ZM63.1,98a2.08,2.08,0,0,0,.7.8,2.13,2.13,0,0,0-.69.74,2.08,2.08,0,0,0-.85-.76A1.86,1.86,0,0,0,63.1,98Zm3.67-7.27a2.13,2.13,0,0,0,.67.76,2.22,2.22,0,0,0-.65.68,2.18,2.18,0,0,0-.78-.7A2,2,0,0,0,66.77,90.73Zm3.65-3.6a2.21,2.21,0,0,0,.62.71,2.14,2.14,0,0,0-.6.6,2.14,2.14,0,0,0-.72-.62A2,2,0,0,0,70.42,87.13Zm3.67.27a2.27,2.27,0,0,0,.38.44,2.16,2.16,0,0,0-.37.37,2.22,2.22,0,0,0-.44-.37A2.24,2.24,0,0,0,74.09,87.4Zm3.68-3.76a2.17,2.17,0,0,0,.49.55,2.73,2.73,0,0,0-.49.47,2.33,2.33,0,0,0-.52-.47A2,2,0,0,0,77.77,83.64Zm3.62.12a2.07,2.07,0,0,0,.39.45,2.11,2.11,0,0,0-.38.35,2.61,2.61,0,0,0-.43-.37A1.9,1.9,0,0,0,81.39,83.76Zm3.66.11a1.92,1.92,0,0,0,.3.34,3.71,3.71,0,0,0-.29.27,2,2,0,0,0-.32-.27A3.28,3.28,0,0,0,85.05,83.87Zm3.68,0a2.43,2.43,0,0,0,.3.34,2.51,2.51,0,0,0-.31.26,2.33,2.33,0,0,0-.28-.26A1.93,1.93,0,0,0,88.73,83.87Zm3.65-.07a2.34,2.34,0,0,0,.37.4,2,2,0,0,0-.38.33,2.05,2.05,0,0,0-.34-.32A2.3,2.3,0,0,0,92.38,83.8ZM96,83.72a2.19,2.19,0,0,0,.44.47,2.15,2.15,0,0,0-.45.4,2.23,2.23,0,0,0-.42-.39A2.18,2.18,0,0,0,96,83.72Zm3.68-.13a2.07,2.07,0,0,0,.58.6,2.61,2.61,0,0,0-.59.51,2.51,2.51,0,0,0-.52-.51A2.18,2.18,0,0,0,99.69,83.59Zm3.64,3.72a2.2,2.2,0,0,0,.49.52,2.33,2.33,0,0,0-.51.43,2.14,2.14,0,0,0-.43-.42A2.3,2.3,0,0,0,103.33,87.31ZM107,91a2.13,2.13,0,0,0,.55.53A2.06,2.06,0,0,0,107,92a2.45,2.45,0,0,0-.44-.47A2,2,0,0,0,107,91Zm3.7,3.41a1.88,1.88,0,0,0,.82.76,2.14,2.14,0,0,0-.82.7,2.38,2.38,0,0,0-.64-.7A2.23,2.23,0,0,0,110.72,94.36Zm0,8.62a2.75,2.75,0,0,0-.44-.52,2.39,2.39,0,0,0,.46-.54,2,2,0,0,0,.6.53A2,2,0,0,0,110.69,103Zm-3.7,10.7a2.65,2.65,0,0,0-.21-.26,1.51,1.51,0,0,0,.21-.23,3.25,3.25,0,0,0,.29.23A2.35,2.35,0,0,0,107,113.68Zm-3.66,7.4a3.37,3.37,0,0,0-.29-.35,3.44,3.44,0,0,0,.27-.27,2.39,2.39,0,0,0,.35.28A1.77,1.77,0,0,0,103.33,121.08Zm-14.62,3.47a1,1,0,0,0-.16-.19l.17-.16.16.15C88.82,124.41,88.77,124.48,88.71,124.55ZM66.79,98.39a2.42,2.42,0,0,0,.36.42,2.11,2.11,0,0,0-.35.38,2.07,2.07,0,0,0-.45-.39A2.43,2.43,0,0,0,66.79,98.39ZM70.44,91a1.91,1.91,0,0,0,.39.46,2.05,2.05,0,0,0-.38.4,2.37,2.37,0,0,0-.48-.41A2.22,2.22,0,0,0,70.44,91Zm7.33-3.49a2.31,2.31,0,0,0,.24.29,2.5,2.5,0,0,0-.23.23c-.09-.09-.19-.15-.28-.23A3.71,3.71,0,0,0,77.77,87.55Zm21.91,0a1.77,1.77,0,0,0,.33.34,2,2,0,0,0-.33.25,3.07,3.07,0,0,0-.26-.25A2.18,2.18,0,0,0,99.68,87.5ZM107,109.93l-.19-.21a1.22,1.22,0,0,0,.15-.17c.08.08.17.14.25.21C107.13,109.82,107.05,109.87,107,109.93Zm-3.68,7.29a.93.93,0,0,0-.16-.18l.14-.15a1.35,1.35,0,0,0,.19.16Zm-14.59,3.53,0-.06,0,0,.05,0Zm-22.3-11a2.57,2.57,0,0,0,.39-.35,2,2,0,0,0,.3.35,1.68,1.68,0,0,0-.3.35A2.13,2.13,0,0,0,66.42,109.76Zm.38-7.65a2,2,0,0,0,.29.35,2.61,2.61,0,0,0-.27.3,2.38,2.38,0,0,0-.38-.32A2.24,2.24,0,0,0,66.8,102.11Zm3.65-7.25a3.25,3.25,0,0,0,.23.29,2.39,2.39,0,0,0-.22.23,2.55,2.55,0,0,0-.31-.24A2.68,2.68,0,0,0,70.45,94.86Zm7.33-3.45.09.11a.6.6,0,0,0-.08.08l-.1-.09A.81.81,0,0,1,77.78,91.41Zm29.44,7.4c-.09.08-.18.14-.26.22a1.8,1.8,0,0,0-.19-.2l.21-.23A1.64,1.64,0,0,0,107.22,98.81Zm-4,11,0,0,.07-.08,0,0A.6.6,0,0,1,103.27,109.8Zm-32.79-7.48a.86.86,0,0,0,.13.14l-.13.13-.16-.13Zm7.31-7.16h0Zm25.51,11-.06-.07.06-.07.08.07A.27.27,0,0,0,103.3,106.18Zm-3.65,3.57h0Zm-29.32-3.64a.93.93,0,0,0,.15-.13l.12.13a.74.74,0,0,0-.12.13Zm3.79-3.68s0,0,0,0l0,0s0,0,0,0Zm25.52,3.68Zm-25.55,0,0,0,0,0,0,0Zm25.56-3.64h0Zm0-3.64h0ZM74.09,109.74l0,0,0,0s0,0,0,0Zm29.21-7.2-.06-.07.06-.07.08.07Zm.09-3.71-.09.07-.06-.07.07-.08A.6.6,0,0,0,103.39,98.83Zm-3.7-3.67,0,0v0l0,0ZM74.16,98.83s0,0,0,0a.1.1,0,0,0-.05,0,.1.1,0,0,1,.05,0ZM70.3,109.76c.06-.05.12-.09.18-.15a.74.74,0,0,0,.12.13l-.14.15A.7.7,0,0,0,70.3,109.76Zm3.77,3.64.06-.05.05.05-.05.06Zm3.72,0Zm21.83,0,0,0,0,0a.08.08,0,0,0,0,0Zm3.83-18.25-.14.12a.57.57,0,0,1-.11-.11l.12-.14ZM99.8,91.5l-.14.11-.09-.09.11-.13Zm-3.76,0-.06,0,0,0,.06-.07Zm-3.64,0,0,0,0,0,0,0Zm-3.67,0,0,0h0l0,0Zm-3.63,0h0l0,0s0,0,0,0Zm-3.64,0,0,0s0,0,0,0l0,0Zm-7.27,3.64a.46.46,0,0,0-.07.07L74,95.15l.09-.08Zm-3.73,3.47a1.46,1.46,0,0,0,.16.19,1,1,0,0,0-.14.15c-.07-.07-.14-.11-.21-.17S70.4,98.71,70.46,98.64Zm-3.64,7.17a1.53,1.53,0,0,0,.27.3,2.22,2.22,0,0,0-.28.33,2.66,2.66,0,0,0-.35-.32A2.11,2.11,0,0,0,66.82,105.81Zm3.42,7.6a1.32,1.32,0,0,0,.22-.18l.16.17-.17.19ZM74,117.06l.13-.12.09.09-.11.13Zm3.75,0,0,0,0,0,0,0Zm3.66,0h0ZM96,117h0s0,0,0,0v0S96,117,96,117Zm3.59,0a.23.23,0,0,0,.07-.07l.08.08-.07.07A.6.6,0,0,1,99.58,117Zm3.71-3.53-.09-.1.07-.07.1.09Zm3.66-7.2a1.54,1.54,0,0,0-.17-.19l.17-.19.22.19A1.86,1.86,0,0,0,107,106.3Zm0-3.64a1.54,1.54,0,0,0-.17-.19l.18-.2a1.86,1.86,0,0,0,.22.19A2.2,2.2,0,0,0,107,102.66Zm.4-7.54a2.76,2.76,0,0,0-.37.31,3.63,3.63,0,0,0-.27-.28,3.26,3.26,0,0,0,.29-.36A2.2,2.2,0,0,0,107.35,95.12ZM103.6,91.5a2.15,2.15,0,0,0-.28.23,2.5,2.5,0,0,0-.23-.23,1.51,1.51,0,0,0,.22-.28A1.53,1.53,0,0,0,103.6,91.5Zm-7.41-3.66A1.71,1.71,0,0,0,96,88c0-.06-.12-.11-.18-.17a1.37,1.37,0,0,0,.19-.23C96.07,87.69,96.12,87.77,96.19,87.84Zm-3.67,0-.15.13-.13-.12c.05,0,.08-.12.13-.18A1.22,1.22,0,0,0,92.52,87.85Zm-3.69,0-.12.1-.1-.09a1.27,1.27,0,0,0,.11-.13Zm-3.66,0-.1.1-.13-.11a1.42,1.42,0,0,0,.12-.13S85.13,87.83,85.17,87.87Zm-3.6,0-.16.15-.19-.17c.07-.06.12-.13.18-.19A1.73,1.73,0,0,0,81.57,87.86Zm-7.29,3.65-.18.18c-.07-.07-.16-.12-.24-.19a1.73,1.73,0,0,0,.24-.23A2.15,2.15,0,0,0,74.28,91.51Zm-7.94,21.91a2.27,2.27,0,0,0,.47-.41,2,2,0,0,0,.37.4,2.32,2.32,0,0,0-.39.44A2.63,2.63,0,0,0,66.34,113.42Zm3.79,3.65a2.69,2.69,0,0,0,.32-.27,2,2,0,0,0,.24.26,1.89,1.89,0,0,0-.25.31A1.76,1.76,0,0,0,70.13,117.07Zm3.7,3.66c.09-.07.19-.13.28-.21.06.07.13.13.2.2a3,3,0,0,0-.22.28A3.31,3.31,0,0,0,73.83,120.73Zm3.82,0,.14-.12.12.11c0,.05-.08.11-.13.16A.93.93,0,0,0,77.65,120.72Zm3.68,0,.09-.07.06.06-.07.09Zm3.7,0s0,0,0,0l0,0,0,.06Zm7.27,0,.06,0,.06.06-.06.06Zm3.61,0,.1-.09a1.09,1.09,0,0,0,.11.1.52.52,0,0,0-.1.11A1.31,1.31,0,0,0,95.91,120.71Zm3.58,0,.17-.16c0,.06.12.11.18.17l-.18.2A1.73,1.73,0,0,0,99.49,120.72Zm11.22-21.33a2.52,2.52,0,0,0-.5-.58,2.26,2.26,0,0,0,.51-.6,2,2,0,0,0,.67.59A2,2,0,0,0,110.71,99.39Zm-43.92-4.8a2.25,2.25,0,0,0,.47.55,2.47,2.47,0,0,0-.47.5,2.33,2.33,0,0,0-.58-.5A2.17,2.17,0,0,0,66.79,94.59Zm-3.68,7.17a2.27,2.27,0,0,0,.59.68,2.4,2.4,0,0,0-.59.64,2.14,2.14,0,0,0-.72-.65A2.1,2.1,0,0,0,63.11,101.76Zm0,3.74a2.41,2.41,0,0,0,.57.62,2.4,2.4,0,0,0-.57.66,2.11,2.11,0,0,0-.71-.65A2,2,0,0,0,63.11,105.5Zm0,3.57a2.27,2.27,0,0,0,.62.69,2.24,2.24,0,0,0-.62.68,2,2,0,0,0-.75-.69A2,2,0,0,0,63.11,109.07Zm18.07,15.27a2.11,2.11,0,0,0,.23-.19,2.08,2.08,0,0,0,.21.21,2.2,2.2,0,0,0-.2.23A2.83,2.83,0,0,0,81.18,124.34Zm3.71,0,.18-.16.17.16a1.63,1.63,0,0,0-.17.2A1.71,1.71,0,0,0,84.89,124.36Zm7.29,0,.18-.18a1.8,1.8,0,0,0,.2.19,1.37,1.37,0,0,0-.19.22C92.3,124.5,92.25,124.42,92.18,124.35Zm14.82-6.9a2.06,2.06,0,0,0-.33-.4,2.08,2.08,0,0,0,.32-.34,2.05,2.05,0,0,0,.42.36A3,3,0,0,0,107,117.45Zm3.7-7.13a2.3,2.3,0,0,0-.47-.56,2.2,2.2,0,0,0,.47-.54,2.22,2.22,0,0,0,.64.54A2,2,0,0,0,110.7,110.32Zm0-3.69a2.43,2.43,0,0,0-.44-.52,2.64,2.64,0,0,0,.43-.51,2.3,2.3,0,0,0,.6.52A2.05,2.05,0,0,0,110.7,106.63Zm0-16.28a1.74,1.74,0,0,0,1.49,1.12,1.88,1.88,0,0,0-1.48.93,2.2,2.2,0,0,0-.87-.92A2.06,2.06,0,0,0,110.71,90.35ZM107,87a1.79,1.79,0,0,0,.81.8,2.22,2.22,0,0,0-.83.72,2.2,2.2,0,0,0-.69-.7A2.16,2.16,0,0,0,107,87Zm-3.66-3.7a1.84,1.84,0,0,0,.81.82,2.18,2.18,0,0,0-.86.76,2.29,2.29,0,0,0-.72-.7A2.11,2.11,0,0,0,103.38,83.31Zm-3.69-4.13a1.82,1.82,0,0,0,1,1.32,2.1,2.1,0,0,0-1,.84,2.2,2.2,0,0,0-.91-.85A1.94,1.94,0,0,0,99.69,79.18ZM96,79.63a1.9,1.9,0,0,0,.8.86,2.11,2.11,0,0,0-.82.72,2.28,2.28,0,0,0-.77-.71A2,2,0,0,0,96,79.63Zm-3.65.12a2,2,0,0,0,.71.75,2.26,2.26,0,0,0-.71.63,2.33,2.33,0,0,0-.67-.62A2,2,0,0,0,92.38,79.75Zm-3.68,0a2.08,2.08,0,0,0,.65.73,2.34,2.34,0,0,0-.62.55,2.24,2.24,0,0,0-.65-.58A2.08,2.08,0,0,0,88.7,79.78Zm-3.65,0a2,2,0,0,0,.66.75,2.19,2.19,0,0,0-.66.59,2.27,2.27,0,0,0-.68-.59A2,2,0,0,0,85.05,79.73Zm-3.64-.08a2,2,0,0,0,.73.83,2.36,2.36,0,0,0-.75.69,2.25,2.25,0,0,0-.77-.67A2,2,0,0,0,81.41,79.65Zm-3.66-.29a2,2,0,0,0,.87,1.14,2.23,2.23,0,0,0-.85.79,2.12,2.12,0,0,0-.93-.82A1.89,1.89,0,0,0,77.75,79.36ZM74,83.42a2.19,2.19,0,0,0,.68.77,2.32,2.32,0,0,0-.63.62,2,2,0,0,0-.77-.66A1.94,1.94,0,0,0,74,83.42Zm-3.61-.65a2,2,0,0,0,.94,1.38,2.14,2.14,0,0,0-1,.93,2,2,0,0,0-1.28-.92A1.73,1.73,0,0,0,70.43,82.77Zm-3.66,3.76a2,2,0,0,0,.92,1.29,2.17,2.17,0,0,0-.92.93,1.94,1.94,0,0,0-1.35-.93A1.75,1.75,0,0,0,66.77,86.53ZM63.1,94.21a2.14,2.14,0,0,0,.83.93,2.16,2.16,0,0,0-.83.89A1.88,1.88,0,0,0,62,95.16,1.86,1.86,0,0,0,63.1,94.21Zm0,23.88a1.83,1.83,0,0,0-1.22-1,1.91,1.91,0,0,0,1.22-.89,2.11,2.11,0,0,0,.86.89A2.17,2.17,0,0,0,63.11,118.09Zm3.64,3.51a1.92,1.92,0,0,0-.84-.83,2.2,2.2,0,0,0,.87-.76,2.1,2.1,0,0,0,.72.73A2.15,2.15,0,0,0,66.75,121.6Zm3.66,3.57a2,2,0,0,0-.78-.78,2,2,0,0,0,.8-.7,2.24,2.24,0,0,0,.68.69A2.06,2.06,0,0,0,70.41,125.17Zm3.66,4.5a1.73,1.73,0,0,0-1-1.53,2.07,2.07,0,0,0,1.07-.81,2.34,2.34,0,0,0,.89.82A1.88,1.88,0,0,0,74.07,129.67Zm3.68-.69a2,2,0,0,0-.76-.83,2.31,2.31,0,0,0,.76-.63,2.4,2.4,0,0,0,.69.62A2,2,0,0,0,77.75,129Zm3.65-.15a1.84,1.84,0,0,0-.61-.69,2.39,2.39,0,0,0,.63-.51,2.29,2.29,0,0,0,.58.49A2.05,2.05,0,0,0,81.4,128.83Zm3.66-.08a2,2,0,0,0-.55-.63,2.26,2.26,0,0,0,.56-.46,2.3,2.3,0,0,0,.53.45A2.07,2.07,0,0,0,85.06,128.75Zm3.66,4.53a1.83,1.83,0,0,0-1.07-1.57,2.12,2.12,0,0,0,1.06-.94,2.11,2.11,0,0,0,1.07.95A1.81,1.81,0,0,0,88.72,133.28Zm3.65-4.52a2,2,0,0,0-.55-.65,2.25,2.25,0,0,0,.55-.47,2.42,2.42,0,0,0,.57.48A2,2,0,0,0,92.37,128.76Zm3.65.09a1.91,1.91,0,0,0-.62-.73,2.54,2.54,0,0,0,.6-.53,2.3,2.3,0,0,0,.66.54A2,2,0,0,0,96,128.85Zm3.68.29a2,2,0,0,0-.75-1,2.33,2.33,0,0,0,.75-.68,2.37,2.37,0,0,0,.84.7A1.82,1.82,0,0,0,99.7,129.14Zm7.32-3.82a2.19,2.19,0,0,0-.8-.93,2.22,2.22,0,0,0,.8-.81,2.12,2.12,0,0,0,1,.8A1.85,1.85,0,0,0,107,125.32Zm3.71-7.41a2.22,2.22,0,0,0-.71-.84,2.29,2.29,0,0,0,.69-.76,2,2,0,0,0,1,.77A1.9,1.9,0,0,0,110.73,117.91Zm3.6-10.71a2.08,2.08,0,0,0-.92-1.08,2.14,2.14,0,0,0,.93-1,1.83,1.83,0,0,0,1.6,1A1.81,1.81,0,0,0,114.33,107.2Z"/><path class="cls-8" d="M46.89,107.43a.5.5,0,1,0,.5.5A.5.5,0,0,0,46.89,107.43Z"/><path class="cls-8" d="M50.52,107.11a.82.82,0,0,0-.81.82.81.81,0,0,0,.81.81.82.82,0,0,0,.82-.81A.82.82,0,0,0,50.52,107.11Z"/><path class="cls-8" d="M54.16,106.76a1.17,1.17,0,1,0,1.16,1.17A1.16,1.16,0,0,0,54.16,106.76Z"/><path class="cls-8" d="M46.89,111.07a.49.49,0,1,0,.49.49A.49.49,0,0,0,46.89,111.07Z"/><path class="cls-8" d="M50.52,110.78a.79.79,0,1,0,.79.78A.78.78,0,0,0,50.52,110.78Z"/><path class="cls-8" d="M54.16,110.45a1.11,1.11,0,1,0,1.11,1.11A1.11,1.11,0,0,0,54.16,110.45Z"/><path class="cls-8" d="M57.8,110a1.54,1.54,0,1,0,1.54,1.54A1.54,1.54,0,0,0,57.8,110Z"/><path class="cls-8" d="M46.89,114.78a.42.42,0,0,0,0,.84.42.42,0,0,0,0-.84Z"/><path class="cls-8" d="M50.52,114.49a.71.71,0,1,0,.72.71A.71.71,0,0,0,50.52,114.49Z"/><path class="cls-8" d="M54.16,114.16a1,1,0,1,0,1,1A1,1,0,0,0,54.16,114.16Z"/><path class="cls-8" d="M57.8,113.73a1.47,1.47,0,1,0,1.46,1.47A1.47,1.47,0,0,0,57.8,113.73Z"/><path class="cls-8" d="M46.89,118.48a.36.36,0,1,0,0,.71.36.36,0,0,0,0-.71Z"/><path class="cls-8" d="M50.52,118.19a.65.65,0,1,0,.65.65A.65.65,0,0,0,50.52,118.19Z"/><path class="cls-8" d="M54.16,117.9a.94.94,0,1,0,.94.94A.94.94,0,0,0,54.16,117.9Z"/><path class="cls-8" d="M57.8,117.49a1.35,1.35,0,1,0,1.34,1.35A1.34,1.34,0,0,0,57.8,117.49Z"/><path class="cls-8" d="M50.52,122a.53.53,0,0,0-.52.52.52.52,0,0,0,.52.52.52.52,0,0,0,.52-.52A.52.52,0,0,0,50.52,122Z"/><path class="cls-8" d="M54.16,121.7a.78.78,0,1,0,.77.77A.77.77,0,0,0,54.16,121.7Z"/><path class="cls-8" d="M57.8,121.33a1.14,1.14,0,1,0,1.14,1.14A1.14,1.14,0,0,0,57.8,121.33Z"/><path class="cls-8" d="M61.43,120.83a1.64,1.64,0,1,0,1.64,1.64A1.65,1.65,0,0,0,61.43,120.83Z"/><path class="cls-8" d="M50.52,125.73a.38.38,0,1,0,.38.38A.38.38,0,0,0,50.52,125.73Z"/><path class="cls-8" d="M54.16,125.49a.62.62,0,1,0,.62.62A.62.62,0,0,0,54.16,125.49Z"/><path class="cls-8" d="M57.8,125.14a1,1,0,1,0,1,1A1,1,0,0,0,57.8,125.14Z"/><path class="cls-8" d="M61.43,124.67a1.44,1.44,0,1,0,1.44,1.44A1.44,1.44,0,0,0,61.43,124.67Z"/><path class="cls-8" d="M54.16,129.38a.37.37,0,1,0,.37.37A.37.37,0,0,0,54.16,129.38Z"/><path class="cls-8" d="M57.8,129.13a.61.61,0,0,0-.62.62.62.62,0,0,0,.62.62.62.62,0,0,0,.62-.62A.62.62,0,0,0,57.8,129.13Z"/><path class="cls-8" d="M61.43,128.74a1,1,0,1,0,1,1A1,1,0,0,0,61.43,128.74Z"/><path class="cls-8" d="M65.07,128.46a1.29,1.29,0,1,0,1.29,1.29A1.28,1.28,0,0,0,65.07,128.46Z"/><path class="cls-8" d="M68.71,128.21a1.54,1.54,0,1,0,1.54,1.54A1.54,1.54,0,0,0,68.71,128.21Z"/><path class="cls-8" d="M57.8,132.89a.49.49,0,1,0,.49.49A.49.49,0,0,0,57.8,132.89Z"/><path class="cls-8" d="M61.43,132.61a.78.78,0,1,0,.78.77A.78.78,0,0,0,61.43,132.61Z"/><path class="cls-8" d="M65.07,132.38a1,1,0,1,0,1,1A1,1,0,0,0,65.07,132.38Z"/><path class="cls-8" d="M68.71,132.15a1.24,1.24,0,1,0,1.23,1.23A1.23,1.23,0,0,0,68.71,132.15Z"/><path class="cls-8" d="M72.35,132a1.44,1.44,0,1,0,1.43,1.43A1.43,1.43,0,0,0,72.35,132Z"/><path class="cls-8" d="M76,131.79a1.59,1.59,0,1,0,1.59,1.59A1.59,1.59,0,0,0,76,131.79Z"/><path class="cls-8" d="M61.43,136.47a.55.55,0,1,0,0,1.1.55.55,0,0,0,0-1.1Z"/><path class="cls-8" d="M65.07,136.28a.74.74,0,1,0,0,1.48.74.74,0,1,0,0-1.48Z"/><path class="cls-8" d="M68.71,136.11a.91.91,0,1,0,.91.91A.91.91,0,0,0,68.71,136.11Z"/><path class="cls-8" d="M72.35,135.93A1.09,1.09,0,1,0,73.44,137,1.09,1.09,0,0,0,72.35,135.93Z"/><circle class="cls-8" cx="75.98" cy="137.02" r="1.26"/><path class="cls-8" d="M79.62,135.65A1.38,1.38,0,1,0,81,137,1.37,1.37,0,0,0,79.62,135.65Z"/><path class="cls-8" d="M65.07,140.2a.46.46,0,0,0-.46.46.46.46,0,0,0,.92,0A.46.46,0,0,0,65.07,140.2Z"/><path class="cls-8" d="M68.71,140.07a.58.58,0,0,0-.59.59.59.59,0,0,0,.59.59.6.6,0,0,0,.59-.59A.59.59,0,0,0,68.71,140.07Z"/><path class="cls-8" d="M72.35,139.92a.74.74,0,1,0,.73.74A.74.74,0,0,0,72.35,139.92Z"/><path class="cls-8" d="M76,139.79a.87.87,0,1,0,.87.87A.86.86,0,0,0,76,139.79Z"/><path class="cls-8" d="M79.62,139.7a1,1,0,1,0,1,1A1,1,0,0,0,79.62,139.7Z"/><g class="cls-9"><path class="cls-8" d="M76,6.64a.38.38,0,0,0,.37-.38.38.38,0,0,0-.75,0A.38.38,0,0,0,76,6.64Z"/><path class="cls-8" d="M79.65,6.68a.42.42,0,0,0,0-.84.42.42,0,0,0,0,.84Z"/><path class="cls-8" d="M68.74,10.3a.4.4,0,0,0,0-.8.4.4,0,0,0,0,.8Z"/><path class="cls-8" d="M72.38,10.43a.53.53,0,1,0-.53-.53A.53.53,0,0,0,72.38,10.43Z"/><path class="cls-8" d="M76,10.52a.62.62,0,1,0-.63-.62A.62.62,0,0,0,76,10.52Z"/><path class="cls-8" d="M79.65,10.62a.72.72,0,1,0,0-1.44.72.72,0,1,0,0,1.44Z"/><path class="cls-8" d="M61.47,13.91a.38.38,0,1,0-.38-.37A.38.38,0,0,0,61.47,13.91Z"/><path class="cls-8" d="M65.11,14.05a.51.51,0,1,0-.51-.51A.5.5,0,0,0,65.11,14.05Z"/><path class="cls-8" d="M68.74,14.19a.65.65,0,0,0,.65-.65.65.65,0,1,0-1.3,0A.65.65,0,0,0,68.74,14.19Z"/><path class="cls-8" d="M72.38,14.34a.81.81,0,1,0-.81-.8A.8.8,0,0,0,72.38,14.34Z"/><path class="cls-8" d="M76,14.47a.94.94,0,1,0-.94-.93A.93.93,0,0,0,76,14.47Z"/><path class="cls-8" d="M79.65,14.59a1.05,1.05,0,1,0-1.05-1.05A1,1,0,0,0,79.65,14.59Z"/><path class="cls-8" d="M61.47,17.76a.59.59,0,0,0,.59-.59.6.6,0,0,0-.59-.59.59.59,0,0,0-.59.59A.58.58,0,0,0,61.47,17.76Z"/><path class="cls-8" d="M65.11,18a.78.78,0,1,0-.78-.78A.78.78,0,0,0,65.11,18Z"/><path class="cls-8" d="M68.74,18.16a1,1,0,1,0-1-1A1,1,0,0,0,68.74,18.16Z"/><path class="cls-8" d="M72.38,18.35a1.18,1.18,0,1,0-1.17-1.18A1.17,1.17,0,0,0,72.38,18.35Z"/><path class="cls-8" d="M76,18.51a1.34,1.34,0,1,0-1.34-1.34A1.34,1.34,0,0,0,76,18.51Z"/><path class="cls-8" d="M79.65,18.62a1.45,1.45,0,1,0,0-2.89,1.45,1.45,0,0,0,0,2.89Z"/><path class="cls-8" d="M54.19,21.17a.36.36,0,1,0-.35-.36A.36.36,0,0,0,54.19,21.17Z"/><path class="cls-8" d="M57.83,21.4a.59.59,0,1,0,0-1.18.59.59,0,1,0,0,1.18Z"/><path class="cls-8" d="M61.47,21.81a1,1,0,1,0-1-1A1,1,0,0,0,61.47,21.81Z"/><circle class="cls-8" cx="65.11" cy="20.81" r="1.23"/><path class="cls-8" d="M68.74,22.31a1.5,1.5,0,1,0-1.5-1.5A1.5,1.5,0,0,0,68.74,22.31Z"/><path class="cls-8" d="M54.19,25a.53.53,0,0,0,.53-.53.53.53,0,1,0-.53.53Z"/><circle class="cls-8" cx="57.83" cy="24.45" r="0.83"/><path class="cls-8" d="M61.47,25.67a1.23,1.23,0,1,0-1.22-1.22A1.22,1.22,0,0,0,61.47,25.67Z"/><path class="cls-8" d="M65.11,26a1.53,1.53,0,1,0-1.53-1.53A1.53,1.53,0,0,0,65.11,26Z"/><path class="cls-8" d="M50.56,28.51a.43.43,0,1,0,0-.85.43.43,0,1,0,0,.85Z"/><path class="cls-8" d="M54.19,28.77a.69.69,0,1,0-.68-.69A.69.69,0,0,0,54.19,28.77Z"/><path class="cls-8" d="M57.83,29.09a1,1,0,1,0-1-1A1,1,0,0,0,57.83,29.09Z"/><path class="cls-8" d="M61.47,29.58a1.5,1.5,0,1,0-1.5-1.5A1.5,1.5,0,0,0,61.47,29.58Z"/><path class="cls-8" d="M50.56,32.25a.53.53,0,1,0-.53-.53A.53.53,0,0,0,50.56,32.25Z"/><path class="cls-8" d="M54.19,32.56a.84.84,0,0,0,.84-.84.84.84,0,1,0-.84.84Z"/><path class="cls-8" d="M57.83,32.93a1.21,1.21,0,1,0-1.21-1.21A1.21,1.21,0,0,0,57.83,32.93Z"/><path class="cls-8" d="M46.92,35.77a.41.41,0,0,0,.41-.41.41.41,0,0,0-.41-.41.41.41,0,0,0-.41.41A.42.42,0,0,0,46.92,35.77Z"/><path class="cls-8" d="M50.56,36a.64.64,0,0,0,.64-.64.64.64,0,1,0-.64.64Z"/><path class="cls-8" d="M54.19,36.33a1,1,0,1,0-1-1A1,1,0,0,0,54.19,36.33Z"/><path class="cls-8" d="M57.83,36.72a1.37,1.37,0,1,0-1.36-1.36A1.36,1.36,0,0,0,57.83,36.72Z"/><circle class="cls-8" cx="46.92" cy="39" r="0.42"/><circle class="cls-8" cx="50.56" cy="39" r="0.73"/><path class="cls-8" d="M54.19,40.07A1.08,1.08,0,1,0,53.11,39,1.07,1.07,0,0,0,54.19,40.07Z"/><path class="cls-8" d="M57.83,40.5A1.51,1.51,0,1,0,56.32,39,1.51,1.51,0,0,0,57.83,40.5Z"/><path class="cls-8" d="M46.92,43.09a.46.46,0,0,0,.46-.46.46.46,0,0,0-.92,0A.46.46,0,0,0,46.92,43.09Z"/><path class="cls-8" d="M50.56,43.42a.79.79,0,1,0-.79-.79A.78.78,0,0,0,50.56,43.42Z"/><path class="cls-8" d="M54.19,43.76a1.13,1.13,0,1,0-1.13-1.13A1.13,1.13,0,0,0,54.19,43.76Z"/><circle class="cls-8" cx="57.83" cy="42.63" r="1.56"/><path class="cls-8" d="M46.92,45.76a.51.51,0,1,0,.51.51A.51.51,0,0,0,46.92,45.76Z"/><circle class="cls-8" cx="50.56" cy="46.27" r="0.83"/><path class="cls-8" d="M54.19,45.1a1.17,1.17,0,1,0,1.18,1.17A1.17,1.17,0,0,0,54.19,45.1Z"/><path class="cls-8" d="M117.87,46.27A1.84,1.84,0,0,0,116,44.43a1.81,1.81,0,0,0-1.64,1,2.16,2.16,0,0,0-.95-1,2.06,2.06,0,0,0,.93-1.14,1.8,1.8,0,1,0,0-1.31,2,2,0,0,0-1-1.2,2,2,0,0,0,1-1.43,1.73,1.73,0,1,0,0-.71,2,2,0,0,0-1.18-1.54,1.9,1.9,0,0,0,1.13-1.74,1.92,1.92,0,0,0-1.78-1.91,1.74,1.74,0,0,0,1.61-1.73A1.76,1.76,0,0,0,112.39,30a1.73,1.73,0,0,0-1.64,1.16,2.1,2.1,0,0,0-1.14-1.33,1.91,1.91,0,0,0,1.07-1.71,1.93,1.93,0,0,0-1.93-1.93,1.9,1.9,0,0,0-1.68,1A2.23,2.23,0,0,0,106,26.11a1.89,1.89,0,0,0,1-1.66,1.91,1.91,0,0,0-3.62-.85,2.1,2.1,0,0,0-1.2-1.12,1.82,1.82,0,0,0-.73-3.49,1.8,1.8,0,0,0-1.76,1.47,1.93,1.93,0,0,0-1.88-1.61A2,2,0,0,0,96.06,20a2,2,0,0,0-3.64-.12,2.09,2.09,0,0,0-1.76-1.15,1.57,1.57,0,0,0,1.49-1.57,1.59,1.59,0,0,0-3.18,0,1.58,1.58,0,0,0,1.49,1.57,2.07,2.07,0,0,0-1.73,1.12A2,2,0,0,0,87,18.75a1.58,1.58,0,1,0-1.6-1.58A1.59,1.59,0,0,0,87,18.75a2.06,2.06,0,0,0-1.82,1.16,2,2,0,0,0-3.64.08,1.94,1.94,0,0,0-3.66.29A1.84,1.84,0,0,0,76,18.94a1.86,1.86,0,0,0-.87,3.51,2.14,2.14,0,0,0-1.07,1.05,2,2,0,0,0-1.6-1,1.7,1.7,0,1,0-.2,0,2,2,0,0,0-1.82,1.65,1.75,1.75,0,0,0-1.72-1.48A1.79,1.79,0,0,0,67,24.45a1.75,1.75,0,0,0,1.35,1.69,2,2,0,0,0-1.51,1.52,1.74,1.74,0,0,0-1.69-1.36,1.79,1.79,0,0,0-1.79,1.78,1.77,1.77,0,0,0,1.43,1.72,1.94,1.94,0,0,0-1.6,1.72A1.7,1.7,0,0,0,61.47,30a1.72,1.72,0,0,0,0,3.44,1.7,1.7,0,0,0,1.68-1.52,2,2,0,0,0,1,1.54,2.09,2.09,0,0,0-1,1.06,1.87,1.87,0,1,0-2.2,2.62A1.94,1.94,0,0,0,59.5,39a2,2,0,0,0,1.14,1.77,2,2,0,0,0-.12,3.64,2.08,2.08,0,0,0-1.12,1.68,1.6,1.6,0,1,0,0,.36,2.05,2.05,0,0,0,1.1,1.66,2,2,0,0,0-1.09,1.75,1.59,1.59,0,1,0,0,.1,2,2,0,0,0,1.13,1.77,2,2,0,0,0,.08,3.68,2,2,0,0,0-1.13,1.77A2,2,0,0,0,61,59.06a1.83,1.83,0,1,0,2.14,2.5,2.11,2.11,0,0,0,1.12,1.19,1.9,1.9,0,1,0,2.52,2.58,2.09,2.09,0,0,0,1,1,1.94,1.94,0,0,0-1,1.57,1.72,1.72,0,1,0,0,.3,1.94,1.94,0,0,0,3.65.79,2.11,2.11,0,0,0,1.25,1.09,1.76,1.76,0,0,0-1.06,1.61,1.74,1.74,0,0,0,3.47.07,1.91,1.91,0,0,0,3.67.69,2,2,0,0,0,1.65,1.22A1.68,1.68,0,0,0,78,75.36a1.7,1.7,0,1,0,3.4,0,1.67,1.67,0,0,0-1.47-1.65,2,2,0,0,0,1.56-1.07,2,2,0,0,0,1.27,1.06,1.76,1.76,0,0,0-1.2,1.66,1.78,1.78,0,1,0,3.56,0,1.76,1.76,0,0,0-1.2-1.66,2,2,0,0,0,1.22-1,2.09,2.09,0,0,0,1.08,1,1.84,1.84,0,1,0,2.58,1.78,1.83,1.83,0,1,0,2.56-1.77,2.15,2.15,0,0,0,1.1-1,2,2,0,0,0,1.26,1,1.75,1.75,0,0,0-1.24,1.66,1.77,1.77,0,1,0,3.54,0,1.74,1.74,0,0,0-1.24-1.66,2.05,2.05,0,0,0,1.33-1.07,2,2,0,0,0,1.6,1.08,1.66,1.66,0,0,0-1.51,1.65,1.69,1.69,0,1,0,3.38,0A1.67,1.67,0,0,0,98,73.71a2,2,0,0,0,1.72-1.38,1.85,1.85,0,0,0,3.61-.6,1.83,1.83,0,0,0-1-1.6,2.17,2.17,0,0,0,1-.94,2.07,2.07,0,0,0,1.39.93,1.65,1.65,0,0,0-1.33,1.61,1.68,1.68,0,0,0,3.36,0,1.64,1.64,0,0,0-1.33-1.61,2.08,2.08,0,0,0,1.59-1.24,1.88,1.88,0,1,0,2.44-2.52,2,2,0,0,0,1.26-1.6,1.67,1.67,0,0,0,1.64,1.4,1.71,1.71,0,0,0,0-3.41,1.67,1.67,0,0,0-1.64,1.4,2.05,2.05,0,0,0-.93-1.41,2.24,2.24,0,0,0,1-1,1.85,1.85,0,0,0,1.62,1,1.89,1.89,0,0,0,.68-3.65,2,2,0,0,0,1.3-1.7A1.67,1.67,0,0,0,116,58.87a1.69,1.69,0,0,0,0-3.38A1.67,1.67,0,0,0,114.37,57a2,2,0,0,0-1.07-1.59,2.09,2.09,0,0,0,1.07-1.29,1.76,1.76,0,0,0,1.65,1.2,1.78,1.78,0,1,0,0-3.55A1.75,1.75,0,0,0,114.37,53a2.11,2.11,0,0,0-1-1.22,2.09,2.09,0,0,0,1-1.1,1.81,1.81,0,1,0,1.7-2.54A1.84,1.84,0,0,0,117.87,46.27Zm-7.12,9.8a2.17,2.17,0,0,0-.57-.67,2.21,2.21,0,0,0,.56-.62,2,2,0,0,0,.73.63A1.9,1.9,0,0,0,110.75,56.07Zm-3.69,7.28a2.47,2.47,0,0,0-.53-.63,2.51,2.51,0,0,0,.51-.52,2.22,2.22,0,0,0,.64.54A2,2,0,0,0,107.06,63.35ZM103.37,67a2.18,2.18,0,0,0-.54-.63,2,2,0,0,0,.53-.52,2.07,2.07,0,0,0,.61.53A2.21,2.21,0,0,0,103.37,67Zm-3.64-.24a2.48,2.48,0,0,0-.37-.43,2.5,2.5,0,0,0,.33-.32,2.49,2.49,0,0,0,.43.36A2.87,2.87,0,0,0,99.73,66.75ZM96,66.61c-.08-.09-.15-.19-.23-.27.08-.08.17-.16.24-.24a2.75,2.75,0,0,0,.26.22A2.44,2.44,0,0,0,96,66.61ZM88.75,70.7a2.22,2.22,0,0,0-.53-.61,2.75,2.75,0,0,0,.53-.44,2.43,2.43,0,0,0,.52.44A2,2,0,0,0,88.75,70.7Zm-11-4a1.88,1.88,0,0,0-.31-.32c.12-.1.24-.19.35-.3a1.66,1.66,0,0,0,.27.26A2.67,2.67,0,0,0,77.78,66.68Zm-3.65.19a2.24,2.24,0,0,0-.51-.51,2.38,2.38,0,0,0,.51-.44,2.24,2.24,0,0,0,.43.44A2.12,2.12,0,0,0,74.13,66.87Zm-3.67-3.64a2,2,0,0,0-.51-.5,2.53,2.53,0,0,0,.53-.44,2.09,2.09,0,0,0,.42.42A2.43,2.43,0,0,0,70.46,63.23Zm-3.65-3.59a2.21,2.21,0,0,0-.6-.58,2.27,2.27,0,0,0,.62-.53,2.24,2.24,0,0,0,.5.52A2.11,2.11,0,0,0,66.81,59.64Zm-3.67-3.45a2,2,0,0,0-.83-.78,2,2,0,0,0,.84-.75,2.22,2.22,0,0,0,.69.74A2.31,2.31,0,0,0,63.14,56.19Zm0-16.21a2.16,2.16,0,0,0,.7.8,2.22,2.22,0,0,0-.69.74,2,2,0,0,0-.84-.75A2,2,0,0,0,63.13,40Zm3.67-7.27a2.16,2.16,0,0,0,.68.76,2.25,2.25,0,0,0-.66.68,2,2,0,0,0-.78-.69A2,2,0,0,0,66.8,32.71Zm3.65-3.6a2.11,2.11,0,0,0,.62.71,2.14,2.14,0,0,0-.6.6,2.11,2.11,0,0,0-.71-.62A1.9,1.9,0,0,0,70.45,29.11Zm3.68.27a2.22,2.22,0,0,0,.37.44,2.16,2.16,0,0,0-.37.37,2.22,2.22,0,0,0-.44-.37A2.29,2.29,0,0,0,74.13,29.38Zm3.67-3.76a2.23,2.23,0,0,0,.5.56,2.42,2.42,0,0,0-.5.46,2.1,2.1,0,0,0-.52-.46A2.13,2.13,0,0,0,77.8,25.62Zm3.62.12a2.8,2.8,0,0,0,.39.45,2.47,2.47,0,0,0-.37.35,2.93,2.93,0,0,0-.43-.36A2.14,2.14,0,0,0,81.42,25.74Zm3.66.11a3.31,3.31,0,0,0,.3.34,3.71,3.71,0,0,0-.29.27,4.15,4.15,0,0,0-.32-.27A2,2,0,0,0,85.08,25.85Zm3.68,0a2.42,2.42,0,0,0,.31.33,1.94,1.94,0,0,0-.31.26,3.58,3.58,0,0,0-.29-.26A2.28,2.28,0,0,0,88.76,25.86Zm3.65-.08a2.34,2.34,0,0,0,.37.4,2.3,2.3,0,0,0-.37.33,2.11,2.11,0,0,0-.35-.32A2,2,0,0,0,92.41,25.78ZM96,25.7a2.51,2.51,0,0,0,.44.48,2,2,0,0,0-.44.39,3.08,3.08,0,0,0-.42-.39A2.13,2.13,0,0,0,96,25.7Zm3.68-.13a2.11,2.11,0,0,0,.59.6,2.24,2.24,0,0,0-.59.51,2.3,2.3,0,0,0-.53-.5A2.07,2.07,0,0,0,99.72,25.57Zm3.64,3.73a2.2,2.2,0,0,0,.5.51,2.12,2.12,0,0,0-.51.43,2.19,2.19,0,0,0-.44-.42A2.48,2.48,0,0,0,103.36,29.3Zm3.7,3.63a2,2,0,0,0,.55.53A2.26,2.26,0,0,0,107,34a2.14,2.14,0,0,0-.44-.46A2.3,2.3,0,0,0,107.06,32.93Zm3.69,3.41a1.9,1.9,0,0,0,.83.76,2.17,2.17,0,0,0-.83.7,2.25,2.25,0,0,0-.64-.7A2.14,2.14,0,0,0,110.75,36.34Zm0,8.62a2.17,2.17,0,0,0-.44-.52,2.16,2.16,0,0,0,.46-.54,2.33,2.33,0,0,0,.6.53A2.08,2.08,0,0,0,110.72,45ZM107,55.66c-.07-.08-.12-.18-.2-.26l.21-.23a3.11,3.11,0,0,0,.28.23A2.35,2.35,0,0,0,107,55.66Zm-3.66,7.4a1.93,1.93,0,0,0-.29-.35l.28-.27a2.3,2.3,0,0,0,.34.28A2.65,2.65,0,0,0,103.36,63.06ZM88.75,66.53c-.06-.06-.11-.14-.17-.19l.17-.16.17.15A1.06,1.06,0,0,0,88.75,66.53ZM66.82,40.37a2.42,2.42,0,0,0,.36.42,2.55,2.55,0,0,0-.35.38,1.86,1.86,0,0,0-.45-.39A2.14,2.14,0,0,0,66.82,40.37ZM70.47,33a3,3,0,0,0,.39.47,2.35,2.35,0,0,0-.38.39,2.31,2.31,0,0,0-.47-.41A2,2,0,0,0,70.47,33Zm7.33-3.49a1.74,1.74,0,0,0,.25.29,2.66,2.66,0,0,0-.24.23,2.15,2.15,0,0,0-.28-.23A2.44,2.44,0,0,0,77.8,29.53Zm21.92-.05a2.08,2.08,0,0,0,.32.34,2,2,0,0,0-.33.26,1.6,1.6,0,0,0-.26-.26A2.24,2.24,0,0,0,99.72,29.48ZM107,51.91l-.19-.21.15-.17a2.41,2.41,0,0,0,.24.21Zm-3.68,7.29c-.06-.06-.11-.13-.17-.18l.14-.15a1,1,0,0,0,.2.16Zm-14.6,3.53,0-.06,0,0,0,0Zm-22.3-11a2.17,2.17,0,0,0,.39-.35,2.59,2.59,0,0,0,.31.35,2.1,2.1,0,0,0-.31.35A2.13,2.13,0,0,0,66.45,51.74Zm.38-7.65a2,2,0,0,0,.3.35,2.62,2.62,0,0,0-.28.3,2.83,2.83,0,0,0-.37-.32A1.83,1.83,0,0,0,66.83,44.09Zm3.65-7.25a1.68,1.68,0,0,0,.24.29,1.75,1.75,0,0,0-.23.24,2.34,2.34,0,0,0-.3-.25A3.83,3.83,0,0,0,70.48,36.84Zm7.33-3.45a.52.52,0,0,0,.1.11l-.09.08-.1-.09Zm29.44,7.41A1.73,1.73,0,0,0,107,41c-.07-.07-.13-.14-.2-.2a2.29,2.29,0,0,0,.21-.23A2.5,2.5,0,0,0,107.25,40.8Zm-3.94,11,0-.05a.27.27,0,0,0,.07-.08l.06.05A.6.6,0,0,0,103.31,51.78ZM70.51,44.3a.86.86,0,0,0,.13.14l-.12.13-.16-.13Zm7.31-7.16,0,0h0Zm25.51,11-.06-.07.06-.07a.27.27,0,0,1,.08.07Zm-3.65,3.57h0ZM70.37,48.09l.15-.13.11.13-.12.13S70.41,48.14,70.37,48.09Zm3.79-3.68,0,0,0,0s0,0,0,0Zm25.52,3.68Zm-25.55,0,0,0,0,0,0,0Zm25.55-3.64Zm0-3.64ZM74.13,51.72l0,0,0,0,0,0Zm29.2-7.2-.06-.07.06-.07.08.07Zm.09-3.71-.09.07-.06-.07a.27.27,0,0,0,.07-.08A.6.6,0,0,0,103.42,40.81Zm-3.7-3.67,0,0,0,0s0,0,0,0ZM74.19,40.81l0,0-.06,0,.05,0S74.18,40.8,74.19,40.81ZM70.34,51.74a1.22,1.22,0,0,0,.17-.15l.12.13-.13.15Zm3.76,3.64s.05,0,.06-.05,0,0,0,.05l0,.06Zm3.72,0Zm21.84,0,0,0,0,0s0,0,0,0S99.67,55.39,99.66,55.38Zm3.82-18.25a1.66,1.66,0,0,0-.14.13l-.11-.12.12-.14Zm-3.65-3.65-.13.11-.1-.09.11-.13Zm-3.76,0-.06,0-.05,0,.07-.06Zm-3.63,0s0,0,0,0l0,0,0,0Zm-3.68,0,0,0h0l0,0Zm-3.63,0h0l0,0v0Zm-3.63,0,0,0-.06,0,0,0Zm-7.28,3.64a.46.46,0,0,1-.07.07L74,37.13l.1-.08Zm-3.73,3.47a1.54,1.54,0,0,0,.17.19c-.06,0-.1.1-.15.15a1.73,1.73,0,0,0-.21-.17A1.54,1.54,0,0,0,70.49,40.62Zm-3.64,7.17a2.61,2.61,0,0,0,.27.3,2.22,2.22,0,0,0-.28.33,2,2,0,0,0-.34-.31A2.66,2.66,0,0,0,66.85,47.79Zm3.43,7.6c.07-.06.15-.11.22-.18a1.29,1.29,0,0,0,.16.17c-.07.06-.12.13-.18.19ZM74,59l.14-.12.08.09-.11.13A.52.52,0,0,0,74,59Zm3.75,0,0,0,0,0,0,0Zm3.67,0h0ZM96,59v0l0,0,0,0Zm3.6,0,.06-.07.09.08-.08.07A.27.27,0,0,1,99.62,59Zm3.7-3.53-.09-.1.08-.07.1.09Zm3.67-7.2a1.62,1.62,0,0,0-.18-.19c.07-.06.12-.13.18-.19l.22.19Zm0-3.64a1.62,1.62,0,0,0-.18-.19,1.8,1.8,0,0,0,.19-.2,1,1,0,0,0,.22.19Zm.4-7.54a2.33,2.33,0,0,0-.38.31,2.37,2.37,0,0,0-.27-.28,2.41,2.41,0,0,0,.29-.36A2.28,2.28,0,0,0,107.39,37.1Zm-3.76-3.61a1.93,1.93,0,0,0-.28.22,2.5,2.5,0,0,0-.23-.23,2.15,2.15,0,0,0,.23-.28A2.57,2.57,0,0,0,103.63,33.49Zm-7.41-3.67c-.06.06-.13.11-.19.18l-.18-.17c.07-.07.12-.15.19-.23S96.15,29.75,96.22,29.82Zm-3.67,0L92.4,30l-.13-.13c0-.05.09-.12.14-.18S92.5,29.78,92.55,29.83Zm-3.69,0-.11.1-.1-.09.11-.13Zm-3.65,0-.11.1L85,29.84l.11-.13A1.49,1.49,0,0,0,85.21,29.85Zm-3.61,0-.15.15-.19-.17.18-.19A1.66,1.66,0,0,0,81.6,29.84Zm-7.29,3.65-.17.18c-.08-.07-.17-.12-.25-.18a1.81,1.81,0,0,0,.24-.24A2.15,2.15,0,0,0,74.31,33.49ZM66.37,55.4a2.26,2.26,0,0,0,.47-.4,2.72,2.72,0,0,0,.37.39,2.27,2.27,0,0,0-.38.44A2.69,2.69,0,0,0,66.37,55.4Zm3.79,3.65a2.08,2.08,0,0,0,.32-.27,3.07,3.07,0,0,0,.25.26,1.89,1.89,0,0,0-.25.31A1.81,1.81,0,0,0,70.16,59.05Zm3.7,3.66a2.92,2.92,0,0,0,.28-.21l.2.2a2.92,2.92,0,0,0-.21.28A3.44,3.44,0,0,0,73.86,62.71Zm3.83,0,.13-.12.12.11a1.67,1.67,0,0,0-.12.16C77.77,62.8,77.74,62.74,77.69,62.7Zm3.68,0a.5.5,0,0,0,.08-.07l.07.06-.08.1Zm3.69,0,0,0,0,0-.05.06Zm7.28,0a.1.1,0,0,1,0,0l.06,0,0,.06S92.36,62.7,92.34,62.68Zm3.61,0L96,62.6a.52.52,0,0,0,.11.1,1.09,1.09,0,0,0-.1.11Zm3.58,0c0-.05.11-.1.16-.16l.19.17a1.8,1.8,0,0,0-.19.2C99.63,62.84,99.59,62.76,99.53,62.7Zm11.21-21.33a2.24,2.24,0,0,0-.49-.57,2.43,2.43,0,0,0,.5-.61,2.1,2.1,0,0,0,.67.59A2.27,2.27,0,0,0,110.74,41.37Zm-43.92-4.8a2.11,2.11,0,0,0,.48.55,2.52,2.52,0,0,0-.48.5,2.28,2.28,0,0,0-.57-.5A2.29,2.29,0,0,0,66.82,36.57Zm-3.68,7.17a2.27,2.27,0,0,0,.59.68,2.36,2.36,0,0,0-.58.64,2.17,2.17,0,0,0-.73-.65A1.93,1.93,0,0,0,63.14,43.74Zm0,3.74a2.43,2.43,0,0,0,.57.63,2.12,2.12,0,0,0-.58.65,2,2,0,0,0-.7-.65A2,2,0,0,0,63.15,47.48Zm0,3.57a2.28,2.28,0,0,0,.62.69,2.21,2.21,0,0,0-.61.68,2,2,0,0,0-.76-.69A2,2,0,0,0,63.14,51.05ZM81.21,66.32a2.11,2.11,0,0,0,.23-.19l.21.21a2.54,2.54,0,0,0-.2.24A1.48,1.48,0,0,0,81.21,66.32Zm3.72,0,.17-.16.17.16c-.06.06-.11.13-.17.2S85,66.4,84.93,66.34Zm7.28,0c.06-.06.13-.11.19-.18a1.8,1.8,0,0,0,.2.19,2.09,2.09,0,0,0-.2.22A2.11,2.11,0,0,0,92.21,66.33ZM107,59.44a2.2,2.2,0,0,0-.33-.41,2.42,2.42,0,0,0,.31-.33,2.44,2.44,0,0,0,.43.35A2.17,2.17,0,0,0,107,59.44Zm3.7-7.14a2.59,2.59,0,0,0-.48-.56,2.48,2.48,0,0,0,.48-.54,2.06,2.06,0,0,0,.63.54A2.12,2.12,0,0,0,110.74,52.3Zm0-3.69a2.48,2.48,0,0,0-.45-.52,2.33,2.33,0,0,0,.43-.51,2.19,2.19,0,0,0,.61.52A2.07,2.07,0,0,0,110.74,48.61Zm0-16.28a1.73,1.73,0,0,0,1.48,1.12,1.94,1.94,0,0,0-1.48.93,2.18,2.18,0,0,0-.86-.92A2.07,2.07,0,0,0,110.75,32.33ZM107.07,29a1.86,1.86,0,0,0,.82.8,2.07,2.07,0,0,0-.83.72,2.2,2.2,0,0,0-.69-.7A2.22,2.22,0,0,0,107.07,29Zm-3.66-3.7a1.84,1.84,0,0,0,.81.82,2.18,2.18,0,0,0-.86.76,2.29,2.29,0,0,0-.72-.7A2.05,2.05,0,0,0,103.41,25.29Zm-3.69-4.13a1.82,1.82,0,0,0,1,1.32,2.07,2.07,0,0,0-1,.85,2.19,2.19,0,0,0-.9-.86A1.92,1.92,0,0,0,99.72,21.16Zm-3.66.45a2,2,0,0,0,.8.86,2.19,2.19,0,0,0-.82.72,2.35,2.35,0,0,0-.76-.71A2,2,0,0,0,96.06,21.61Zm-3.64.12a2,2,0,0,0,.7.75,2.37,2.37,0,0,0-.71.63,2.21,2.21,0,0,0-.67-.62A2.16,2.16,0,0,0,92.42,21.73Zm-3.69,0a2.11,2.11,0,0,0,.66.73,2.55,2.55,0,0,0-.63.55,2.12,2.12,0,0,0-.65-.58A2,2,0,0,0,88.73,21.76Zm-3.65-.05a2.17,2.17,0,0,0,.66.75,2.32,2.32,0,0,0-.66.59,2.15,2.15,0,0,0-.68-.59A1.89,1.89,0,0,0,85.08,21.71Zm-3.64-.08a2,2,0,0,0,.74.83,2.22,2.22,0,0,0-.76.7,2.1,2.1,0,0,0-.77-.68A2,2,0,0,0,81.44,21.63Zm-3.66-.29a1.94,1.94,0,0,0,.88,1.14,2.25,2.25,0,0,0-.86.79,2.15,2.15,0,0,0-.92-.82A1.82,1.82,0,0,0,77.78,21.34Zm-3.7,4.06a2.1,2.1,0,0,0,.67.78,2.25,2.25,0,0,0-.62.61,2.22,2.22,0,0,0-.77-.66A2,2,0,0,0,74.08,25.4Zm-3.62-.65a2,2,0,0,0,.94,1.38,2.19,2.19,0,0,0-1,.93,2,2,0,0,0-1.28-.92A1.73,1.73,0,0,0,70.46,24.75ZM66.8,28.51a2,2,0,0,0,.93,1.29,2.2,2.2,0,0,0-.93.93,1.9,1.9,0,0,0-1.34-.93A1.73,1.73,0,0,0,66.8,28.51Zm-3.66,7.68a2,2,0,0,0,.83.93,2.18,2.18,0,0,0-.84.89A1.86,1.86,0,0,0,62,37.14,1.86,1.86,0,0,0,63.14,36.19Zm0,23.88a1.84,1.84,0,0,0-1.23-1,1.89,1.89,0,0,0,1.22-.89,2.17,2.17,0,0,0,.86.89A2.1,2.1,0,0,0,63.15,60.07Zm3.64,3.51a1.9,1.9,0,0,0-.85-.83,2.07,2.07,0,0,0,.87-.76,2.21,2.21,0,0,0,.72.74A2.09,2.09,0,0,0,66.79,63.58Zm3.66,3.57a2,2,0,0,0-.78-.78,1.91,1.91,0,0,0,.79-.7,2.35,2.35,0,0,0,.68.69A2.11,2.11,0,0,0,70.45,67.15Zm3.66,4.5a1.75,1.75,0,0,0-1-1.53,2.15,2.15,0,0,0,1.07-.81,2.24,2.24,0,0,0,.88.82A1.85,1.85,0,0,0,74.11,71.65ZM77.78,71a1.85,1.85,0,0,0-.76-.83,2.31,2.31,0,0,0,.76-.63,2.32,2.32,0,0,0,.7.62A2,2,0,0,0,77.78,71Zm3.66-.15a2.13,2.13,0,0,0-.61-.69,2.2,2.2,0,0,0,.62-.51,2.48,2.48,0,0,0,.58.49A2.14,2.14,0,0,0,81.44,70.81Zm3.65-.08a2.06,2.06,0,0,0-.54-.63,2.4,2.4,0,0,0,.55-.46,2.58,2.58,0,0,0,.54.45A2.11,2.11,0,0,0,85.09,70.73Zm3.66,4.53a1.84,1.84,0,0,0-1.06-1.57,2,2,0,0,0,1.06-.94,2.07,2.07,0,0,0,1.07,1A1.81,1.81,0,0,0,88.75,75.26Zm3.66-4.52a2.16,2.16,0,0,0-.55-.65,2.4,2.4,0,0,0,.54-.47,2.38,2.38,0,0,0,.57.48A1.92,1.92,0,0,0,92.41,70.74Zm3.65.09a2,2,0,0,0-.63-.73,2.59,2.59,0,0,0,.61-.53,2.26,2.26,0,0,0,.65.54A1.89,1.89,0,0,0,96.06,70.83Zm3.67.29a1.93,1.93,0,0,0-.74-1,2.2,2.2,0,0,0,.74-.68,2.32,2.32,0,0,0,.85.7A1.8,1.8,0,0,0,99.73,71.12Zm7.32-3.82a2.12,2.12,0,0,0-.8-.93,2.25,2.25,0,0,0,.81-.81,2,2,0,0,0,.94.8A1.89,1.89,0,0,0,107.05,67.3Zm3.72-7.41a2.33,2.33,0,0,0-.72-.84,2.22,2.22,0,0,0,.7-.76,2,2,0,0,0,1,.77A1.88,1.88,0,0,0,110.77,59.89Zm3.6-10.71a2.08,2.08,0,0,0-.92-1.08,2.14,2.14,0,0,0,.93-1,1.82,1.82,0,0,0,1.59,1A1.8,1.8,0,0,0,114.37,49.18Z"/><path class="cls-8" d="M46.92,49.41a.5.5,0,0,0-.5.5.51.51,0,0,0,.5.5.5.5,0,0,0,.5-.5A.5.5,0,0,0,46.92,49.41Z"/><path class="cls-8" d="M50.56,49.09a.82.82,0,0,0-.82.82.82.82,0,0,0,.82.81.81.81,0,0,0,.81-.81A.82.82,0,0,0,50.56,49.09Z"/><path class="cls-8" d="M54.19,48.74a1.17,1.17,0,1,0,1.17,1.17A1.16,1.16,0,0,0,54.19,48.74Z"/><path class="cls-8" d="M46.92,53.05a.49.49,0,1,0,.49.49A.49.49,0,0,0,46.92,53.05Z"/><path class="cls-8" d="M50.56,52.76a.79.79,0,1,0,.78.78A.78.78,0,0,0,50.56,52.76Z"/><path class="cls-8" d="M54.19,52.43a1.11,1.11,0,1,0,1.12,1.11A1.11,1.11,0,0,0,54.19,52.43Z"/><path class="cls-8" d="M57.83,52a1.54,1.54,0,1,0,1.54,1.54A1.54,1.54,0,0,0,57.83,52Z"/><path class="cls-8" d="M46.92,56.76a.42.42,0,1,0,.42.42A.42.42,0,0,0,46.92,56.76Z"/><path class="cls-8" d="M50.56,56.47a.71.71,0,1,0,.71.71A.71.71,0,0,0,50.56,56.47Z"/><path class="cls-8" d="M54.19,56.14a1,1,0,1,0,1,1A1,1,0,0,0,54.19,56.14Z"/><path class="cls-8" d="M57.83,55.71a1.47,1.47,0,1,0,1.47,1.47A1.47,1.47,0,0,0,57.83,55.71Z"/><path class="cls-8" d="M46.92,60.46a.36.36,0,1,0,.36.36A.36.36,0,0,0,46.92,60.46Z"/><path class="cls-8" d="M50.56,60.17a.65.65,0,1,0,.64.65A.64.64,0,0,0,50.56,60.17Z"/><path class="cls-8" d="M54.19,59.88a.94.94,0,1,0,.94.94A.94.94,0,0,0,54.19,59.88Z"/><path class="cls-8" d="M57.83,59.47a1.35,1.35,0,1,0,1.35,1.35A1.34,1.34,0,0,0,57.83,59.47Z"/><path class="cls-8" d="M50.56,63.93a.52.52,0,0,0-.52.52.52.52,0,0,0,.52.52.52.52,0,0,0,.52-.52A.53.53,0,0,0,50.56,63.93Z"/><path class="cls-8" d="M54.19,63.68a.78.78,0,1,0,.78.77A.78.78,0,0,0,54.19,63.68Z"/><path class="cls-8" d="M57.83,63.31A1.14,1.14,0,1,0,59,64.45,1.14,1.14,0,0,0,57.83,63.31Z"/><path class="cls-8" d="M61.47,62.81a1.64,1.64,0,1,0,1.64,1.64A1.64,1.64,0,0,0,61.47,62.81Z"/><path class="cls-8" d="M50.56,67.71a.38.38,0,0,0,0,.76.38.38,0,0,0,0-.76Z"/><path class="cls-8" d="M54.19,67.47a.62.62,0,1,0,.63.62A.62.62,0,0,0,54.19,67.47Z"/><path class="cls-8" d="M57.83,67.12a1,1,0,0,0,0,1.94,1,1,0,0,0,0-1.94Z"/><path class="cls-8" d="M61.47,66.65a1.44,1.44,0,1,0,1.44,1.44A1.45,1.45,0,0,0,61.47,66.65Z"/><path class="cls-8" d="M54.19,71.36a.37.37,0,1,0,.37.37A.36.36,0,0,0,54.19,71.36Z"/><path class="cls-8" d="M57.83,71.11a.62.62,0,0,0-.62.62.62.62,0,1,0,1.24,0A.62.62,0,0,0,57.83,71.11Z"/><path class="cls-8" d="M61.47,70.72a1,1,0,1,0,1,1A1,1,0,0,0,61.47,70.72Z"/><path class="cls-8" d="M65.11,70.44a1.29,1.29,0,1,0,1.28,1.29A1.29,1.29,0,0,0,65.11,70.44Z"/><path class="cls-8" d="M68.74,70.19a1.54,1.54,0,1,0,1.54,1.54A1.54,1.54,0,0,0,68.74,70.19Z"/><path class="cls-8" d="M57.83,74.88a.48.48,0,0,0-.49.48.49.49,0,0,0,1,0A.48.48,0,0,0,57.83,74.88Z"/><path class="cls-8" d="M61.47,74.59a.78.78,0,1,0,.77.77A.77.77,0,0,0,61.47,74.59Z"/><path class="cls-8" d="M65.11,74.36a1,1,0,1,0,1,1A1,1,0,0,0,65.11,74.36Z"/><path class="cls-8" d="M68.74,74.13A1.24,1.24,0,1,0,70,75.36,1.23,1.23,0,0,0,68.74,74.13Z"/><path class="cls-8" d="M72.38,73.93a1.44,1.44,0,1,0,1.44,1.43A1.44,1.44,0,0,0,72.38,73.93Z"/><path class="cls-8" d="M76,73.78a1.59,1.59,0,1,0,1.59,1.58A1.59,1.59,0,0,0,76,73.78Z"/><path class="cls-8" d="M61.47,78.45a.55.55,0,0,0-.55.55.54.54,0,0,0,.55.55A.55.55,0,0,0,62,79,.55.55,0,0,0,61.47,78.45Z"/><path class="cls-8" d="M65.11,78.26a.74.74,0,0,0-.75.74.75.75,0,1,0,1.49,0A.74.74,0,0,0,65.11,78.26Z"/><path class="cls-8" d="M68.74,78.09a.91.91,0,1,0,.91.91A.9.9,0,0,0,68.74,78.09Z"/><path class="cls-8" d="M72.38,77.91A1.09,1.09,0,1,0,73.47,79,1.09,1.09,0,0,0,72.38,77.91Z"/><circle class="cls-8" cx="76.02" cy="79" r="1.26"/><path class="cls-8" d="M79.65,77.63a1.38,1.38,0,0,0,0,2.75,1.38,1.38,0,1,0,0-2.75Z"/><path class="cls-8" d="M65.11,82.18a.46.46,0,1,0,.45.46A.46.46,0,0,0,65.11,82.18Z"/><path class="cls-8" d="M68.74,82.05a.59.59,0,0,0-.59.59.6.6,0,0,0,.59.59.59.59,0,0,0,.59-.59A.58.58,0,0,0,68.74,82.05Z"/><path class="cls-8" d="M72.38,81.9a.74.74,0,1,0,.73.74A.73.73,0,0,0,72.38,81.9Z"/><path class="cls-8" d="M76,81.77a.87.87,0,1,0,0,1.73.87.87,0,0,0,0-1.73Z"/><path class="cls-8" d="M79.65,81.68a1,1,0,1,0,1,1A1,1,0,0,0,79.65,81.68Z"/><path class="cls-8" d="M68.74,85.9a.38.38,0,0,0,0,.75.38.38,0,1,0,0-.75Z"/><path class="cls-8" d="M72.38,85.8a.48.48,0,1,0,.48.48A.48.48,0,0,0,72.38,85.8Z"/><path class="cls-8" d="M76,85.7a.58.58,0,1,0,.57.58A.58.58,0,0,0,76,85.7Z"/><path class="cls-8" d="M79.65,85.63a.65.65,0,1,0,.65.65A.65.65,0,0,0,79.65,85.63Z"/><path class="cls-8" d="M79.65,89.56a.36.36,0,0,0,0,.71.36.36,0,1,0,0-.71Z"/></g><g class="cls-10"><path class="cls-8" d="M79.69,6.64a.38.38,0,0,0,.38-.38.37.37,0,0,0-.38-.37.36.36,0,0,0-.37.37A.37.37,0,0,0,79.69,6.64Z"/><path class="cls-8" d="M72.42,10.3a.4.4,0,1,0-.4-.4A.4.4,0,0,0,72.42,10.3Z"/><path class="cls-8" d="M76.06,10.43a.53.53,0,1,0,0-1.06.53.53,0,0,0,0,1.06Z"/><path class="cls-8" d="M79.69,10.52a.62.62,0,1,0,0-1.24.62.62,0,0,0,0,1.24Z"/><path class="cls-8" d="M65.15,13.91a.38.38,0,0,0,0-.75.38.38,0,1,0,0,.75Z"/><path class="cls-8" d="M68.78,14.05a.51.51,0,1,0-.51-.51A.51.51,0,0,0,68.78,14.05Z"/><path class="cls-8" d="M72.42,14.19a.65.65,0,0,0,.65-.65.65.65,0,1,0-1.3,0A.65.65,0,0,0,72.42,14.19Z"/><path class="cls-8" d="M76.06,14.34a.81.81,0,1,0-.81-.8A.8.8,0,0,0,76.06,14.34Z"/><path class="cls-8" d="M79.69,14.47a.94.94,0,1,0-.93-.93A.94.94,0,0,0,79.69,14.47Z"/><path class="cls-8" d="M65.15,17.76a.59.59,0,0,0,.59-.59.6.6,0,1,0-.59.59Z"/><path class="cls-8" d="M68.78,18a.78.78,0,1,0,0-1.55.78.78,0,0,0,0,1.55Z"/><path class="cls-8" d="M72.42,18.16a1,1,0,1,0-1-1A1,1,0,0,0,72.42,18.16Z"/><path class="cls-8" d="M76.06,18.35a1.18,1.18,0,1,0-1.18-1.18A1.18,1.18,0,0,0,76.06,18.35Z"/><path class="cls-8" d="M79.69,18.51a1.34,1.34,0,1,0-1.33-1.34A1.34,1.34,0,0,0,79.69,18.51Z"/><path class="cls-8" d="M57.87,21.17a.36.36,0,1,0-.36-.36A.36.36,0,0,0,57.87,21.17Z"/><path class="cls-8" d="M61.51,21.4a.59.59,0,1,0,0-1.18.59.59,0,1,0,0,1.18Z"/><path class="cls-8" d="M65.15,21.81a1,1,0,1,0-1-1A1,1,0,0,0,65.15,21.81Z"/><circle class="cls-8" cx="68.78" cy="20.81" r="1.23"/><path class="cls-8" d="M72.42,22.31a1.5,1.5,0,1,0-1.5-1.5A1.5,1.5,0,0,0,72.42,22.31Z"/><path class="cls-8" d="M57.87,25a.53.53,0,0,0,.53-.53.53.53,0,0,0-1.06,0A.53.53,0,0,0,57.87,25Z"/><circle class="cls-8" cx="61.51" cy="24.45" r="0.83"/><path class="cls-8" d="M65.15,25.67a1.23,1.23,0,1,0-1.23-1.22A1.22,1.22,0,0,0,65.15,25.67Z"/><path class="cls-8" d="M68.78,26a1.53,1.53,0,1,0-1.53-1.53A1.53,1.53,0,0,0,68.78,26Z"/><path class="cls-8" d="M54.23,28.51a.43.43,0,1,0,0-.85.43.43,0,0,0,0,.85Z"/><path class="cls-8" d="M57.87,28.77a.69.69,0,1,0-.68-.69A.68.68,0,0,0,57.87,28.77Z"/><path class="cls-8" d="M61.51,29.09a1,1,0,1,0-1-1A1,1,0,0,0,61.51,29.09Z"/><path class="cls-8" d="M65.15,29.58a1.5,1.5,0,1,0-1.5-1.5A1.5,1.5,0,0,0,65.15,29.58Z"/><path class="cls-8" d="M54.23,32.25a.53.53,0,1,0,0-1.06.53.53,0,0,0,0,1.06Z"/><path class="cls-8" d="M57.87,32.56a.85.85,0,0,0,.84-.84.84.84,0,0,0-.84-.83.83.83,0,0,0-.83.83A.84.84,0,0,0,57.87,32.56Z"/><path class="cls-8" d="M61.51,32.93a1.21,1.21,0,1,0-1.21-1.21A1.21,1.21,0,0,0,61.51,32.93Z"/><path class="cls-8" d="M50.6,35.77a.42.42,0,0,0,.41-.41A.41.41,0,0,0,50.6,35a.41.41,0,0,0-.41.41A.41.41,0,0,0,50.6,35.77Z"/><path class="cls-8" d="M54.23,36a.64.64,0,1,0,0-1.28.64.64,0,0,0-.64.64A.64.64,0,0,0,54.23,36Z"/><path class="cls-8" d="M57.87,36.33a1,1,0,1,0-1-1A1,1,0,0,0,57.87,36.33Z"/><path class="cls-8" d="M61.51,36.72a1.37,1.37,0,1,0-1.37-1.36A1.36,1.36,0,0,0,61.51,36.72Z"/><circle class="cls-8" cx="50.6" cy="39" r="0.42"/><circle class="cls-8" cx="54.23" cy="39" r="0.73"/><path class="cls-8" d="M57.87,40.07A1.08,1.08,0,1,0,56.79,39,1.07,1.07,0,0,0,57.87,40.07Z"/><path class="cls-8" d="M61.51,40.5A1.51,1.51,0,1,0,60,39,1.51,1.51,0,0,0,61.51,40.5Z"/><path class="cls-8" d="M50.6,43.09a.46.46,0,0,0,.46-.46.47.47,0,0,0-.46-.46.46.46,0,0,0-.46.46A.45.45,0,0,0,50.6,43.09Z"/><path class="cls-8" d="M54.23,43.42a.79.79,0,1,0-.78-.79A.79.79,0,0,0,54.23,43.42Z"/><path class="cls-8" d="M57.87,43.76a1.13,1.13,0,0,0,0-2.26,1.13,1.13,0,0,0,0,2.26Z"/><circle class="cls-8" cx="61.51" cy="42.63" r="1.56"/><path class="cls-8" d="M50.6,45.76a.51.51,0,1,0,.51.51A.51.51,0,0,0,50.6,45.76Z"/><circle class="cls-8" cx="54.23" cy="46.27" r="0.83"/><path class="cls-8" d="M57.87,45.1A1.17,1.17,0,1,0,59,46.27,1.17,1.17,0,0,0,57.87,45.1Z"/><path class="cls-8" d="M121.54,46.27a1.83,1.83,0,0,0-3.49-.79,2.07,2.07,0,0,0-1-1,2.08,2.08,0,0,0,.94-1.14A1.8,1.8,0,1,0,118,42a2.06,2.06,0,0,0-1-1.2,2,2,0,0,0,1-1.43,1.7,1.7,0,0,0,1.65,1.37,1.73,1.73,0,0,0,0-3.45,1.7,1.7,0,0,0-1.65,1.37,2,2,0,0,0-1.18-1.54,1.91,1.91,0,0,0-.66-3.65,1.75,1.75,0,1,0-1.79-2.33,2.12,2.12,0,0,0-1.13-1.33,1.91,1.91,0,0,0,1.07-1.71,1.94,1.94,0,0,0-1.93-1.93,1.89,1.89,0,0,0-1.68,1,2.23,2.23,0,0,0-1.07-1.07,1.88,1.88,0,0,0,1-1.66,1.9,1.9,0,0,0-3.61-.85,2.12,2.12,0,0,0-1.21-1.12,1.82,1.82,0,0,0-.73-3.49,1.8,1.8,0,0,0-1.75,1.47A1.92,1.92,0,0,0,99.74,20a2,2,0,0,0-1.86-1.23,2,2,0,0,0-1.78,1.11,2.09,2.09,0,0,0-1.76-1.15,1.57,1.57,0,0,0,1.49-1.57,1.59,1.59,0,1,0-3.18,0,1.57,1.57,0,0,0,1.49,1.57,2.06,2.06,0,0,0-1.73,1.12,2,2,0,0,0-1.78-1.11A1.58,1.58,0,1,0,89,17.17a1.58,1.58,0,0,0,1.61,1.58,2,2,0,0,0-1.82,1.16,2,2,0,0,0-3.64.08,1.94,1.94,0,0,0-3.66.29,1.85,1.85,0,0,0-1.77-1.34,1.86,1.86,0,0,0-.86,3.51,2.12,2.12,0,0,0-1.08,1.05,1.93,1.93,0,0,0-1.59-1,1.69,1.69,0,0,0-.1-3.38,1.69,1.69,0,0,0-.1,3.38,2,2,0,0,0-1.82,1.65,1.76,1.76,0,0,0-1.72-1.48,1.78,1.78,0,0,0-1.78,1.79A1.75,1.75,0,0,0,72,26.14a2,2,0,0,0-1.51,1.52,1.76,1.76,0,0,0-1.7-1.36,1.77,1.77,0,0,0-.35,3.5,1.94,1.94,0,0,0-1.6,1.72,1.72,1.72,0,1,0,0,.4,2,2,0,0,0,1,1.54,2.11,2.11,0,0,0-1,1.06,1.87,1.87,0,1,0-2.19,2.62A1.93,1.93,0,0,0,63.18,39a2,2,0,0,0,1.14,1.77,2,2,0,0,0-.13,3.64,2.13,2.13,0,0,0-1.12,1.68,1.58,1.58,0,0,0-1.56-1.42,1.6,1.6,0,0,0,0,3.2,1.58,1.58,0,0,0,1.56-1.42,2.08,2.08,0,0,0,1.11,1.66,2,2,0,0,0-1.09,1.75,1.59,1.59,0,1,0,0,.1,2,2,0,0,0,1.13,1.77,2,2,0,0,0,.08,3.68,2,2,0,0,0-1.13,1.77,2,2,0,0,0,1.52,1.88,1.83,1.83,0,1,0,2.13,2.5A2.16,2.16,0,0,0,68,62.75a1.89,1.89,0,0,0-1.08,1.7,1.9,1.9,0,0,0,3.59.88,2.17,2.17,0,0,0,1,1,2,2,0,0,0-1,1.57,1.7,1.7,0,0,0-1.69-1.57,1.72,1.72,0,0,0,0,3.44,1.7,1.7,0,0,0,1.69-1.57,2,2,0,0,0,2,1.83,1.94,1.94,0,0,0,1.7-1,2.13,2.13,0,0,0,1.26,1.09,1.74,1.74,0,0,0,.68,3.35,1.73,1.73,0,0,0,1.72-1.67,1.92,1.92,0,0,0,1.91,1.85,1.94,1.94,0,0,0,1.77-1.16,2,2,0,0,0,1.64,1.22,1.68,1.68,0,0,0-1.47,1.65,1.7,1.7,0,1,0,3.4,0,1.68,1.68,0,0,0-1.47-1.65,2,2,0,0,0,1.55-1.07,2.08,2.08,0,0,0,1.28,1.06,1.77,1.77,0,0,0-1.21,1.66,1.79,1.79,0,1,0,2.37-1.66,2.06,2.06,0,0,0,1.22-1,2.11,2.11,0,0,0,1.07,1,1.84,1.84,0,1,0,2.59,1.78,1.81,1.81,0,0,0,1.81,1.73,1.83,1.83,0,0,0,1.83-1.84A1.81,1.81,0,0,0,95,73.7a2.17,2.17,0,0,0,1.09-1,2.07,2.07,0,0,0,1.27,1,1.74,1.74,0,0,0-1.24,1.66,1.77,1.77,0,1,0,3.54,0,1.75,1.75,0,0,0-1.24-1.66,2.06,2.06,0,0,0,1.32-1.07,2,2,0,0,0,1.61,1.08,1.67,1.67,0,0,0-1.52,1.65,1.7,1.7,0,1,0,3.39,0,1.67,1.67,0,0,0-1.52-1.65,2,2,0,0,0,1.72-1.38,1.85,1.85,0,0,0,1.74,1.26A1.87,1.87,0,0,0,107,71.73a1.83,1.83,0,0,0-1-1.6,2.22,2.22,0,0,0,1-.94,2.07,2.07,0,0,0,1.39.93,1.64,1.64,0,0,0-1.33,1.61,1.68,1.68,0,1,0,3.36,0,1.65,1.65,0,0,0-1.33-1.61,2.08,2.08,0,0,0,1.59-1.24,1.88,1.88,0,1,0,2.44-2.52,2,2,0,0,0,1.25-1.6,1.68,1.68,0,0,0,1.64,1.4,1.71,1.71,0,0,0,0-3.41,1.68,1.68,0,0,0-1.64,1.4,2,2,0,0,0-.93-1.41,2.19,2.19,0,0,0,1-1,1.88,1.88,0,0,0,1.62,1,1.89,1.89,0,0,0,.68-3.65,2,2,0,0,0,1.3-1.7,1.69,1.69,0,1,0,0-.36A2,2,0,0,0,117,55.41,2,2,0,0,0,118,54.12,1.77,1.77,0,1,0,118,53a2.05,2.05,0,0,0-1-1.22,2,2,0,0,0,1-1.1,1.83,1.83,0,0,0,1.66,1.08,1.81,1.81,0,0,0,0-3.62A1.84,1.84,0,0,0,121.54,46.27Zm-7.12,9.8a2.13,2.13,0,0,0-.56-.67,2.34,2.34,0,0,0,.55-.62,2.15,2.15,0,0,0,.74.63A1.93,1.93,0,0,0,114.42,56.07Zm-3.69,7.28a2.43,2.43,0,0,0-.52-.63,2.79,2.79,0,0,0,.51-.52,2.09,2.09,0,0,0,.64.54A2,2,0,0,0,110.73,63.35ZM107.05,67a2.18,2.18,0,0,0-.54-.63,2.18,2.18,0,0,0,.53-.52,2.07,2.07,0,0,0,.61.53A2.21,2.21,0,0,0,107.05,67Zm-3.64-.24a2.48,2.48,0,0,0-.37-.43,2.5,2.5,0,0,0,.33-.32,2.16,2.16,0,0,0,.43.36A2.87,2.87,0,0,0,103.41,66.75Zm-3.7-.14a1.94,1.94,0,0,0-.23-.27l.25-.24a2.75,2.75,0,0,0,.26.22A3.83,3.83,0,0,0,99.71,66.61ZM92.42,70.7a2,2,0,0,0-.52-.61,2.43,2.43,0,0,0,.52-.44,2.26,2.26,0,0,0,.53.44A2.07,2.07,0,0,0,92.42,70.7Zm-11-4a2.36,2.36,0,0,0-.31-.32,3.31,3.31,0,0,0,.34-.3,2.27,2.27,0,0,0,.28.26A2.67,2.67,0,0,0,81.46,66.68Zm-3.66.19a2.06,2.06,0,0,0-.51-.51,2.16,2.16,0,0,0,.51-.44,2.29,2.29,0,0,0,.44.44A2.16,2.16,0,0,0,77.8,66.87Zm-3.66-3.64a2,2,0,0,0-.51-.5,2.47,2.47,0,0,0,.52-.44,2.44,2.44,0,0,0,.43.42A2.43,2.43,0,0,0,74.14,63.23Zm-3.65-3.59a2.36,2.36,0,0,0-.6-.58,2.22,2.22,0,0,0,.61-.53,2.74,2.74,0,0,0,.5.52A2.07,2.07,0,0,0,70.49,59.64Zm-3.67-3.45a2,2,0,0,0-.83-.78,2.09,2.09,0,0,0,.84-.75,2.13,2.13,0,0,0,.69.74A2.21,2.21,0,0,0,66.82,56.19Zm0-16.21a2.16,2.16,0,0,0,.7.8,2.13,2.13,0,0,0-.69.74,2,2,0,0,0-.85-.75A1.94,1.94,0,0,0,66.81,40Zm3.67-7.27a2.13,2.13,0,0,0,.67.76,2.34,2.34,0,0,0-.65.68,2.07,2.07,0,0,0-.78-.69A2,2,0,0,0,70.48,32.71Zm3.65-3.6a2.11,2.11,0,0,0,.62.71,2.14,2.14,0,0,0-.6.6,2.14,2.14,0,0,0-.72-.62A1.93,1.93,0,0,0,74.13,29.11Zm3.67.27a2.27,2.27,0,0,0,.38.44,2.16,2.16,0,0,0-.37.37,2.22,2.22,0,0,0-.44-.37A2.24,2.24,0,0,0,77.8,29.38Zm3.68-3.76a2.23,2.23,0,0,0,.5.56,2.19,2.19,0,0,0-.5.46,2.29,2.29,0,0,0-.52-.46A2.13,2.13,0,0,0,81.48,25.62Zm3.62.12a2.38,2.38,0,0,0,.39.45,2.55,2.55,0,0,0-.38.35,2.16,2.16,0,0,0-.43-.36A2,2,0,0,0,85.1,25.74Zm3.66.11a2.43,2.43,0,0,0,.3.34,3.71,3.71,0,0,0-.29.27,4.15,4.15,0,0,0-.32-.27A2.5,2.5,0,0,0,88.76,25.85Zm3.68,0a2.35,2.35,0,0,0,.3.33,2.51,2.51,0,0,0-.31.26,2.33,2.33,0,0,0-.28-.26A2.28,2.28,0,0,0,92.44,25.86Zm3.65-.08a2.34,2.34,0,0,0,.37.4,2.37,2.37,0,0,0-.38.33,2.05,2.05,0,0,0-.34-.32A2.3,2.3,0,0,0,96.09,25.78Zm3.63-.08a2.51,2.51,0,0,0,.44.48,2.07,2.07,0,0,0-.45.39,2.23,2.23,0,0,0-.42-.39A2.18,2.18,0,0,0,99.72,25.7Zm3.68-.13a2.07,2.07,0,0,0,.58.6,2.61,2.61,0,0,0-.59.51,2.47,2.47,0,0,0-.52-.5A2.22,2.22,0,0,0,103.4,25.57ZM107,29.3a2.15,2.15,0,0,0,.49.51,2.33,2.33,0,0,0-.51.43,2.14,2.14,0,0,0-.43-.42A2.48,2.48,0,0,0,107,29.3Zm3.69,3.63a2.17,2.17,0,0,0,.56.53,2.1,2.1,0,0,0-.58.49,2.14,2.14,0,0,0-.44-.46A2.26,2.26,0,0,0,110.73,32.93Zm3.7,3.41a1.88,1.88,0,0,0,.82.76,2.14,2.14,0,0,0-.82.7,2.38,2.38,0,0,0-.64-.7A2.14,2.14,0,0,0,114.43,36.34Zm0,8.62a2.43,2.43,0,0,0-.44-.52,2.39,2.39,0,0,0,.46-.54,2.18,2.18,0,0,0,.6.53A2,2,0,0,0,114.4,45Zm-3.7,10.7c-.07-.08-.13-.18-.21-.26a1.51,1.51,0,0,0,.21-.23,3.25,3.25,0,0,0,.29.23A2.35,2.35,0,0,0,110.7,55.66ZM107,63.06a3.37,3.37,0,0,0-.29-.35,3.44,3.44,0,0,0,.27-.27,3.07,3.07,0,0,0,.35.28A2.12,2.12,0,0,0,107,63.06ZM92.42,66.53a1.46,1.46,0,0,0-.16-.19l.17-.16.17.15A1.71,1.71,0,0,0,92.42,66.53ZM70.5,40.37a2.42,2.42,0,0,0,.36.42,2.11,2.11,0,0,0-.35.38,2.07,2.07,0,0,0-.45-.39A2.43,2.43,0,0,0,70.5,40.37ZM74.15,33a2.17,2.17,0,0,0,.39.47,2,2,0,0,0-.38.39,2.37,2.37,0,0,0-.48-.41A2.22,2.22,0,0,0,74.15,33Zm7.33-3.49a1.74,1.74,0,0,0,.25.29,2.66,2.66,0,0,0-.24.23c-.09-.09-.19-.15-.28-.23A2.44,2.44,0,0,0,81.48,29.53Zm21.91-.05a1.77,1.77,0,0,0,.33.34,1.64,1.64,0,0,0-.33.26,2.13,2.13,0,0,0-.26-.26A2.18,2.18,0,0,0,103.39,29.48Zm7.31,22.43-.19-.21a1.29,1.29,0,0,0,.16-.17,2.41,2.41,0,0,0,.24.21ZM107,59.2a1.37,1.37,0,0,0-.16-.18l.14-.15a1.35,1.35,0,0,0,.19.16ZM92.43,62.73l-.05-.06,0,0,0,0Zm-22.3-11a2.57,2.57,0,0,0,.39-.35,2.52,2.52,0,0,0,.3.35,1.68,1.68,0,0,0-.3.35A2.13,2.13,0,0,0,70.13,51.74Zm.38-7.65a1.68,1.68,0,0,0,.3.35,2.62,2.62,0,0,0-.28.3,2.38,2.38,0,0,0-.38-.32A2.24,2.24,0,0,0,70.51,44.09Zm3.65-7.25a2.26,2.26,0,0,0,.23.29,1.7,1.7,0,0,0-.22.24,1.89,1.89,0,0,0-.31-.25A2.68,2.68,0,0,0,74.16,36.84Zm7.33-3.45.09.11-.08.08-.1-.09Zm29.44,7.41a2.65,2.65,0,0,0-.26.21,1.8,1.8,0,0,0-.19-.2l.21-.23A1.7,1.7,0,0,0,110.93,40.8Zm-4,11,0-.05.07-.08,0,.05ZM74.19,44.3a.86.86,0,0,0,.13.14l-.13.13a1.12,1.12,0,0,0-.16-.13Zm7.31-7.16v0h0Zm25.51,11-.06-.07L107,48l.08.07A.27.27,0,0,0,107,48.16Zm-3.65,3.57h0ZM74,48.09a.93.93,0,0,0,.15-.13l.12.13-.12.13Zm3.8-3.68,0,0,0,0,0,0Zm25.51,3.68Zm-25.55,0,0,0,0,0,0,0Zm25.56-3.64h0Zm0-3.64h0ZM77.8,51.72l0,0,0,0,0,0ZM107,44.52l-.06-.07.06-.07.08.07Zm.09-3.71-.09.07-.06-.07.07-.08Zm-3.7-3.67-.05,0v0l0,0ZM77.87,40.81l0,0-.06,0,0,0S77.85,40.8,77.87,40.81ZM74,51.74c0-.05.12-.09.17-.15l.12.13-.14.15A.93.93,0,0,0,74,51.74Zm3.76,3.64.06-.05,0,.05,0,.06Zm3.72,0Zm21.83,0,0,0,0,0a.08.08,0,0,0,0,0Zm3.83-18.25a.86.86,0,0,0-.14.13l-.11-.12L107,37A.8.8,0,0,0,107.16,37.13Zm-3.65-3.65-.14.11-.09-.09.11-.13Zm-3.76,0-.06,0,0,0,.06-.06Zm-3.64,0,0,0,0,0,0,0Zm-3.67,0,0,0h0l0,0Zm-3.63,0h0l0,0,0,0Zm-3.64,0s0,0,0,0,0,0,0,0l0,0ZM77.9,37.15l-.07.07-.11-.09.09-.08Zm-3.73,3.47a1.46,1.46,0,0,0,.16.19l-.14.15c-.07-.07-.14-.11-.21-.17S74.11,40.69,74.17,40.62Zm-3.64,7.17a1.53,1.53,0,0,0,.27.3,2.22,2.22,0,0,0-.28.33,2,2,0,0,0-.35-.31A2.74,2.74,0,0,0,70.53,47.79ZM74,55.39a1.32,1.32,0,0,0,.22-.18l.16.17-.17.19ZM77.71,59l.13-.12.09.09-.11.13Zm3.75,0,0,0,0,0,0,0Zm3.67,0h0ZM99.7,59v0l0,0,0,0Zm3.59,0a.23.23,0,0,0,.07-.07.6.6,0,0,1,.08.08l-.07.07ZM107,55.48l-.09-.1.07-.07.1.09A.6.6,0,0,1,107,55.48Zm3.67-7.2-.18-.19.18-.19c.06.07.14.12.21.19A1.9,1.9,0,0,0,110.67,48.28Zm0-3.64-.18-.19.18-.2a1.86,1.86,0,0,0,.22.19A2.19,2.19,0,0,0,110.67,44.64Zm.39-7.54a2.76,2.76,0,0,0-.37.31l-.27-.28a3.26,3.26,0,0,0,.29-.36A2.73,2.73,0,0,0,111.06,37.1Zm-3.75-3.61a1.51,1.51,0,0,0-.28.22l-.23-.23a1.51,1.51,0,0,0,.22-.28A2,2,0,0,0,107.31,33.49ZM99.9,29.82a1.71,1.71,0,0,0-.2.18,1.49,1.49,0,0,0-.18-.17,1.37,1.37,0,0,0,.19-.23C99.78,29.67,99.83,29.75,99.9,29.82Zm-3.67,0-.15.14a1.59,1.59,0,0,0-.13-.13c0-.05.08-.12.13-.18Zm-3.69,0-.12.1-.09-.09s.06-.09.1-.13Zm-3.66,0-.1.1-.12-.11.11-.13S88.84,29.81,88.88,29.85Zm-3.6,0-.16.15-.19-.17c.07-.06.12-.13.18-.19A1.73,1.73,0,0,0,85.28,29.84ZM78,33.49l-.18.18a2.15,2.15,0,0,0-.24-.18,2.72,2.72,0,0,0,.24-.24A2.15,2.15,0,0,0,78,33.49ZM70.05,55.4a2.55,2.55,0,0,0,.47-.4,2.26,2.26,0,0,0,.37.39,2.73,2.73,0,0,0-.39.44A2.63,2.63,0,0,0,70.05,55.4Zm3.79,3.65a2.69,2.69,0,0,0,.32-.27l.24.26a2.6,2.6,0,0,0-.25.31A1.76,1.76,0,0,0,73.84,59.05Zm3.7,3.66a2.92,2.92,0,0,0,.28-.21l.2.2a3,3,0,0,0-.22.28A3.31,3.31,0,0,0,77.54,62.71Zm3.82,0,.14-.12.12.11c-.05.05-.08.11-.13.16A.93.93,0,0,0,81.36,62.7Zm3.68,0,.09-.07.07.06-.08.1Zm3.7,0,.05,0,0,0,0,.06Zm7.27,0,.06,0,.06,0-.06.06Zm3.62,0,.09-.09a.52.52,0,0,0,.11.1.52.52,0,0,0-.1.11Zm3.57,0,.17-.16a1.62,1.62,0,0,0,.19.17,1.8,1.8,0,0,0-.19.2A1.73,1.73,0,0,0,103.2,62.7Zm11.22-21.33a2.28,2.28,0,0,0-.5-.57,2.47,2.47,0,0,0,.51-.61,2,2,0,0,0,.67.59A2.27,2.27,0,0,0,114.42,41.37ZM70.5,36.57a1.94,1.94,0,0,0,.48.55,2.52,2.52,0,0,0-.48.5,2.33,2.33,0,0,0-.58-.5A2.17,2.17,0,0,0,70.5,36.57Zm-3.68,7.17a2.27,2.27,0,0,0,.59.68,2.21,2.21,0,0,0-.58.64,2.27,2.27,0,0,0-.73-.65A2.1,2.1,0,0,0,66.82,43.74Zm0,3.74a2.4,2.4,0,0,0,.56.63,2.23,2.23,0,0,0-.57.65,2.17,2.17,0,0,0-.7-.65A2.14,2.14,0,0,0,66.83,47.48Zm0,3.57a2.16,2.16,0,0,0,.62.69,2.09,2.09,0,0,0-.61.68,2.1,2.1,0,0,0-.76-.69A2,2,0,0,0,66.82,51.05ZM84.89,66.32a2.11,2.11,0,0,0,.23-.19,2.08,2.08,0,0,0,.21.21,1.59,1.59,0,0,0-.2.24A2,2,0,0,0,84.89,66.32Zm3.71,0,.18-.16.17.16a1.63,1.63,0,0,0-.17.2A1.71,1.71,0,0,0,88.6,66.34Zm7.29,0c.06-.06.12-.11.18-.18l.2.19a2,2,0,0,0-.19.22C96,66.48,96,66.4,95.89,66.33Zm14.83-6.89a2.25,2.25,0,0,0-.34-.41,2.5,2.5,0,0,0,.32-.33,2.37,2.37,0,0,0,.42.35A2.46,2.46,0,0,0,110.72,59.44Zm3.69-7.14a2.3,2.3,0,0,0-.47-.56,2.2,2.2,0,0,0,.47-.54,2.22,2.22,0,0,0,.64.54A2.29,2.29,0,0,0,114.41,52.3Zm0-3.69a2.43,2.43,0,0,0-.44-.52,2.64,2.64,0,0,0,.43-.51,2.3,2.3,0,0,0,.6.52A2.22,2.22,0,0,0,114.41,48.61Zm0-16.28a1.74,1.74,0,0,0,1.49,1.12,1.91,1.91,0,0,0-1.48.93,2.25,2.25,0,0,0-.86-.92A2.06,2.06,0,0,0,114.42,32.33ZM110.75,29a1.79,1.79,0,0,0,.81.8,2.22,2.22,0,0,0-.83.72,2,2,0,0,0-.69-.7A2.16,2.16,0,0,0,110.75,29Zm-3.66-3.7a1.84,1.84,0,0,0,.81.82,2.18,2.18,0,0,0-.86.76,2.29,2.29,0,0,0-.72-.7A2.05,2.05,0,0,0,107.09,25.29Zm-3.69-4.13a1.82,1.82,0,0,0,1,1.32,2.07,2.07,0,0,0-1,.85,2.16,2.16,0,0,0-.91-.86A1.94,1.94,0,0,0,103.4,21.16Zm-3.66.45a1.9,1.9,0,0,0,.8.86,2.11,2.11,0,0,0-.82.72,2.35,2.35,0,0,0-.76-.71A2,2,0,0,0,99.74,21.61Zm-3.64.12a1.94,1.94,0,0,0,.7.75,2.26,2.26,0,0,0-.71.63,2.33,2.33,0,0,0-.67-.62A2.16,2.16,0,0,0,96.1,21.73Zm-3.69,0a2,2,0,0,0,.66.73,2.23,2.23,0,0,0-.63.55,2.24,2.24,0,0,0-.65-.58A2,2,0,0,0,92.41,21.76Zm-3.65-.05a2,2,0,0,0,.66.75,2.19,2.19,0,0,0-.66.59,2.27,2.27,0,0,0-.68-.59A2,2,0,0,0,88.76,21.71Zm-3.64-.08a2,2,0,0,0,.73.83,2.28,2.28,0,0,0-.75.7,2.18,2.18,0,0,0-.77-.68A2,2,0,0,0,85.12,21.63Zm-3.66-.29a2,2,0,0,0,.87,1.14,2.3,2.3,0,0,0-.85.79,2.15,2.15,0,0,0-.92-.82A1.85,1.85,0,0,0,81.46,21.34ZM77.75,25.4a2.22,2.22,0,0,0,.68.78,2.29,2.29,0,0,0-.63.61,2.06,2.06,0,0,0-.77-.66A1.94,1.94,0,0,0,77.75,25.4Zm-3.61-.65a2,2,0,0,0,.94,1.38,2.14,2.14,0,0,0-1,.93,2,2,0,0,0-1.28-.92A1.73,1.73,0,0,0,74.14,24.75Zm-3.66,3.76a2,2,0,0,0,.92,1.29,2.23,2.23,0,0,0-.92.93,1.94,1.94,0,0,0-1.34-.93A1.75,1.75,0,0,0,70.48,28.51Zm-3.67,7.68a2.14,2.14,0,0,0,.83.93,2.16,2.16,0,0,0-.83.89,1.88,1.88,0,0,0-1.14-.87A1.86,1.86,0,0,0,66.81,36.19Zm0,23.88a1.83,1.83,0,0,0-1.22-1,1.91,1.91,0,0,0,1.22-.89,2.11,2.11,0,0,0,.86.89A2.17,2.17,0,0,0,66.82,60.07Zm3.64,3.51a1.92,1.92,0,0,0-.84-.83,2.2,2.2,0,0,0,.87-.76,2.21,2.21,0,0,0,.72.74A2.12,2.12,0,0,0,70.46,63.58Zm3.66,3.57a2,2,0,0,0-.78-.78,2,2,0,0,0,.8-.7,2.24,2.24,0,0,0,.68.69A2.13,2.13,0,0,0,74.12,67.15Zm3.66,4.5a1.74,1.74,0,0,0-1-1.53,2.09,2.09,0,0,0,1.06-.81,2.34,2.34,0,0,0,.89.82A1.88,1.88,0,0,0,77.78,71.65ZM81.46,71a2,2,0,0,0-.76-.83,2.31,2.31,0,0,0,.76-.63,2.4,2.4,0,0,0,.69.62A2,2,0,0,0,81.46,71Zm3.65-.15a2,2,0,0,0-.6-.69,2.52,2.52,0,0,0,.62-.51,2.48,2.48,0,0,0,.58.49A2.05,2.05,0,0,0,85.11,70.81Zm3.66-.08a2,2,0,0,0-.55-.63,2.26,2.26,0,0,0,.56-.46,2.3,2.3,0,0,0,.53.45A2.07,2.07,0,0,0,88.77,70.73Zm3.66,4.53a1.83,1.83,0,0,0-1.07-1.57,2,2,0,0,0,1.06-.94,2.09,2.09,0,0,0,1.08,1A1.81,1.81,0,0,0,92.43,75.26Zm3.65-4.52a1.91,1.91,0,0,0-.55-.65,2.25,2.25,0,0,0,.55-.47,2.21,2.21,0,0,0,.57.48A2.07,2.07,0,0,0,96.08,70.74Zm3.65.09a1.91,1.91,0,0,0-.62-.73,2.54,2.54,0,0,0,.6-.53,2.3,2.3,0,0,0,.66.54A2,2,0,0,0,99.73,70.83Zm3.68.29a2,2,0,0,0-.75-1,2.23,2.23,0,0,0,.75-.68,2.37,2.37,0,0,0,.84.7A1.82,1.82,0,0,0,103.41,71.12Zm7.32-3.82a2.12,2.12,0,0,0-.8-.93,2.14,2.14,0,0,0,.8-.81,2.12,2.12,0,0,0,1,.8A1.85,1.85,0,0,0,110.73,67.3Zm3.71-7.41a2.3,2.3,0,0,0-.71-.84,2.29,2.29,0,0,0,.69-.76,2,2,0,0,0,1,.77A2,2,0,0,0,114.44,59.89ZM118,49.18a2.08,2.08,0,0,0-.92-1.08,2.14,2.14,0,0,0,.93-1,1.83,1.83,0,0,0,1.6,1A1.82,1.82,0,0,0,118,49.18Z"/><path class="cls-8" d="M50.6,49.41a.5.5,0,0,0-.5.5.5.5,0,0,0,.5.5.51.51,0,0,0,.5-.5A.5.5,0,0,0,50.6,49.41Z"/><path class="cls-8" d="M54.23,49.09a.82.82,0,0,0-.81.82.81.81,0,0,0,.81.81.82.82,0,0,0,.82-.81A.82.82,0,0,0,54.23,49.09Z"/><path class="cls-8" d="M57.87,48.74A1.17,1.17,0,1,0,59,49.91,1.16,1.16,0,0,0,57.87,48.74Z"/><path class="cls-8" d="M50.6,53.05a.49.49,0,1,0,.49.49A.49.49,0,0,0,50.6,53.05Z"/><path class="cls-8" d="M54.23,52.76a.79.79,0,1,0,.79.78A.78.78,0,0,0,54.23,52.76Z"/><path class="cls-8" d="M57.87,52.43A1.11,1.11,0,1,0,59,53.54,1.11,1.11,0,0,0,57.87,52.43Z"/><path class="cls-8" d="M61.51,52a1.54,1.54,0,1,0,1.54,1.54A1.54,1.54,0,0,0,61.51,52Z"/><path class="cls-8" d="M50.6,56.76a.42.42,0,1,0,.42.42A.42.42,0,0,0,50.6,56.76Z"/><path class="cls-8" d="M54.23,56.47a.71.71,0,1,0,.72.71A.71.71,0,0,0,54.23,56.47Z"/><path class="cls-8" d="M57.87,56.14a1,1,0,1,0,1,1A1,1,0,0,0,57.87,56.14Z"/><path class="cls-8" d="M61.51,55.71A1.47,1.47,0,1,0,63,57.18,1.47,1.47,0,0,0,61.51,55.71Z"/><path class="cls-8" d="M50.6,60.46a.36.36,0,1,0,0,.71.36.36,0,0,0,0-.71Z"/><path class="cls-8" d="M54.23,60.17a.65.65,0,1,0,.65.65A.65.65,0,0,0,54.23,60.17Z"/><path class="cls-8" d="M57.87,59.88a.94.94,0,1,0,.94.94A.94.94,0,0,0,57.87,59.88Z"/><path class="cls-8" d="M61.51,59.47a1.35,1.35,0,1,0,1.34,1.35A1.35,1.35,0,0,0,61.51,59.47Z"/><path class="cls-8" d="M54.23,63.93a.53.53,0,0,0-.52.52.52.52,0,0,0,.52.52.52.52,0,0,0,.52-.52A.52.52,0,0,0,54.23,63.93Z"/><path class="cls-8" d="M57.87,63.68a.78.78,0,0,0,0,1.55.78.78,0,1,0,0-1.55Z"/><path class="cls-8" d="M61.51,63.31a1.14,1.14,0,1,0,1.14,1.14A1.14,1.14,0,0,0,61.51,63.31Z"/><path class="cls-8" d="M65.15,62.81a1.64,1.64,0,1,0,1.64,1.64A1.65,1.65,0,0,0,65.15,62.81Z"/><path class="cls-8" d="M54.23,67.71a.38.38,0,1,0,.38.38A.38.38,0,0,0,54.23,67.71Z"/><path class="cls-8" d="M57.87,67.47a.62.62,0,1,0,.62.62A.62.62,0,0,0,57.87,67.47Z"/><path class="cls-8" d="M61.51,67.12a1,1,0,1,0,1,1A1,1,0,0,0,61.51,67.12Z"/><path class="cls-8" d="M65.15,66.65a1.44,1.44,0,1,0,1.43,1.44A1.44,1.44,0,0,0,65.15,66.65Z"/><path class="cls-8" d="M57.87,71.36a.37.37,0,1,0,.37.37A.37.37,0,0,0,57.87,71.36Z"/><path class="cls-8" d="M61.51,71.11a.62.62,0,0,0-.62.62.62.62,0,1,0,1.24,0A.62.62,0,0,0,61.51,71.11Z"/><path class="cls-8" d="M65.15,70.72a1,1,0,1,0,1,1A1,1,0,0,0,65.15,70.72Z"/><path class="cls-8" d="M68.78,70.44a1.29,1.29,0,1,0,1.29,1.29A1.28,1.28,0,0,0,68.78,70.44Z"/><path class="cls-8" d="M72.42,70.19A1.54,1.54,0,1,0,74,71.73,1.54,1.54,0,0,0,72.42,70.19Z"/><path class="cls-8" d="M61.51,74.88a.48.48,0,0,0-.49.48.49.49,0,0,0,1,0A.48.48,0,0,0,61.51,74.88Z"/><path class="cls-8" d="M65.15,74.59a.78.78,0,1,0,.77.77A.78.78,0,0,0,65.15,74.59Z"/><path class="cls-8" d="M68.78,74.36a1,1,0,1,0,1,1A1,1,0,0,0,68.78,74.36Z"/><path class="cls-8" d="M72.42,74.13a1.24,1.24,0,1,0,1.23,1.23A1.23,1.23,0,0,0,72.42,74.13Z"/><path class="cls-8" d="M76.06,73.93a1.44,1.44,0,1,0,1.43,1.43A1.43,1.43,0,0,0,76.06,73.93Z"/><path class="cls-8" d="M79.69,73.78a1.59,1.59,0,1,0,1.59,1.58A1.59,1.59,0,0,0,79.69,73.78Z"/><path class="cls-8" d="M65.15,78.45a.55.55,0,0,0-.55.55.54.54,0,0,0,.55.55A.55.55,0,0,0,65.7,79,.55.55,0,0,0,65.15,78.45Z"/><path class="cls-8" d="M68.78,78.26A.74.74,0,0,0,68,79a.75.75,0,0,0,.74.75.76.76,0,0,0,.75-.75A.75.75,0,0,0,68.78,78.26Z"/><path class="cls-8" d="M72.42,78.09a.91.91,0,1,0,.91.91A.91.91,0,0,0,72.42,78.09Z"/><path class="cls-8" d="M76.06,77.91A1.09,1.09,0,1,0,77.15,79,1.09,1.09,0,0,0,76.06,77.91Z"/><circle class="cls-8" cx="79.69" cy="79" r="1.26"/><path class="cls-8" d="M68.78,82.18a.46.46,0,0,0,0,.92.46.46,0,0,0,0-.92Z"/><path class="cls-8" d="M72.42,82.05a.58.58,0,0,0-.59.59.59.59,0,0,0,1.18,0A.58.58,0,0,0,72.42,82.05Z"/><path class="cls-8" d="M76.06,81.9a.74.74,0,1,0,.73.74A.74.74,0,0,0,76.06,81.9Z"/><path class="cls-8" d="M79.69,81.77a.87.87,0,1,0,.87.87A.86.86,0,0,0,79.69,81.77Z"/><path class="cls-8" d="M72.42,85.9a.38.38,0,1,0,.38.38A.38.38,0,0,0,72.42,85.9Z"/><path class="cls-8" d="M76.06,85.8a.48.48,0,1,0,.47.48A.47.47,0,0,0,76.06,85.8Z"/><path class="cls-8" d="M79.69,85.7a.58.58,0,0,0,0,1.15.58.58,0,0,0,0-1.15Z"/></g><rect class="cls-8" x="63.72" y="31.39" width="23.38" height="91.19"/></g><polygon class="cls-11" points="32.19 5.01 12.88 15.41 12.92 58.27 14.5 58.79 14.49 59.84 7.62 61.67 7.58 98.32 8.47 98.55 8.36 103.01 6.59 104.03 6.59 118.08 45.57 138.45 74.14 123.67 74.14 109.74 73.07 109.03 73.07 107.8 73.48 107.51 73.48 71.08 68.42 68.15 68.42 20.49 43.18 7.27 39.77 9.11 32.19 5.01"/><line class="cls-12" x1="56.01" y1="26.36" x2="56.05" y2="74.75"/><polygon class="cls-13" points="56 26.78 31.89 14.23 31.89 13.63 38.1 10.38 38.45 11.05 32.93 13.93 56 25.93 65.67 20.93 66.02 21.6 56 26.78"/><polyline class="cls-12" points="70.58 72.56 57.23 79.46 41.86 71.48 11.09 63.07"/><polyline class="cls-12" points="70.58 108.4 57.23 115.31 41.86 107.32"/><polyline class="cls-12" points="70.58 111.79 45.7 124.53 9.57 106.01"/><polyline class="cls-12" points="15.46 16.7 38.66 24.18 38.66 65.81 17.16 58.89"/><polyline class="cls-12" points="41.86 71.48 41.86 107.32 10.8 98.48"/><line class="cls-12" x1="55.88" y1="33.03" x2="38.66" y2="24.18"/><line class="cls-12" x1="32.26" y1="13.93" x2="32.26" y2="19.51"/><polyline class="cls-12" points="65.84 69.53 56.05 74.75 38.66 65.81"/><line class="cls-12" x1="57.23" y1="79.46" x2="57.23" y2="115.31"/></g></svg>