<svg xmlns="http://www.w3.org/2000/svg" xmlns:xlink="http://www.w3.org/1999/xlink" viewBox="0 0 139.98 178.03"><defs><style>.cls-1,.cls-6{fill:none;}.cls-1,.cls-5{stroke:#000;stroke-width:3px;}.cls-1,.cls-5,.cls-6{stroke-miterlimit:10;}.cls-2{opacity:0.5;}.cls-3{opacity:0.07;}.cls-4{clip-path:url(#clip-path);}.cls-5{fill:#dc4230;}.cls-6{stroke:#fff;}</style><clipPath id="clip-path"><polygon class="cls-1" points="21.95 133.89 21.95 51.49 75.05 22.56 96.22 33.33 96.22 47.19 105.68 52.73 105.68 135.43 88.44 146.51 63.81 134.81 43.19 145.28 21.95 133.89"/></clipPath></defs><g id="Buildings_AYPP"><g class="cls-4"><rect class="cls-5" x="4.63" y="7" width="129.94" height="175.03"/></g><polygon class="cls-1" points="21.95 133.89 21.95 51.49 75.05 22.56 96.22 33.33 96.22 47.19 105.68 52.73 105.68 135.43 88.44 146.51 63.81 134.81 43.19 145.28 21.95 133.89"/><polyline class="cls-6" points="102.45 54.92 88.13 62.96 63.81 50.95 41.65 61.26 25.1 53.38"/><polyline class="cls-6" points="92.74 35.51 81.98 41.1 91.31 45.83"/><line class="cls-6" x1="41.89" y1="140.04" x2="41.89" y2="61.26"/><line class="cls-6" x1="88.13" y1="62.96" x2="88.13" y2="143.43"/><line class="cls-6" x1="63.81" y1="50.95" x2="63.81" y2="131.73"/></g></svg>