<svg xmlns="http://www.w3.org/2000/svg" xmlns:xlink="http://www.w3.org/1999/xlink" viewBox="0 0 134.13 178.03"><defs><style>.cls-1,.cls-6{fill:none;}.cls-1,.cls-5{stroke:#000;stroke-width:3px;}.cls-1,.cls-5,.cls-6{stroke-miterlimit:10;}.cls-2{opacity:0.5;}.cls-3{opacity:0.07;}.cls-4{clip-path:url(#clip-path);}.cls-5{fill:#dc4230;}.cls-6{stroke:#fff;}</style><clipPath id="clip-path"><polygon class="cls-1" points="19.13 76.42 75.5 46.86 118.9 70.26 118.9 139.42 98.89 150.34 73.03 133.99 39.81 152.39 19.13 140.98 19.13 76.42"/></clipPath></defs><g id="Buildings_AYPP"><g class="cls-4"><rect class="cls-5" x="-0.29" y="7" width="129.94" height="175.03"/></g><polygon class="cls-1" points="19.13 76.42 75.5 46.86 118.9 70.26 118.9 139.42 98.89 150.34 73.03 133.99 39.81 152.39 19.13 140.98 19.13 76.42"/><polyline class="cls-6" points="22.79 78.27 40.4 87.19 75.8 67.18 98.89 81.34 115.51 72.14"/><line class="cls-6" x1="39.81" y1="147.82" x2="40.4" y2="87.19"/><line class="cls-6" x1="75.8" y1="67.18" x2="75.8" y2="130.29"/><line class="cls-6" x1="98.89" y1="81.34" x2="98.89" y2="145.84"/></g></svg>