<?xml version="1.0" encoding="utf-8"?>
<!-- Generator: Adobe Illustrator 25.4.1, SVG Export Plug-In . SVG Version: 6.00 Build 0)  -->
<svg version="1.1" id="Layer_1" xmlns="http://www.w3.org/2000/svg" xmlns:xlink="http://www.w3.org/1999/xlink" x="0px" y="0px"
	 width="240.8px" height="124.1px" viewBox="0 0 240.8 124.1" style="enable-background:new 0 0 240.8 124.1;" xml:space="preserve"
	>
<style type="text/css">
	.st0{fill:none;stroke:#000000;stroke-width:3;stroke-miterlimit:10;}
</style>
<path class="st0" d="M229.6,51.9c-0.1-0.8-0.9-1.5-3.2-4.4c-2.1-2.7-9-7-18.1-11.9v-5.1l-28.9-14.6l-11.6,5.9
	c0,0-38.3-20.9-44.6-21.8C91.5-4.2,57.6,33.3,57.6,33.3c-1.3,1.9-2.5,3.8-3.5,5.9C29.6,53.7,5.4,68.4,3,71.6
	c-4.9,6.6-4.6,1.5,7.4,25.7c8.8,17.6,18.5,19.2,50,19.2v7.6h65.9l34.2-17.8l54.4-14.1l25.2-13.4l0.7-19.9L229.6,51.9z M38.1,98.1
	c-3.7,3.8-9.4,0.4-15.6-5.3S12.2,75,17.4,74.2c6.2-1,13.3,4.1,19.5,9.9S41.8,94.3,38.1,98.1z"/>
</svg>
