<svg xmlns="http://www.w3.org/2000/svg" xmlns:xlink="http://www.w3.org/1999/xlink" viewBox="0 0 154.47 177.86"><defs><style>.cls-1{fill:none;stroke:#000;stroke-miterlimit:10;stroke-width:3px;}.cls-2{opacity:0.5;}.cls-3{opacity:0.07;}.cls-4{clip-path:url(#clip-path);}</style><clipPath id="clip-path"><polygon class="cls-1" points="31.25 107.74 31.25 45.25 38.72 40.75 38.72 36.38 50.23 30.37 69.95 47.81 68.6 52.77 76.8 59.83 76.95 102.21 81.82 104.44 87.22 101.49 87.22 99.79 101.98 91.45 119.68 100.64 119.99 120.2 79.69 142.15 58.53 131.61 31.25 107.74"/></clipPath></defs><g id="Buildings_AYPP"><g class="cls-4"><rect class="cls-1" width="154.47" height="177.86"/></g><polygon class="cls-1" points="31.25 107.74 31.25 45.25 38.72 40.75 38.72 36.38 50.23 30.37 69.95 47.81 68.6 52.77 76.8 59.83 76.95 102.21 81.82 104.44 87.22 101.49 87.22 99.79 101.98 91.45 119.68 100.64 119.99 120.2 79.69 142.15 58.53 131.61 31.25 107.74"/></g></svg>