<?xml version="1.0" encoding="utf-8"?>
<!-- Generator: Adobe Illustrator 25.4.1, SVG Export Plug-In . SVG Version: 6.00 Build 0)  -->
<svg version="1.1" id="Layer_1" xmlns="http://www.w3.org/2000/svg" xmlns:xlink="http://www.w3.org/1999/xlink" x="0px" y="0px"
	 width="71.4px" height="129.4px" viewBox="0 0 71.4 129.4" style="enable-background:new 0 0 71.4 129.4;" xml:space="preserve">
<style type="text/css">
	.st0{fill:#5CB866;}
</style>
<g>
	<path class="st0" d="M1.2,52.9c0.5,0,1-0.4,1-1c0-0.5-0.4-1-1-1c-0.5,0-1,0.4-1,1C0.2,52.5,0.7,52.9,1.2,52.9z"/>
	<path class="st0" d="M4.8,53.3c0.8,0,1.4-0.6,1.4-1.4c0-0.8-0.6-1.4-1.4-1.4c-0.8,0-1.4,0.6-1.4,1.4C3.5,52.7,4.1,53.3,4.8,53.3z"
		/>
	<path class="st0" d="M63,53.6c0.9,0,1.6-0.7,1.6-1.6c0-0.9-0.7-1.6-1.6-1.6c-0.9,0-1.6,0.7-1.6,1.6C61.4,52.9,62.2,53.6,63,53.6z"
		/>
	<path class="st0" d="M66.7,53.2c0.7,0,1.2-0.6,1.2-1.2c0-0.7-0.6-1.2-1.2-1.2c-0.7,0-1.2,0.6-1.2,1.2C65.4,52.7,66,53.2,66.7,53.2z
		"/>
	<path class="st0" d="M70.3,52.9c0.5,0,0.9-0.4,0.9-0.9c0-0.5-0.4-0.9-0.9-0.9c-0.5,0-0.9,0.4-0.9,0.9
		C69.4,52.5,69.8,52.9,70.3,52.9z"/>
	<path class="st0" d="M1.2,56.7c0.6,0,1.1-0.5,1.1-1.1c0-0.6-0.5-1.1-1.1-1.1c-0.6,0-1.1,0.5-1.1,1.1C0.1,56.2,0.6,56.7,1.2,56.7z"
		/>
	<path class="st0" d="M4.8,57.1c0.8,0,1.5-0.7,1.5-1.5s-0.7-1.5-1.5-1.5c-0.8,0-1.5,0.7-1.5,1.5S4,57.1,4.8,57.1z"/>
	<path class="st0" d="M66.7,57c0.8,0,1.4-0.6,1.4-1.4c0-0.8-0.6-1.4-1.4-1.4c-0.8,0-1.4,0.6-1.4,1.4C65.3,56.4,65.9,57,66.7,57z"/>
	<path class="st0" d="M70.3,56.6c0.5,0,1-0.4,1-1c0-0.5-0.4-1-1-1c-0.5,0-1,0.4-1,1C69.3,56.2,69.8,56.6,70.3,56.6z"/>
	<path class="st0" d="M1.2,60.4c0.6,0,1.1-0.5,1.1-1.1c0-0.6-0.5-1.1-1.1-1.1c-0.6,0-1.1,0.5-1.1,1.1C0.1,59.9,0.6,60.4,1.2,60.4z"
		/>
	<circle class="st0" cx="4.8" cy="59.2" r="1.6"/>
	<path class="st0" d="M66.7,60.7c0.8,0,1.4-0.6,1.4-1.4c0-0.8-0.6-1.4-1.4-1.4c-0.8,0-1.4,0.6-1.4,1.4C65.2,60,65.9,60.7,66.7,60.7z
		"/>
	<path class="st0" d="M70.3,60.3c0.6,0,1-0.5,1-1c0-0.6-0.5-1-1-1c-0.6,0-1,0.5-1,1C69.3,59.8,69.7,60.3,70.3,60.3z"/>
	<path class="st0" d="M1.2,61.7c-0.6,0-1.2,0.5-1.2,1.2c0,0.6,0.5,1.2,1.2,1.2c0.6,0,1.2-0.5,1.2-1.2C2.4,62.2,1.9,61.7,1.2,61.7z"
		/>
	<path class="st0" d="M66.7,61.4c-0.8,0-1.5,0.7-1.5,1.5c0,0.8,0.7,1.5,1.5,1.5c0.8,0,1.5-0.7,1.5-1.5
		C68.1,62.1,67.5,61.4,66.7,61.4z"/>
	<path class="st0" d="M70.3,61.8c-0.6,0-1.1,0.5-1.1,1.1s0.5,1.1,1.1,1.1c0.6,0,1.1-0.5,1.1-1.1S70.9,61.8,70.3,61.8z"/>
	<path class="st0" d="M1.2,65.4c-0.6,0-1.2,0.5-1.2,1.2c0,0.6,0.5,1.2,1.2,1.2c0.6,0,1.2-0.5,1.2-1.2C2.4,65.9,1.8,65.4,1.2,65.4z"
		/>
	<path class="st0" d="M66.7,65c-0.8,0-1.5,0.7-1.5,1.5c0,0.8,0.7,1.5,1.5,1.5c0.8,0,1.5-0.7,1.5-1.5C68.1,65.7,67.5,65,66.7,65z"/>
	<path class="st0" d="M70.3,65.5c-0.6,0-1.1,0.5-1.1,1.1c0,0.6,0.5,1.1,1.1,1.1c0.6,0,1.1-0.5,1.1-1.1
		C71.4,65.9,70.9,65.5,70.3,65.5z"/>
	<path class="st0" d="M1.2,69c-0.6,0-1.1,0.5-1.1,1.1c0,0.6,0.5,1.1,1.1,1.1c0.6,0,1.1-0.5,1.1-1.1C2.3,69.5,1.8,69,1.2,69z"/>
	<path class="st0" d="M4.8,68.6c-0.8,0-1.5,0.7-1.5,1.5c0,0.8,0.7,1.5,1.5,1.5c0.8,0,1.5-0.7,1.5-1.5C6.4,69.3,5.7,68.6,4.8,68.6z"
		/>
	<path class="st0" d="M66.7,68.8c-0.8,0-1.4,0.6-1.4,1.4c0,0.8,0.6,1.4,1.4,1.4c0.8,0,1.4-0.6,1.4-1.4
		C68.1,69.4,67.4,68.8,66.7,68.8z"/>
	<path class="st0" d="M70.3,69.1c-0.6,0-1,0.5-1,1c0,0.6,0.5,1,1,1c0.6,0,1-0.5,1-1C71.3,69.6,70.9,69.1,70.3,69.1z"/>
	<path class="st0" d="M1.2,72.8c-0.6,0-1,0.5-1,1c0,0.6,0.5,1,1,1c0.6,0,1-0.5,1-1C2.2,73.2,1.8,72.8,1.2,72.8z"/>
	<path class="st0" d="M4.8,72.3c-0.8,0-1.5,0.7-1.5,1.5c0,0.8,0.7,1.5,1.5,1.5c0.8,0,1.5-0.7,1.5-1.5C6.3,73,5.7,72.3,4.8,72.3z"/>
	<path class="st0" d="M66.7,72.5c-0.7,0-1.3,0.6-1.3,1.3c0,0.7,0.6,1.3,1.3,1.3c0.7,0,1.3-0.6,1.3-1.3C68,73.1,67.4,72.5,66.7,72.5z
		"/>
	<path class="st0" d="M70.3,72.8c-0.5,0-0.9,0.4-0.9,0.9c0,0.5,0.4,0.9,0.9,0.9c0.5,0,0.9-0.4,0.9-0.9
		C71.3,73.3,70.8,72.8,70.3,72.8z"/>
	<path class="st0" d="M1.2,76.5c-0.5,0-0.9,0.4-0.9,0.9s0.4,0.9,0.9,0.9c0.5,0,0.9-0.4,0.9-0.9S1.7,76.5,1.2,76.5z"/>
	<path class="st0" d="M4.8,76.1c-0.7,0-1.3,0.6-1.3,1.3s0.6,1.3,1.3,1.3c0.7,0,1.3-0.6,1.3-1.3S5.6,76.1,4.8,76.1z"/>
	<path class="st0" d="M63,75.9c-0.9,0-1.6,0.7-1.6,1.6S62.2,79,63,79c0.9,0,1.6-0.7,1.6-1.6S63.9,75.9,63,75.9z"/>
	<path class="st0" d="M66.7,78.6c0.6,0,1.2-0.5,1.2-1.2c0-0.6-0.5-1.2-1.2-1.2c-0.6,0-1.2,0.5-1.2,1.2C65.5,78.1,66,78.6,66.7,78.6z
		"/>
	<path class="st0" d="M70.3,78.3c0.5,0,0.8-0.4,0.8-0.8c0-0.5-0.4-0.8-0.8-0.8c-0.5,0-0.8,0.4-0.8,0.8
		C69.5,77.9,69.8,78.3,70.3,78.3z"/>
	<path class="st0" d="M1.2,80c-0.5,0-1,0.4-1,1c0,0.5,0.4,1,1,1c0.5,0,1-0.4,1-1C2.1,80.5,1.7,80,1.2,80z"/>
	<path class="st0" d="M4.8,79.6c-0.8,0-1.4,0.6-1.4,1.4c0,0.8,0.6,1.4,1.4,1.4c0.8,0,1.4-0.6,1.4-1.4C6.2,80.2,5.6,79.6,4.8,79.6z"
		/>
	<path class="st0" d="M63,79.4c-0.9,0-1.6,0.7-1.6,1.6c0,0.9,0.7,1.6,1.6,1.6c0.9,0,1.6-0.7,1.6-1.6C64.6,80.1,63.9,79.4,63,79.4z"
		/>
	<path class="st0" d="M66.6,82.2c0.7,0,1.2-0.6,1.2-1.2c0-0.7-0.6-1.2-1.2-1.2c-0.7,0-1.2,0.6-1.2,1.2C65.4,81.7,66,82.2,66.6,82.2z
		"/>
	<path class="st0" d="M70.3,81.9c0.5,0,0.9-0.4,0.9-0.9c0-0.5-0.4-0.9-0.9-0.9c-0.5,0-0.9,0.4-0.9,0.9
		C69.4,81.5,69.8,81.9,70.3,81.9z"/>
	<path class="st0" d="M1.2,85.7c0.6,0,1.1-0.5,1.1-1.1c0-0.6-0.5-1.1-1.1-1.1c-0.6,0-1.1,0.5-1.1,1.1C0.1,85.2,0.6,85.7,1.2,85.7z"
		/>
	<path class="st0" d="M4.8,86.1c0.8,0,1.5-0.7,1.5-1.5s-0.7-1.5-1.5-1.5c-0.8,0-1.5,0.7-1.5,1.5S4,86.1,4.8,86.1z"/>
	<path class="st0" d="M66.6,86c0.8,0,1.4-0.6,1.4-1.4c0-0.8-0.6-1.4-1.4-1.4c-0.8,0-1.4,0.6-1.4,1.4C65.3,85.4,65.9,86,66.6,86z"/>
	<path class="st0" d="M70.3,85.6c0.5,0,1-0.4,1-1c0-0.5-0.4-1-1-1c-0.5,0-1,0.4-1,1C69.3,85.2,69.7,85.6,70.3,85.6z"/>
	<path class="st0" d="M1.2,89.4c0.6,0,1.1-0.5,1.1-1.1c0-0.6-0.5-1.1-1.1-1.1c-0.6,0-1.1,0.5-1.1,1.1C0,88.9,0.5,89.4,1.2,89.4z"/>
	<circle class="st0" cx="4.8" cy="88.3" r="1.6"/>
	<path class="st0" d="M66.6,89.7c0.8,0,1.4-0.6,1.4-1.4c0-0.8-0.6-1.4-1.4-1.4c-0.8,0-1.4,0.6-1.4,1.4
		C65.2,89.1,65.8,89.7,66.6,89.7z"/>
	<path class="st0" d="M70.3,89.3c0.6,0,1-0.5,1-1s-0.5-1-1-1c-0.6,0-1,0.5-1,1S69.7,89.3,70.3,89.3z"/>
	<path class="st0" d="M1.2,90.7c-0.6,0-1.2,0.5-1.2,1.2c0,0.6,0.5,1.2,1.2,1.2c0.6,0,1.2-0.5,1.2-1.2C2.3,91.3,1.8,90.7,1.2,90.7z"
		/>
	<path class="st0" d="M66.6,90.4c-0.8,0-1.5,0.7-1.5,1.5c0,0.8,0.7,1.5,1.5,1.5c0.8,0,1.5-0.7,1.5-1.5
		C68.1,91.1,67.5,90.4,66.6,90.4z"/>
	<path class="st0" d="M70.3,90.8c-0.6,0-1.1,0.5-1.1,1.1c0,0.6,0.5,1.1,1.1,1.1c0.6,0,1.1-0.5,1.1-1.1
		C71.4,91.3,70.9,90.8,70.3,90.8z"/>
	<path class="st0" d="M1.2,94.4c-0.6,0-1.2,0.5-1.2,1.2c0,0.6,0.5,1.2,1.2,1.2c0.6,0,1.2-0.5,1.2-1.2C2.3,94.9,1.8,94.4,1.2,94.4z"
		/>
	<path class="st0" d="M66.6,94.1c-0.8,0-1.5,0.7-1.5,1.5c0,0.8,0.7,1.5,1.5,1.5c0.8,0,1.5-0.7,1.5-1.5
		C68.1,94.7,67.5,94.1,66.6,94.1z"/>
	<path class="st0" d="M70.3,94.5c-0.6,0-1.1,0.5-1.1,1.1c0,0.6,0.5,1.1,1.1,1.1c0.6,0,1.1-0.5,1.1-1.1C71.3,95,70.9,94.5,70.3,94.5z
		"/>
	<path class="st0" d="M1.2,98.1c-0.6,0-1.1,0.5-1.1,1.1s0.5,1.1,1.1,1.1c0.6,0,1.1-0.5,1.1-1.1S1.8,98.1,1.2,98.1z"/>
	<path class="st0" d="M4.8,97.6c-0.8,0-1.5,0.7-1.5,1.5s0.7,1.5,1.5,1.5c0.8,0,1.5-0.7,1.5-1.5S5.7,97.6,4.8,97.6z"/>
	<path class="st0" d="M66.6,97.8c-0.8,0-1.4,0.6-1.4,1.4s0.6,1.4,1.4,1.4c0.8,0,1.4-0.6,1.4-1.4S67.4,97.8,66.6,97.8z"/>
	<path class="st0" d="M70.3,98.2c-0.6,0-1,0.5-1,1c0,0.6,0.5,1,1,1c0.6,0,1-0.5,1-1C71.3,98.6,70.8,98.2,70.3,98.2z"/>
	<path class="st0" d="M1.2,101.8c-0.6,0-1,0.5-1,1c0,0.6,0.5,1,1,1c0.6,0,1-0.5,1-1C2.2,102.2,1.7,101.8,1.2,101.8z"/>
	<path class="st0" d="M4.8,101.4c-0.8,0-1.5,0.7-1.5,1.5c0,0.8,0.7,1.5,1.5,1.5c0.8,0,1.5-0.7,1.5-1.5C6.3,102,5.6,101.4,4.8,101.4z
		"/>
	<path class="st0" d="M66.6,101.5c-0.7,0-1.3,0.6-1.3,1.3c0,0.7,0.6,1.3,1.3,1.3c0.7,0,1.3-0.6,1.3-1.3
		C67.9,102.1,67.4,101.5,66.6,101.5z"/>
	<path class="st0" d="M70.3,101.9c-0.5,0-0.9,0.4-0.9,0.9c0,0.5,0.4,0.9,0.9,0.9c0.5,0,0.9-0.4,0.9-0.9
		C71.2,102.3,70.8,101.9,70.3,101.9z"/>
	<path class="st0" d="M1.2,105.5c-0.5,0-0.9,0.4-0.9,0.9s0.4,0.9,0.9,0.9c0.5,0,0.9-0.4,0.9-0.9S1.7,105.5,1.2,105.5z"/>
	<path class="st0" d="M4.8,105.1c-0.7,0-1.3,0.6-1.3,1.3s0.6,1.3,1.3,1.3c0.7,0,1.3-0.6,1.3-1.3S5.6,105.1,4.8,105.1z"/>
	<path class="st0" d="M63,104.9c-0.9,0-1.6,0.7-1.6,1.6s0.7,1.6,1.6,1.6c0.9,0,1.6-0.7,1.6-1.6S63.9,104.9,63,104.9z"/>
	<path class="st0" d="M66.6,105.3c-0.6,0-1.2,0.5-1.2,1.2c0,0.6,0.5,1.2,1.2,1.2c0.6,0,1.2-0.5,1.2-1.2
		C67.8,105.8,67.3,105.3,66.6,105.3z"/>
	<path class="st0" d="M70.3,105.6c-0.5,0-0.8,0.4-0.8,0.8s0.4,0.8,0.8,0.8c0.5,0,0.8-0.4,0.8-0.8S70.7,105.6,70.3,105.6z"/>
	<path class="st0" d="M1.2,109.3c-0.4,0-0.8,0.3-0.8,0.8c0,0.4,0.3,0.8,0.8,0.8c0.4,0,0.8-0.3,0.8-0.8
		C1.9,109.7,1.6,109.3,1.2,109.3z"/>
	<path class="st0" d="M4.8,109c-0.6,0-1.1,0.5-1.1,1.1s0.5,1.1,1.1,1.1c0.6,0,1.1-0.5,1.1-1.1S5.4,109,4.8,109z"/>
	<path class="st0" d="M8.4,108.5c-0.9,0-1.6,0.7-1.6,1.6c0,0.9,0.7,1.6,1.6,1.6s1.6-0.7,1.6-1.6C10.1,109.2,9.4,108.5,8.4,108.5z"/>
	<path class="st0" d="M63,108.7c-0.8,0-1.4,0.6-1.4,1.4c0,0.8,0.6,1.4,1.4,1.4c0.8,0,1.4-0.6,1.4-1.4
		C64.4,109.3,63.8,108.7,63,108.7z"/>
	<path class="st0" d="M66.6,109.1c-0.6,0-1,0.5-1,1c0,0.6,0.5,1,1,1c0.6,0,1-0.5,1-1C67.7,109.5,67.2,109.1,66.6,109.1z"/>
	<path class="st0" d="M70.3,109.4c-0.4,0-0.7,0.3-0.7,0.7c0,0.4,0.3,0.7,0.7,0.7c0.4,0,0.7-0.3,0.7-0.7
		C71,109.7,70.7,109.4,70.3,109.4z"/>
	<path class="st0" d="M1.2,113.1c-0.3,0-0.6,0.3-0.6,0.6c0,0.3,0.3,0.6,0.6,0.6c0.3,0,0.6-0.3,0.6-0.6
		C1.8,113.4,1.5,113.1,1.2,113.1z"/>
	<path class="st0" d="M4.8,112.8c-0.5,0-1,0.4-1,1c0,0.5,0.4,1,1,1c0.5,0,1-0.4,1-1C5.8,113.2,5.3,112.8,4.8,112.8z"/>
	<path class="st0" d="M8.4,112.3c-0.8,0-1.4,0.6-1.4,1.4c0,0.8,0.6,1.4,1.4,1.4s1.4-0.6,1.4-1.4C9.9,112.9,9.2,112.3,8.4,112.3z"/>
	<path class="st0" d="M59.4,112.3c-0.8,0-1.5,0.7-1.5,1.5c0,0.8,0.7,1.5,1.5,1.5c0.8,0,1.5-0.7,1.5-1.5
		C60.8,112.9,60.2,112.3,59.4,112.3z"/>
	<path class="st0" d="M63,112.6c-0.7,0-1.2,0.5-1.2,1.2c0,0.7,0.5,1.2,1.2,1.2c0.7,0,1.2-0.5,1.2-1.2
		C64.2,113.1,63.7,112.6,63,112.6z"/>
	<path class="st0" d="M66.6,112.9c-0.4,0-0.8,0.4-0.8,0.8c0,0.4,0.4,0.8,0.8,0.8s0.8-0.4,0.8-0.8C67.4,113.3,67.1,112.9,66.6,112.9z
		"/>
	<path class="st0" d="M70.3,113.2c-0.3,0-0.6,0.2-0.6,0.6c0,0.3,0.2,0.6,0.6,0.6c0.3,0,0.5-0.2,0.5-0.6
		C70.8,113.4,70.6,113.2,70.3,113.2z"/>
	<path class="st0" d="M1.2,117c-0.2,0-0.4,0.2-0.4,0.4c0,0.2,0.2,0.4,0.4,0.4c0.2,0,0.4-0.2,0.4-0.4C1.5,117.2,1.4,117,1.2,117z"/>
	<path class="st0" d="M4.8,116.8c-0.3,0-0.6,0.3-0.6,0.6c0,0.3,0.3,0.6,0.6,0.6c0.3,0,0.6-0.3,0.6-0.6C5.4,117,5.2,116.8,4.8,116.8z
		"/>
	<path class="st0" d="M8.4,116.4c-0.6,0-1,0.5-1,1c0,0.6,0.5,1,1,1c0.6,0,1-0.5,1-1C9.5,116.8,9,116.4,8.4,116.4z"/>
	<path class="st0" d="M12.1,116.1c-0.7,0-1.3,0.6-1.3,1.3c0,0.7,0.6,1.3,1.3,1.3c0.7,0,1.3-0.6,1.3-1.3
		C13.4,116.7,12.8,116.1,12.1,116.1z"/>
	<path class="st0" d="M15.7,115.8c-0.8,0-1.5,0.7-1.5,1.5c0,0.8,0.7,1.5,1.5,1.5s1.5-0.7,1.5-1.5C17.3,116.5,16.6,115.8,15.7,115.8z
		"/>
	<path class="st0" d="M55.7,115.9c-0.8,0-1.5,0.7-1.5,1.5c0,0.8,0.7,1.5,1.5,1.5c0.8,0,1.5-0.7,1.5-1.5
		C57.2,116.6,56.5,115.9,55.7,115.9z"/>
	<path class="st0" d="M59.4,116.3c-0.6,0-1.1,0.5-1.1,1.1c0,0.6,0.5,1.1,1.1,1.1c0.6,0,1.1-0.5,1.1-1.1
		C60.4,116.8,59.9,116.3,59.4,116.3z"/>
	<path class="st0" d="M63,116.6c-0.4,0-0.8,0.4-0.8,0.8c0,0.4,0.4,0.8,0.8,0.8c0.4,0,0.8-0.4,0.8-0.8
		C63.8,116.9,63.4,116.6,63,116.6z"/>
	<path class="st0" d="M66.6,116.8c-0.3,0-0.6,0.2-0.6,0.6c0,0.3,0.2,0.6,0.6,0.6c0.3,0,0.6-0.2,0.6-0.6
		C67.2,117.1,66.9,116.8,66.6,116.8z"/>
	<path class="st0" d="M70.3,117c-0.2,0-0.4,0.2-0.4,0.4c0,0.2,0.2,0.4,0.4,0.4c0.2,0,0.4-0.2,0.4-0.4C70.6,117.2,70.5,117,70.3,117z
		"/>
	<path class="st0" d="M4.8,120.5c-0.3,0-0.5,0.2-0.5,0.5c0,0.3,0.2,0.5,0.5,0.5c0.3,0,0.5-0.2,0.5-0.5
		C5.3,120.7,5.1,120.5,4.8,120.5z"/>
	<path class="st0" d="M8.4,120.2c-0.4,0-0.8,0.3-0.8,0.8c0,0.4,0.3,0.8,0.8,0.8c0.4,0,0.8-0.3,0.8-0.8
		C9.2,120.6,8.9,120.2,8.4,120.2z"/>
	<path class="st0" d="M12.1,120c-0.6,0-1,0.5-1,1s0.5,1,1,1c0.6,0,1-0.5,1-1S12.6,120,12.1,120z"/>
	<path class="st0" d="M15.7,119.8c-0.7,0-1.2,0.6-1.2,1.2c0,0.7,0.6,1.2,1.2,1.2s1.2-0.6,1.2-1.2C17,120.3,16.4,119.8,15.7,119.8z"
		/>
	<path class="st0" d="M19.4,119.6c-0.8,0-1.4,0.6-1.4,1.4c0,0.8,0.6,1.4,1.4,1.4c0.8,0,1.4-0.6,1.4-1.4
		C20.8,120.2,20.1,119.6,19.4,119.6z"/>
	<path class="st0" d="M23,119.4c-0.9,0-1.6,0.7-1.6,1.6s0.7,1.6,1.6,1.6c0.9,0,1.6-0.7,1.6-1.6S23.9,119.4,23,119.4z"/>
	<path class="st0" d="M48.5,119.5c-0.8,0-1.5,0.7-1.5,1.5c0,0.8,0.7,1.5,1.5,1.5c0.8,0,1.5-0.7,1.5-1.5
		C50,120.2,49.3,119.5,48.5,119.5z"/>
	<path class="st0" d="M52.1,119.6c-0.8,0-1.4,0.6-1.4,1.4s0.6,1.4,1.4,1.4s1.4-0.6,1.4-1.4S52.9,119.6,52.1,119.6z"/>
	<path class="st0" d="M55.7,119.8c-0.6,0-1.2,0.5-1.2,1.2c0,0.6,0.5,1.2,1.2,1.2c0.6,0,1.2-0.5,1.2-1.2
		C56.9,120.4,56.4,119.8,55.7,119.8z"/>
	<circle class="st0" cx="59.4" cy="121" r="0.8"/>
	<path class="st0" d="M63,120.4c-0.3,0-0.6,0.3-0.6,0.6c0,0.3,0.3,0.6,0.6,0.6c0.3,0,0.6-0.3,0.6-0.6
		C63.6,120.7,63.3,120.4,63,120.4z"/>
	<path class="st0" d="M66.6,120.6c-0.2,0-0.4,0.2-0.4,0.4c0,0.2,0.2,0.4,0.4,0.4c0.2,0,0.4-0.2,0.4-0.4
		C67,120.8,66.9,120.6,66.6,120.6z"/>
	<path class="st0" d="M8.4,124.1c-0.3,0-0.6,0.2-0.6,0.6c0,0.3,0.2,0.6,0.6,0.6c0.3,0,0.6-0.2,0.6-0.6C9,124.3,8.7,124.1,8.4,124.1z
		"/>
	<path class="st0" d="M12.1,123.9c-0.4,0-0.7,0.3-0.7,0.7c0,0.4,0.3,0.7,0.7,0.7c0.4,0,0.7-0.3,0.7-0.7
		C12.8,124.2,12.5,123.9,12.1,123.9z"/>
	<path class="st0" d="M15.7,123.7c-0.5,0-0.9,0.4-0.9,0.9c0,0.5,0.4,0.9,0.9,0.9s0.9-0.4,0.9-0.9C16.6,124.1,16.2,123.7,15.7,123.7z
		"/>
	<path class="st0" d="M19.4,123.6c-0.6,0-1.1,0.5-1.1,1.1c0,0.6,0.5,1.1,1.1,1.1c0.6,0,1.1-0.5,1.1-1.1
		C20.4,124,20,123.6,19.4,123.6z"/>
	<path class="st0" d="M23,123.4c-0.7,0-1.3,0.6-1.3,1.3c0,0.7,0.6,1.3,1.3,1.3s1.3-0.6,1.3-1.3C24.3,123.9,23.7,123.4,23,123.4z"/>
	<path class="st0" d="M26.6,123.3c-0.8,0-1.4,0.6-1.4,1.4c0,0.8,0.6,1.4,1.4,1.4c0.8,0,1.4-0.6,1.4-1.4
		C28,123.9,27.4,123.3,26.6,123.3z"/>
	<path class="st0" d="M30.3,123.2c-0.8,0-1.4,0.6-1.4,1.4c0,0.8,0.6,1.4,1.4,1.4s1.4-0.6,1.4-1.4C31.7,123.8,31.1,123.2,30.3,123.2z
		"/>
	<path class="st0" d="M33.9,123.2c-0.8,0-1.5,0.7-1.5,1.5s0.7,1.5,1.5,1.5c0.8,0,1.5-0.7,1.5-1.5S34.7,123.2,33.9,123.2z"/>
	<path class="st0" d="M37.5,123.2c-0.8,0-1.5,0.7-1.5,1.5c0,0.8,0.7,1.5,1.5,1.5c0.8,0,1.5-0.7,1.5-1.5
		C39,123.8,38.4,123.2,37.5,123.2z"/>
	<path class="st0" d="M41.2,123.2c-0.8,0-1.4,0.6-1.4,1.4c0,0.8,0.6,1.4,1.4,1.4c0.8,0,1.4-0.6,1.4-1.4
		C42.6,123.9,42,123.2,41.2,123.2z"/>
	<path class="st0" d="M44.8,123.3c-0.7,0-1.4,0.6-1.4,1.4c0,0.7,0.6,1.4,1.4,1.4s1.4-0.6,1.4-1.4C46.2,123.9,45.6,123.3,44.8,123.3z
		"/>
	<path class="st0" d="M48.5,123.5c-0.7,0-1.2,0.5-1.2,1.2c0,0.7,0.5,1.2,1.2,1.2c0.7,0,1.2-0.5,1.2-1.2
		C49.6,124,49.1,123.5,48.5,123.5z"/>
	<path class="st0" d="M52.1,123.6c-0.6,0-1,0.5-1,1c0,0.6,0.5,1,1,1s1-0.5,1-1C53.1,124.1,52.7,123.6,52.1,123.6z"/>
	<path class="st0" d="M55.7,123.8c-0.5,0-0.8,0.4-0.8,0.8c0,0.5,0.4,0.8,0.8,0.8c0.5,0,0.8-0.4,0.8-0.8
		C56.6,124.2,56.2,123.8,55.7,123.8z"/>
	<path class="st0" d="M59.4,124.1c-0.3,0-0.6,0.2-0.6,0.6c0,0.3,0.2,0.6,0.6,0.6c0.3,0,0.6-0.2,0.6-0.6
		C59.9,124.3,59.7,124.1,59.4,124.1z"/>
	<path class="st0" d="M63,124.2c-0.2,0-0.4,0.2-0.4,0.4c0,0.2,0.2,0.4,0.4,0.4s0.4-0.2,0.4-0.4C63.4,124.4,63.2,124.2,63,124.2z"/>
	<path class="st0" d="M12.1,127.8c-0.3,0-0.5,0.2-0.5,0.5c0,0.3,0.2,0.5,0.5,0.5c0.3,0,0.5-0.2,0.5-0.5
		C12.5,128,12.3,127.8,12.1,127.8z"/>
	<path class="st0" d="M15.7,127.7c-0.3,0-0.6,0.3-0.6,0.6c0,0.3,0.3,0.6,0.6,0.6c0.3,0,0.6-0.3,0.6-0.6
		C16.3,128,16,127.7,15.7,127.7z"/>
	<path class="st0" d="M19.4,127.5c-0.4,0-0.7,0.3-0.7,0.7s0.3,0.7,0.7,0.7c0.4,0,0.7-0.3,0.7-0.7S19.8,127.5,19.4,127.5z"/>
	<path class="st0" d="M23,127.4c-0.5,0-0.9,0.4-0.9,0.9s0.4,0.9,0.9,0.9c0.5,0,0.9-0.4,0.9-0.9S23.5,127.4,23,127.4z"/>
	<path class="st0" d="M26.6,127.3c-0.5,0-1,0.4-1,1c0,0.5,0.4,1,1,1c0.5,0,1-0.4,1-1C27.6,127.8,27.2,127.3,26.6,127.3z"/>
	<path class="st0" d="M30.3,127.2c-0.6,0-1,0.5-1,1c0,0.6,0.5,1,1,1c0.6,0,1-0.5,1-1C31.3,127.7,30.8,127.2,30.3,127.2z"/>
	<path class="st0" d="M33.9,127.2c-0.6,0-1.1,0.5-1.1,1.1c0,0.6,0.5,1.1,1.1,1.1c0.6,0,1.1-0.5,1.1-1.1
		C35,127.7,34.5,127.2,33.9,127.2z"/>
	<path class="st0" d="M37.5,127.2c-0.6,0-1,0.5-1,1s0.5,1,1,1s1-0.5,1-1S38.1,127.2,37.5,127.2z"/>
	<path class="st0" d="M41.2,127.3c-0.6,0-1,0.5-1,1s0.5,1,1,1s1-0.5,1-1S41.7,127.3,41.2,127.3z"/>
	<path class="st0" d="M44.8,127.4c-0.5,0-0.9,0.4-0.9,0.9c0,0.5,0.4,0.9,0.9,0.9c0.5,0,0.9-0.4,0.9-0.9
		C45.7,127.8,45.3,127.4,44.8,127.4z"/>
	<path class="st0" d="M48.5,127.4c-0.5,0-0.8,0.4-0.8,0.8s0.4,0.8,0.8,0.8c0.5,0,0.8-0.4,0.8-0.8S48.9,127.4,48.5,127.4z"/>
	<path class="st0" d="M52.1,127.6c-0.4,0-0.7,0.3-0.7,0.7c0,0.4,0.3,0.7,0.7,0.7s0.7-0.3,0.7-0.7C52.8,127.9,52.5,127.6,52.1,127.6z
		"/>
	<path class="st0" d="M55.7,127.8c-0.3,0-0.5,0.2-0.5,0.5c0,0.3,0.2,0.5,0.5,0.5c0.3,0,0.5-0.2,0.5-0.5
		C56.3,128,56,127.8,55.7,127.8z"/>
	<path class="st0" d="M8.5,1.5c0.2,0,0.4-0.2,0.4-0.4c0-0.2-0.2-0.4-0.4-0.4C8.3,0.8,8.1,1,8.1,1.2C8.1,1.4,8.3,1.5,8.5,1.5z"/>
	<path class="st0" d="M12.1,1.7c0.3,0,0.5-0.2,0.5-0.5c0-0.3-0.2-0.5-0.5-0.5c-0.3,0-0.5,0.2-0.5,0.5C11.6,1.4,11.8,1.7,12.1,1.7z"
		/>
	<path class="st0" d="M15.8,1.8c0.4,0,0.7-0.3,0.7-0.7c0-0.4-0.3-0.7-0.7-0.7c-0.4,0-0.7,0.3-0.7,0.7C15.1,1.5,15.4,1.8,15.8,1.8z"
		/>
	<path class="st0" d="M19.4,2c0.4,0,0.8-0.4,0.8-0.8s-0.4-0.8-0.8-0.8c-0.4,0-0.8,0.4-0.8,0.8S18.9,2,19.4,2z"/>
	<path class="st0" d="M23,2.1c0.5,0,0.9-0.4,0.9-0.9c0-0.5-0.4-0.9-0.9-0.9c-0.5,0-0.9,0.4-0.9,0.9C22.1,1.7,22.5,2.1,23,2.1z"/>
	<path class="st0" d="M26.7,2.2c0.6,0,1-0.5,1-1c0-0.6-0.5-1-1-1c-0.6,0-1,0.5-1,1C25.6,1.7,26.1,2.2,26.7,2.2z"/>
	<path class="st0" d="M30.3,2.3c0.6,0,1.1-0.5,1.1-1.1s-0.5-1.1-1.1-1.1s-1.1,0.5-1.1,1.1S29.7,2.3,30.3,2.3z"/>
	<path class="st0" d="M33.9,2.3c0.6,0,1.2-0.5,1.2-1.2c0-0.6-0.5-1.2-1.2-1.2c-0.6,0-1.2,0.5-1.2,1.2C32.8,1.8,33.3,2.3,33.9,2.3z"
		/>
	<path class="st0" d="M37.6,2.3c0.6,0,1.2-0.5,1.2-1.2c0-0.6-0.5-1.2-1.2-1.2s-1.2,0.5-1.2,1.2C36.4,1.8,36.9,2.3,37.6,2.3z"/>
	<path class="st0" d="M41.2,2.3c0.6,0,1.1-0.5,1.1-1.1c0-0.6-0.5-1.1-1.1-1.1c-0.6,0-1.1,0.5-1.1,1.1C40.1,1.8,40.6,2.3,41.2,2.3z"
		/>
	<circle class="st0" cx="44.8" cy="1.2" r="1"/>
	<path class="st0" d="M48.5,2.1c0.5,0,0.9-0.4,0.9-0.9S49,0.3,48.5,0.3s-0.9,0.4-0.9,0.9S48,2.1,48.5,2.1z"/>
	<path class="st0" d="M52.1,2c0.4,0,0.8-0.4,0.8-0.8s-0.4-0.8-0.8-0.8s-0.8,0.4-0.8,0.8S51.7,2,52.1,2z"/>
	<path class="st0" d="M55.8,1.8c0.4,0,0.7-0.3,0.7-0.7c0-0.4-0.3-0.7-0.7-0.7c-0.4,0-0.7,0.3-0.7,0.7C55.1,1.5,55.4,1.8,55.8,1.8z"
		/>
	<path class="st0" d="M59.4,1.6c0.2,0,0.4-0.2,0.4-0.4c0-0.2-0.2-0.4-0.4-0.4S59,0.9,59,1.2C59,1.4,59.2,1.6,59.4,1.6z"/>
	<path class="st0" d="M8.5,5.4c0.3,0,0.6-0.3,0.6-0.6c0-0.3-0.3-0.6-0.6-0.6c-0.3,0-0.6,0.3-0.6,0.6C7.9,5.1,8.2,5.4,8.5,5.4z"/>
	<path class="st0" d="M12.1,5.6c0.4,0,0.8-0.3,0.8-0.8c0-0.4-0.3-0.8-0.8-0.8c-0.4,0-0.8,0.3-0.8,0.8C11.3,5.2,11.7,5.6,12.1,5.6z"
		/>
	<path class="st0" d="M15.8,5.8c0.5,0,1-0.4,1-1c0-0.5-0.4-1-1-1c-0.5,0-1,0.4-1,1C14.8,5.3,15.2,5.8,15.8,5.8z"/>
	<path class="st0" d="M19.4,6c0.6,0,1.2-0.5,1.2-1.2c0-0.6-0.5-1.2-1.2-1.2c-0.6,0-1.2,0.5-1.2,1.2C18.2,5.4,18.7,6,19.4,6z"/>
	<path class="st0" d="M23,6.1c0.7,0,1.3-0.6,1.3-1.3c0-0.7-0.6-1.3-1.3-1.3c-0.7,0-1.3,0.6-1.3,1.3C21.7,5.5,22.3,6.1,23,6.1z"/>
	<path class="st0" d="M26.7,6.2c0.8,0,1.4-0.6,1.4-1.4c0-0.8-0.6-1.4-1.4-1.4c-0.8,0-1.4,0.6-1.4,1.4C25.2,5.6,25.9,6.2,26.7,6.2z"
		/>
	<path class="st0" d="M30.3,6.3c0.8,0,1.5-0.7,1.5-1.5s-0.7-1.5-1.5-1.5S28.8,4,28.8,4.8S29.5,6.3,30.3,6.3z"/>
	<path class="st0" d="M41.2,6.3c0.8,0,1.5-0.7,1.5-1.5s-0.7-1.5-1.5-1.5c-0.8,0-1.5,0.7-1.5,1.5S40.4,6.3,41.2,6.3z"/>
	<path class="st0" d="M44.8,6.2c0.8,0,1.4-0.6,1.4-1.4c0-0.8-0.6-1.4-1.4-1.4c-0.8,0-1.4,0.6-1.4,1.4C43.4,5.6,44.1,6.2,44.8,6.2z"
		/>
	<path class="st0" d="M48.5,6.1c0.7,0,1.3-0.6,1.3-1.3c0-0.7-0.6-1.3-1.3-1.3c-0.7,0-1.3,0.6-1.3,1.3C47.2,5.5,47.8,6.1,48.5,6.1z"
		/>
	<path class="st0" d="M52.1,5.9c0.6,0,1.1-0.5,1.1-1.1c0-0.6-0.5-1.1-1.1-1.1c-0.6,0-1.1,0.5-1.1,1.1C51,5.4,51.5,5.9,52.1,5.9z"/>
	<path class="st0" d="M55.8,5.7c0.5,0,0.9-0.4,0.9-0.9c0-0.5-0.4-0.9-0.9-0.9s-0.9,0.4-0.9,0.9C54.9,5.3,55.3,5.7,55.8,5.7z"/>
	<path class="st0" d="M59.4,5.4c0.3,0,0.6-0.3,0.6-0.6c0-0.3-0.3-0.6-0.6-0.6s-0.6,0.3-0.6,0.6C58.8,5.1,59.1,5.4,59.4,5.4z"/>
	<path class="st0" d="M63,5.2c0.2,0,0.4-0.2,0.4-0.4c0-0.2-0.2-0.4-0.4-0.4c-0.2,0-0.4,0.2-0.4,0.4C62.6,5,62.8,5.2,63,5.2z"/>
	<path class="st0" d="M1.2,8.8c0.2,0,0.4-0.2,0.4-0.4c0-0.2-0.2-0.4-0.4-0.4C1,8.1,0.8,8.2,0.8,8.4C0.8,8.6,1,8.8,1.2,8.8z"/>
	<path class="st0" d="M4.8,9c0.3,0,0.6-0.3,0.6-0.6c0-0.3-0.3-0.6-0.6-0.6c-0.3,0-0.6,0.3-0.6,0.6C4.3,8.8,4.5,9,4.8,9z"/>
	<path class="st0" d="M8.5,9.4c0.6,0,1-0.4,1-1c0-0.6-0.4-1-1-1c-0.6,0-1,0.4-1,1C7.5,9,7.9,9.4,8.5,9.4z"/>
	<path class="st0" d="M12.1,9.7c0.7,0,1.2-0.6,1.2-1.2c0-0.7-0.6-1.2-1.2-1.2c-0.7,0-1.2,0.6-1.2,1.2C10.9,9.1,11.4,9.7,12.1,9.7z"
		/>
	<path class="st0" d="M15.8,9.9c0.8,0,1.5-0.7,1.5-1.5c0-0.8-0.7-1.5-1.5-1.5c-0.8,0-1.5,0.7-1.5,1.5C14.3,9.3,14.9,9.9,15.8,9.9z"
		/>
	<path class="st0" d="M52.1,10c0.9,0,1.6-0.7,1.6-1.6c0-0.9-0.7-1.6-1.6-1.6s-1.6,0.7-1.6,1.6C50.5,9.3,51.2,10,52.1,10z"/>
	<path class="st0" d="M55.8,9.8c0.8,0,1.4-0.6,1.4-1.4c0-0.8-0.6-1.4-1.4-1.4c-0.8,0-1.4,0.6-1.4,1.4C54.4,9.2,55,9.8,55.8,9.8z"/>
	<path class="st0" d="M59.4,9.4c0.6,0,1-0.4,1-1c0-0.6-0.4-1-1-1c-0.6,0-1,0.4-1,1C58.4,9,58.8,9.4,59.4,9.4z"/>
	<path class="st0" d="M63,9.2c0.4,0,0.8-0.3,0.8-0.8c0-0.4-0.3-0.8-0.8-0.8c-0.4,0-0.8,0.3-0.8,0.8C62.3,8.9,62.6,9.2,63,9.2z"/>
	<path class="st0" d="M66.7,8.9c0.3,0,0.5-0.2,0.5-0.5c0-0.3-0.2-0.5-0.5-0.5c-0.3,0-0.5,0.2-0.5,0.5C66.2,8.7,66.4,8.9,66.7,8.9z"
		/>
	<path class="st0" d="M1.2,12.6c0.3,0,0.5-0.2,0.5-0.5s-0.2-0.5-0.5-0.5c-0.3,0-0.5,0.2-0.5,0.5S0.9,12.6,1.2,12.6z"/>
	<path class="st0" d="M4.8,12.9c0.5,0,0.8-0.4,0.8-0.8c0-0.5-0.4-0.8-0.8-0.8c-0.5,0-0.8,0.4-0.8,0.8C4,12.5,4.4,12.9,4.8,12.9z"/>
	<path class="st0" d="M8.5,13.3c0.7,0,1.2-0.5,1.2-1.2c0-0.7-0.5-1.2-1.2-1.2c-0.7,0-1.2,0.5-1.2,1.2C7.3,12.7,7.8,13.3,8.5,13.3z"
		/>
	<path class="st0" d="M12.1,13.6c0.8,0,1.5-0.7,1.5-1.5c0-0.8-0.7-1.5-1.5-1.5c-0.8,0-1.5,0.7-1.5,1.5
		C10.6,12.9,11.3,13.6,12.1,13.6z"/>
	<path class="st0" d="M55.8,13.8c0.9,0,1.7-0.8,1.7-1.7c0-0.9-0.8-1.7-1.7-1.7c-0.9,0-1.7,0.8-1.7,1.7C54.1,13,54.8,13.8,55.8,13.8z
		"/>
	<path class="st0" d="M59.4,13.4c0.7,0,1.3-0.6,1.3-1.3c0-0.7-0.6-1.3-1.3-1.3c-0.7,0-1.3,0.6-1.3,1.3
		C58.1,12.8,58.7,13.4,59.4,13.4z"/>
	<path class="st0" d="M63,13.1c0.6,0,1-0.5,1-1c0-0.6-0.5-1-1-1c-0.6,0-1,0.5-1,1C62,12.6,62.5,13.1,63,13.1z"/>
	<path class="st0" d="M66.7,12.8c0.4,0,0.7-0.3,0.7-0.7c0-0.4-0.3-0.7-0.7-0.7c-0.4,0-0.7,0.3-0.7,0.7C66,12.5,66.3,12.8,66.7,12.8z
		"/>
	<path class="st0" d="M70.3,12.5c0.3,0,0.5-0.2,0.5-0.5c0-0.3-0.2-0.5-0.5-0.5c-0.3,0-0.5,0.2-0.5,0.5
		C69.8,12.3,70.1,12.5,70.3,12.5z"/>
	<path class="st0" d="M1.2,16.4c0.4,0,0.7-0.3,0.7-0.7c0-0.4-0.3-0.7-0.7-0.7c-0.4,0-0.7,0.3-0.7,0.7C0.5,16.1,0.8,16.4,1.2,16.4z"
		/>
	<path class="st0" d="M4.8,16.7c0.6,0,1-0.5,1-1c0-0.6-0.5-1-1-1s-1,0.5-1,1C3.8,16.3,4.3,16.7,4.8,16.7z"/>
	<path class="st0" d="M8.5,17.2c0.8,0,1.5-0.7,1.5-1.5c0-0.8-0.7-1.5-1.5-1.5c-0.8,0-1.5,0.7-1.5,1.5C7,16.5,7.7,17.2,8.5,17.2z"/>
	<path class="st0" d="M59.4,17.3c0.9,0,1.6-0.7,1.6-1.6c0-0.9-0.7-1.6-1.6-1.6s-1.6,0.7-1.6,1.6C57.8,16.6,58.5,17.3,59.4,17.3z"/>
	<path class="st0" d="M63,17c0.7,0,1.2-0.6,1.2-1.2c0-0.7-0.6-1.2-1.2-1.2c-0.7,0-1.2,0.6-1.2,1.2C61.8,16.4,62.3,17,63,17z"/>
	<path class="st0" d="M66.7,16.6c0.5,0,0.9-0.4,0.9-0.9c0-0.5-0.4-0.9-0.9-0.9c-0.5,0-0.9,0.4-0.9,0.9
		C65.8,16.2,66.2,16.6,66.7,16.6z"/>
	<path class="st0" d="M70.3,16.3c0.3,0,0.6-0.3,0.6-0.6c0-0.3-0.3-0.6-0.6-0.6c-0.3,0-0.6,0.3-0.6,0.6C69.7,16,70,16.3,70.3,16.3z"
		/>
	<path class="st0" d="M1.2,20.2c0.5,0,0.8-0.4,0.8-0.8s-0.4-0.8-0.8-0.8c-0.5,0-0.8,0.4-0.8,0.8S0.7,20.2,1.2,20.2z"/>
	<path class="st0" d="M4.8,20.6c0.7,0,1.2-0.5,1.2-1.2s-0.5-1.2-1.2-1.2s-1.2,0.5-1.2,1.2S4.2,20.6,4.8,20.6z"/>
	<path class="st0" d="M63,20.8c0.8,0,1.4-0.6,1.4-1.4c0-0.8-0.6-1.4-1.4-1.4s-1.4,0.6-1.4,1.4C61.6,20.1,62.3,20.8,63,20.8z"/>
	<path class="st0" d="M66.7,20.4c0.6,0,1.1-0.5,1.1-1.1c0-0.6-0.5-1.1-1.1-1.1c-0.6,0-1.1,0.5-1.1,1.1
		C65.6,19.9,66.1,20.4,66.7,20.4z"/>
	<path class="st0" d="M70.3,20.1c0.4,0,0.8-0.3,0.8-0.8c0-0.4-0.3-0.8-0.8-0.8c-0.4,0-0.8,0.3-0.8,0.8
		C69.6,19.8,69.9,20.1,70.3,20.1z"/>
	<path class="st0" d="M1.2,24c0.5,0,1-0.4,1-1c0-0.5-0.4-1-1-1c-0.5,0-1,0.4-1,1C0.2,23.5,0.7,24,1.2,24z"/>
	<path class="st0" d="M4.8,24.3c0.8,0,1.4-0.6,1.4-1.4c0-0.8-0.6-1.4-1.4-1.4c-0.8,0-1.4,0.6-1.4,1.4C3.5,23.7,4.1,24.3,4.8,24.3z"
		/>
	<path class="st0" d="M63,24.6c0.9,0,1.6-0.7,1.6-1.6c0-0.9-0.7-1.6-1.6-1.6c-0.9,0-1.6,0.7-1.6,1.6C61.4,23.9,62.2,24.6,63,24.6z"
		/>
	<path class="st0" d="M66.7,24.2c0.7,0,1.2-0.6,1.2-1.2c0-0.7-0.6-1.2-1.2-1.2c-0.7,0-1.2,0.6-1.2,1.2C65.4,23.7,66,24.2,66.7,24.2z
		"/>
	<path class="st0" d="M70.3,23.9c0.5,0,0.9-0.4,0.9-0.9c0-0.5-0.4-0.9-0.9-0.9c-0.5,0-0.9,0.4-0.9,0.9
		C69.4,23.5,69.8,23.9,70.3,23.9z"/>
	<path class="st0" d="M1.2,27.7c0.6,0,1.1-0.5,1.1-1.1c0-0.6-0.5-1.1-1.1-1.1c-0.6,0-1.1,0.5-1.1,1.1C0.1,27.2,0.6,27.7,1.2,27.7z"
		/>
	<path class="st0" d="M4.8,28.1c0.8,0,1.5-0.7,1.5-1.5s-0.7-1.5-1.5-1.5c-0.8,0-1.5,0.7-1.5,1.5S4,28.1,4.8,28.1z"/>
	<path class="st0" d="M66.7,28c0.8,0,1.4-0.6,1.4-1.4c0-0.8-0.6-1.4-1.4-1.4c-0.8,0-1.4,0.6-1.4,1.4C65.3,27.4,65.9,28,66.7,28z"/>
	<path class="st0" d="M70.3,27.6c0.5,0,1-0.4,1-1c0-0.5-0.4-1-1-1c-0.5,0-1,0.4-1,1C69.3,27.2,69.8,27.6,70.3,27.6z"/>
	<path class="st0" d="M1.2,31.4c0.6,0,1.1-0.5,1.1-1.1c0-0.6-0.5-1.1-1.1-1.1c-0.6,0-1.1,0.5-1.1,1.1C0.1,30.9,0.6,31.4,1.2,31.4z"
		/>
	<circle class="st0" cx="4.8" cy="30.3" r="1.6"/>
	<path class="st0" d="M66.7,31.7c0.8,0,1.4-0.6,1.4-1.4c0-0.8-0.6-1.4-1.4-1.4c-0.8,0-1.4,0.6-1.4,1.4C65.2,31,65.9,31.7,66.7,31.7z
		"/>
	<path class="st0" d="M70.3,31.3c0.6,0,1-0.5,1-1s-0.5-1-1-1c-0.6,0-1,0.5-1,1S69.7,31.3,70.3,31.3z"/>
	<path class="st0" d="M1.2,32.7c-0.6,0-1.2,0.5-1.2,1.2c0,0.6,0.5,1.2,1.2,1.2c0.6,0,1.2-0.5,1.2-1.2C2.4,33.2,1.9,32.7,1.2,32.7z"
		/>
	<path class="st0" d="M64.9,33.9c0-1-0.8-1.8-1.8-1.8c-0.7,0-1.3,0.4-1.6,1c-0.2-0.5-0.5-0.8-0.9-1c0.4-0.3,0.8-0.6,0.9-1.1
		c0.3,0.7,0.9,1.1,1.7,1.1c1,0,1.8-0.8,1.8-1.8c0-1-0.8-1.8-1.8-1.8c-0.8,0-1.4,0.5-1.7,1.1c-0.2-0.5-0.5-0.9-1-1.2
		c0.5-0.3,0.9-0.8,1-1.4c0.2,0.8,0.8,1.4,1.7,1.4c1,0,1.7-0.8,1.7-1.7S64,24.9,63,24.9c-0.8,0-1.5,0.6-1.7,1.4
		c-0.1-0.7-0.6-1.3-1.2-1.5c0.7-0.3,1.1-1,1.1-1.7c0-1-0.8-1.8-1.8-1.9c0.9-0.1,1.6-0.8,1.6-1.7c0-1-0.8-1.8-1.8-1.8
		c-0.8,0-1.4,0.5-1.6,1.2c-0.2-0.6-0.6-1.1-1.1-1.3c0.6-0.3,1.1-1,1.1-1.7c0-1.1-0.9-1.9-1.9-1.9c-0.7,0-1.4,0.4-1.7,1
		c-0.2-0.5-0.6-0.8-1.1-1.1c0.6-0.3,1-0.9,1-1.7c0-1.1-0.9-1.9-1.9-1.9c-0.8,0-1.4,0.4-1.7,1.1c-0.2-0.5-0.7-0.9-1.2-1.1
		c0.6-0.3,1.1-0.9,1.1-1.7c0-1-0.8-1.8-1.8-1.8c-0.9,0-1.6,0.6-1.8,1.5c-0.2-0.9-0.9-1.6-1.9-1.6c-0.8,0-1.5,0.5-1.8,1.2
		c-0.3-0.7-1-1.2-1.9-1.2c-0.8,0-1.4,0.5-1.8,1.1c-0.3-0.7-1-1.1-1.8-1.2c0.8-0.1,1.5-0.7,1.5-1.6c0-0.9-0.7-1.6-1.6-1.6
		S36,3.9,36,4.8c0,0.8,0.7,1.5,1.5,1.6c-0.8,0-1.4,0.5-1.7,1.1c-0.3-0.6-1-1.1-1.8-1.1c0.9,0,1.6-0.7,1.6-1.6c0-0.9-0.7-1.6-1.6-1.6
		c-0.9,0-1.6,0.7-1.6,1.6c0,0.9,0.7,1.6,1.6,1.6c-0.8,0-1.5,0.5-1.8,1.2c-0.3-0.7-1-1.1-1.8-1.1c-0.8,0-1.5,0.5-1.8,1.2
		c-0.3-0.7-1-1.2-1.8-1.2c-0.9,0-1.6,0.6-1.9,1.4c-0.2-0.8-0.9-1.3-1.8-1.3c-1,0-1.9,0.8-1.9,1.9c0,0.7,0.4,1.3,1,1.6
		c-0.5,0.2-0.8,0.6-1.1,1c-0.3-0.6-0.9-1-1.6-1c0.9-0.1,1.6-0.8,1.6-1.7c0-0.9-0.8-1.7-1.7-1.7c-0.9,0-1.7,0.8-1.7,1.7
		c0,0.9,0.7,1.6,1.6,1.7c-0.9,0-1.7,0.7-1.8,1.7c-0.1-0.8-0.8-1.5-1.7-1.5c-1,0-1.8,0.8-1.8,1.8c0,0.8,0.6,1.5,1.4,1.7
		c-0.8,0.2-1.3,0.7-1.5,1.5c-0.2-0.8-0.9-1.4-1.7-1.4c-1,0-1.8,0.8-1.8,1.8c0,0.9,0.6,1.5,1.4,1.7c-0.9,0.2-1.5,0.8-1.6,1.7
		c-0.1-0.9-0.8-1.5-1.7-1.5c-1,0-1.7,0.8-1.7,1.7c0,1,0.8,1.7,1.7,1.7c0.9,0,1.6-0.7,1.7-1.5c0,0.5,0.3,0.9,0.6,1.2v0.7
		c-0.2,0.2-0.5,0.5-0.6,0.8c-0.3-0.6-0.9-1-1.7-1c-1,0-1.9,0.8-1.9,1.9c0,0.9,0.6,1.5,1.4,1.8c-0.8,0.2-1.4,1-1.4,1.9
		c0,0.8,0.5,1.5,1.1,1.8c-0.7,0.3-1.2,1-1.2,1.9c0,0.8,0.5,1.4,1.1,1.8c-0.6,0.3-1.1,0.9-1.1,1.7c-0.1-0.8-0.7-1.4-1.6-1.4
		c-0.9,0-1.6,0.7-1.6,1.6c0,0.9,0.7,1.6,1.6,1.6c0.8,0,1.5-0.6,1.6-1.4c0.1,0.7,0.5,1.3,1.1,1.7c-0.6,0.3-1.1,1-1.1,1.7
		c0-0.9-0.7-1.5-1.6-1.5c-0.9,0-1.6,0.7-1.6,1.6c0,0.9,0.7,1.6,1.6,1.6c0.9,0,1.6-0.7,1.6-1.5c0,0.8,0.5,1.4,1.1,1.8
		c-0.7,0.3-1.1,1-1.1,1.8c0,0.8,0.5,1.5,1.2,1.9c-0.7,0.3-1.1,1-1.1,1.8c0,0.9,0.7,1.7,1.5,1.9c-0.2,0.1-0.4,0.1-0.5,0.2
		c-0.5,0.3-0.9,0.9-0.9,1.5c0,0.8,0.5,1.5,1.3,1.7c-0.8,0.2-1.3,0.9-1.3,1.8c0,0.9,0.6,1.5,1.4,1.8c-0.8,0.2-1.4,1-1.4,1.9
		c0,0.8,0.5,1.5,1.1,1.8c-0.7,0.3-1.2,1-1.2,1.9c0,0.8,0.5,1.4,1.1,1.8c-0.6,0.3-1.1,0.9-1.1,1.7c-0.1-0.8-0.7-1.4-1.6-1.4
		c-0.9,0-1.6,0.7-1.6,1.6c0,0.9,0.7,1.6,1.6,1.6c0.8,0,1.5-0.6,1.6-1.4c0.1,0.7,0.5,1.3,1.1,1.7c-0.6,0.3-1.1,1-1.1,1.7
		c0-0.9-0.7-1.5-1.6-1.5c-0.9,0-1.6,0.7-1.6,1.6c0,0.9,0.7,1.6,1.6,1.6c0.9,0,1.6-0.7,1.6-1.5c0,0.8,0.5,1.4,1.1,1.8
		c-0.7,0.3-1.1,1-1.1,1.8c0,0.8,0.5,1.5,1.2,1.9c-0.7,0.3-1.1,1-1.1,1.8c0,0.9,0.7,1.7,1.5,1.9c-0.1,0-0.1,0-0.2,0.1
		c-0.1,0-0.1,0.1-0.2,0.1c-0.6,0.3-1,0.9-1,1.6c0,0.8,0.6,1.5,1.3,1.8c-0.8,0.2-1.4,0.9-1.4,1.8c0,0.9,0.6,1.5,1.4,1.8
		c-0.8,0.2-1.4,1-1.4,1.9c0,0.8,0.5,1.5,1.1,1.8c-0.7,0.3-1.2,1-1.2,1.9c0,0.8,0.5,1.4,1.1,1.8c-0.6,0.3-1.1,0.9-1.1,1.7
		c-0.1-0.8-0.7-1.4-1.6-1.4c-0.9,0-1.6,0.7-1.6,1.6c0,0.9,0.7,1.6,1.6,1.6c0.8,0,1.5-0.6,1.6-1.4c0.1,0.7,0.5,1.3,1.1,1.7
		c-0.6,0.3-1.1,1-1.1,1.7c0-0.9-0.7-1.5-1.6-1.5c-0.9,0-1.6,0.7-1.6,1.6c0,0.9,0.7,1.6,1.6,1.6c0.9,0,1.6-0.7,1.6-1.5
		c0,0.8,0.5,1.4,1.1,1.8c-0.7,0.3-1.1,1-1.1,1.8c0,0.8,0.5,1.5,1.2,1.9c-0.7,0.3-1.1,1-1.1,1.8c0,0.9,0.7,1.7,1.5,1.9
		c-0.8,0.2-1.4,0.9-1.4,1.8c0,1,0.8,1.8,1.8,1.8c0.8,0,1.4-0.5,1.7-1.1c0.1,0.3,0.3,0.6,0.6,0.8v0.7c-0.3,0.3-0.6,0.8-0.6,1.3
		c0,1.1,0.9,1.9,1.9,1.9c0.7,0,1.4-0.4,1.7-1c0.2,0.5,0.6,0.8,1,1c-0.6,0.3-1,0.9-1,1.6c-0.1-0.9-0.8-1.6-1.7-1.6
		c-1,0-1.7,0.8-1.7,1.7c0,1,0.8,1.7,1.7,1.7c0.9,0,1.6-0.7,1.7-1.6c0.1,1,0.9,1.8,1.9,1.8c0.7,0,1.4-0.4,1.7-1
		c0.3,0.5,0.7,0.9,1.3,1.1c-0.6,0.3-1.1,0.9-1.1,1.6c0,1,0.8,1.7,1.7,1.7c0.9,0,1.7-0.7,1.7-1.7c0,1,0.9,1.8,1.9,1.8
		c0.8,0,1.5-0.5,1.8-1.2c0.3,0.7,0.9,1.1,1.6,1.2c-0.8,0.1-1.5,0.8-1.5,1.7c0,0.9,0.8,1.7,1.7,1.7c0.9,0,1.7-0.8,1.7-1.7
		c0-0.9-0.6-1.5-1.5-1.7c0.7-0.1,1.3-0.5,1.6-1.1c0.3,0.5,0.7,0.9,1.3,1.1c-0.7,0.2-1.2,0.9-1.2,1.7c0,1,0.8,1.8,1.8,1.8
		c1,0,1.8-0.8,1.8-1.8c0-0.8-0.5-1.4-1.2-1.7c0.5-0.2,1-0.5,1.2-1c0.2,0.4,0.6,0.8,1.1,1c-0.6,0.3-1.1,0.9-1.1,1.7
		c0,1,0.8,1.8,1.8,1.8c1,0,1.8-0.8,1.8-1.7c0.1,1,0.8,1.7,1.8,1.7c1,0,1.8-0.8,1.8-1.8c0-0.7-0.4-1.4-1.1-1.7c0.5-0.2,0.9-0.5,1.1-1
		c0.3,0.5,0.7,0.8,1.3,1c-0.7,0.2-1.2,0.9-1.2,1.7c0,1,0.8,1.8,1.8,1.8c1,0,1.8-0.8,1.8-1.8c0-0.8-0.5-1.4-1.2-1.7
		c0.6-0.2,1.1-0.5,1.3-1.1c0.3,0.6,0.9,1,1.6,1.1c-0.8,0.1-1.5,0.8-1.5,1.7c0,0.9,0.8,1.7,1.7,1.7s1.7-0.8,1.7-1.7
		c0-0.9-0.7-1.6-1.5-1.7c0.8-0.1,1.5-0.6,1.7-1.4c0.3,0.7,0.9,1.3,1.7,1.3c1,0,1.9-0.8,1.9-1.9c0-0.7-0.4-1.3-1-1.6
		c0.4-0.2,0.8-0.5,1-0.9c0.3,0.5,0.8,0.8,1.4,0.9c-0.8,0.2-1.3,0.8-1.3,1.6c0,0.9,0.8,1.7,1.7,1.7c0.9,0,1.7-0.8,1.7-1.7
		c0-0.8-0.6-1.4-1.3-1.6c0.7-0.1,1.3-0.6,1.6-1.2c0.3,0.6,0.9,1.1,1.7,1.1c1,0,1.9-0.8,1.9-1.9c0-0.8-0.5-1.4-1.1-1.7
		c0.7-0.3,1.1-0.9,1.3-1.6c0.1,0.8,0.8,1.4,1.6,1.4c0.9,0,1.7-0.8,1.7-1.7c0-0.9-0.8-1.7-1.7-1.7c-0.8,0-1.5,0.6-1.6,1.4
		c-0.1-0.6-0.4-1.1-0.9-1.4c0.4-0.2,0.8-0.6,0.9-1c0.3,0.6,0.9,1,1.6,1c1,0,1.9-0.8,1.9-1.9c0-0.8-0.5-1.5-1.2-1.8
		c0.7-0.3,1.2-0.9,1.3-1.7c0.1,0.8,0.8,1.5,1.7,1.5c0.9,0,1.7-0.8,1.7-1.7c0-0.9-0.8-1.7-1.7-1.7c-0.9,0-1.6,0.7-1.7,1.5
		c-0.1-0.7-0.5-1.3-1.1-1.6c0.5-0.3,0.9-0.7,1.1-1.3c0.2,0.7,0.9,1.2,1.7,1.2c1,0,1.8-0.8,1.8-1.8c0-1-0.8-1.8-1.8-1.8
		c-0.8,0-1.4,0.5-1.7,1.2c-0.2-0.5-0.5-1-1-1.2c0.4-0.2,0.8-0.6,1-1.1c0.3,0.6,0.9,1.1,1.7,1.1c1,0,1.8-0.8,1.8-1.8
		c0-1-0.8-1.8-1.8-1.8c1,0,1.8-0.8,1.8-1.8c0-1-0.8-1.8-1.8-1.8c-0.7,0-1.3,0.4-1.6,1c-0.2-0.5-0.5-0.8-0.9-1
		c0.4-0.3,0.8-0.6,0.9-1.1c0.3,0.7,0.9,1.1,1.7,1.1c1,0,1.8-0.8,1.8-1.8c0-1-0.8-1.8-1.8-1.8c-0.8,0-1.4,0.5-1.7,1.1
		c-0.2-0.5-0.5-0.9-1-1.2c0.5-0.3,0.9-0.8,1-1.4c0.2,0.8,0.8,1.4,1.7,1.4c1,0,1.7-0.8,1.7-1.7S64,82.9,63,82.9
		c-0.8,0-1.5,0.6-1.7,1.4c-0.1-0.7-0.6-1.3-1.2-1.5c0.7-0.3,1.1-1,1.1-1.7c0-0.8-0.5-1.5-1.3-1.8c0.7-0.3,1.3-1,1.3-1.8
		c0-0.8-0.5-1.5-1.2-1.8c0.7-0.3,1.2-0.9,1.3-1.7c0.1,0.8,0.8,1.5,1.7,1.5c0.9,0,1.7-0.8,1.7-1.7c0-0.9-0.8-1.7-1.7-1.7
		c-0.9,0-1.6,0.7-1.7,1.5c-0.1-0.7-0.5-1.3-1.1-1.6c0.5-0.3,0.9-0.7,1.1-1.3c0.2,0.7,0.9,1.2,1.7,1.2c1,0,1.8-0.8,1.8-1.8
		c0-1-0.8-1.8-1.8-1.8c-0.8,0-1.4,0.5-1.7,1.2c-0.2-0.5-0.5-1-1-1.2c0.4-0.2,0.8-0.6,1-1.1c0.3,0.6,0.9,1.1,1.7,1.1
		c1,0,1.8-0.8,1.8-1.8c0-1-0.8-1.8-1.8-1.8c1,0,1.8-0.8,1.8-1.8c0-1-0.8-1.8-1.8-1.8c-0.7,0-1.3,0.4-1.6,1c-0.2-0.5-0.5-0.8-0.9-1
		c0.4-0.3,0.8-0.6,0.9-1.1c0.3,0.7,0.9,1.1,1.7,1.1c1,0,1.8-0.8,1.8-1.8c0-1-0.8-1.8-1.8-1.8c-0.8,0-1.4,0.5-1.7,1.1
		c-0.2-0.5-0.5-0.9-1-1.2c0.5-0.3,0.9-0.8,1-1.4c0.2,0.8,0.8,1.4,1.7,1.4c1,0,1.7-0.8,1.7-1.7S64,53.9,63,53.9
		c-0.8,0-1.5,0.6-1.7,1.4c-0.1-0.7-0.6-1.3-1.2-1.5c0.7-0.3,1.1-1,1.1-1.7c0-0.8-0.5-1.5-1.2-1.8c0.7-0.3,1.2-1,1.2-1.8
		c0-0.8-0.5-1.5-1.2-1.8c0.7-0.3,1.2-0.9,1.3-1.7c0.1,0.8,0.8,1.5,1.7,1.5c0.9,0,1.7-0.8,1.7-1.7S64,43.1,63,43.1
		c-0.9,0-1.6,0.7-1.7,1.5c-0.1-0.7-0.5-1.3-1.1-1.6c0.5-0.3,0.9-0.7,1.1-1.3c0.2,0.7,0.9,1.2,1.7,1.2c1,0,1.8-0.8,1.8-1.8
		c0-1-0.8-1.8-1.8-1.8c-0.8,0-1.4,0.5-1.7,1.2c-0.2-0.5-0.5-1-1-1.2c0.4-0.2,0.8-0.6,1-1.1c0.3,0.6,0.9,1.1,1.7,1.1
		c1,0,1.8-0.8,1.8-1.8c0-1-0.8-1.8-1.8-1.8C64.1,35.7,64.9,34.9,64.9,33.9z M61.4,92.7c0.3,0.6,0.9,1,1.6,1c-0.7,0-1.3,0.5-1.6,1.1
		c-0.2-0.5-0.5-0.8-0.9-1.1C60.8,93.5,61.2,93.2,61.4,92.7z M61.4,63.7c0.3,0.6,0.9,1,1.6,1c-0.7,0-1.3,0.5-1.6,1.1
		c-0.2-0.5-0.5-0.8-0.9-1.1C60.9,64.5,61.2,64.1,61.4,63.7z M16.8,17.4c0.3-0.2,0.5-0.4,0.7-0.7c0.2,0.3,0.4,0.5,0.6,0.7
		c-0.2,0.2-0.4,0.4-0.6,0.6C17.3,17.8,17.1,17.6,16.8,17.4z M57.7,96.8c0.2,0.2,0.4,0.4,0.6,0.5c-0.3,0.1-0.5,0.3-0.6,0.6
		c-0.1-0.2-0.3-0.4-0.5-0.6C57.4,97.2,57.6,97,57.7,96.8z M57.3,93.7c0.2-0.1,0.3-0.3,0.4-0.5c0.2,0.2,0.4,0.4,0.6,0.5
		c-0.2,0.1-0.4,0.3-0.6,0.5C57.6,94.1,57.4,93.9,57.3,93.7z M57.7,90.6c-0.1-0.2-0.3-0.4-0.4-0.5c0.2-0.2,0.3-0.3,0.5-0.5
		c0.2,0.2,0.4,0.4,0.6,0.5C58.1,90.2,57.9,90.4,57.7,90.6z M57.7,87c-0.1-0.2-0.3-0.4-0.5-0.6c0.2-0.2,0.4-0.4,0.5-0.6
		c0.2,0.2,0.4,0.4,0.7,0.6C58.1,86.6,57.9,86.8,57.7,87z M10.1,81.8c0.1,0.3,0.4,0.5,0.6,0.7v0.4c-0.3,0.2-0.5,0.4-0.6,0.7
		c-0.3-0.4-0.6-0.7-1.1-0.9C9.5,82.6,9.9,82.3,10.1,81.8z M10.1,52.8c0.1,0.3,0.3,0.5,0.6,0.7v0.4c-0.2,0.2-0.4,0.4-0.6,0.7
		c-0.3-0.4-0.6-0.7-1.1-0.9C9.5,53.6,9.9,53.3,10.1,52.8z M9.3,43c0.4-0.2,0.6-0.4,0.8-0.7c0.1,0.3,0.3,0.5,0.6,0.6v0.2
		c-0.2,0.2-0.4,0.4-0.6,0.7C10,43.5,9.7,43.2,9.3,43z M57.7,39.9c-0.1-0.2-0.3-0.4-0.5-0.6c0.2-0.2,0.3-0.3,0.5-0.5
		c0.2,0.2,0.4,0.4,0.6,0.5C58.1,39.5,57.9,39.7,57.7,39.9z M57.7,32.6c-0.1-0.2-0.3-0.4-0.4-0.5c0.2-0.2,0.3-0.3,0.5-0.5
		c0.2,0.2,0.4,0.4,0.6,0.5C58.1,32.2,57.9,32.4,57.7,32.6z M58.3,35.7c-0.2,0.1-0.4,0.3-0.6,0.5c-0.1-0.2-0.3-0.4-0.4-0.5
		c0.2-0.1,0.3-0.3,0.4-0.5C57.9,35.4,58.1,35.6,58.3,35.7z M57.8,29c-0.1-0.2-0.3-0.4-0.5-0.6c0.2-0.2,0.4-0.4,0.5-0.6
		c0.2,0.2,0.4,0.4,0.7,0.6C58.2,28.6,57.9,28.8,57.8,29z M58.4,57.4c-0.3,0.1-0.5,0.3-0.7,0.6c-0.1-0.2-0.3-0.4-0.5-0.6
		c0.2-0.2,0.4-0.4,0.5-0.6C57.9,57.1,58.2,57.3,58.4,57.4z M9.3,72c0.4-0.2,0.6-0.4,0.8-0.7c0.1,0.3,0.3,0.5,0.6,0.6v0.2
		c-0.2,0.2-0.4,0.4-0.6,0.7C10,72.5,9.7,72.2,9.3,72z M10.1,56.6c0.1,0.3,0.3,0.5,0.6,0.7v0.2c-0.2,0.2-0.4,0.4-0.6,0.6
		c-0.2-0.3-0.5-0.6-0.8-0.8C9.7,57.2,9.9,56.9,10.1,56.6z M10.7,61.1c-0.2,0.2-0.4,0.4-0.6,0.6C10,61.4,9.7,61.2,9.4,61
		c0.3-0.2,0.5-0.4,0.7-0.7C10.3,60.6,10.5,60.8,10.7,61.1L10.7,61.1z M10.7,64.7c-0.2,0.2-0.4,0.4-0.6,0.7c-0.2-0.3-0.4-0.5-0.7-0.6
		c0.3-0.2,0.5-0.4,0.7-0.6C10.3,64.3,10.5,64.5,10.7,64.7z M10.2,67.7c0.1,0.3,0.3,0.5,0.6,0.6v0.1c-0.2,0.2-0.4,0.4-0.6,0.6
		c-0.2-0.3-0.4-0.5-0.8-0.7C9.7,68.2,10,68,10.2,67.7z M57.3,68.4c0.2-0.2,0.3-0.3,0.5-0.5c0.2,0.2,0.4,0.4,0.6,0.5
		c-0.3,0.1-0.5,0.3-0.6,0.6C57.6,68.7,57.5,68.5,57.3,68.4z M57.7,61.6c-0.1-0.2-0.3-0.4-0.4-0.5c0.2-0.2,0.3-0.3,0.5-0.5
		c0.2,0.2,0.4,0.4,0.6,0.5C58.1,61.2,57.9,61.4,57.7,61.6z M58.3,64.7c-0.2,0.1-0.4,0.3-0.6,0.5c-0.1-0.2-0.3-0.4-0.4-0.5
		c0.2-0.1,0.3-0.3,0.4-0.5C57.9,64.4,58.1,64.6,58.3,64.7z M10.7,32.1c-0.2,0.2-0.4,0.4-0.6,0.6C10,32.4,9.7,32.2,9.4,32
		c0.3-0.2,0.5-0.4,0.7-0.7C10.3,31.6,10.5,31.8,10.7,32.1L10.7,32.1z M10.2,35.1c0.2,0.2,0.3,0.5,0.6,0.6c-0.2,0.2-0.4,0.4-0.6,0.7
		c-0.2-0.3-0.4-0.5-0.7-0.6C9.7,35.6,10,35.4,10.2,35.1z M10.2,38.7c0.1,0.3,0.3,0.5,0.6,0.6v0.1c-0.2,0.2-0.4,0.4-0.6,0.6
		c-0.2-0.3-0.4-0.5-0.8-0.7C9.7,39.2,10,39,10.2,38.7z M10.2,74.8c0.1,0.3,0.3,0.5,0.6,0.7v0.5c-0.2,0.2-0.5,0.5-0.6,0.8
		c-0.2-0.5-0.7-0.9-1.2-1C9.5,75.6,9.9,75.2,10.2,74.8z M10.1,85.6c0.1,0.3,0.4,0.5,0.6,0.7v0.1c-0.2,0.2-0.5,0.4-0.6,0.7
		c-0.2-0.3-0.5-0.6-0.8-0.8C9.6,86.2,9.9,86,10.1,85.6z M10.1,89.4c0.2,0.3,0.3,0.5,0.6,0.7c-0.2,0.2-0.4,0.4-0.6,0.6
		c-0.2-0.3-0.4-0.5-0.7-0.6C9.7,89.9,9.9,89.7,10.1,89.4z M10.7,93.7c-0.2,0.2-0.4,0.4-0.6,0.7c-0.2-0.3-0.4-0.5-0.7-0.6
		c0.3-0.2,0.5-0.4,0.7-0.6C10.3,93.4,10.5,93.6,10.7,93.7z M10.1,96.7c0.2,0.3,0.4,0.5,0.6,0.7v0c-0.2,0.2-0.4,0.4-0.6,0.7
		c-0.2-0.3-0.4-0.5-0.8-0.7C9.7,97.2,9.9,97,10.1,96.7z M43,104.6C43,104.6,43,104.6,43,104.6C43,104.7,43,104.7,43,104.6
		C43,104.7,43,104.7,43,104.6C43,104.6,43,104.6,43,104.6z M57.7,83.4c-0.2-0.3-0.4-0.5-0.6-0.7c0.3-0.2,0.5-0.5,0.6-0.8
		c0.2,0.3,0.5,0.6,0.8,0.8C58.2,82.9,57.9,83.2,57.7,83.4z M57.8,76.5c-0.2-0.3-0.4-0.6-0.7-0.8c0.3-0.2,0.5-0.5,0.7-0.8
		c0.2,0.3,0.6,0.6,1,0.8C58.3,75.8,58,76.1,57.8,76.5z M57.8,72.7c-0.1-0.3-0.3-0.5-0.6-0.7c0.2-0.2,0.4-0.4,0.6-0.6
		c0.2,0.3,0.4,0.5,0.7,0.6C58.2,72.2,57.9,72.4,57.8,72.7z M57.8,54.4c-0.2-0.3-0.4-0.5-0.6-0.7c0.3-0.2,0.5-0.5,0.6-0.8
		c0.2,0.3,0.5,0.6,0.8,0.8C58.2,53.9,58,54.1,57.8,54.4z M57.1,46.7c0.3-0.2,0.5-0.5,0.7-0.8c0.2,0.3,0.6,0.6,1,0.8
		c-0.4,0.2-0.7,0.5-0.9,0.8C57.6,47.2,57.4,46.9,57.1,46.7z M57.8,43.7c-0.1-0.3-0.3-0.5-0.6-0.7c0.2-0.2,0.4-0.4,0.6-0.6
		c0.2,0.3,0.4,0.5,0.7,0.6C58.2,43.2,57.9,43.4,57.8,43.7z M57.8,25.4c-0.2-0.3-0.4-0.5-0.6-0.7c0.3-0.2,0.5-0.5,0.6-0.8
		c0.2,0.3,0.5,0.6,0.8,0.8C58.2,24.9,58,25.1,57.8,25.4z M10.7,28.5c-0.2,0.2-0.4,0.4-0.6,0.6c-0.2-0.3-0.5-0.6-0.8-0.8
		c0.4-0.2,0.6-0.4,0.8-0.8c0.1,0.3,0.3,0.5,0.6,0.7V28.5z M10.2,45.8c0.1,0.3,0.3,0.5,0.6,0.7v0.5c-0.2,0.2-0.5,0.5-0.6,0.8
		C10,47.3,9.6,47,9.2,46.8c-0.1,0-0.2-0.1-0.3-0.1C9.5,46.6,9.9,46.2,10.2,45.8z M10.2,49.2c0.1,0.3,0.3,0.6,0.6,0.8v0.4
		c-0.2,0.2-0.5,0.5-0.6,0.8c-0.2-0.4-0.6-0.8-1.1-1C9.5,50,9.9,49.7,10.2,49.2z M10.2,78.2c0.1,0.3,0.3,0.6,0.6,0.8v0.4
		c-0.3,0.2-0.5,0.5-0.6,0.8c-0.2-0.5-0.6-0.8-1.1-1C9.5,79,9.9,78.7,10.2,78.2z M10.1,100.3c0.2,0.3,0.4,0.5,0.6,0.7v0.2
		c-0.2,0.2-0.5,0.4-0.6,0.7c-0.2-0.3-0.5-0.6-0.8-0.8C9.6,100.9,9.9,100.6,10.1,100.3z M35.7,115.3c0.2,0.2,0.3,0.3,0.5,0.4
		c-0.2,0.2-0.4,0.4-0.5,0.6c-0.1-0.2-0.3-0.4-0.5-0.6C35.4,115.6,35.6,115.5,35.7,115.3z M57.7,100.4c0.2,0.3,0.4,0.5,0.7,0.6
		c-0.3,0.2-0.5,0.4-0.7,0.7c-0.1-0.3-0.3-0.5-0.6-0.7C57.4,100.9,57.6,100.7,57.7,100.4z M57.7,80c-0.2-0.3-0.4-0.6-0.7-0.8
		c0.3-0.2,0.6-0.5,0.8-0.9c0.2,0.4,0.6,0.7,1,0.8C58.3,79.3,58,79.6,57.7,80z M57.8,51c-0.2-0.3-0.4-0.6-0.7-0.8
		c0.3-0.2,0.6-0.5,0.7-0.8c0.2,0.4,0.6,0.7,1,0.8C58.3,50.3,58,50.6,57.8,51z M57.8,20c0.2,0.6,0.8,1.1,1.5,1.1
		c-0.6,0.1-1.2,0.4-1.5,0.9c-0.2-0.4-0.5-0.7-0.9-0.9C57.3,20.8,57.6,20.4,57.8,20z M54.1,16.6c0.2,0.3,0.5,0.6,0.8,0.8
		c-0.3,0.2-0.6,0.4-0.8,0.7c-0.2-0.3-0.4-0.5-0.7-0.7C53.7,17.2,53.9,17,54.1,16.6z M50.4,12.9c0.2,0.4,0.5,0.6,0.8,0.8
		c-0.4,0.2-0.6,0.4-0.9,0.8c-0.2-0.3-0.4-0.5-0.7-0.7C50,13.6,50.3,13.3,50.4,12.9z M46.7,8.8c0.1,0.6,0.5,1.1,1,1.3
		c-0.4,0.2-0.8,0.5-1,0.8c-0.2-0.4-0.5-0.7-0.9-0.9C46.3,9.8,46.6,9.3,46.7,8.8z M43.1,9.2c0.2,0.4,0.5,0.7,0.8,0.9
		c-0.3,0.2-0.6,0.4-0.8,0.7c-0.2-0.3-0.5-0.5-0.8-0.7C42.6,9.9,42.9,9.6,43.1,9.2z M39.4,9.4c0.2,0.3,0.4,0.6,0.7,0.8
		c-0.3,0.2-0.5,0.4-0.7,0.6c-0.2-0.3-0.4-0.5-0.7-0.6C39,9.9,39.3,9.7,39.4,9.4z M35.7,9.4c0.2,0.3,0.4,0.5,0.7,0.7
		c-0.2,0.1-0.5,0.3-0.6,0.5c-0.2-0.2-0.4-0.4-0.7-0.6C35.4,9.9,35.6,9.7,35.7,9.4z M32.1,9.3c0.2,0.3,0.4,0.6,0.7,0.8
		c-0.3,0.2-0.5,0.3-0.7,0.6c-0.2-0.2-0.4-0.4-0.7-0.6C31.7,9.9,31.9,9.6,32.1,9.3z M28.5,9.3c0.2,0.3,0.4,0.6,0.7,0.8
		c-0.3,0.2-0.6,0.4-0.8,0.7c-0.2-0.3-0.5-0.5-0.8-0.7C28,9.9,28.3,9.6,28.5,9.3z M24.8,9c0.1,0.5,0.4,0.9,0.9,1.1
		c-0.4,0.2-0.6,0.5-0.9,0.8c-0.2-0.4-0.5-0.7-0.9-0.8C24.3,9.8,24.6,9.4,24.8,9z M17.5,12.4c0.1,0.6,0.4,1.1,0.9,1.4
		c-0.4,0.2-0.7,0.5-0.9,0.9c-0.3-0.5-0.7-0.8-1.3-0.9C16.9,13.6,17.4,13.1,17.5,12.4z M13.8,16.1c0.1,0.6,0.5,1,0.9,1.3
		c-0.4,0.2-0.7,0.5-0.9,0.9c-0.3-0.5-0.8-0.8-1.3-0.9C13.1,17.3,13.6,16.8,13.8,16.1z M10.1,23.8c0.1,0.3,0.3,0.5,0.6,0.7v0.4
		c-0.2,0.2-0.4,0.4-0.6,0.7c-0.3-0.4-0.6-0.7-1.1-0.9C9.5,24.6,9.9,24.3,10.1,23.8z M10.1,105.7c-0.2-0.5-0.7-0.9-1.2-1
		c0.5-0.1,1-0.4,1.2-0.9c0.1,0.3,0.4,0.5,0.6,0.7v0.4C10.5,105.1,10.2,105.4,10.1,105.7z M17.4,112.8c-0.2-0.3-0.4-0.6-0.8-0.8
		c0.3-0.2,0.6-0.4,0.8-0.7c0.2,0.3,0.4,0.5,0.7,0.7C17.8,112.2,17.6,112.5,17.4,112.8z M21.1,117.3c0-0.7-0.4-1.3-1-1.5
		c0.4-0.1,0.8-0.4,1.1-0.8c0.2,0.3,0.5,0.6,0.9,0.8C21.5,116.1,21.1,116.6,21.1,117.3z M24.8,116.6c-0.2-0.4-0.4-0.6-0.8-0.8
		c0.3-0.1,0.6-0.4,0.8-0.6c0.2,0.3,0.4,0.5,0.7,0.6C25.2,116,24.9,116.3,24.8,116.6z M28.4,116.5c-0.1-0.3-0.4-0.5-0.6-0.7
		c0.2-0.1,0.4-0.3,0.6-0.5c0.2,0.2,0.4,0.4,0.6,0.5C28.8,115.9,28.6,116.2,28.4,116.5z M32.1,116.4c-0.1-0.2-0.3-0.5-0.5-0.6
		c0.2-0.1,0.4-0.3,0.6-0.5c0.2,0.2,0.3,0.3,0.5,0.4C32.4,115.9,32.2,116.1,32.1,116.4z M35.7,120.9c0-0.7-0.5-1.3-1.1-1.6
		c0.5-0.2,0.8-0.5,1.1-0.9c0.2,0.4,0.6,0.8,1.1,0.9C36.2,119.6,35.8,120.2,35.7,120.9z M39.4,116.4c-0.1-0.3-0.3-0.5-0.6-0.6
		c0.2-0.1,0.4-0.3,0.5-0.5c0.2,0.2,0.4,0.3,0.6,0.5C39.7,115.9,39.5,116.1,39.4,116.4z M43,116.5c-0.1-0.3-0.4-0.5-0.6-0.7
		c0.2-0.1,0.4-0.3,0.6-0.5c0.2,0.2,0.4,0.4,0.7,0.5C43.4,115.9,43.2,116.2,43,116.5z M46.7,116.8c-0.1-0.4-0.4-0.8-0.7-1
		c0.3-0.2,0.5-0.4,0.7-0.7c0.2,0.3,0.5,0.5,0.8,0.7C47.2,116,46.9,116.3,46.7,116.8z M54,112.9c-0.2-0.4-0.5-0.7-0.8-0.9
		c0.3-0.2,0.6-0.5,0.8-0.8c0.2,0.4,0.5,0.6,0.9,0.8C54.6,112.2,54.2,112.5,54,112.9z M57.7,105.5c-0.2-0.3-0.4-0.6-0.7-0.8
		c0.3-0.2,0.5-0.5,0.7-0.8c0.2,0.3,0.6,0.6,1,0.8C58.3,104.9,58,105.2,57.7,105.5z M61.4,36.8c-0.2-0.5-0.5-0.8-0.9-1.1
		c0.4-0.2,0.8-0.6,0.9-1c0.3,0.6,0.9,1,1.6,1C62.3,35.7,61.7,36.2,61.4,36.8z"/>
	<path class="st0" d="M66.7,32.4c-0.8,0-1.5,0.7-1.5,1.5c0,0.8,0.7,1.5,1.5,1.5c0.8,0,1.5-0.7,1.5-1.5
		C68.1,33.1,67.5,32.4,66.7,32.4z"/>
	<path class="st0" d="M70.3,32.8c-0.6,0-1.1,0.5-1.1,1.1c0,0.6,0.5,1.1,1.1,1.1c0.6,0,1.1-0.5,1.1-1.1
		C71.4,33.3,70.9,32.8,70.3,32.8z"/>
	<path class="st0" d="M1.2,36.4c-0.6,0-1.2,0.5-1.2,1.2c0,0.6,0.5,1.2,1.2,1.2c0.6,0,1.2-0.5,1.2-1.2C2.4,36.9,1.8,36.4,1.2,36.4z"
		/>
	<path class="st0" d="M66.7,36.1c-0.8,0-1.5,0.7-1.5,1.5c0,0.8,0.7,1.5,1.5,1.5c0.8,0,1.5-0.7,1.5-1.5
		C68.1,36.7,67.5,36.1,66.7,36.1z"/>
	<path class="st0" d="M70.3,36.5c-0.6,0-1.1,0.5-1.1,1.1c0,0.6,0.5,1.1,1.1,1.1c0.6,0,1.1-0.5,1.1-1.1
		C71.4,36.9,70.9,36.5,70.3,36.5z"/>
	<path class="st0" d="M1.2,40.1c-0.6,0-1.1,0.5-1.1,1.1s0.5,1.1,1.1,1.1c0.6,0,1.1-0.5,1.1-1.1S1.8,40.1,1.2,40.1z"/>
	<path class="st0" d="M4.8,39.6c-0.8,0-1.5,0.7-1.5,1.5s0.7,1.5,1.5,1.5c0.8,0,1.5-0.7,1.5-1.5S5.7,39.6,4.8,39.6z"/>
	<path class="st0" d="M66.7,39.8c-0.8,0-1.4,0.6-1.4,1.4s0.6,1.4,1.4,1.4c0.8,0,1.4-0.6,1.4-1.4S67.4,39.8,66.7,39.8z"/>
	<path class="st0" d="M70.3,40.1c-0.6,0-1,0.5-1,1c0,0.6,0.5,1,1,1c0.6,0,1-0.5,1-1C71.3,40.6,70.9,40.1,70.3,40.1z"/>
	<path class="st0" d="M1.2,43.8c-0.6,0-1,0.5-1,1c0,0.6,0.5,1,1,1c0.6,0,1-0.5,1-1C2.2,44.2,1.8,43.8,1.2,43.8z"/>
	<path class="st0" d="M4.8,43.3c-0.8,0-1.5,0.7-1.5,1.5c0,0.8,0.7,1.5,1.5,1.5c0.8,0,1.5-0.7,1.5-1.5C6.3,44,5.7,43.3,4.8,43.3z"/>
	<path class="st0" d="M66.7,43.5c-0.7,0-1.3,0.6-1.3,1.3c0,0.7,0.6,1.3,1.3,1.3c0.7,0,1.3-0.6,1.3-1.3C68,44.1,67.4,43.5,66.7,43.5z
		"/>
	<path class="st0" d="M70.3,43.9c-0.5,0-0.9,0.4-0.9,0.9c0,0.5,0.4,0.9,0.9,0.9c0.5,0,0.9-0.4,0.9-0.9
		C71.3,44.3,70.8,43.9,70.3,43.9z"/>
	<path class="st0" d="M1.2,49.4c0.5,0,0.9-0.4,0.9-0.9c0-0.4-0.3-0.7-0.6-0.9c-0.1,0-0.2-0.1-0.3-0.1c-0.1,0-0.2,0-0.3,0.1
		c-0.4,0.1-0.6,0.5-0.6,0.9C0.3,49,0.7,49.4,1.2,49.4z"/>
	<path class="st0" d="M4.8,49.8c0.7,0,1.3-0.6,1.3-1.3s-0.6-1.3-1.3-1.3c-0.7,0-1.3,0.6-1.3,1.3S4.1,49.8,4.8,49.8z"/>
	<path class="st0" d="M63,50c0.9,0,1.6-0.7,1.6-1.6s-0.7-1.6-1.6-1.6c-0.9,0-1.6,0.7-1.6,1.6S62.2,50,63,50z"/>
	<path class="st0" d="M66.7,49.6c0.6,0,1.2-0.5,1.2-1.2c0-0.5-0.3-0.9-0.8-1.1c-0.1-0.1-0.3-0.1-0.4-0.1c-0.1,0-0.3,0-0.4,0.1
		c-0.4,0.2-0.8,0.6-0.8,1.1C65.5,49.1,66,49.6,66.7,49.6z"/>
	<path class="st0" d="M70.3,49.3c0.5,0,0.8-0.4,0.8-0.8c0-0.4-0.2-0.7-0.5-0.8c-0.1,0-0.2-0.1-0.3-0.1c-0.1,0-0.2,0-0.3,0.1
		c-0.3,0.1-0.5,0.4-0.5,0.8C69.5,48.9,69.8,49.3,70.3,49.3z"/>
</g>
</svg>
