<?xml version="1.0" encoding="UTF-8"?><svg id="Strokes_W" xmlns="http://www.w3.org/2000/svg" viewBox="0 0 720 540"><defs><style>.cls-1{fill:none;stroke:#000;stroke-miterlimit:10;stroke-width:.1px;}</style></defs><path class="cls-1" d="M290.68,344.56l3.56-1.41m-19.42,26.36h15.89s18.89-10.31,18.89-10.31m-26.51-15.58l6.22,3.69,12.85-6.67v-2.83l5.91-3.21v-4.02m-18.76,16.73v-16.1l-5.83-3.24m23.09-5.68l-17.26,8.92m1.37,39.76v-22.15l-15.17,.03m18.73,18.75v-21.39l-1.25-.8m21.12-11.17l-10.57,5.6v20.21l12.21-6.47v-2.09m-21.51,13.83l6.97-3.91v-20.27m0,20.27l2.32,.88v-2.49m14.21-3.71v-1.29l-1.36,.72"/></svg>