<?xml version="1.0" encoding="UTF-8"?><svg id="Strokes_W" xmlns="http://www.w3.org/2000/svg" viewBox="0 0 720 540"><defs><style>.cls-1{fill:none;stroke:#000;stroke-miterlimit:10;stroke-width:.1px;}</style></defs><path class="cls-1" d="M350.34,300.08l-.06,8.96-6.98-3.43v-9.73m16.57,37.56v-5.81l-10.56-5.42v2.08m10.66,3.48l11.44-5.82m-11.74-7.67v-9.66m-24.62-4.56l2.91,1.44-.05,12.02,11.4,6.46v4.81m-16.09-23.7l2.91,1.44-.05,12.02,11.4,6.46v4.21m-11.34-22.69l1.85-1.03m12.86-10.44l-3.38,2.12,2.85,1.39m-12.39,18.95l-1.85,1.03m13.24,5.43l-1.85,1.03m23.21-11.27l-10.69,5.7-9.68-4.69v11.02m-13.98-30.05l8.14,3.7-.96,.45,7.84,3.81-.77,.46,.74,.36,8.41,4.13,9.76-5.2m-19.18,22.17l9.68,4.98,10.43-5.28m-21.11,.92l1.26-.58m9.4,4.94v-11.4"/></svg>