<?xml version="1.0" encoding="UTF-8"?><svg id="Strokes_W" xmlns="http://www.w3.org/2000/svg" viewBox="0 0 720 540"><defs><style>.cls-1{fill:none;stroke:#000;stroke-miterlimit:10;stroke-width:.1px;}</style></defs><path class="cls-1" d="M611.84,167.02l-10.03,5.21-12.13-6.36-9.15,5.02-9.55-5.5m-2.28,11.3l9.55,5.12s2.09-1.25,2.09-1.25l-9.55-5.23m9.68-4.41l-.13,9.78m-2.06,1.11v10.51m11.4-26.45v20.64m12.13-14.28v13.07m-7.08,5.68l8.75,4.32,15.31-8.12m-6.95-5.15l-1.8-1.06-15.62,8.23m-2.23,5.46l9.36,4.63,20.18-10.44m-20.18,10.44v5.91m-12.57-51.04l13.26,6.92,4.41-2.32m-4.45,7.23v-4.91m-15.02-3.99v1.09l15.02,7.82,4.76-2.49m-23.85-4.3v.82l18.78,9.71,7.15-3.92v-.41"/></svg>