<?xml version="1.0" encoding="UTF-8"?><svg id="Strokes_W" xmlns="http://www.w3.org/2000/svg" viewBox="0 0 720 540"><defs><style>.cls-1{fill:none;stroke:#000;stroke-miterlimit:10;stroke-width:.1px;}</style></defs><path class="cls-1" d="M219.67,329.53l-8.64,3.89-20.28-3.18-22.29,3.18-6.63-6.92m49.17,29.24v-22.32m15.34,22.32h-58.15m2.62-54.67l3.97,4.99,21.26-.55,13.69,2.06,2.78-2.06m-42.05,17.9l4.41,5.79,18.94-1.38,15.98,2.85,4.09-5.24v-1.85m-4.14-16v22.93m-34.86-1.31l-.09-23.14m-6.31,27.37v33.26m0-10.84l17.73-3.52,24.8,3.41,9.4-4.54m-34.21,1.13l2.28-21.57m7.57-25.26l-2.24,22.3"/></svg>