<?xml version="1.0" encoding="UTF-8"?><svg id="Strokes_W" xmlns="http://www.w3.org/2000/svg" viewBox="0 0 720 540"><defs><style>.cls-1{fill:none;stroke:#000;stroke-miterlimit:10;stroke-width:.1px;}</style></defs><path class="cls-1" d="M487.3,220.09l-14.48,8.3-10.54-5.41m33.39,17.03l-7.89,4.13,9.07,4.9,15.22-8.55m-37.9-12.82l12.24,6.48,8.56-4.83m-22.3-.65l-.24,19.97m23.74,12.23v-6.13l-17.74-9.17v4.36m9.43-1.79l-1.37,.69m10.37,4.11,13.27-9.58l2.33,1.7,3.96-2.07m-3.96,2.07v7.07m-1.45-7.92v7.28m-14.83,3.26l5.57-3.09v-1.94l-1.15-.72m1.21,.69l4.43-2.58-1.26-.73m-8.11,2.76v3.82m-10.39-18.81v14.5m1.35-.48l-.03-4.03m-3.6-22.14l3.35,1.83m18.82,30.62v-7.3"/></svg>