<?xml version="1.0" encoding="UTF-8"?><svg id="Strokes_W" xmlns="http://www.w3.org/2000/svg" viewBox="0 0 720 540"><defs><style>.cls-1{fill:none;stroke:#000;stroke-miterlimit:10;stroke-width:.1px;}</style></defs><path class="cls-1" d="M328.91,342.97l-9.96,4.66-3.53-1.7-48.34,22h-35.36m-33.1-22.31l3.49,7.39c4.92,9.9,10.37,10.77,28.01,10.77m0,0h37.22l48.07-22,3.46,1.6,10.03-4.82m-100.06,20.96c13.28,0,22.05-2.36,22.05-2.36-35.09-5.51-29.56-24.01-28.1-28.75m4.83-2.5c-1.99,5.49-2.67,11.99,5.55,18.19,14.16,10.68,30.28,7.1,30.28,7.1m-28.06,12.58c23.9,0,30.46-3.02,32.92-4l54.13-27m-.86-1.87s-17.51-9.66-58.14,20.29"/></svg>