<?xml version="1.0" encoding="UTF-8"?><svg id="Strokes_W" xmlns="http://www.w3.org/2000/svg" viewBox="0 0 720 540"><defs><style>.cls-1{fill:none;stroke:#000;stroke-miterlimit:10;stroke-width:.1px;}</style></defs><path class="cls-1" d="M290.03,288.23l-.03-26.84m-9.22-9.18l-4.07,1.99,13.28,7.19,5.61-2.9m-30.74,23.21l17.22,4.7,8.6,4.47,7.47-3.86m-16.07,19.46l8.6,4.47,7.47-3.86m-34.14-1.34l20.22,10.36,13.92-7.13m-29.89-29.6l12.03,3.87v-23.3l-12.99-4.18m-2.6,45.77l17.38,4.94v-20.06m7.84-21.52l-9.64-4.95m-3.58-5.73v3.12m3.58,25.91l9.73,5,5.48-2.92m-4.82,5.56v20.06"/></svg>