<?xml version="1.0" encoding="UTF-8"?><svg id="Strokes_B" xmlns="http://www.w3.org/2000/svg" viewBox="0 0 720 540"><defs><style>.cls-1{fill:none;stroke:#000;stroke-miterlimit:10;stroke-width:.1px;}</style></defs><path class="cls-1" d="M276.67,249.43l-10.79,5.6,.02,23.98,.88,.29v.59s-3.85,1.02-3.85,1.02c0,8.44-.02,20.51-.02,20.51l.49,.13-.06,2.49-.99,.57v7.86l21.81,11.4,15.99-8.27v-7.8l-.6-.4v-.69s.23-.16,.23-.16v-20.39l-2.83-1.64v-26.67l-14.12-7.4-1.67,.55c-.2,.07-.42,.05-.61-.03l-3.4-1.57c-.15-.07-.33-.07-.48,.01Z"/></svg>