<?xml version="1.0" encoding="UTF-8"?><svg id="Strokes_B" xmlns="http://www.w3.org/2000/svg" viewBox="0 0 720 540"><defs><style>.cls-1{fill:none;stroke:#000;stroke-miterlimit:10;stroke-width:.1px;}</style></defs><path class="cls-1" d="M324.53,331.74c-.04-.46-.52-.86-1.8-2.47-1.2-1.51-5.02-3.91-10.16-6.66v-2.85l-16.2-8.15-6.48,3.29s-21.45-11.72-24.97-12.19c-17.7-2.37-36.66,18.64-36.66,18.64,0,0-.92,1.28-1.97,3.29-13.69,8.09-27.25,16.37-28.58,18.15-2.76,3.69-2.6,.84,4.12,14.36,4.92,9.9,10.37,10.77,28.01,10.77v4.24h36.87l19.13-9.96,30.46-7.89,14.1-7.48,.4-11.13-6.28-3.98Zm-107.15,25.86c-2.05,2.11-5.24,.23-8.72-2.99-3.48-3.21-5.81-9.9-2.87-10.37,3.49-.55,7.45,2.32,10.93,5.53,3.48,3.21,2.71,5.71,.66,7.82Zm-66.54,14.64l-4.4-5.83,14.3-6.02,6.6,8.13v3.72h-16.51Z"/></svg>