<svg xmlns="http://www.w3.org/2000/svg" viewBox="0 0 111.21 97.88"><defs><style>.cls-1{opacity:0.5;}.cls-2{opacity:0.07;}.cls-3{fill:#5cb867;stroke:#000;stroke-width:3px;}.cls-3,.cls-4{stroke-miterlimit:10;}.cls-4{fill:none;stroke:#fff;}</style></defs><g id="Buildings_AYPP"><polygon class="cls-3" points="4.39 20.27 34.24 4.64 36.08 5.56 40.02 4.18 54.99 13.7 54.99 25.61 68.54 32.69 68.54 51.32 71 52.83 84.05 45.4 106.83 57.04 106.83 73.28 98.26 78.18 94.59 76.34 87.69 80.78 87.69 82.93 68.08 93.65 35.17 76.5 35.17 73.9 28.73 70.06 25.66 71.9 4.37 60.57 4.39 20.27"/><polyline class="cls-4" points="7.52 22.94 26.35 32.6 52.23 17.77"/><polyline class="cls-4" points="96.5 54.22 69.31 69.5 53.1 60.74 67.19 53.36"/><polyline class="cls-4" points="65.95 34.27 50.66 42.9 28.78 31.31"/><line class="cls-4" x1="28.73" y1="66.39" x2="28.73" y2="31.77"/><line class="cls-4" x1="26.1" y1="33.11" x2="25.66" y2="68.8"/><polyline class="cls-4" points="36.38 71.12 36.38 63.33 68.08 79.72 68.08 90.66"/><polyline class="cls-4" points="104.25 58.71 97.18 62.41 93.02 59.37"/><line class="cls-4" x1="97.18" y1="62.41" x2="97.18" y2="75.04"/><line class="cls-4" x1="94.59" y1="60.88" x2="94.59" y2="73.89"/><polyline class="cls-4" points="75.98 69.44 78.04 70.73 78.04 85.38 78.04 74.2 68.08 79.72"/><polyline class="cls-4" points="78.14 70.67 86.05 66.05 83.79 64.75"/><line class="cls-4" x1="69.31" y1="69.68" x2="69.31" y2="76.5"/><line class="cls-4" x1="50.74" y1="42.9" x2="50.74" y2="68.8"/><line class="cls-4" x1="53.1" y1="60.74" x2="53.16" y2="67.93"/><line class="cls-4" x1="46.67" y1="21.18" x2="52.65" y2="24.45"/><line class="cls-4" x1="86.29" y1="79.17" x2="86.29" y2="66.14"/></g></svg>