<?xml version="1.0" encoding="utf-8"?>
<!-- Generator: Adobe Illustrator 25.4.1, SVG Export Plug-In . SVG Version: 6.00 Build 0)  -->
<svg version="1.1" id="Strokes_B" xmlns="http://www.w3.org/2000/svg" xmlns:xlink="http://www.w3.org/1999/xlink" x="0px" y="0px"
	 width="800px" height="600px" viewBox="0 0 800 600" style="enable-background:new 0 0 800 600;" xml:space="preserve">
<style type="text/css">
	.st0{fill:none;stroke:#000000;stroke-miterlimit:10;}
</style>
<path class="st0" d="M365.1,367.2c0-0.5-0.6-1-2-2.8c-1.3-1.7-5.6-4.4-11.3-7.4v-3.2l-18.1-9.1l-7.2,3.7c0,0-23.9-13.1-27.8-13.6
	c-19.7-2.6-40.9,20.8-40.9,20.8s-1,1.4-2.2,3.7c-15.3,9-30.4,18.2-31.9,20.2c-3.1,4.1-2.9,0.9,4.6,16c5.5,11,11.6,12,31.2,12v4.7
	c0,0,15.6,0,21.4,0c5.8,0,12.2,0,12.2,0h7.5l21.3-11.1l34-8.8l15.7-8.3l0.4-12.4L365.1,367.2z M245.7,396c-2.3,2.4-5.8,0.3-9.7-3.3
	c-3.9-3.6-6.5-11-3.2-11.6c3.9-0.6,8.3,2.6,12.2,6.2C248.8,390.9,248,393.7,245.7,396z M171.5,412.4l-4.9-6.5l15.9-6.7l7.4,9.1v4.1
	C185.2,412.4,171.5,412.4,171.5,412.4z"/>
</svg>
